M48
; DRILL file {KiCad 5.1.5+dfsg1-2build2} date Sun 06 Dec 2020 09:44:26 PM EST
; FORMAT={-:-/ absolute / metric / decimal}
; #@! TF.CreationDate,2020-12-06T21:44:26-05:00
; #@! TF.GenerationSoftware,Kicad,Pcbnew,5.1.5+dfsg1-2build2
FMAT,2
METRIC
T1C0.200
T2C0.400
T3C0.450
T4C0.600
T5C0.750
T6C0.850
T7C1.000
T8C1.100
T9C3.200
%
G90
G05
T1
X77.907Y-56.553
X77.907Y-57.553
X77.907Y-58.553
X79.207Y-56.553
X79.207Y-57.553
X79.207Y-58.553
X98.33Y-44.61
X98.33Y-45.61
X98.33Y-46.61
X99.33Y-44.61
X99.33Y-45.61
X99.33Y-46.61
X100.33Y-44.61
X100.33Y-45.61
X100.33Y-46.61
X93.079Y-73.389
X93.654Y-72.439
X93.654Y-74.339
X94.229Y-73.389
X94.049Y-57.144
X94.624Y-56.194
X94.624Y-58.094
X95.199Y-57.144
T2
X40.513Y-41.91
X40.564Y-50.978
X42.189Y-50.952
X42.316Y-41.935
X44.196Y-50.978
X44.729Y-41.986
X44.729Y-49.2
X44.755Y-43.84
X45.009Y-47.777
X46.66Y-48.285
X46.761Y-41.986
X48.362Y-47.65
X48.59Y-45.212
X48.616Y-41.961
X50.114Y-43.815
X50.622Y-45.263
X51.92Y-47.168
X52.222Y-42.647
X52.324Y-45.187
X53.61Y-41.575
X54.61Y-41.605
X54.991Y-50.14
X55.016Y-46.812
X55.067Y-48.539
X55.626Y-43.612
X56.251Y-40.852
X56.794Y-50.14
X56.896Y-46.888
X56.9Y-48.7
X58.598Y-48.666
X58.649Y-50.14
X58.75Y-46.787
X72.288Y-37.287
X75.39Y-52.8
X76.08Y-60.81
X78.15Y-54.12
X81.83Y-95.74
X84.45Y-56.93
X85.71Y-48.71
X90.359Y-68.88
X90.379Y-69.75
X91.39Y-69.76
X91.409Y-68.87
X92.08Y-60.12
X97.13Y-36.23
X99.0Y-74.2
X100.0Y-57.0
X100.0Y-73.6
X102.4Y-55.6
X105.45Y-48.715
X106.8Y-57.2
X107.0Y-55.8
T3
X46.4Y-57.2
X48.7Y-54.9
X49.689Y-52.239
X50.1Y-53.2
X52.0Y-53.2
X52.999Y-53.252
X53.27Y-45.271
X53.4Y-80.4
X53.595Y-53.998
X54.205Y-79.878
X54.4Y-54.6
X55.5Y-77.7
X55.556Y-54.805
X56.224Y-55.408
X56.393Y-77.59
X56.8Y-56.1
X57.547Y-81.253
X57.859Y-53.614
X57.9Y-38.4
X58.2Y-88.0
X58.2Y-96.0
X58.4Y-103.2
X58.7Y-56.2
X59.6Y-85.0
X59.6Y-92.0
X59.6Y-100.0
X59.8Y-107.4
X60.5Y-52.3
X61.4Y-81.4
X61.4Y-88.4
X61.4Y-96.2
X61.573Y-43.763
X61.6Y-103.6
X61.7Y-42.8
X63.0Y-47.9
X63.827Y-49.127
X64.0Y-55.8
X64.9Y-57.6
X67.1Y-38.3
X68.0Y-40.5
X68.8Y-43.3
X70.1Y-40.6
X70.1Y-42.5
X70.127Y-41.5
X70.5Y-66.0
X70.8Y-46.2
X70.9Y-44.0
X72.375Y-50.3
X72.6Y-53.1
X74.2Y-57.0
X74.2Y-58.2
X75.3Y-46.8
X76.0Y-101.6
X76.4Y-51.5
X77.4Y-50.7
X81.89Y-99.61
X84.4Y-35.8
X86.1Y-89.3
X87.5Y-95.6
X90.5Y-92.8
X90.9Y-99.7
X91.7Y-92.0
X93.4Y-42.5
X93.8Y-46.0
X95.1Y-47.1
X95.9Y-99.3
X96.6Y-41.7
X96.7Y-39.1
X99.1Y-36.6
X99.2Y-97.2
X99.445Y-41.345
X100.2Y-101.7
X100.7Y-99.4
X101.9Y-98.5
X102.5Y-49.765
X103.002Y-44.891
X103.1Y-45.9
X103.8Y-49.6
X106.425Y-95.876
X107.4Y-95.9
X107.4Y-97.0
X109.0Y-44.7
X110.0Y-44.9
X111.1Y-44.7
X111.7Y-89.3
X112.5Y-95.7
X112.5Y-96.8
T5
X76.2Y-33.02
X78.2Y-33.02
T6
X96.7Y-34.663
X101.7Y-34.663
T7
X109.22Y-33.02
X111.76Y-33.02
X71.12Y-106.68
X71.12Y-109.22
X71.12Y-111.76
X112.68Y-99.46
X112.68Y-102.0
X112.68Y-104.54
X112.68Y-107.08
X112.68Y-109.62
X112.68Y-112.16
X44.704Y-74.546
X44.704Y-77.086
X86.36Y-106.68
X86.36Y-109.22
X86.36Y-111.76
X44.504Y-90.186
X44.504Y-92.726
X94.24Y-104.34
X94.24Y-106.88
X94.24Y-109.42
X94.24Y-111.96
X44.504Y-105.426
X44.504Y-107.966
X46.711Y-43.84
X46.711Y-46.38
X104.902Y-53.619
X104.902Y-56.159
X104.902Y-58.699
X86.36Y-33.02
X88.9Y-33.02
X99.32Y-104.34
X99.32Y-106.88
X99.32Y-109.42
X99.32Y-111.96
X84.226Y-39.345
X86.766Y-39.345
X89.306Y-39.345
X76.2Y-106.68
X76.2Y-109.22
X76.2Y-111.76
X81.28Y-106.68
X81.28Y-109.22
X81.28Y-111.76
X49.784Y-72.006
X49.784Y-74.546
X49.784Y-77.086
X107.6Y-99.46
X107.6Y-102.0
X107.6Y-104.54
X107.6Y-107.08
X107.6Y-109.62
X107.6Y-112.16
X44.504Y-97.806
X44.504Y-100.346
X44.504Y-82.566
X44.504Y-85.106
T8
X57.15Y-60.556
X57.15Y-67.056
X61.65Y-60.556
X61.65Y-67.056
X45.466Y-60.556
X45.466Y-67.056
X49.966Y-60.556
X49.966Y-67.056
T9
X43.0Y-34.0
X43.0Y-114.0
X123.0Y-34.0
X123.0Y-114.0
T4
G00X95.7Y-32.312
M15
G01X95.7Y-31.612
M16
G05
G00X102.7Y-31.612
M15
G01X102.7Y-32.312
M16
G05
T0
M30
