G04 #@! TF.GenerationSoftware,KiCad,Pcbnew,5.1.5+dfsg1-2build2*
G04 #@! TF.CreationDate,2020-12-06T21:49:48-05:00*
G04 #@! TF.ProjectId,eboard,65626f61-7264-42e6-9b69-6361645f7063,rev?*
G04 #@! TF.SameCoordinates,Original*
G04 #@! TF.FileFunction,Soldermask,Bot*
G04 #@! TF.FilePolarity,Negative*
%FSLAX46Y46*%
G04 Gerber Fmt 4.6, Leading zero omitted, Abs format (unit mm)*
G04 Created by KiCad (PCBNEW 5.1.5+dfsg1-2build2) date 2020-12-06 21:49:48*
%MOMM*%
%LPD*%
G04 APERTURE LIST*
%ADD10C,0.100000*%
G04 APERTURE END LIST*
D10*
G36*
X123375256Y-112391298D02*
G01*
X123481579Y-112412447D01*
X123782042Y-112536903D01*
X124052451Y-112717585D01*
X124282415Y-112947549D01*
X124463097Y-113217958D01*
X124587553Y-113518421D01*
X124651000Y-113837391D01*
X124651000Y-114162609D01*
X124587553Y-114481579D01*
X124463097Y-114782042D01*
X124282415Y-115052451D01*
X124052451Y-115282415D01*
X123782042Y-115463097D01*
X123481579Y-115587553D01*
X123375256Y-115608702D01*
X123162611Y-115651000D01*
X122837389Y-115651000D01*
X122624744Y-115608702D01*
X122518421Y-115587553D01*
X122217958Y-115463097D01*
X121947549Y-115282415D01*
X121717585Y-115052451D01*
X121536903Y-114782042D01*
X121412447Y-114481579D01*
X121349000Y-114162609D01*
X121349000Y-113837391D01*
X121412447Y-113518421D01*
X121536903Y-113217958D01*
X121717585Y-112947549D01*
X121947549Y-112717585D01*
X122217958Y-112536903D01*
X122518421Y-112412447D01*
X122624744Y-112391298D01*
X122837389Y-112349000D01*
X123162611Y-112349000D01*
X123375256Y-112391298D01*
G37*
G36*
X43375256Y-112391298D02*
G01*
X43481579Y-112412447D01*
X43782042Y-112536903D01*
X44052451Y-112717585D01*
X44282415Y-112947549D01*
X44463097Y-113217958D01*
X44587553Y-113518421D01*
X44651000Y-113837391D01*
X44651000Y-114162609D01*
X44587553Y-114481579D01*
X44463097Y-114782042D01*
X44282415Y-115052451D01*
X44052451Y-115282415D01*
X43782042Y-115463097D01*
X43481579Y-115587553D01*
X43375256Y-115608702D01*
X43162611Y-115651000D01*
X42837389Y-115651000D01*
X42624744Y-115608702D01*
X42518421Y-115587553D01*
X42217958Y-115463097D01*
X41947549Y-115282415D01*
X41717585Y-115052451D01*
X41536903Y-114782042D01*
X41412447Y-114481579D01*
X41349000Y-114162609D01*
X41349000Y-113837391D01*
X41412447Y-113518421D01*
X41536903Y-113217958D01*
X41717585Y-112947549D01*
X41947549Y-112717585D01*
X42217958Y-112536903D01*
X42518421Y-112412447D01*
X42624744Y-112391298D01*
X42837389Y-112349000D01*
X43162611Y-112349000D01*
X43375256Y-112391298D01*
G37*
G36*
X113581000Y-113061000D02*
G01*
X111779000Y-113061000D01*
X111779000Y-111259000D01*
X113581000Y-111259000D01*
X113581000Y-113061000D01*
G37*
G36*
X108501000Y-113061000D02*
G01*
X106699000Y-113061000D01*
X106699000Y-111259000D01*
X108501000Y-111259000D01*
X108501000Y-113061000D01*
G37*
G36*
X100221000Y-112861000D02*
G01*
X98419000Y-112861000D01*
X98419000Y-111059000D01*
X100221000Y-111059000D01*
X100221000Y-112861000D01*
G37*
G36*
X95141000Y-112861000D02*
G01*
X93339000Y-112861000D01*
X93339000Y-111059000D01*
X95141000Y-111059000D01*
X95141000Y-112861000D01*
G37*
G36*
X87261000Y-112661000D02*
G01*
X85459000Y-112661000D01*
X85459000Y-110859000D01*
X87261000Y-110859000D01*
X87261000Y-112661000D01*
G37*
G36*
X72021000Y-112661000D02*
G01*
X70219000Y-112661000D01*
X70219000Y-110859000D01*
X72021000Y-110859000D01*
X72021000Y-112661000D01*
G37*
G36*
X82181000Y-112661000D02*
G01*
X80379000Y-112661000D01*
X80379000Y-110859000D01*
X82181000Y-110859000D01*
X82181000Y-112661000D01*
G37*
G36*
X77101000Y-112661000D02*
G01*
X75299000Y-112661000D01*
X75299000Y-110859000D01*
X77101000Y-110859000D01*
X77101000Y-112661000D01*
G37*
G36*
X107694508Y-108720147D02*
G01*
X107862812Y-108753624D01*
X108026784Y-108821544D01*
X108174354Y-108920147D01*
X108299853Y-109045646D01*
X108398456Y-109193216D01*
X108466376Y-109357188D01*
X108501000Y-109531259D01*
X108501000Y-109708741D01*
X108466376Y-109882812D01*
X108398456Y-110046784D01*
X108299853Y-110194354D01*
X108174354Y-110319853D01*
X108026784Y-110418456D01*
X107862812Y-110486376D01*
X107713512Y-110516073D01*
X107688742Y-110521000D01*
X107511258Y-110521000D01*
X107486488Y-110516073D01*
X107337188Y-110486376D01*
X107173216Y-110418456D01*
X107025646Y-110319853D01*
X106900147Y-110194354D01*
X106801544Y-110046784D01*
X106733624Y-109882812D01*
X106699000Y-109708741D01*
X106699000Y-109531259D01*
X106733624Y-109357188D01*
X106801544Y-109193216D01*
X106900147Y-109045646D01*
X107025646Y-108920147D01*
X107173216Y-108821544D01*
X107337188Y-108753624D01*
X107505492Y-108720147D01*
X107511258Y-108719000D01*
X107688742Y-108719000D01*
X107694508Y-108720147D01*
G37*
G36*
X112774508Y-108720147D02*
G01*
X112942812Y-108753624D01*
X113106784Y-108821544D01*
X113254354Y-108920147D01*
X113379853Y-109045646D01*
X113478456Y-109193216D01*
X113546376Y-109357188D01*
X113581000Y-109531259D01*
X113581000Y-109708741D01*
X113546376Y-109882812D01*
X113478456Y-110046784D01*
X113379853Y-110194354D01*
X113254354Y-110319853D01*
X113106784Y-110418456D01*
X112942812Y-110486376D01*
X112793512Y-110516073D01*
X112768742Y-110521000D01*
X112591258Y-110521000D01*
X112566488Y-110516073D01*
X112417188Y-110486376D01*
X112253216Y-110418456D01*
X112105646Y-110319853D01*
X111980147Y-110194354D01*
X111881544Y-110046784D01*
X111813624Y-109882812D01*
X111779000Y-109708741D01*
X111779000Y-109531259D01*
X111813624Y-109357188D01*
X111881544Y-109193216D01*
X111980147Y-109045646D01*
X112105646Y-108920147D01*
X112253216Y-108821544D01*
X112417188Y-108753624D01*
X112585492Y-108720147D01*
X112591258Y-108719000D01*
X112768742Y-108719000D01*
X112774508Y-108720147D01*
G37*
G36*
X99414508Y-108520147D02*
G01*
X99582812Y-108553624D01*
X99746784Y-108621544D01*
X99894354Y-108720147D01*
X100019853Y-108845646D01*
X100118456Y-108993216D01*
X100186376Y-109157188D01*
X100221000Y-109331259D01*
X100221000Y-109508741D01*
X100186376Y-109682812D01*
X100118456Y-109846784D01*
X100019853Y-109994354D01*
X99894354Y-110119853D01*
X99746784Y-110218456D01*
X99582812Y-110286376D01*
X99433512Y-110316073D01*
X99408742Y-110321000D01*
X99231258Y-110321000D01*
X99206488Y-110316073D01*
X99057188Y-110286376D01*
X98893216Y-110218456D01*
X98745646Y-110119853D01*
X98620147Y-109994354D01*
X98521544Y-109846784D01*
X98453624Y-109682812D01*
X98419000Y-109508741D01*
X98419000Y-109331259D01*
X98453624Y-109157188D01*
X98521544Y-108993216D01*
X98620147Y-108845646D01*
X98745646Y-108720147D01*
X98893216Y-108621544D01*
X99057188Y-108553624D01*
X99225492Y-108520147D01*
X99231258Y-108519000D01*
X99408742Y-108519000D01*
X99414508Y-108520147D01*
G37*
G36*
X94334508Y-108520147D02*
G01*
X94502812Y-108553624D01*
X94666784Y-108621544D01*
X94814354Y-108720147D01*
X94939853Y-108845646D01*
X95038456Y-108993216D01*
X95106376Y-109157188D01*
X95141000Y-109331259D01*
X95141000Y-109508741D01*
X95106376Y-109682812D01*
X95038456Y-109846784D01*
X94939853Y-109994354D01*
X94814354Y-110119853D01*
X94666784Y-110218456D01*
X94502812Y-110286376D01*
X94353512Y-110316073D01*
X94328742Y-110321000D01*
X94151258Y-110321000D01*
X94126488Y-110316073D01*
X93977188Y-110286376D01*
X93813216Y-110218456D01*
X93665646Y-110119853D01*
X93540147Y-109994354D01*
X93441544Y-109846784D01*
X93373624Y-109682812D01*
X93339000Y-109508741D01*
X93339000Y-109331259D01*
X93373624Y-109157188D01*
X93441544Y-108993216D01*
X93540147Y-108845646D01*
X93665646Y-108720147D01*
X93813216Y-108621544D01*
X93977188Y-108553624D01*
X94145492Y-108520147D01*
X94151258Y-108519000D01*
X94328742Y-108519000D01*
X94334508Y-108520147D01*
G37*
G36*
X86473512Y-108323927D02*
G01*
X86622812Y-108353624D01*
X86786784Y-108421544D01*
X86934354Y-108520147D01*
X87059853Y-108645646D01*
X87158456Y-108793216D01*
X87226376Y-108957188D01*
X87261000Y-109131259D01*
X87261000Y-109308741D01*
X87226376Y-109482812D01*
X87158456Y-109646784D01*
X87059853Y-109794354D01*
X86934354Y-109919853D01*
X86786784Y-110018456D01*
X86622812Y-110086376D01*
X86473512Y-110116073D01*
X86448742Y-110121000D01*
X86271258Y-110121000D01*
X86246488Y-110116073D01*
X86097188Y-110086376D01*
X85933216Y-110018456D01*
X85785646Y-109919853D01*
X85660147Y-109794354D01*
X85561544Y-109646784D01*
X85493624Y-109482812D01*
X85459000Y-109308741D01*
X85459000Y-109131259D01*
X85493624Y-108957188D01*
X85561544Y-108793216D01*
X85660147Y-108645646D01*
X85785646Y-108520147D01*
X85933216Y-108421544D01*
X86097188Y-108353624D01*
X86246488Y-108323927D01*
X86271258Y-108319000D01*
X86448742Y-108319000D01*
X86473512Y-108323927D01*
G37*
G36*
X71233512Y-108323927D02*
G01*
X71382812Y-108353624D01*
X71546784Y-108421544D01*
X71694354Y-108520147D01*
X71819853Y-108645646D01*
X71918456Y-108793216D01*
X71986376Y-108957188D01*
X72021000Y-109131259D01*
X72021000Y-109308741D01*
X71986376Y-109482812D01*
X71918456Y-109646784D01*
X71819853Y-109794354D01*
X71694354Y-109919853D01*
X71546784Y-110018456D01*
X71382812Y-110086376D01*
X71233512Y-110116073D01*
X71208742Y-110121000D01*
X71031258Y-110121000D01*
X71006488Y-110116073D01*
X70857188Y-110086376D01*
X70693216Y-110018456D01*
X70545646Y-109919853D01*
X70420147Y-109794354D01*
X70321544Y-109646784D01*
X70253624Y-109482812D01*
X70219000Y-109308741D01*
X70219000Y-109131259D01*
X70253624Y-108957188D01*
X70321544Y-108793216D01*
X70420147Y-108645646D01*
X70545646Y-108520147D01*
X70693216Y-108421544D01*
X70857188Y-108353624D01*
X71006488Y-108323927D01*
X71031258Y-108319000D01*
X71208742Y-108319000D01*
X71233512Y-108323927D01*
G37*
G36*
X81393512Y-108323927D02*
G01*
X81542812Y-108353624D01*
X81706784Y-108421544D01*
X81854354Y-108520147D01*
X81979853Y-108645646D01*
X82078456Y-108793216D01*
X82146376Y-108957188D01*
X82181000Y-109131259D01*
X82181000Y-109308741D01*
X82146376Y-109482812D01*
X82078456Y-109646784D01*
X81979853Y-109794354D01*
X81854354Y-109919853D01*
X81706784Y-110018456D01*
X81542812Y-110086376D01*
X81393512Y-110116073D01*
X81368742Y-110121000D01*
X81191258Y-110121000D01*
X81166488Y-110116073D01*
X81017188Y-110086376D01*
X80853216Y-110018456D01*
X80705646Y-109919853D01*
X80580147Y-109794354D01*
X80481544Y-109646784D01*
X80413624Y-109482812D01*
X80379000Y-109308741D01*
X80379000Y-109131259D01*
X80413624Y-108957188D01*
X80481544Y-108793216D01*
X80580147Y-108645646D01*
X80705646Y-108520147D01*
X80853216Y-108421544D01*
X81017188Y-108353624D01*
X81166488Y-108323927D01*
X81191258Y-108319000D01*
X81368742Y-108319000D01*
X81393512Y-108323927D01*
G37*
G36*
X76313512Y-108323927D02*
G01*
X76462812Y-108353624D01*
X76626784Y-108421544D01*
X76774354Y-108520147D01*
X76899853Y-108645646D01*
X76998456Y-108793216D01*
X77066376Y-108957188D01*
X77101000Y-109131259D01*
X77101000Y-109308741D01*
X77066376Y-109482812D01*
X76998456Y-109646784D01*
X76899853Y-109794354D01*
X76774354Y-109919853D01*
X76626784Y-110018456D01*
X76462812Y-110086376D01*
X76313512Y-110116073D01*
X76288742Y-110121000D01*
X76111258Y-110121000D01*
X76086488Y-110116073D01*
X75937188Y-110086376D01*
X75773216Y-110018456D01*
X75625646Y-109919853D01*
X75500147Y-109794354D01*
X75401544Y-109646784D01*
X75333624Y-109482812D01*
X75299000Y-109308741D01*
X75299000Y-109131259D01*
X75333624Y-108957188D01*
X75401544Y-108793216D01*
X75500147Y-108645646D01*
X75625646Y-108520147D01*
X75773216Y-108421544D01*
X75937188Y-108353624D01*
X76086488Y-108323927D01*
X76111258Y-108319000D01*
X76288742Y-108319000D01*
X76313512Y-108323927D01*
G37*
G36*
X45405000Y-108867000D02*
G01*
X43603000Y-108867000D01*
X43603000Y-107065000D01*
X45405000Y-107065000D01*
X45405000Y-108867000D01*
G37*
G36*
X112774508Y-106180147D02*
G01*
X112942812Y-106213624D01*
X113106784Y-106281544D01*
X113254354Y-106380147D01*
X113379853Y-106505646D01*
X113478456Y-106653216D01*
X113546376Y-106817188D01*
X113581000Y-106991259D01*
X113581000Y-107168741D01*
X113546376Y-107342812D01*
X113478456Y-107506784D01*
X113379853Y-107654354D01*
X113254354Y-107779853D01*
X113106784Y-107878456D01*
X112942812Y-107946376D01*
X112793512Y-107976073D01*
X112768742Y-107981000D01*
X112591258Y-107981000D01*
X112566488Y-107976073D01*
X112417188Y-107946376D01*
X112253216Y-107878456D01*
X112105646Y-107779853D01*
X111980147Y-107654354D01*
X111881544Y-107506784D01*
X111813624Y-107342812D01*
X111779000Y-107168741D01*
X111779000Y-106991259D01*
X111813624Y-106817188D01*
X111881544Y-106653216D01*
X111980147Y-106505646D01*
X112105646Y-106380147D01*
X112253216Y-106281544D01*
X112417188Y-106213624D01*
X112585492Y-106180147D01*
X112591258Y-106179000D01*
X112768742Y-106179000D01*
X112774508Y-106180147D01*
G37*
G36*
X107694508Y-106180147D02*
G01*
X107862812Y-106213624D01*
X108026784Y-106281544D01*
X108174354Y-106380147D01*
X108299853Y-106505646D01*
X108398456Y-106653216D01*
X108466376Y-106817188D01*
X108501000Y-106991259D01*
X108501000Y-107168741D01*
X108466376Y-107342812D01*
X108398456Y-107506784D01*
X108299853Y-107654354D01*
X108174354Y-107779853D01*
X108026784Y-107878456D01*
X107862812Y-107946376D01*
X107713512Y-107976073D01*
X107688742Y-107981000D01*
X107511258Y-107981000D01*
X107486488Y-107976073D01*
X107337188Y-107946376D01*
X107173216Y-107878456D01*
X107025646Y-107779853D01*
X106900147Y-107654354D01*
X106801544Y-107506784D01*
X106733624Y-107342812D01*
X106699000Y-107168741D01*
X106699000Y-106991259D01*
X106733624Y-106817188D01*
X106801544Y-106653216D01*
X106900147Y-106505646D01*
X107025646Y-106380147D01*
X107173216Y-106281544D01*
X107337188Y-106213624D01*
X107505492Y-106180147D01*
X107511258Y-106179000D01*
X107688742Y-106179000D01*
X107694508Y-106180147D01*
G37*
G36*
X94334508Y-105980147D02*
G01*
X94502812Y-106013624D01*
X94666784Y-106081544D01*
X94814354Y-106180147D01*
X94939853Y-106305646D01*
X95038456Y-106453216D01*
X95106376Y-106617188D01*
X95141000Y-106791259D01*
X95141000Y-106968741D01*
X95106376Y-107142812D01*
X95038456Y-107306784D01*
X94939853Y-107454354D01*
X94814354Y-107579853D01*
X94666784Y-107678456D01*
X94502812Y-107746376D01*
X94353512Y-107776073D01*
X94328742Y-107781000D01*
X94151258Y-107781000D01*
X94126488Y-107776073D01*
X93977188Y-107746376D01*
X93813216Y-107678456D01*
X93665646Y-107579853D01*
X93540147Y-107454354D01*
X93441544Y-107306784D01*
X93373624Y-107142812D01*
X93339000Y-106968741D01*
X93339000Y-106791259D01*
X93373624Y-106617188D01*
X93441544Y-106453216D01*
X93540147Y-106305646D01*
X93665646Y-106180147D01*
X93813216Y-106081544D01*
X93977188Y-106013624D01*
X94145492Y-105980147D01*
X94151258Y-105979000D01*
X94328742Y-105979000D01*
X94334508Y-105980147D01*
G37*
G36*
X99414508Y-105980147D02*
G01*
X99582812Y-106013624D01*
X99746784Y-106081544D01*
X99894354Y-106180147D01*
X100019853Y-106305646D01*
X100118456Y-106453216D01*
X100186376Y-106617188D01*
X100221000Y-106791259D01*
X100221000Y-106968741D01*
X100186376Y-107142812D01*
X100118456Y-107306784D01*
X100019853Y-107454354D01*
X99894354Y-107579853D01*
X99746784Y-107678456D01*
X99582812Y-107746376D01*
X99433512Y-107776073D01*
X99408742Y-107781000D01*
X99231258Y-107781000D01*
X99206488Y-107776073D01*
X99057188Y-107746376D01*
X98893216Y-107678456D01*
X98745646Y-107579853D01*
X98620147Y-107454354D01*
X98521544Y-107306784D01*
X98453624Y-107142812D01*
X98419000Y-106968741D01*
X98419000Y-106791259D01*
X98453624Y-106617188D01*
X98521544Y-106453216D01*
X98620147Y-106305646D01*
X98745646Y-106180147D01*
X98893216Y-106081544D01*
X99057188Y-106013624D01*
X99225492Y-105980147D01*
X99231258Y-105979000D01*
X99408742Y-105979000D01*
X99414508Y-105980147D01*
G37*
G36*
X76313512Y-105783927D02*
G01*
X76462812Y-105813624D01*
X76626784Y-105881544D01*
X76774354Y-105980147D01*
X76899853Y-106105646D01*
X76998456Y-106253216D01*
X77066376Y-106417188D01*
X77101000Y-106591259D01*
X77101000Y-106768741D01*
X77066376Y-106942812D01*
X76998456Y-107106784D01*
X76899853Y-107254354D01*
X76774354Y-107379853D01*
X76626784Y-107478456D01*
X76462812Y-107546376D01*
X76313512Y-107576073D01*
X76288742Y-107581000D01*
X76111258Y-107581000D01*
X76086488Y-107576073D01*
X75937188Y-107546376D01*
X75773216Y-107478456D01*
X75625646Y-107379853D01*
X75500147Y-107254354D01*
X75401544Y-107106784D01*
X75333624Y-106942812D01*
X75299000Y-106768741D01*
X75299000Y-106591259D01*
X75333624Y-106417188D01*
X75401544Y-106253216D01*
X75500147Y-106105646D01*
X75625646Y-105980147D01*
X75773216Y-105881544D01*
X75937188Y-105813624D01*
X76086488Y-105783927D01*
X76111258Y-105779000D01*
X76288742Y-105779000D01*
X76313512Y-105783927D01*
G37*
G36*
X71233512Y-105783927D02*
G01*
X71382812Y-105813624D01*
X71546784Y-105881544D01*
X71694354Y-105980147D01*
X71819853Y-106105646D01*
X71918456Y-106253216D01*
X71986376Y-106417188D01*
X72021000Y-106591259D01*
X72021000Y-106768741D01*
X71986376Y-106942812D01*
X71918456Y-107106784D01*
X71819853Y-107254354D01*
X71694354Y-107379853D01*
X71546784Y-107478456D01*
X71382812Y-107546376D01*
X71233512Y-107576073D01*
X71208742Y-107581000D01*
X71031258Y-107581000D01*
X71006488Y-107576073D01*
X70857188Y-107546376D01*
X70693216Y-107478456D01*
X70545646Y-107379853D01*
X70420147Y-107254354D01*
X70321544Y-107106784D01*
X70253624Y-106942812D01*
X70219000Y-106768741D01*
X70219000Y-106591259D01*
X70253624Y-106417188D01*
X70321544Y-106253216D01*
X70420147Y-106105646D01*
X70545646Y-105980147D01*
X70693216Y-105881544D01*
X70857188Y-105813624D01*
X71006488Y-105783927D01*
X71031258Y-105779000D01*
X71208742Y-105779000D01*
X71233512Y-105783927D01*
G37*
G36*
X86473512Y-105783927D02*
G01*
X86622812Y-105813624D01*
X86786784Y-105881544D01*
X86934354Y-105980147D01*
X87059853Y-106105646D01*
X87158456Y-106253216D01*
X87226376Y-106417188D01*
X87261000Y-106591259D01*
X87261000Y-106768741D01*
X87226376Y-106942812D01*
X87158456Y-107106784D01*
X87059853Y-107254354D01*
X86934354Y-107379853D01*
X86786784Y-107478456D01*
X86622812Y-107546376D01*
X86473512Y-107576073D01*
X86448742Y-107581000D01*
X86271258Y-107581000D01*
X86246488Y-107576073D01*
X86097188Y-107546376D01*
X85933216Y-107478456D01*
X85785646Y-107379853D01*
X85660147Y-107254354D01*
X85561544Y-107106784D01*
X85493624Y-106942812D01*
X85459000Y-106768741D01*
X85459000Y-106591259D01*
X85493624Y-106417188D01*
X85561544Y-106253216D01*
X85660147Y-106105646D01*
X85785646Y-105980147D01*
X85933216Y-105881544D01*
X86097188Y-105813624D01*
X86246488Y-105783927D01*
X86271258Y-105779000D01*
X86448742Y-105779000D01*
X86473512Y-105783927D01*
G37*
G36*
X81393512Y-105783927D02*
G01*
X81542812Y-105813624D01*
X81706784Y-105881544D01*
X81854354Y-105980147D01*
X81979853Y-106105646D01*
X82078456Y-106253216D01*
X82146376Y-106417188D01*
X82181000Y-106591259D01*
X82181000Y-106768741D01*
X82146376Y-106942812D01*
X82078456Y-107106784D01*
X81979853Y-107254354D01*
X81854354Y-107379853D01*
X81706784Y-107478456D01*
X81542812Y-107546376D01*
X81393512Y-107576073D01*
X81368742Y-107581000D01*
X81191258Y-107581000D01*
X81166488Y-107576073D01*
X81017188Y-107546376D01*
X80853216Y-107478456D01*
X80705646Y-107379853D01*
X80580147Y-107254354D01*
X80481544Y-107106784D01*
X80413624Y-106942812D01*
X80379000Y-106768741D01*
X80379000Y-106591259D01*
X80413624Y-106417188D01*
X80481544Y-106253216D01*
X80580147Y-106105646D01*
X80705646Y-105980147D01*
X80853216Y-105881544D01*
X81017188Y-105813624D01*
X81166488Y-105783927D01*
X81191258Y-105779000D01*
X81368742Y-105779000D01*
X81393512Y-105783927D01*
G37*
G36*
X44617512Y-104529927D02*
G01*
X44766812Y-104559624D01*
X44930784Y-104627544D01*
X45078354Y-104726147D01*
X45203853Y-104851646D01*
X45302456Y-104999216D01*
X45370376Y-105163188D01*
X45405000Y-105337259D01*
X45405000Y-105514741D01*
X45370376Y-105688812D01*
X45302456Y-105852784D01*
X45203853Y-106000354D01*
X45078354Y-106125853D01*
X44930784Y-106224456D01*
X44766812Y-106292376D01*
X44617512Y-106322073D01*
X44592742Y-106327000D01*
X44415258Y-106327000D01*
X44390488Y-106322073D01*
X44241188Y-106292376D01*
X44077216Y-106224456D01*
X43929646Y-106125853D01*
X43804147Y-106000354D01*
X43705544Y-105852784D01*
X43637624Y-105688812D01*
X43603000Y-105514741D01*
X43603000Y-105337259D01*
X43637624Y-105163188D01*
X43705544Y-104999216D01*
X43804147Y-104851646D01*
X43929646Y-104726147D01*
X44077216Y-104627544D01*
X44241188Y-104559624D01*
X44390488Y-104529927D01*
X44415258Y-104525000D01*
X44592742Y-104525000D01*
X44617512Y-104529927D01*
G37*
G36*
X107694508Y-103640147D02*
G01*
X107862812Y-103673624D01*
X108026784Y-103741544D01*
X108174354Y-103840147D01*
X108299853Y-103965646D01*
X108398456Y-104113216D01*
X108466376Y-104277188D01*
X108501000Y-104451259D01*
X108501000Y-104628741D01*
X108466376Y-104802812D01*
X108398456Y-104966784D01*
X108299853Y-105114354D01*
X108174354Y-105239853D01*
X108026784Y-105338456D01*
X107862812Y-105406376D01*
X107713512Y-105436073D01*
X107688742Y-105441000D01*
X107511258Y-105441000D01*
X107486488Y-105436073D01*
X107337188Y-105406376D01*
X107173216Y-105338456D01*
X107025646Y-105239853D01*
X106900147Y-105114354D01*
X106801544Y-104966784D01*
X106733624Y-104802812D01*
X106699000Y-104628741D01*
X106699000Y-104451259D01*
X106733624Y-104277188D01*
X106801544Y-104113216D01*
X106900147Y-103965646D01*
X107025646Y-103840147D01*
X107173216Y-103741544D01*
X107337188Y-103673624D01*
X107505492Y-103640147D01*
X107511258Y-103639000D01*
X107688742Y-103639000D01*
X107694508Y-103640147D01*
G37*
G36*
X112774508Y-103640147D02*
G01*
X112942812Y-103673624D01*
X113106784Y-103741544D01*
X113254354Y-103840147D01*
X113379853Y-103965646D01*
X113478456Y-104113216D01*
X113546376Y-104277188D01*
X113581000Y-104451259D01*
X113581000Y-104628741D01*
X113546376Y-104802812D01*
X113478456Y-104966784D01*
X113379853Y-105114354D01*
X113254354Y-105239853D01*
X113106784Y-105338456D01*
X112942812Y-105406376D01*
X112793512Y-105436073D01*
X112768742Y-105441000D01*
X112591258Y-105441000D01*
X112566488Y-105436073D01*
X112417188Y-105406376D01*
X112253216Y-105338456D01*
X112105646Y-105239853D01*
X111980147Y-105114354D01*
X111881544Y-104966784D01*
X111813624Y-104802812D01*
X111779000Y-104628741D01*
X111779000Y-104451259D01*
X111813624Y-104277188D01*
X111881544Y-104113216D01*
X111980147Y-103965646D01*
X112105646Y-103840147D01*
X112253216Y-103741544D01*
X112417188Y-103673624D01*
X112585492Y-103640147D01*
X112591258Y-103639000D01*
X112768742Y-103639000D01*
X112774508Y-103640147D01*
G37*
G36*
X99433512Y-103443927D02*
G01*
X99582812Y-103473624D01*
X99746784Y-103541544D01*
X99894354Y-103640147D01*
X100019853Y-103765646D01*
X100118456Y-103913216D01*
X100186376Y-104077188D01*
X100221000Y-104251259D01*
X100221000Y-104428741D01*
X100186376Y-104602812D01*
X100118456Y-104766784D01*
X100019853Y-104914354D01*
X99894354Y-105039853D01*
X99746784Y-105138456D01*
X99582812Y-105206376D01*
X99433512Y-105236073D01*
X99408742Y-105241000D01*
X99231258Y-105241000D01*
X99206488Y-105236073D01*
X99057188Y-105206376D01*
X98893216Y-105138456D01*
X98745646Y-105039853D01*
X98620147Y-104914354D01*
X98521544Y-104766784D01*
X98453624Y-104602812D01*
X98419000Y-104428741D01*
X98419000Y-104251259D01*
X98453624Y-104077188D01*
X98521544Y-103913216D01*
X98620147Y-103765646D01*
X98745646Y-103640147D01*
X98893216Y-103541544D01*
X99057188Y-103473624D01*
X99206488Y-103443927D01*
X99231258Y-103439000D01*
X99408742Y-103439000D01*
X99433512Y-103443927D01*
G37*
G36*
X94353512Y-103443927D02*
G01*
X94502812Y-103473624D01*
X94666784Y-103541544D01*
X94814354Y-103640147D01*
X94939853Y-103765646D01*
X95038456Y-103913216D01*
X95106376Y-104077188D01*
X95141000Y-104251259D01*
X95141000Y-104428741D01*
X95106376Y-104602812D01*
X95038456Y-104766784D01*
X94939853Y-104914354D01*
X94814354Y-105039853D01*
X94666784Y-105138456D01*
X94502812Y-105206376D01*
X94353512Y-105236073D01*
X94328742Y-105241000D01*
X94151258Y-105241000D01*
X94126488Y-105236073D01*
X93977188Y-105206376D01*
X93813216Y-105138456D01*
X93665646Y-105039853D01*
X93540147Y-104914354D01*
X93441544Y-104766784D01*
X93373624Y-104602812D01*
X93339000Y-104428741D01*
X93339000Y-104251259D01*
X93373624Y-104077188D01*
X93441544Y-103913216D01*
X93540147Y-103765646D01*
X93665646Y-103640147D01*
X93813216Y-103541544D01*
X93977188Y-103473624D01*
X94126488Y-103443927D01*
X94151258Y-103439000D01*
X94328742Y-103439000D01*
X94353512Y-103443927D01*
G37*
G36*
X112793512Y-101103927D02*
G01*
X112942812Y-101133624D01*
X113106784Y-101201544D01*
X113254354Y-101300147D01*
X113379853Y-101425646D01*
X113478456Y-101573216D01*
X113546376Y-101737188D01*
X113581000Y-101911259D01*
X113581000Y-102088741D01*
X113546376Y-102262812D01*
X113478456Y-102426784D01*
X113379853Y-102574354D01*
X113254354Y-102699853D01*
X113106784Y-102798456D01*
X112942812Y-102866376D01*
X112793512Y-102896073D01*
X112768742Y-102901000D01*
X112591258Y-102901000D01*
X112566488Y-102896073D01*
X112417188Y-102866376D01*
X112253216Y-102798456D01*
X112105646Y-102699853D01*
X111980147Y-102574354D01*
X111881544Y-102426784D01*
X111813624Y-102262812D01*
X111779000Y-102088741D01*
X111779000Y-101911259D01*
X111813624Y-101737188D01*
X111881544Y-101573216D01*
X111980147Y-101425646D01*
X112105646Y-101300147D01*
X112253216Y-101201544D01*
X112417188Y-101133624D01*
X112566488Y-101103927D01*
X112591258Y-101099000D01*
X112768742Y-101099000D01*
X112793512Y-101103927D01*
G37*
G36*
X107713512Y-101103927D02*
G01*
X107862812Y-101133624D01*
X108026784Y-101201544D01*
X108174354Y-101300147D01*
X108299853Y-101425646D01*
X108398456Y-101573216D01*
X108466376Y-101737188D01*
X108501000Y-101911259D01*
X108501000Y-102088741D01*
X108466376Y-102262812D01*
X108398456Y-102426784D01*
X108299853Y-102574354D01*
X108174354Y-102699853D01*
X108026784Y-102798456D01*
X107862812Y-102866376D01*
X107713512Y-102896073D01*
X107688742Y-102901000D01*
X107511258Y-102901000D01*
X107486488Y-102896073D01*
X107337188Y-102866376D01*
X107173216Y-102798456D01*
X107025646Y-102699853D01*
X106900147Y-102574354D01*
X106801544Y-102426784D01*
X106733624Y-102262812D01*
X106699000Y-102088741D01*
X106699000Y-101911259D01*
X106733624Y-101737188D01*
X106801544Y-101573216D01*
X106900147Y-101425646D01*
X107025646Y-101300147D01*
X107173216Y-101201544D01*
X107337188Y-101133624D01*
X107486488Y-101103927D01*
X107511258Y-101099000D01*
X107688742Y-101099000D01*
X107713512Y-101103927D01*
G37*
G36*
X45405000Y-101247000D02*
G01*
X43603000Y-101247000D01*
X43603000Y-99445000D01*
X45405000Y-99445000D01*
X45405000Y-101247000D01*
G37*
G36*
X112793512Y-98563927D02*
G01*
X112942812Y-98593624D01*
X113106784Y-98661544D01*
X113254354Y-98760147D01*
X113379853Y-98885646D01*
X113478456Y-99033216D01*
X113546376Y-99197188D01*
X113581000Y-99371259D01*
X113581000Y-99548741D01*
X113546376Y-99722812D01*
X113478456Y-99886784D01*
X113379853Y-100034354D01*
X113254354Y-100159853D01*
X113106784Y-100258456D01*
X112942812Y-100326376D01*
X112793512Y-100356073D01*
X112768742Y-100361000D01*
X112591258Y-100361000D01*
X112566488Y-100356073D01*
X112417188Y-100326376D01*
X112253216Y-100258456D01*
X112105646Y-100159853D01*
X111980147Y-100034354D01*
X111881544Y-99886784D01*
X111813624Y-99722812D01*
X111779000Y-99548741D01*
X111779000Y-99371259D01*
X111813624Y-99197188D01*
X111881544Y-99033216D01*
X111980147Y-98885646D01*
X112105646Y-98760147D01*
X112253216Y-98661544D01*
X112417188Y-98593624D01*
X112566488Y-98563927D01*
X112591258Y-98559000D01*
X112768742Y-98559000D01*
X112793512Y-98563927D01*
G37*
G36*
X107713512Y-98563927D02*
G01*
X107862812Y-98593624D01*
X108026784Y-98661544D01*
X108174354Y-98760147D01*
X108299853Y-98885646D01*
X108398456Y-99033216D01*
X108466376Y-99197188D01*
X108501000Y-99371259D01*
X108501000Y-99548741D01*
X108466376Y-99722812D01*
X108398456Y-99886784D01*
X108299853Y-100034354D01*
X108174354Y-100159853D01*
X108026784Y-100258456D01*
X107862812Y-100326376D01*
X107713512Y-100356073D01*
X107688742Y-100361000D01*
X107511258Y-100361000D01*
X107486488Y-100356073D01*
X107337188Y-100326376D01*
X107173216Y-100258456D01*
X107025646Y-100159853D01*
X106900147Y-100034354D01*
X106801544Y-99886784D01*
X106733624Y-99722812D01*
X106699000Y-99548741D01*
X106699000Y-99371259D01*
X106733624Y-99197188D01*
X106801544Y-99033216D01*
X106900147Y-98885646D01*
X107025646Y-98760147D01*
X107173216Y-98661544D01*
X107337188Y-98593624D01*
X107486488Y-98563927D01*
X107511258Y-98559000D01*
X107688742Y-98559000D01*
X107713512Y-98563927D01*
G37*
G36*
X44617512Y-96909927D02*
G01*
X44766812Y-96939624D01*
X44930784Y-97007544D01*
X45078354Y-97106147D01*
X45203853Y-97231646D01*
X45302456Y-97379216D01*
X45370376Y-97543188D01*
X45405000Y-97717259D01*
X45405000Y-97894741D01*
X45370376Y-98068812D01*
X45302456Y-98232784D01*
X45203853Y-98380354D01*
X45078354Y-98505853D01*
X44930784Y-98604456D01*
X44766812Y-98672376D01*
X44617512Y-98702073D01*
X44592742Y-98707000D01*
X44415258Y-98707000D01*
X44390488Y-98702073D01*
X44241188Y-98672376D01*
X44077216Y-98604456D01*
X43929646Y-98505853D01*
X43804147Y-98380354D01*
X43705544Y-98232784D01*
X43637624Y-98068812D01*
X43603000Y-97894741D01*
X43603000Y-97717259D01*
X43637624Y-97543188D01*
X43705544Y-97379216D01*
X43804147Y-97231646D01*
X43929646Y-97106147D01*
X44077216Y-97007544D01*
X44241188Y-96939624D01*
X44390488Y-96909927D01*
X44415258Y-96905000D01*
X44592742Y-96905000D01*
X44617512Y-96909927D01*
G37*
G36*
X45405000Y-93627000D02*
G01*
X43603000Y-93627000D01*
X43603000Y-91825000D01*
X45405000Y-91825000D01*
X45405000Y-93627000D01*
G37*
G36*
X44617512Y-89289927D02*
G01*
X44766812Y-89319624D01*
X44930784Y-89387544D01*
X45078354Y-89486147D01*
X45203853Y-89611646D01*
X45302456Y-89759216D01*
X45370376Y-89923188D01*
X45405000Y-90097259D01*
X45405000Y-90274741D01*
X45370376Y-90448812D01*
X45302456Y-90612784D01*
X45203853Y-90760354D01*
X45078354Y-90885853D01*
X44930784Y-90984456D01*
X44766812Y-91052376D01*
X44617512Y-91082073D01*
X44592742Y-91087000D01*
X44415258Y-91087000D01*
X44390488Y-91082073D01*
X44241188Y-91052376D01*
X44077216Y-90984456D01*
X43929646Y-90885853D01*
X43804147Y-90760354D01*
X43705544Y-90612784D01*
X43637624Y-90448812D01*
X43603000Y-90274741D01*
X43603000Y-90097259D01*
X43637624Y-89923188D01*
X43705544Y-89759216D01*
X43804147Y-89611646D01*
X43929646Y-89486147D01*
X44077216Y-89387544D01*
X44241188Y-89319624D01*
X44390488Y-89289927D01*
X44415258Y-89285000D01*
X44592742Y-89285000D01*
X44617512Y-89289927D01*
G37*
G36*
X45405000Y-86007000D02*
G01*
X43603000Y-86007000D01*
X43603000Y-84205000D01*
X45405000Y-84205000D01*
X45405000Y-86007000D01*
G37*
G36*
X44617512Y-81669927D02*
G01*
X44766812Y-81699624D01*
X44930784Y-81767544D01*
X45078354Y-81866147D01*
X45203853Y-81991646D01*
X45302456Y-82139216D01*
X45370376Y-82303188D01*
X45405000Y-82477259D01*
X45405000Y-82654741D01*
X45370376Y-82828812D01*
X45302456Y-82992784D01*
X45203853Y-83140354D01*
X45078354Y-83265853D01*
X44930784Y-83364456D01*
X44766812Y-83432376D01*
X44617512Y-83462073D01*
X44592742Y-83467000D01*
X44415258Y-83467000D01*
X44390488Y-83462073D01*
X44241188Y-83432376D01*
X44077216Y-83364456D01*
X43929646Y-83265853D01*
X43804147Y-83140354D01*
X43705544Y-82992784D01*
X43637624Y-82828812D01*
X43603000Y-82654741D01*
X43603000Y-82477259D01*
X43637624Y-82303188D01*
X43705544Y-82139216D01*
X43804147Y-81991646D01*
X43929646Y-81866147D01*
X44077216Y-81767544D01*
X44241188Y-81699624D01*
X44390488Y-81669927D01*
X44415258Y-81665000D01*
X44592742Y-81665000D01*
X44617512Y-81669927D01*
G37*
G36*
X45605000Y-77987000D02*
G01*
X43803000Y-77987000D01*
X43803000Y-76185000D01*
X45605000Y-76185000D01*
X45605000Y-77987000D01*
G37*
G36*
X50685000Y-77987000D02*
G01*
X48883000Y-77987000D01*
X48883000Y-76185000D01*
X50685000Y-76185000D01*
X50685000Y-77987000D01*
G37*
G36*
X44817512Y-73649927D02*
G01*
X44966812Y-73679624D01*
X45130784Y-73747544D01*
X45278354Y-73846147D01*
X45403853Y-73971646D01*
X45502456Y-74119216D01*
X45570376Y-74283188D01*
X45605000Y-74457259D01*
X45605000Y-74634741D01*
X45570376Y-74808812D01*
X45502456Y-74972784D01*
X45403853Y-75120354D01*
X45278354Y-75245853D01*
X45130784Y-75344456D01*
X44966812Y-75412376D01*
X44817512Y-75442073D01*
X44792742Y-75447000D01*
X44615258Y-75447000D01*
X44590488Y-75442073D01*
X44441188Y-75412376D01*
X44277216Y-75344456D01*
X44129646Y-75245853D01*
X44004147Y-75120354D01*
X43905544Y-74972784D01*
X43837624Y-74808812D01*
X43803000Y-74634741D01*
X43803000Y-74457259D01*
X43837624Y-74283188D01*
X43905544Y-74119216D01*
X44004147Y-73971646D01*
X44129646Y-73846147D01*
X44277216Y-73747544D01*
X44441188Y-73679624D01*
X44590488Y-73649927D01*
X44615258Y-73645000D01*
X44792742Y-73645000D01*
X44817512Y-73649927D01*
G37*
G36*
X49897512Y-73649927D02*
G01*
X50046812Y-73679624D01*
X50210784Y-73747544D01*
X50358354Y-73846147D01*
X50483853Y-73971646D01*
X50582456Y-74119216D01*
X50650376Y-74283188D01*
X50685000Y-74457259D01*
X50685000Y-74634741D01*
X50650376Y-74808812D01*
X50582456Y-74972784D01*
X50483853Y-75120354D01*
X50358354Y-75245853D01*
X50210784Y-75344456D01*
X50046812Y-75412376D01*
X49897512Y-75442073D01*
X49872742Y-75447000D01*
X49695258Y-75447000D01*
X49670488Y-75442073D01*
X49521188Y-75412376D01*
X49357216Y-75344456D01*
X49209646Y-75245853D01*
X49084147Y-75120354D01*
X48985544Y-74972784D01*
X48917624Y-74808812D01*
X48883000Y-74634741D01*
X48883000Y-74457259D01*
X48917624Y-74283188D01*
X48985544Y-74119216D01*
X49084147Y-73971646D01*
X49209646Y-73846147D01*
X49357216Y-73747544D01*
X49521188Y-73679624D01*
X49670488Y-73649927D01*
X49695258Y-73645000D01*
X49872742Y-73645000D01*
X49897512Y-73649927D01*
G37*
G36*
X49897512Y-71109927D02*
G01*
X50046812Y-71139624D01*
X50210784Y-71207544D01*
X50358354Y-71306147D01*
X50483853Y-71431646D01*
X50582456Y-71579216D01*
X50650376Y-71743188D01*
X50685000Y-71917259D01*
X50685000Y-72094741D01*
X50650376Y-72268812D01*
X50582456Y-72432784D01*
X50483853Y-72580354D01*
X50358354Y-72705853D01*
X50210784Y-72804456D01*
X50046812Y-72872376D01*
X49897512Y-72902073D01*
X49872742Y-72907000D01*
X49695258Y-72907000D01*
X49670488Y-72902073D01*
X49521188Y-72872376D01*
X49357216Y-72804456D01*
X49209646Y-72705853D01*
X49084147Y-72580354D01*
X48985544Y-72432784D01*
X48917624Y-72268812D01*
X48883000Y-72094741D01*
X48883000Y-71917259D01*
X48917624Y-71743188D01*
X48985544Y-71579216D01*
X49084147Y-71431646D01*
X49209646Y-71306147D01*
X49357216Y-71207544D01*
X49521188Y-71139624D01*
X49670488Y-71109927D01*
X49695258Y-71105000D01*
X49872742Y-71105000D01*
X49897512Y-71109927D01*
G37*
G36*
X57456564Y-66045389D02*
G01*
X57647833Y-66124615D01*
X57647835Y-66124616D01*
X57819973Y-66239635D01*
X57966365Y-66386027D01*
X58081385Y-66558167D01*
X58160611Y-66749436D01*
X58201000Y-66952484D01*
X58201000Y-67159516D01*
X58160611Y-67362564D01*
X58081385Y-67553833D01*
X58081384Y-67553835D01*
X57966365Y-67725973D01*
X57819973Y-67872365D01*
X57647835Y-67987384D01*
X57647834Y-67987385D01*
X57647833Y-67987385D01*
X57456564Y-68066611D01*
X57253516Y-68107000D01*
X57046484Y-68107000D01*
X56843436Y-68066611D01*
X56652167Y-67987385D01*
X56652166Y-67987385D01*
X56652165Y-67987384D01*
X56480027Y-67872365D01*
X56333635Y-67725973D01*
X56218616Y-67553835D01*
X56218615Y-67553833D01*
X56139389Y-67362564D01*
X56099000Y-67159516D01*
X56099000Y-66952484D01*
X56139389Y-66749436D01*
X56218615Y-66558167D01*
X56333635Y-66386027D01*
X56480027Y-66239635D01*
X56652165Y-66124616D01*
X56652167Y-66124615D01*
X56843436Y-66045389D01*
X57046484Y-66005000D01*
X57253516Y-66005000D01*
X57456564Y-66045389D01*
G37*
G36*
X61956564Y-66045389D02*
G01*
X62147833Y-66124615D01*
X62147835Y-66124616D01*
X62319973Y-66239635D01*
X62466365Y-66386027D01*
X62581385Y-66558167D01*
X62660611Y-66749436D01*
X62701000Y-66952484D01*
X62701000Y-67159516D01*
X62660611Y-67362564D01*
X62581385Y-67553833D01*
X62581384Y-67553835D01*
X62466365Y-67725973D01*
X62319973Y-67872365D01*
X62147835Y-67987384D01*
X62147834Y-67987385D01*
X62147833Y-67987385D01*
X61956564Y-68066611D01*
X61753516Y-68107000D01*
X61546484Y-68107000D01*
X61343436Y-68066611D01*
X61152167Y-67987385D01*
X61152166Y-67987385D01*
X61152165Y-67987384D01*
X60980027Y-67872365D01*
X60833635Y-67725973D01*
X60718616Y-67553835D01*
X60718615Y-67553833D01*
X60639389Y-67362564D01*
X60599000Y-67159516D01*
X60599000Y-66952484D01*
X60639389Y-66749436D01*
X60718615Y-66558167D01*
X60833635Y-66386027D01*
X60980027Y-66239635D01*
X61152165Y-66124616D01*
X61152167Y-66124615D01*
X61343436Y-66045389D01*
X61546484Y-66005000D01*
X61753516Y-66005000D01*
X61956564Y-66045389D01*
G37*
G36*
X50272564Y-66045389D02*
G01*
X50463833Y-66124615D01*
X50463835Y-66124616D01*
X50635973Y-66239635D01*
X50782365Y-66386027D01*
X50897385Y-66558167D01*
X50976611Y-66749436D01*
X51017000Y-66952484D01*
X51017000Y-67159516D01*
X50976611Y-67362564D01*
X50897385Y-67553833D01*
X50897384Y-67553835D01*
X50782365Y-67725973D01*
X50635973Y-67872365D01*
X50463835Y-67987384D01*
X50463834Y-67987385D01*
X50463833Y-67987385D01*
X50272564Y-68066611D01*
X50069516Y-68107000D01*
X49862484Y-68107000D01*
X49659436Y-68066611D01*
X49468167Y-67987385D01*
X49468166Y-67987385D01*
X49468165Y-67987384D01*
X49296027Y-67872365D01*
X49149635Y-67725973D01*
X49034616Y-67553835D01*
X49034615Y-67553833D01*
X48955389Y-67362564D01*
X48915000Y-67159516D01*
X48915000Y-66952484D01*
X48955389Y-66749436D01*
X49034615Y-66558167D01*
X49149635Y-66386027D01*
X49296027Y-66239635D01*
X49468165Y-66124616D01*
X49468167Y-66124615D01*
X49659436Y-66045389D01*
X49862484Y-66005000D01*
X50069516Y-66005000D01*
X50272564Y-66045389D01*
G37*
G36*
X45772564Y-66045389D02*
G01*
X45963833Y-66124615D01*
X45963835Y-66124616D01*
X46135973Y-66239635D01*
X46282365Y-66386027D01*
X46397385Y-66558167D01*
X46476611Y-66749436D01*
X46517000Y-66952484D01*
X46517000Y-67159516D01*
X46476611Y-67362564D01*
X46397385Y-67553833D01*
X46397384Y-67553835D01*
X46282365Y-67725973D01*
X46135973Y-67872365D01*
X45963835Y-67987384D01*
X45963834Y-67987385D01*
X45963833Y-67987385D01*
X45772564Y-68066611D01*
X45569516Y-68107000D01*
X45362484Y-68107000D01*
X45159436Y-68066611D01*
X44968167Y-67987385D01*
X44968166Y-67987385D01*
X44968165Y-67987384D01*
X44796027Y-67872365D01*
X44649635Y-67725973D01*
X44534616Y-67553835D01*
X44534615Y-67553833D01*
X44455389Y-67362564D01*
X44415000Y-67159516D01*
X44415000Y-66952484D01*
X44455389Y-66749436D01*
X44534615Y-66558167D01*
X44649635Y-66386027D01*
X44796027Y-66239635D01*
X44968165Y-66124616D01*
X44968167Y-66124615D01*
X45159436Y-66045389D01*
X45362484Y-66005000D01*
X45569516Y-66005000D01*
X45772564Y-66045389D01*
G37*
G36*
X57456564Y-59545389D02*
G01*
X57647833Y-59624615D01*
X57647835Y-59624616D01*
X57819973Y-59739635D01*
X57966365Y-59886027D01*
X58081385Y-60058167D01*
X58160611Y-60249436D01*
X58201000Y-60452484D01*
X58201000Y-60659516D01*
X58160611Y-60862564D01*
X58081385Y-61053833D01*
X58081384Y-61053835D01*
X57966365Y-61225973D01*
X57819973Y-61372365D01*
X57647835Y-61487384D01*
X57647834Y-61487385D01*
X57647833Y-61487385D01*
X57456564Y-61566611D01*
X57253516Y-61607000D01*
X57046484Y-61607000D01*
X56843436Y-61566611D01*
X56652167Y-61487385D01*
X56652166Y-61487385D01*
X56652165Y-61487384D01*
X56480027Y-61372365D01*
X56333635Y-61225973D01*
X56218616Y-61053835D01*
X56218615Y-61053833D01*
X56139389Y-60862564D01*
X56099000Y-60659516D01*
X56099000Y-60452484D01*
X56139389Y-60249436D01*
X56218615Y-60058167D01*
X56333635Y-59886027D01*
X56480027Y-59739635D01*
X56652165Y-59624616D01*
X56652167Y-59624615D01*
X56843436Y-59545389D01*
X57046484Y-59505000D01*
X57253516Y-59505000D01*
X57456564Y-59545389D01*
G37*
G36*
X45772564Y-59545389D02*
G01*
X45963833Y-59624615D01*
X45963835Y-59624616D01*
X46135973Y-59739635D01*
X46282365Y-59886027D01*
X46397385Y-60058167D01*
X46476611Y-60249436D01*
X46517000Y-60452484D01*
X46517000Y-60659516D01*
X46476611Y-60862564D01*
X46397385Y-61053833D01*
X46397384Y-61053835D01*
X46282365Y-61225973D01*
X46135973Y-61372365D01*
X45963835Y-61487384D01*
X45963834Y-61487385D01*
X45963833Y-61487385D01*
X45772564Y-61566611D01*
X45569516Y-61607000D01*
X45362484Y-61607000D01*
X45159436Y-61566611D01*
X44968167Y-61487385D01*
X44968166Y-61487385D01*
X44968165Y-61487384D01*
X44796027Y-61372365D01*
X44649635Y-61225973D01*
X44534616Y-61053835D01*
X44534615Y-61053833D01*
X44455389Y-60862564D01*
X44415000Y-60659516D01*
X44415000Y-60452484D01*
X44455389Y-60249436D01*
X44534615Y-60058167D01*
X44649635Y-59886027D01*
X44796027Y-59739635D01*
X44968165Y-59624616D01*
X44968167Y-59624615D01*
X45159436Y-59545389D01*
X45362484Y-59505000D01*
X45569516Y-59505000D01*
X45772564Y-59545389D01*
G37*
G36*
X50272564Y-59545389D02*
G01*
X50463833Y-59624615D01*
X50463835Y-59624616D01*
X50635973Y-59739635D01*
X50782365Y-59886027D01*
X50897385Y-60058167D01*
X50976611Y-60249436D01*
X51017000Y-60452484D01*
X51017000Y-60659516D01*
X50976611Y-60862564D01*
X50897385Y-61053833D01*
X50897384Y-61053835D01*
X50782365Y-61225973D01*
X50635973Y-61372365D01*
X50463835Y-61487384D01*
X50463834Y-61487385D01*
X50463833Y-61487385D01*
X50272564Y-61566611D01*
X50069516Y-61607000D01*
X49862484Y-61607000D01*
X49659436Y-61566611D01*
X49468167Y-61487385D01*
X49468166Y-61487385D01*
X49468165Y-61487384D01*
X49296027Y-61372365D01*
X49149635Y-61225973D01*
X49034616Y-61053835D01*
X49034615Y-61053833D01*
X48955389Y-60862564D01*
X48915000Y-60659516D01*
X48915000Y-60452484D01*
X48955389Y-60249436D01*
X49034615Y-60058167D01*
X49149635Y-59886027D01*
X49296027Y-59739635D01*
X49468165Y-59624616D01*
X49468167Y-59624615D01*
X49659436Y-59545389D01*
X49862484Y-59505000D01*
X50069516Y-59505000D01*
X50272564Y-59545389D01*
G37*
G36*
X61956564Y-59545389D02*
G01*
X62147833Y-59624615D01*
X62147835Y-59624616D01*
X62319973Y-59739635D01*
X62466365Y-59886027D01*
X62581385Y-60058167D01*
X62660611Y-60249436D01*
X62701000Y-60452484D01*
X62701000Y-60659516D01*
X62660611Y-60862564D01*
X62581385Y-61053833D01*
X62581384Y-61053835D01*
X62466365Y-61225973D01*
X62319973Y-61372365D01*
X62147835Y-61487384D01*
X62147834Y-61487385D01*
X62147833Y-61487385D01*
X61956564Y-61566611D01*
X61753516Y-61607000D01*
X61546484Y-61607000D01*
X61343436Y-61566611D01*
X61152167Y-61487385D01*
X61152166Y-61487385D01*
X61152165Y-61487384D01*
X60980027Y-61372365D01*
X60833635Y-61225973D01*
X60718616Y-61053835D01*
X60718615Y-61053833D01*
X60639389Y-60862564D01*
X60599000Y-60659516D01*
X60599000Y-60452484D01*
X60639389Y-60249436D01*
X60718615Y-60058167D01*
X60833635Y-59886027D01*
X60980027Y-59739635D01*
X61152165Y-59624616D01*
X61152167Y-59624615D01*
X61343436Y-59545389D01*
X61546484Y-59505000D01*
X61753516Y-59505000D01*
X61956564Y-59545389D01*
G37*
G36*
X105015512Y-57803327D02*
G01*
X105164812Y-57833024D01*
X105328784Y-57900944D01*
X105476354Y-57999547D01*
X105601853Y-58125046D01*
X105700456Y-58272616D01*
X105768376Y-58436588D01*
X105803000Y-58610659D01*
X105803000Y-58788141D01*
X105768376Y-58962212D01*
X105700456Y-59126184D01*
X105601853Y-59273754D01*
X105476354Y-59399253D01*
X105328784Y-59497856D01*
X105164812Y-59565776D01*
X105015512Y-59595473D01*
X104990742Y-59600400D01*
X104813258Y-59600400D01*
X104788488Y-59595473D01*
X104639188Y-59565776D01*
X104475216Y-59497856D01*
X104327646Y-59399253D01*
X104202147Y-59273754D01*
X104103544Y-59126184D01*
X104035624Y-58962212D01*
X104001000Y-58788141D01*
X104001000Y-58610659D01*
X104035624Y-58436588D01*
X104103544Y-58272616D01*
X104202147Y-58125046D01*
X104327646Y-57999547D01*
X104475216Y-57900944D01*
X104639188Y-57833024D01*
X104788488Y-57803327D01*
X104813258Y-57798400D01*
X104990742Y-57798400D01*
X105015512Y-57803327D01*
G37*
G36*
X105015512Y-55263327D02*
G01*
X105164812Y-55293024D01*
X105328784Y-55360944D01*
X105476354Y-55459547D01*
X105601853Y-55585046D01*
X105700456Y-55732616D01*
X105768376Y-55896588D01*
X105803000Y-56070659D01*
X105803000Y-56248141D01*
X105768376Y-56422212D01*
X105700456Y-56586184D01*
X105601853Y-56733754D01*
X105476354Y-56859253D01*
X105328784Y-56957856D01*
X105164812Y-57025776D01*
X105015512Y-57055473D01*
X104990742Y-57060400D01*
X104813258Y-57060400D01*
X104788488Y-57055473D01*
X104639188Y-57025776D01*
X104475216Y-56957856D01*
X104327646Y-56859253D01*
X104202147Y-56733754D01*
X104103544Y-56586184D01*
X104035624Y-56422212D01*
X104001000Y-56248141D01*
X104001000Y-56070659D01*
X104035624Y-55896588D01*
X104103544Y-55732616D01*
X104202147Y-55585046D01*
X104327646Y-55459547D01*
X104475216Y-55360944D01*
X104639188Y-55293024D01*
X104788488Y-55263327D01*
X104813258Y-55258400D01*
X104990742Y-55258400D01*
X105015512Y-55263327D01*
G37*
G36*
X105803000Y-54520400D02*
G01*
X104001000Y-54520400D01*
X104001000Y-52718400D01*
X105803000Y-52718400D01*
X105803000Y-54520400D01*
G37*
G36*
X43751000Y-49943000D02*
G01*
X39449000Y-49943000D01*
X39449000Y-48491000D01*
X43751000Y-48491000D01*
X43751000Y-49943000D01*
G37*
G36*
X46824112Y-45484327D02*
G01*
X46973412Y-45514024D01*
X47137384Y-45581944D01*
X47284954Y-45680547D01*
X47410453Y-45806046D01*
X47509056Y-45953616D01*
X47576976Y-46117588D01*
X47611600Y-46291659D01*
X47611600Y-46469141D01*
X47576976Y-46643212D01*
X47509056Y-46807184D01*
X47410453Y-46954754D01*
X47284954Y-47080253D01*
X47137384Y-47178856D01*
X46973412Y-47246776D01*
X46824112Y-47276473D01*
X46799342Y-47281400D01*
X46621858Y-47281400D01*
X46597088Y-47276473D01*
X46447788Y-47246776D01*
X46283816Y-47178856D01*
X46136246Y-47080253D01*
X46010747Y-46954754D01*
X45912144Y-46807184D01*
X45844224Y-46643212D01*
X45809600Y-46469141D01*
X45809600Y-46291659D01*
X45844224Y-46117588D01*
X45912144Y-45953616D01*
X46010747Y-45806046D01*
X46136246Y-45680547D01*
X46283816Y-45581944D01*
X46447788Y-45514024D01*
X46597088Y-45484327D01*
X46621858Y-45479400D01*
X46799342Y-45479400D01*
X46824112Y-45484327D01*
G37*
G36*
X47611600Y-44741400D02*
G01*
X45809600Y-44741400D01*
X45809600Y-42939400D01*
X47611600Y-42939400D01*
X47611600Y-44741400D01*
G37*
G36*
X43751000Y-44293000D02*
G01*
X39449000Y-44293000D01*
X39449000Y-42841000D01*
X43751000Y-42841000D01*
X43751000Y-44293000D01*
G37*
G36*
X85127400Y-40245600D02*
G01*
X83325400Y-40245600D01*
X83325400Y-38443600D01*
X85127400Y-38443600D01*
X85127400Y-40245600D01*
G37*
G36*
X89419912Y-38448527D02*
G01*
X89569212Y-38478224D01*
X89733184Y-38546144D01*
X89880754Y-38644747D01*
X90006253Y-38770246D01*
X90104856Y-38917816D01*
X90172776Y-39081788D01*
X90207400Y-39255859D01*
X90207400Y-39433341D01*
X90172776Y-39607412D01*
X90104856Y-39771384D01*
X90006253Y-39918954D01*
X89880754Y-40044453D01*
X89733184Y-40143056D01*
X89569212Y-40210976D01*
X89419912Y-40240673D01*
X89395142Y-40245600D01*
X89217658Y-40245600D01*
X89192888Y-40240673D01*
X89043588Y-40210976D01*
X88879616Y-40143056D01*
X88732046Y-40044453D01*
X88606547Y-39918954D01*
X88507944Y-39771384D01*
X88440024Y-39607412D01*
X88405400Y-39433341D01*
X88405400Y-39255859D01*
X88440024Y-39081788D01*
X88507944Y-38917816D01*
X88606547Y-38770246D01*
X88732046Y-38644747D01*
X88879616Y-38546144D01*
X89043588Y-38478224D01*
X89192888Y-38448527D01*
X89217658Y-38443600D01*
X89395142Y-38443600D01*
X89419912Y-38448527D01*
G37*
G36*
X86879912Y-38448527D02*
G01*
X87029212Y-38478224D01*
X87193184Y-38546144D01*
X87340754Y-38644747D01*
X87466253Y-38770246D01*
X87564856Y-38917816D01*
X87632776Y-39081788D01*
X87667400Y-39255859D01*
X87667400Y-39433341D01*
X87632776Y-39607412D01*
X87564856Y-39771384D01*
X87466253Y-39918954D01*
X87340754Y-40044453D01*
X87193184Y-40143056D01*
X87029212Y-40210976D01*
X86879912Y-40240673D01*
X86855142Y-40245600D01*
X86677658Y-40245600D01*
X86652888Y-40240673D01*
X86503588Y-40210976D01*
X86339616Y-40143056D01*
X86192046Y-40044453D01*
X86066547Y-39918954D01*
X85967944Y-39771384D01*
X85900024Y-39607412D01*
X85865400Y-39433341D01*
X85865400Y-39255859D01*
X85900024Y-39081788D01*
X85967944Y-38917816D01*
X86066547Y-38770246D01*
X86192046Y-38644747D01*
X86339616Y-38546144D01*
X86503588Y-38478224D01*
X86652888Y-38448527D01*
X86677658Y-38443600D01*
X86855142Y-38443600D01*
X86879912Y-38448527D01*
G37*
G36*
X123326370Y-32381574D02*
G01*
X123481579Y-32412447D01*
X123782042Y-32536903D01*
X124052451Y-32717585D01*
X124282415Y-32947549D01*
X124282416Y-32947551D01*
X124463098Y-33217960D01*
X124587553Y-33518422D01*
X124651000Y-33837389D01*
X124651000Y-34162611D01*
X124624681Y-34294923D01*
X124587553Y-34481579D01*
X124463097Y-34782042D01*
X124282415Y-35052451D01*
X124052451Y-35282415D01*
X123782042Y-35463097D01*
X123481579Y-35587553D01*
X123375256Y-35608702D01*
X123162611Y-35651000D01*
X122837389Y-35651000D01*
X122624744Y-35608702D01*
X122518421Y-35587553D01*
X122217958Y-35463097D01*
X121947549Y-35282415D01*
X121717585Y-35052451D01*
X121536903Y-34782042D01*
X121412447Y-34481579D01*
X121375319Y-34294923D01*
X121349000Y-34162611D01*
X121349000Y-33837389D01*
X121412447Y-33518422D01*
X121536902Y-33217960D01*
X121717584Y-32947551D01*
X121717585Y-32947549D01*
X121947549Y-32717585D01*
X122217958Y-32536903D01*
X122518421Y-32412447D01*
X122673630Y-32381574D01*
X122837389Y-32349000D01*
X123162611Y-32349000D01*
X123326370Y-32381574D01*
G37*
G36*
X43326370Y-32381574D02*
G01*
X43481579Y-32412447D01*
X43782042Y-32536903D01*
X44052451Y-32717585D01*
X44282415Y-32947549D01*
X44282416Y-32947551D01*
X44463098Y-33217960D01*
X44587553Y-33518422D01*
X44651000Y-33837389D01*
X44651000Y-34162611D01*
X44624681Y-34294923D01*
X44587553Y-34481579D01*
X44463097Y-34782042D01*
X44282415Y-35052451D01*
X44052451Y-35282415D01*
X43782042Y-35463097D01*
X43481579Y-35587553D01*
X43375256Y-35608702D01*
X43162611Y-35651000D01*
X42837389Y-35651000D01*
X42624744Y-35608702D01*
X42518421Y-35587553D01*
X42217958Y-35463097D01*
X41947549Y-35282415D01*
X41717585Y-35052451D01*
X41536903Y-34782042D01*
X41412447Y-34481579D01*
X41375319Y-34294923D01*
X41349000Y-34162611D01*
X41349000Y-33837389D01*
X41412447Y-33518422D01*
X41536902Y-33217960D01*
X41717584Y-32947551D01*
X41717585Y-32947549D01*
X41947549Y-32717585D01*
X42217958Y-32536903D01*
X42518421Y-32412447D01*
X42673630Y-32381574D01*
X42837389Y-32349000D01*
X43162611Y-32349000D01*
X43326370Y-32381574D01*
G37*
G36*
X101926348Y-33916320D02*
G01*
X101926350Y-33916321D01*
X101926351Y-33916321D01*
X102067574Y-33974817D01*
X102067577Y-33974819D01*
X102194669Y-34059739D01*
X102302761Y-34167831D01*
X102387681Y-34294923D01*
X102387683Y-34294926D01*
X102446179Y-34436149D01*
X102446180Y-34436152D01*
X102476000Y-34586069D01*
X102476000Y-34738931D01*
X102467425Y-34782042D01*
X102446179Y-34888851D01*
X102387683Y-35030074D01*
X102387681Y-35030077D01*
X102302761Y-35157169D01*
X102194669Y-35265261D01*
X102067577Y-35350181D01*
X102067574Y-35350183D01*
X101926351Y-35408679D01*
X101926350Y-35408679D01*
X101926348Y-35408680D01*
X101776431Y-35438500D01*
X101623569Y-35438500D01*
X101473652Y-35408680D01*
X101473650Y-35408679D01*
X101473649Y-35408679D01*
X101332426Y-35350183D01*
X101332423Y-35350181D01*
X101205331Y-35265261D01*
X101097239Y-35157169D01*
X101012319Y-35030077D01*
X101012317Y-35030074D01*
X100953821Y-34888851D01*
X100932576Y-34782042D01*
X100924000Y-34738931D01*
X100924000Y-34586069D01*
X100953820Y-34436152D01*
X100953821Y-34436149D01*
X101012317Y-34294926D01*
X101012319Y-34294923D01*
X101097239Y-34167831D01*
X101205331Y-34059739D01*
X101332423Y-33974819D01*
X101332426Y-33974817D01*
X101473649Y-33916321D01*
X101473650Y-33916321D01*
X101473652Y-33916320D01*
X101623569Y-33886500D01*
X101776431Y-33886500D01*
X101926348Y-33916320D01*
G37*
G36*
X96926348Y-33916320D02*
G01*
X96926350Y-33916321D01*
X96926351Y-33916321D01*
X97067574Y-33974817D01*
X97067577Y-33974819D01*
X97194669Y-34059739D01*
X97302761Y-34167831D01*
X97387681Y-34294923D01*
X97387683Y-34294926D01*
X97446179Y-34436149D01*
X97446180Y-34436152D01*
X97476000Y-34586069D01*
X97476000Y-34738931D01*
X97467425Y-34782042D01*
X97446179Y-34888851D01*
X97387683Y-35030074D01*
X97387681Y-35030077D01*
X97302761Y-35157169D01*
X97194669Y-35265261D01*
X97067577Y-35350181D01*
X97067574Y-35350183D01*
X96926351Y-35408679D01*
X96926350Y-35408679D01*
X96926348Y-35408680D01*
X96776431Y-35438500D01*
X96623569Y-35438500D01*
X96473652Y-35408680D01*
X96473650Y-35408679D01*
X96473649Y-35408679D01*
X96332426Y-35350183D01*
X96332423Y-35350181D01*
X96205331Y-35265261D01*
X96097239Y-35157169D01*
X96012319Y-35030077D01*
X96012317Y-35030074D01*
X95953821Y-34888851D01*
X95932576Y-34782042D01*
X95924000Y-34738931D01*
X95924000Y-34586069D01*
X95953820Y-34436152D01*
X95953821Y-34436149D01*
X96012317Y-34294926D01*
X96012319Y-34294923D01*
X96097239Y-34167831D01*
X96205331Y-34059739D01*
X96332423Y-33974819D01*
X96332426Y-33974817D01*
X96473649Y-33916321D01*
X96473650Y-33916321D01*
X96473652Y-33916320D01*
X96623569Y-33886500D01*
X96776431Y-33886500D01*
X96926348Y-33916320D01*
G37*
G36*
X78327617Y-32103420D02*
G01*
X78408399Y-32127925D01*
X78450335Y-32140646D01*
X78563424Y-32201094D01*
X78662554Y-32282447D01*
X78743906Y-32381575D01*
X78804354Y-32494664D01*
X78814040Y-32526596D01*
X78841580Y-32617382D01*
X78851000Y-32713027D01*
X78851000Y-33326973D01*
X78841580Y-33422618D01*
X78834249Y-33446784D01*
X78804354Y-33545336D01*
X78743906Y-33658425D01*
X78662554Y-33757554D01*
X78563425Y-33838906D01*
X78450336Y-33899354D01*
X78418404Y-33909040D01*
X78327618Y-33936580D01*
X78200000Y-33949149D01*
X78072383Y-33936580D01*
X77981597Y-33909040D01*
X77949665Y-33899354D01*
X77836576Y-33838906D01*
X77737447Y-33757554D01*
X77656096Y-33658427D01*
X77656095Y-33658425D01*
X77595647Y-33545336D01*
X77595645Y-33545333D01*
X77565751Y-33446784D01*
X77558420Y-33422618D01*
X77549000Y-33326973D01*
X77549000Y-32713028D01*
X77558420Y-32617383D01*
X77595645Y-32494669D01*
X77595646Y-32494665D01*
X77656094Y-32381576D01*
X77737447Y-32282446D01*
X77836575Y-32201094D01*
X77949664Y-32140646D01*
X77991600Y-32127925D01*
X78072382Y-32103420D01*
X78200000Y-32090851D01*
X78327617Y-32103420D01*
G37*
G36*
X76691242Y-32098404D02*
G01*
X76728337Y-32109657D01*
X76762515Y-32127925D01*
X76792481Y-32152519D01*
X76817075Y-32182485D01*
X76835343Y-32216663D01*
X76846596Y-32253758D01*
X76851000Y-32298474D01*
X76851000Y-33741526D01*
X76846596Y-33786242D01*
X76835343Y-33823337D01*
X76817075Y-33857515D01*
X76792481Y-33887481D01*
X76762515Y-33912075D01*
X76728337Y-33930343D01*
X76691242Y-33941596D01*
X76646526Y-33946000D01*
X75753474Y-33946000D01*
X75708758Y-33941596D01*
X75671663Y-33930343D01*
X75637485Y-33912075D01*
X75607519Y-33887481D01*
X75582925Y-33857515D01*
X75564657Y-33823337D01*
X75553404Y-33786242D01*
X75549000Y-33741526D01*
X75549000Y-32298474D01*
X75553404Y-32253758D01*
X75564657Y-32216663D01*
X75582925Y-32182485D01*
X75607519Y-32152519D01*
X75637485Y-32127925D01*
X75671663Y-32109657D01*
X75708758Y-32098404D01*
X75753474Y-32094000D01*
X76646526Y-32094000D01*
X76691242Y-32098404D01*
G37*
G36*
X89013512Y-32123927D02*
G01*
X89162812Y-32153624D01*
X89326784Y-32221544D01*
X89474354Y-32320147D01*
X89599853Y-32445646D01*
X89698456Y-32593216D01*
X89766376Y-32757188D01*
X89801000Y-32931259D01*
X89801000Y-33108741D01*
X89766376Y-33282812D01*
X89698456Y-33446784D01*
X89599853Y-33594354D01*
X89474354Y-33719853D01*
X89326784Y-33818456D01*
X89162812Y-33886376D01*
X89013512Y-33916073D01*
X88988742Y-33921000D01*
X88811258Y-33921000D01*
X88786488Y-33916073D01*
X88637188Y-33886376D01*
X88473216Y-33818456D01*
X88325646Y-33719853D01*
X88200147Y-33594354D01*
X88101544Y-33446784D01*
X88033624Y-33282812D01*
X87999000Y-33108741D01*
X87999000Y-32931259D01*
X88033624Y-32757188D01*
X88101544Y-32593216D01*
X88200147Y-32445646D01*
X88325646Y-32320147D01*
X88473216Y-32221544D01*
X88637188Y-32153624D01*
X88786488Y-32123927D01*
X88811258Y-32119000D01*
X88988742Y-32119000D01*
X89013512Y-32123927D01*
G37*
G36*
X87261000Y-33921000D02*
G01*
X85459000Y-33921000D01*
X85459000Y-32119000D01*
X87261000Y-32119000D01*
X87261000Y-33921000D01*
G37*
G36*
X111873512Y-32123927D02*
G01*
X112022812Y-32153624D01*
X112186784Y-32221544D01*
X112334354Y-32320147D01*
X112459853Y-32445646D01*
X112558456Y-32593216D01*
X112626376Y-32757188D01*
X112661000Y-32931259D01*
X112661000Y-33108741D01*
X112626376Y-33282812D01*
X112558456Y-33446784D01*
X112459853Y-33594354D01*
X112334354Y-33719853D01*
X112186784Y-33818456D01*
X112022812Y-33886376D01*
X111873512Y-33916073D01*
X111848742Y-33921000D01*
X111671258Y-33921000D01*
X111646488Y-33916073D01*
X111497188Y-33886376D01*
X111333216Y-33818456D01*
X111185646Y-33719853D01*
X111060147Y-33594354D01*
X110961544Y-33446784D01*
X110893624Y-33282812D01*
X110859000Y-33108741D01*
X110859000Y-32931259D01*
X110893624Y-32757188D01*
X110961544Y-32593216D01*
X111060147Y-32445646D01*
X111185646Y-32320147D01*
X111333216Y-32221544D01*
X111497188Y-32153624D01*
X111646488Y-32123927D01*
X111671258Y-32119000D01*
X111848742Y-32119000D01*
X111873512Y-32123927D01*
G37*
G36*
X110121000Y-33921000D02*
G01*
X108319000Y-33921000D01*
X108319000Y-32119000D01*
X110121000Y-32119000D01*
X110121000Y-33921000D01*
G37*
G36*
X102827617Y-30970920D02*
G01*
X102918403Y-30998460D01*
X102950335Y-31008146D01*
X103063424Y-31068594D01*
X103162554Y-31149947D01*
X103243906Y-31249075D01*
X103304354Y-31362164D01*
X103314040Y-31394096D01*
X103341580Y-31484882D01*
X103351000Y-31580527D01*
X103351000Y-32344473D01*
X103341580Y-32440118D01*
X103325033Y-32494665D01*
X103304354Y-32562836D01*
X103243906Y-32675925D01*
X103162554Y-32775054D01*
X103063425Y-32856406D01*
X102950336Y-32916854D01*
X102918404Y-32926540D01*
X102827618Y-32954080D01*
X102700000Y-32966649D01*
X102572383Y-32954080D01*
X102481597Y-32926540D01*
X102449665Y-32916854D01*
X102336576Y-32856406D01*
X102237447Y-32775054D01*
X102156095Y-32675925D01*
X102095648Y-32562837D01*
X102095645Y-32562832D01*
X102058420Y-32440118D01*
X102049000Y-32344473D01*
X102049000Y-31580528D01*
X102058420Y-31484883D01*
X102095645Y-31362169D01*
X102095646Y-31362165D01*
X102156094Y-31249076D01*
X102237447Y-31149946D01*
X102336575Y-31068594D01*
X102449664Y-31008146D01*
X102481596Y-30998460D01*
X102572382Y-30970920D01*
X102700000Y-30958351D01*
X102827617Y-30970920D01*
G37*
G36*
X95827618Y-30970920D02*
G01*
X95918404Y-30998460D01*
X95950336Y-31008146D01*
X96063425Y-31068594D01*
X96162554Y-31149946D01*
X96243906Y-31249075D01*
X96304354Y-31362164D01*
X96314040Y-31394096D01*
X96341580Y-31484882D01*
X96351000Y-31580527D01*
X96351000Y-32344473D01*
X96341580Y-32440118D01*
X96325033Y-32494665D01*
X96304354Y-32562836D01*
X96243906Y-32675925D01*
X96162554Y-32775053D01*
X96063424Y-32856406D01*
X95950335Y-32916854D01*
X95918403Y-32926540D01*
X95827617Y-32954080D01*
X95700000Y-32966649D01*
X95572382Y-32954080D01*
X95481596Y-32926540D01*
X95449664Y-32916854D01*
X95336575Y-32856406D01*
X95237447Y-32775054D01*
X95156094Y-32675924D01*
X95095646Y-32562835D01*
X95060098Y-32445647D01*
X95058420Y-32440117D01*
X95049000Y-32344472D01*
X95049000Y-31580527D01*
X95058420Y-31484882D01*
X95095645Y-31362168D01*
X95120608Y-31315466D01*
X95156095Y-31249075D01*
X95237447Y-31149946D01*
X95336576Y-31068594D01*
X95449665Y-31008146D01*
X95481597Y-30998460D01*
X95572383Y-30970920D01*
X95700000Y-30958351D01*
X95827618Y-30970920D01*
G37*
M02*
