G04 #@! TF.GenerationSoftware,KiCad,Pcbnew,5.1.5+dfsg1-2build2*
G04 #@! TF.CreationDate,2020-12-06T21:44:22-05:00*
G04 #@! TF.ProjectId,eboard,65626f61-7264-42e6-9b69-6361645f7063,rev?*
G04 #@! TF.SameCoordinates,Original*
G04 #@! TF.FileFunction,Legend,Top*
G04 #@! TF.FilePolarity,Positive*
%FSLAX46Y46*%
G04 Gerber Fmt 4.6, Leading zero omitted, Abs format (unit mm)*
G04 Created by KiCad (PCBNEW 5.1.5+dfsg1-2build2) date 2020-12-06 21:44:22*
%MOMM*%
%LPD*%
G04 APERTURE LIST*
%ADD10C,0.150000*%
%ADD11C,0.120000*%
G04 APERTURE END LIST*
D10*
X101000000Y-41752380D02*
X101000000Y-41990476D01*
X100761904Y-41895238D02*
X101000000Y-41990476D01*
X101238095Y-41895238D01*
X100857142Y-42180952D02*
X101000000Y-41990476D01*
X101142857Y-42180952D01*
X53700000Y-87252380D02*
X53700000Y-87490476D01*
X53461904Y-87395238D02*
X53700000Y-87490476D01*
X53938095Y-87395238D01*
X53557142Y-87680952D02*
X53700000Y-87490476D01*
X53842857Y-87680952D01*
X53600000Y-94452380D02*
X53600000Y-94690476D01*
X53361904Y-94595238D02*
X53600000Y-94690476D01*
X53838095Y-94595238D01*
X53457142Y-94880952D02*
X53600000Y-94690476D01*
X53742857Y-94880952D01*
X53500000Y-102152380D02*
X53500000Y-102390476D01*
X53261904Y-102295238D02*
X53500000Y-102390476D01*
X53738095Y-102295238D01*
X53357142Y-102580952D02*
X53500000Y-102390476D01*
X53642857Y-102580952D01*
X54100000Y-109452380D02*
X54100000Y-109690476D01*
X53861904Y-109595238D02*
X54100000Y-109690476D01*
X54338095Y-109595238D01*
X53957142Y-109880952D02*
X54100000Y-109690476D01*
X54242857Y-109880952D01*
X76200000Y-99152380D02*
X76200000Y-99390476D01*
X75961904Y-99295238D02*
X76200000Y-99390476D01*
X76438095Y-99295238D01*
X76057142Y-99580952D02*
X76200000Y-99390476D01*
X76342857Y-99580952D01*
X95400000Y-97152380D02*
X95400000Y-97390476D01*
X95161904Y-97295238D02*
X95400000Y-97390476D01*
X95638095Y-97295238D01*
X95257142Y-97580952D02*
X95400000Y-97390476D01*
X95542857Y-97580952D01*
D11*
X117000000Y-91700000D02*
X117000000Y-93300000D01*
X117000000Y-92500000D02*
X115700000Y-91600000D01*
X115700000Y-93300000D02*
X117000000Y-92500000D01*
X115700000Y-91600000D02*
X115700000Y-93300000D01*
D10*
X106900000Y-93852380D02*
X106900000Y-94090476D01*
X106661904Y-93995238D02*
X106900000Y-94090476D01*
X107138095Y-93995238D01*
X106757142Y-94280952D02*
X106900000Y-94090476D01*
X107042857Y-94280952D01*
X106500000Y-71352380D02*
X106500000Y-71590476D01*
X106261904Y-71495238D02*
X106500000Y-71590476D01*
X106738095Y-71495238D01*
X106357142Y-71780952D02*
X106500000Y-71590476D01*
X106642857Y-71780952D01*
X91200000Y-71752380D02*
X91200000Y-71990476D01*
X90961904Y-71895238D02*
X91200000Y-71990476D01*
X91438095Y-71895238D01*
X91057142Y-72180952D02*
X91200000Y-71990476D01*
X91342857Y-72180952D01*
D11*
X103700000Y-41600000D02*
X102000000Y-41600000D01*
X102900000Y-41500000D02*
X101900000Y-40400000D01*
X103700000Y-40400000D02*
X102900000Y-41500000D01*
X101900000Y-40400000D02*
X103700000Y-40400000D01*
D10*
X108000000Y-38652380D02*
X108000000Y-38890476D01*
X107761904Y-38795238D02*
X108000000Y-38890476D01*
X108238095Y-38795238D01*
X107857142Y-39080952D02*
X108000000Y-38890476D01*
X108142857Y-39080952D01*
X96700000Y-37552380D02*
X96700000Y-37790476D01*
X96461904Y-37695238D02*
X96700000Y-37790476D01*
X96938095Y-37695238D01*
X96557142Y-37980952D02*
X96700000Y-37790476D01*
X96842857Y-37980952D01*
X92200000Y-55452380D02*
X92200000Y-55690476D01*
X91961904Y-55595238D02*
X92200000Y-55690476D01*
X92438095Y-55595238D01*
X92057142Y-55880952D02*
X92200000Y-55690476D01*
X92342857Y-55880952D01*
X83000000Y-59452380D02*
X83000000Y-59690476D01*
X82761904Y-59595238D02*
X83000000Y-59690476D01*
X83238095Y-59595238D01*
X82857142Y-59880952D02*
X83000000Y-59690476D01*
X83142857Y-59880952D01*
D11*
X84000000Y-42700000D02*
X85500000Y-42700000D01*
X84700000Y-42700000D02*
X83900000Y-41500000D01*
X85500000Y-41500000D02*
X84700000Y-42700000D01*
X83900000Y-41500000D02*
X85500000Y-41500000D01*
X76500000Y-46700000D02*
X77500000Y-46700000D01*
X77000000Y-46700000D02*
X77500000Y-45800000D01*
X76500000Y-45800000D02*
X77000000Y-46700000D01*
X77500000Y-45800000D02*
X76500000Y-45800000D01*
X64600000Y-43200000D02*
X64600000Y-44500000D01*
X64500000Y-43900000D02*
X63400000Y-43300000D01*
X63400000Y-44500000D02*
X64500000Y-43900000D01*
X63400000Y-43300000D02*
X63400000Y-44500000D01*
D10*
X52200000Y-45752380D02*
X52200000Y-45990476D01*
X51961904Y-45895238D02*
X52200000Y-45990476D01*
X52438095Y-45895238D01*
X52057142Y-46180952D02*
X52200000Y-45990476D01*
X52342857Y-46180952D01*
X121420238Y-70471428D02*
X121372619Y-70376190D01*
X121372619Y-70185714D01*
X121420238Y-70090476D01*
X121515476Y-70042857D01*
X121896428Y-70042857D01*
X121991666Y-70090476D01*
X122039285Y-70185714D01*
X122039285Y-70376190D01*
X121991666Y-70471428D01*
X121896428Y-70519047D01*
X121801190Y-70519047D01*
X121705952Y-70042857D01*
X121372619Y-70947619D02*
X122372619Y-70947619D01*
X121991666Y-70947619D02*
X122039285Y-71042857D01*
X122039285Y-71233333D01*
X121991666Y-71328571D01*
X121944047Y-71376190D01*
X121848809Y-71423809D01*
X121563095Y-71423809D01*
X121467857Y-71376190D01*
X121420238Y-71328571D01*
X121372619Y-71233333D01*
X121372619Y-71042857D01*
X121420238Y-70947619D01*
X121372619Y-71995238D02*
X121420238Y-71900000D01*
X121467857Y-71852380D01*
X121563095Y-71804761D01*
X121848809Y-71804761D01*
X121944047Y-71852380D01*
X121991666Y-71900000D01*
X122039285Y-71995238D01*
X122039285Y-72138095D01*
X121991666Y-72233333D01*
X121944047Y-72280952D01*
X121848809Y-72328571D01*
X121563095Y-72328571D01*
X121467857Y-72280952D01*
X121420238Y-72233333D01*
X121372619Y-72138095D01*
X121372619Y-71995238D01*
X121372619Y-73185714D02*
X121896428Y-73185714D01*
X121991666Y-73138095D01*
X122039285Y-73042857D01*
X122039285Y-72852380D01*
X121991666Y-72757142D01*
X121420238Y-73185714D02*
X121372619Y-73090476D01*
X121372619Y-72852380D01*
X121420238Y-72757142D01*
X121515476Y-72709523D01*
X121610714Y-72709523D01*
X121705952Y-72757142D01*
X121753571Y-72852380D01*
X121753571Y-73090476D01*
X121801190Y-73185714D01*
X121372619Y-73661904D02*
X122039285Y-73661904D01*
X121848809Y-73661904D02*
X121944047Y-73709523D01*
X121991666Y-73757142D01*
X122039285Y-73852380D01*
X122039285Y-73947619D01*
X121372619Y-74709523D02*
X122372619Y-74709523D01*
X121420238Y-74709523D02*
X121372619Y-74614285D01*
X121372619Y-74423809D01*
X121420238Y-74328571D01*
X121467857Y-74280952D01*
X121563095Y-74233333D01*
X121848809Y-74233333D01*
X121944047Y-74280952D01*
X121991666Y-74328571D01*
X122039285Y-74423809D01*
X122039285Y-74614285D01*
X121991666Y-74709523D01*
X120627380Y-67542857D02*
X120675000Y-67590476D01*
X120722619Y-67685714D01*
X120722619Y-67923809D01*
X120675000Y-68019047D01*
X120627380Y-68066666D01*
X120532142Y-68114285D01*
X120436904Y-68114285D01*
X120294047Y-68066666D01*
X119722619Y-67495238D01*
X119722619Y-68114285D01*
X120722619Y-68733333D02*
X120722619Y-68828571D01*
X120675000Y-68923809D01*
X120627380Y-68971428D01*
X120532142Y-69019047D01*
X120341666Y-69066666D01*
X120103571Y-69066666D01*
X119913095Y-69019047D01*
X119817857Y-68971428D01*
X119770238Y-68923809D01*
X119722619Y-68828571D01*
X119722619Y-68733333D01*
X119770238Y-68638095D01*
X119817857Y-68590476D01*
X119913095Y-68542857D01*
X120103571Y-68495238D01*
X120341666Y-68495238D01*
X120532142Y-68542857D01*
X120627380Y-68590476D01*
X120675000Y-68638095D01*
X120722619Y-68733333D01*
X120627380Y-69447619D02*
X120675000Y-69495238D01*
X120722619Y-69590476D01*
X120722619Y-69828571D01*
X120675000Y-69923809D01*
X120627380Y-69971428D01*
X120532142Y-70019047D01*
X120436904Y-70019047D01*
X120294047Y-69971428D01*
X119722619Y-69400000D01*
X119722619Y-70019047D01*
X120722619Y-70638095D02*
X120722619Y-70733333D01*
X120675000Y-70828571D01*
X120627380Y-70876190D01*
X120532142Y-70923809D01*
X120341666Y-70971428D01*
X120103571Y-70971428D01*
X119913095Y-70923809D01*
X119817857Y-70876190D01*
X119770238Y-70828571D01*
X119722619Y-70733333D01*
X119722619Y-70638095D01*
X119770238Y-70542857D01*
X119817857Y-70495238D01*
X119913095Y-70447619D01*
X120103571Y-70400000D01*
X120341666Y-70400000D01*
X120532142Y-70447619D01*
X120627380Y-70495238D01*
X120675000Y-70542857D01*
X120722619Y-70638095D01*
X120103571Y-71400000D02*
X120103571Y-72161904D01*
X119722619Y-73161904D02*
X119722619Y-72590476D01*
X119722619Y-72876190D02*
X120722619Y-72876190D01*
X120579761Y-72780952D01*
X120484523Y-72685714D01*
X120436904Y-72590476D01*
X120627380Y-73542857D02*
X120675000Y-73590476D01*
X120722619Y-73685714D01*
X120722619Y-73923809D01*
X120675000Y-74019047D01*
X120627380Y-74066666D01*
X120532142Y-74114285D01*
X120436904Y-74114285D01*
X120294047Y-74066666D01*
X119722619Y-73495238D01*
X119722619Y-74114285D01*
X120103571Y-74542857D02*
X120103571Y-75304761D01*
X120722619Y-75971428D02*
X120722619Y-76066666D01*
X120675000Y-76161904D01*
X120627380Y-76209523D01*
X120532142Y-76257142D01*
X120341666Y-76304761D01*
X120103571Y-76304761D01*
X119913095Y-76257142D01*
X119817857Y-76209523D01*
X119770238Y-76161904D01*
X119722619Y-76066666D01*
X119722619Y-75971428D01*
X119770238Y-75876190D01*
X119817857Y-75828571D01*
X119913095Y-75780952D01*
X120103571Y-75733333D01*
X120341666Y-75733333D01*
X120532142Y-75780952D01*
X120627380Y-75828571D01*
X120675000Y-75876190D01*
X120722619Y-75971428D01*
X120722619Y-77161904D02*
X120722619Y-76971428D01*
X120675000Y-76876190D01*
X120627380Y-76828571D01*
X120484523Y-76733333D01*
X120294047Y-76685714D01*
X119913095Y-76685714D01*
X119817857Y-76733333D01*
X119770238Y-76780952D01*
X119722619Y-76876190D01*
X119722619Y-77066666D01*
X119770238Y-77161904D01*
X119817857Y-77209523D01*
X119913095Y-77257142D01*
X120151190Y-77257142D01*
X120246428Y-77209523D01*
X120294047Y-77161904D01*
X120341666Y-77066666D01*
X120341666Y-76876190D01*
X120294047Y-76780952D01*
X120246428Y-76733333D01*
X120151190Y-76685714D01*
X87404761Y-47761904D02*
X87452380Y-47619047D01*
X87452380Y-47380952D01*
X87404761Y-47285714D01*
X87357142Y-47238095D01*
X87261904Y-47190476D01*
X87166666Y-47190476D01*
X87071428Y-47238095D01*
X87023809Y-47285714D01*
X86976190Y-47380952D01*
X86928571Y-47571428D01*
X86880952Y-47666666D01*
X86833333Y-47714285D01*
X86738095Y-47761904D01*
X86642857Y-47761904D01*
X86547619Y-47714285D01*
X86500000Y-47666666D01*
X86452380Y-47571428D01*
X86452380Y-47333333D01*
X86500000Y-47190476D01*
X86785714Y-46904761D02*
X86785714Y-46523809D01*
X86452380Y-46761904D02*
X87309523Y-46761904D01*
X87404761Y-46714285D01*
X87452380Y-46619047D01*
X87452380Y-46523809D01*
X87452380Y-45761904D02*
X86928571Y-45761904D01*
X86833333Y-45809523D01*
X86785714Y-45904761D01*
X86785714Y-46095238D01*
X86833333Y-46190476D01*
X87404761Y-45761904D02*
X87452380Y-45857142D01*
X87452380Y-46095238D01*
X87404761Y-46190476D01*
X87309523Y-46238095D01*
X87214285Y-46238095D01*
X87119047Y-46190476D01*
X87071428Y-46095238D01*
X87071428Y-45857142D01*
X87023809Y-45761904D01*
X86785714Y-45285714D02*
X87452380Y-45285714D01*
X86880952Y-45285714D02*
X86833333Y-45238095D01*
X86785714Y-45142857D01*
X86785714Y-45000000D01*
X86833333Y-44904761D01*
X86928571Y-44857142D01*
X87452380Y-44857142D01*
X87452380Y-43952380D02*
X86452380Y-43952380D01*
X87404761Y-43952380D02*
X87452380Y-44047619D01*
X87452380Y-44238095D01*
X87404761Y-44333333D01*
X87357142Y-44380952D01*
X87261904Y-44428571D01*
X86976190Y-44428571D01*
X86880952Y-44380952D01*
X86833333Y-44333333D01*
X86785714Y-44238095D01*
X86785714Y-44047619D01*
X86833333Y-43952380D01*
X87452380Y-43476190D02*
X86452380Y-43476190D01*
X86833333Y-43476190D02*
X86785714Y-43380952D01*
X86785714Y-43190476D01*
X86833333Y-43095238D01*
X86880952Y-43047619D01*
X86976190Y-43000000D01*
X87261904Y-43000000D01*
X87357142Y-43047619D01*
X87404761Y-43095238D01*
X87452380Y-43190476D01*
X87452380Y-43380952D01*
X87404761Y-43476190D01*
X86785714Y-42666666D02*
X87452380Y-42428571D01*
X86785714Y-42190476D02*
X87452380Y-42428571D01*
X87690476Y-42523809D01*
X87738095Y-42571428D01*
X87785714Y-42666666D01*
X75214285Y-40057142D02*
X75166666Y-40104761D01*
X75023809Y-40152380D01*
X74928571Y-40152380D01*
X74785714Y-40104761D01*
X74690476Y-40009523D01*
X74642857Y-39914285D01*
X74595238Y-39723809D01*
X74595238Y-39580952D01*
X74642857Y-39390476D01*
X74690476Y-39295238D01*
X74785714Y-39200000D01*
X74928571Y-39152380D01*
X75023809Y-39152380D01*
X75166666Y-39200000D01*
X75214285Y-39247619D01*
X75642857Y-40152380D02*
X75642857Y-39152380D01*
X76071428Y-40152380D02*
X76071428Y-39628571D01*
X76023809Y-39533333D01*
X75928571Y-39485714D01*
X75785714Y-39485714D01*
X75690476Y-39533333D01*
X75642857Y-39580952D01*
X76976190Y-40152380D02*
X76976190Y-39628571D01*
X76928571Y-39533333D01*
X76833333Y-39485714D01*
X76642857Y-39485714D01*
X76547619Y-39533333D01*
X76976190Y-40104761D02*
X76880952Y-40152380D01*
X76642857Y-40152380D01*
X76547619Y-40104761D01*
X76500000Y-40009523D01*
X76500000Y-39914285D01*
X76547619Y-39819047D01*
X76642857Y-39771428D01*
X76880952Y-39771428D01*
X76976190Y-39723809D01*
X77452380Y-40152380D02*
X77452380Y-39485714D01*
X77452380Y-39676190D02*
X77500000Y-39580952D01*
X77547619Y-39533333D01*
X77642857Y-39485714D01*
X77738095Y-39485714D01*
X78500000Y-39485714D02*
X78500000Y-40295238D01*
X78452380Y-40390476D01*
X78404761Y-40438095D01*
X78309523Y-40485714D01*
X78166666Y-40485714D01*
X78071428Y-40438095D01*
X78500000Y-40104761D02*
X78404761Y-40152380D01*
X78214285Y-40152380D01*
X78119047Y-40104761D01*
X78071428Y-40057142D01*
X78023809Y-39961904D01*
X78023809Y-39676190D01*
X78071428Y-39580952D01*
X78119047Y-39533333D01*
X78214285Y-39485714D01*
X78404761Y-39485714D01*
X78500000Y-39533333D01*
X79357142Y-40104761D02*
X79261904Y-40152380D01*
X79071428Y-40152380D01*
X78976190Y-40104761D01*
X78928571Y-40009523D01*
X78928571Y-39628571D01*
X78976190Y-39533333D01*
X79071428Y-39485714D01*
X79261904Y-39485714D01*
X79357142Y-39533333D01*
X79404761Y-39628571D01*
X79404761Y-39723809D01*
X78928571Y-39819047D01*
X64028571Y-65495238D02*
X64076190Y-65352380D01*
X64123809Y-65304761D01*
X64219047Y-65257142D01*
X64361904Y-65257142D01*
X64457142Y-65304761D01*
X64504761Y-65352380D01*
X64552380Y-65447619D01*
X64552380Y-65828571D01*
X63552380Y-65828571D01*
X63552380Y-65495238D01*
X63600000Y-65400000D01*
X63647619Y-65352380D01*
X63742857Y-65304761D01*
X63838095Y-65304761D01*
X63933333Y-65352380D01*
X63980952Y-65400000D01*
X64028571Y-65495238D01*
X64028571Y-65828571D01*
X64552380Y-64685714D02*
X64504761Y-64780952D01*
X64457142Y-64828571D01*
X64361904Y-64876190D01*
X64076190Y-64876190D01*
X63980952Y-64828571D01*
X63933333Y-64780952D01*
X63885714Y-64685714D01*
X63885714Y-64542857D01*
X63933333Y-64447619D01*
X63980952Y-64400000D01*
X64076190Y-64352380D01*
X64361904Y-64352380D01*
X64457142Y-64400000D01*
X64504761Y-64447619D01*
X64552380Y-64542857D01*
X64552380Y-64685714D01*
X64552380Y-63780952D02*
X64504761Y-63876190D01*
X64457142Y-63923809D01*
X64361904Y-63971428D01*
X64076190Y-63971428D01*
X63980952Y-63923809D01*
X63933333Y-63876190D01*
X63885714Y-63780952D01*
X63885714Y-63638095D01*
X63933333Y-63542857D01*
X63980952Y-63495238D01*
X64076190Y-63447619D01*
X64361904Y-63447619D01*
X64457142Y-63495238D01*
X64504761Y-63542857D01*
X64552380Y-63638095D01*
X64552380Y-63780952D01*
X63885714Y-63161904D02*
X63885714Y-62780952D01*
X63552380Y-63019047D02*
X64409523Y-63019047D01*
X64504761Y-62971428D01*
X64552380Y-62876190D01*
X64552380Y-62780952D01*
X63552380Y-62257142D02*
X63552380Y-62161904D01*
X63600000Y-62066666D01*
X63647619Y-62019047D01*
X63742857Y-61971428D01*
X63933333Y-61923809D01*
X64171428Y-61923809D01*
X64361904Y-61971428D01*
X64457142Y-62019047D01*
X64504761Y-62066666D01*
X64552380Y-62161904D01*
X64552380Y-62257142D01*
X64504761Y-62352380D01*
X64457142Y-62400000D01*
X64361904Y-62447619D01*
X64171428Y-62495238D01*
X63933333Y-62495238D01*
X63742857Y-62447619D01*
X63647619Y-62400000D01*
X63600000Y-62352380D01*
X63552380Y-62257142D01*
X52852380Y-65038095D02*
X52376190Y-65371428D01*
X52852380Y-65609523D02*
X51852380Y-65609523D01*
X51852380Y-65228571D01*
X51900000Y-65133333D01*
X51947619Y-65085714D01*
X52042857Y-65038095D01*
X52185714Y-65038095D01*
X52280952Y-65085714D01*
X52328571Y-65133333D01*
X52376190Y-65228571D01*
X52376190Y-65609523D01*
X52804761Y-64228571D02*
X52852380Y-64323809D01*
X52852380Y-64514285D01*
X52804761Y-64609523D01*
X52709523Y-64657142D01*
X52328571Y-64657142D01*
X52233333Y-64609523D01*
X52185714Y-64514285D01*
X52185714Y-64323809D01*
X52233333Y-64228571D01*
X52328571Y-64180952D01*
X52423809Y-64180952D01*
X52519047Y-64657142D01*
X52804761Y-63800000D02*
X52852380Y-63704761D01*
X52852380Y-63514285D01*
X52804761Y-63419047D01*
X52709523Y-63371428D01*
X52661904Y-63371428D01*
X52566666Y-63419047D01*
X52519047Y-63514285D01*
X52519047Y-63657142D01*
X52471428Y-63752380D01*
X52376190Y-63800000D01*
X52328571Y-63800000D01*
X52233333Y-63752380D01*
X52185714Y-63657142D01*
X52185714Y-63514285D01*
X52233333Y-63419047D01*
X52804761Y-62561904D02*
X52852380Y-62657142D01*
X52852380Y-62847619D01*
X52804761Y-62942857D01*
X52709523Y-62990476D01*
X52328571Y-62990476D01*
X52233333Y-62942857D01*
X52185714Y-62847619D01*
X52185714Y-62657142D01*
X52233333Y-62561904D01*
X52328571Y-62514285D01*
X52423809Y-62514285D01*
X52519047Y-62990476D01*
X52185714Y-62228571D02*
X52185714Y-61847619D01*
X51852380Y-62085714D02*
X52709523Y-62085714D01*
X52804761Y-62038095D01*
X52852380Y-61942857D01*
X52852380Y-61847619D01*
X110372619Y-54014285D02*
X110372619Y-53442857D01*
X110372619Y-53728571D02*
X111372619Y-53728571D01*
X111229761Y-53633333D01*
X111134523Y-53538095D01*
X111086904Y-53442857D01*
X110753571Y-54442857D02*
X110753571Y-55204761D01*
X111277380Y-55633333D02*
X111325000Y-55680952D01*
X111372619Y-55776190D01*
X111372619Y-56014285D01*
X111325000Y-56109523D01*
X111277380Y-56157142D01*
X111182142Y-56204761D01*
X111086904Y-56204761D01*
X110944047Y-56157142D01*
X110372619Y-55585714D01*
X110372619Y-56204761D01*
X111039285Y-57395238D02*
X110372619Y-57395238D01*
X110944047Y-57395238D02*
X110991666Y-57442857D01*
X111039285Y-57538095D01*
X111039285Y-57680952D01*
X110991666Y-57776190D01*
X110896428Y-57823809D01*
X110372619Y-57823809D01*
X110372619Y-58442857D02*
X110420238Y-58347619D01*
X110467857Y-58300000D01*
X110563095Y-58252380D01*
X110848809Y-58252380D01*
X110944047Y-58300000D01*
X110991666Y-58347619D01*
X111039285Y-58442857D01*
X111039285Y-58585714D01*
X110991666Y-58680952D01*
X110944047Y-58728571D01*
X110848809Y-58776190D01*
X110563095Y-58776190D01*
X110467857Y-58728571D01*
X110420238Y-58680952D01*
X110372619Y-58585714D01*
X110372619Y-58442857D01*
X110372619Y-59204761D02*
X111039285Y-59204761D01*
X110848809Y-59204761D02*
X110944047Y-59252380D01*
X110991666Y-59300000D01*
X111039285Y-59395238D01*
X111039285Y-59490476D01*
X110372619Y-59823809D02*
X111039285Y-59823809D01*
X110944047Y-59823809D02*
X110991666Y-59871428D01*
X111039285Y-59966666D01*
X111039285Y-60109523D01*
X110991666Y-60204761D01*
X110896428Y-60252380D01*
X110372619Y-60252380D01*
X110896428Y-60252380D02*
X110991666Y-60300000D01*
X111039285Y-60395238D01*
X111039285Y-60538095D01*
X110991666Y-60633333D01*
X110896428Y-60680952D01*
X110372619Y-60680952D01*
X110372619Y-61585714D02*
X110896428Y-61585714D01*
X110991666Y-61538095D01*
X111039285Y-61442857D01*
X111039285Y-61252380D01*
X110991666Y-61157142D01*
X110420238Y-61585714D02*
X110372619Y-61490476D01*
X110372619Y-61252380D01*
X110420238Y-61157142D01*
X110515476Y-61109523D01*
X110610714Y-61109523D01*
X110705952Y-61157142D01*
X110753571Y-61252380D01*
X110753571Y-61490476D01*
X110801190Y-61585714D01*
X110372619Y-62204761D02*
X110420238Y-62109523D01*
X110515476Y-62061904D01*
X111372619Y-62061904D01*
X109627380Y-49300000D02*
X109675000Y-49347619D01*
X109722619Y-49442857D01*
X109722619Y-49680952D01*
X109675000Y-49776190D01*
X109627380Y-49823809D01*
X109532142Y-49871428D01*
X109436904Y-49871428D01*
X109294047Y-49823809D01*
X108722619Y-49252380D01*
X108722619Y-49871428D01*
X109103571Y-50300000D02*
X109103571Y-51061904D01*
X109722619Y-51442857D02*
X109722619Y-52061904D01*
X109341666Y-51728571D01*
X109341666Y-51871428D01*
X109294047Y-51966666D01*
X109246428Y-52014285D01*
X109151190Y-52061904D01*
X108913095Y-52061904D01*
X108817857Y-52014285D01*
X108770238Y-51966666D01*
X108722619Y-51871428D01*
X108722619Y-51585714D01*
X108770238Y-51490476D01*
X108817857Y-51442857D01*
X108722619Y-53252380D02*
X109722619Y-53252380D01*
X109341666Y-53252380D02*
X109389285Y-53347619D01*
X109389285Y-53538095D01*
X109341666Y-53633333D01*
X109294047Y-53680952D01*
X109198809Y-53728571D01*
X108913095Y-53728571D01*
X108817857Y-53680952D01*
X108770238Y-53633333D01*
X108722619Y-53538095D01*
X108722619Y-53347619D01*
X108770238Y-53252380D01*
X109389285Y-54061904D02*
X108722619Y-54300000D01*
X109389285Y-54538095D02*
X108722619Y-54300000D01*
X108484523Y-54204761D01*
X108436904Y-54157142D01*
X108389285Y-54061904D01*
X109389285Y-54919047D02*
X108389285Y-54919047D01*
X109341666Y-54919047D02*
X109389285Y-55014285D01*
X109389285Y-55204761D01*
X109341666Y-55300000D01*
X109294047Y-55347619D01*
X109198809Y-55395238D01*
X108913095Y-55395238D01*
X108817857Y-55347619D01*
X108770238Y-55300000D01*
X108722619Y-55204761D01*
X108722619Y-55014285D01*
X108770238Y-54919047D01*
X108722619Y-56252380D02*
X109246428Y-56252380D01*
X109341666Y-56204761D01*
X109389285Y-56109523D01*
X109389285Y-55919047D01*
X109341666Y-55823809D01*
X108770238Y-56252380D02*
X108722619Y-56157142D01*
X108722619Y-55919047D01*
X108770238Y-55823809D01*
X108865476Y-55776190D01*
X108960714Y-55776190D01*
X109055952Y-55823809D01*
X109103571Y-55919047D01*
X109103571Y-56157142D01*
X109151190Y-56252380D01*
X108770238Y-56680952D02*
X108722619Y-56776190D01*
X108722619Y-56966666D01*
X108770238Y-57061904D01*
X108865476Y-57109523D01*
X108913095Y-57109523D01*
X109008333Y-57061904D01*
X109055952Y-56966666D01*
X109055952Y-56823809D01*
X109103571Y-56728571D01*
X109198809Y-56680952D01*
X109246428Y-56680952D01*
X109341666Y-56728571D01*
X109389285Y-56823809D01*
X109389285Y-56966666D01*
X109341666Y-57061904D01*
X108770238Y-57490476D02*
X108722619Y-57585714D01*
X108722619Y-57776190D01*
X108770238Y-57871428D01*
X108865476Y-57919047D01*
X108913095Y-57919047D01*
X109008333Y-57871428D01*
X109055952Y-57776190D01*
X109055952Y-57633333D01*
X109103571Y-57538095D01*
X109198809Y-57490476D01*
X109246428Y-57490476D01*
X109341666Y-57538095D01*
X109389285Y-57633333D01*
X109389285Y-57776190D01*
X109341666Y-57871428D01*
X108722619Y-59109523D02*
X109389285Y-59109523D01*
X109198809Y-59109523D02*
X109294047Y-59157142D01*
X109341666Y-59204761D01*
X109389285Y-59300000D01*
X109389285Y-59395238D01*
X108770238Y-60109523D02*
X108722619Y-60014285D01*
X108722619Y-59823809D01*
X108770238Y-59728571D01*
X108865476Y-59680952D01*
X109246428Y-59680952D01*
X109341666Y-59728571D01*
X109389285Y-59823809D01*
X109389285Y-60014285D01*
X109341666Y-60109523D01*
X109246428Y-60157142D01*
X109151190Y-60157142D01*
X109055952Y-59680952D01*
X109389285Y-61014285D02*
X108579761Y-61014285D01*
X108484523Y-60966666D01*
X108436904Y-60919047D01*
X108389285Y-60823809D01*
X108389285Y-60680952D01*
X108436904Y-60585714D01*
X108770238Y-61014285D02*
X108722619Y-60919047D01*
X108722619Y-60728571D01*
X108770238Y-60633333D01*
X108817857Y-60585714D01*
X108913095Y-60538095D01*
X109198809Y-60538095D01*
X109294047Y-60585714D01*
X109341666Y-60633333D01*
X109389285Y-60728571D01*
X109389285Y-60919047D01*
X109341666Y-61014285D01*
X109389285Y-61919047D02*
X108722619Y-61919047D01*
X109389285Y-61490476D02*
X108865476Y-61490476D01*
X108770238Y-61538095D01*
X108722619Y-61633333D01*
X108722619Y-61776190D01*
X108770238Y-61871428D01*
X108817857Y-61919047D01*
X108722619Y-62538095D02*
X108770238Y-62442857D01*
X108865476Y-62395238D01*
X109722619Y-62395238D01*
X108722619Y-63347619D02*
X109246428Y-63347619D01*
X109341666Y-63300000D01*
X109389285Y-63204761D01*
X109389285Y-63014285D01*
X109341666Y-62919047D01*
X108770238Y-63347619D02*
X108722619Y-63252380D01*
X108722619Y-63014285D01*
X108770238Y-62919047D01*
X108865476Y-62871428D01*
X108960714Y-62871428D01*
X109055952Y-62919047D01*
X109103571Y-63014285D01*
X109103571Y-63252380D01*
X109151190Y-63347619D01*
X109389285Y-63680952D02*
X109389285Y-64061904D01*
X109722619Y-63823809D02*
X108865476Y-63823809D01*
X108770238Y-63871428D01*
X108722619Y-63966666D01*
X108722619Y-64061904D01*
X108722619Y-64538095D02*
X108770238Y-64442857D01*
X108817857Y-64395238D01*
X108913095Y-64347619D01*
X109198809Y-64347619D01*
X109294047Y-64395238D01*
X109341666Y-64442857D01*
X109389285Y-64538095D01*
X109389285Y-64680952D01*
X109341666Y-64776190D01*
X109294047Y-64823809D01*
X109198809Y-64871428D01*
X108913095Y-64871428D01*
X108817857Y-64823809D01*
X108770238Y-64776190D01*
X108722619Y-64680952D01*
X108722619Y-64538095D01*
X108722619Y-65300000D02*
X109389285Y-65300000D01*
X109198809Y-65300000D02*
X109294047Y-65347619D01*
X109341666Y-65395238D01*
X109389285Y-65490476D01*
X109389285Y-65585714D01*
X108770238Y-65871428D02*
X108722619Y-65966666D01*
X108722619Y-66157142D01*
X108770238Y-66252380D01*
X108865476Y-66300000D01*
X108913095Y-66300000D01*
X109008333Y-66252380D01*
X109055952Y-66157142D01*
X109055952Y-66014285D01*
X109103571Y-65919047D01*
X109198809Y-65871428D01*
X109246428Y-65871428D01*
X109341666Y-65919047D01*
X109389285Y-66014285D01*
X109389285Y-66157142D01*
X109341666Y-66252380D01*
X114519047Y-33171428D02*
X115280952Y-33171428D01*
X106119047Y-33971428D02*
X106880952Y-33971428D01*
X106500000Y-34352380D02*
X106500000Y-33590476D01*
X122472619Y-40966666D02*
X121758333Y-40966666D01*
X121615476Y-40919047D01*
X121520238Y-40823809D01*
X121472619Y-40680952D01*
X121472619Y-40585714D01*
X121472619Y-41966666D02*
X121472619Y-41395238D01*
X121472619Y-41680952D02*
X122472619Y-41680952D01*
X122329761Y-41585714D01*
X122234523Y-41490476D01*
X122186904Y-41395238D01*
X121567857Y-42395238D02*
X121520238Y-42442857D01*
X121472619Y-42395238D01*
X121520238Y-42347619D01*
X121567857Y-42395238D01*
X121472619Y-42395238D01*
X122091666Y-42395238D02*
X122044047Y-42442857D01*
X121996428Y-42395238D01*
X122044047Y-42347619D01*
X122091666Y-42395238D01*
X121996428Y-42395238D01*
X121520238Y-44014285D02*
X121472619Y-43919047D01*
X121472619Y-43728571D01*
X121520238Y-43633333D01*
X121615476Y-43585714D01*
X121996428Y-43585714D01*
X122091666Y-43633333D01*
X122139285Y-43728571D01*
X122139285Y-43919047D01*
X122091666Y-44014285D01*
X121996428Y-44061904D01*
X121901190Y-44061904D01*
X121805952Y-43585714D01*
X121472619Y-44395238D02*
X122139285Y-44919047D01*
X122139285Y-44395238D02*
X121472619Y-44919047D01*
X122139285Y-45157142D02*
X122139285Y-45538095D01*
X122472619Y-45300000D02*
X121615476Y-45300000D01*
X121520238Y-45347619D01*
X121472619Y-45442857D01*
X121472619Y-45538095D01*
X121472619Y-46633333D02*
X122472619Y-46633333D01*
X122472619Y-46871428D01*
X122425000Y-47014285D01*
X122329761Y-47109523D01*
X122234523Y-47157142D01*
X122044047Y-47204761D01*
X121901190Y-47204761D01*
X121710714Y-47157142D01*
X121615476Y-47109523D01*
X121520238Y-47014285D01*
X121472619Y-46871428D01*
X121472619Y-46633333D01*
X121567857Y-48204761D02*
X121520238Y-48157142D01*
X121472619Y-48014285D01*
X121472619Y-47919047D01*
X121520238Y-47776190D01*
X121615476Y-47680952D01*
X121710714Y-47633333D01*
X121901190Y-47585714D01*
X122044047Y-47585714D01*
X122234523Y-47633333D01*
X122329761Y-47680952D01*
X122425000Y-47776190D01*
X122472619Y-47919047D01*
X122472619Y-48014285D01*
X122425000Y-48157142D01*
X122377380Y-48204761D01*
X121567857Y-48633333D02*
X121520238Y-48680952D01*
X121472619Y-48633333D01*
X121520238Y-48585714D01*
X121567857Y-48633333D01*
X121472619Y-48633333D01*
X122091666Y-48633333D02*
X122044047Y-48680952D01*
X121996428Y-48633333D01*
X122044047Y-48585714D01*
X122091666Y-48633333D01*
X121996428Y-48633333D01*
X121472619Y-50395238D02*
X121472619Y-49823809D01*
X121472619Y-50109523D02*
X122472619Y-50109523D01*
X122329761Y-50014285D01*
X122234523Y-49919047D01*
X122186904Y-49823809D01*
X121567857Y-50823809D02*
X121520238Y-50871428D01*
X121472619Y-50823809D01*
X121520238Y-50776190D01*
X121567857Y-50823809D01*
X121472619Y-50823809D01*
X122044047Y-51442857D02*
X122091666Y-51347619D01*
X122139285Y-51300000D01*
X122234523Y-51252380D01*
X122282142Y-51252380D01*
X122377380Y-51300000D01*
X122425000Y-51347619D01*
X122472619Y-51442857D01*
X122472619Y-51633333D01*
X122425000Y-51728571D01*
X122377380Y-51776190D01*
X122282142Y-51823809D01*
X122234523Y-51823809D01*
X122139285Y-51776190D01*
X122091666Y-51728571D01*
X122044047Y-51633333D01*
X122044047Y-51442857D01*
X121996428Y-51347619D01*
X121948809Y-51300000D01*
X121853571Y-51252380D01*
X121663095Y-51252380D01*
X121567857Y-51300000D01*
X121520238Y-51347619D01*
X121472619Y-51442857D01*
X121472619Y-51633333D01*
X121520238Y-51728571D01*
X121567857Y-51776190D01*
X121663095Y-51823809D01*
X121853571Y-51823809D01*
X121948809Y-51776190D01*
X121996428Y-51728571D01*
X122044047Y-51633333D01*
X122139285Y-52871428D02*
X122139285Y-53252380D01*
X122472619Y-53014285D02*
X121615476Y-53014285D01*
X121520238Y-53061904D01*
X121472619Y-53157142D01*
X121472619Y-53252380D01*
X121472619Y-53728571D02*
X121520238Y-53633333D01*
X121567857Y-53585714D01*
X121663095Y-53538095D01*
X121948809Y-53538095D01*
X122044047Y-53585714D01*
X122091666Y-53633333D01*
X122139285Y-53728571D01*
X122139285Y-53871428D01*
X122091666Y-53966666D01*
X122044047Y-54014285D01*
X121948809Y-54061904D01*
X121663095Y-54061904D01*
X121567857Y-54014285D01*
X121520238Y-53966666D01*
X121472619Y-53871428D01*
X121472619Y-53728571D01*
X122139285Y-55680952D02*
X121472619Y-55680952D01*
X122520238Y-55442857D02*
X121805952Y-55204761D01*
X121805952Y-55823809D01*
X121567857Y-56204761D02*
X121520238Y-56252380D01*
X121472619Y-56204761D01*
X121520238Y-56157142D01*
X121567857Y-56204761D01*
X121472619Y-56204761D01*
X122472619Y-57109523D02*
X122472619Y-56919047D01*
X122425000Y-56823809D01*
X122377380Y-56776190D01*
X122234523Y-56680952D01*
X122044047Y-56633333D01*
X121663095Y-56633333D01*
X121567857Y-56680952D01*
X121520238Y-56728571D01*
X121472619Y-56823809D01*
X121472619Y-57014285D01*
X121520238Y-57109523D01*
X121567857Y-57157142D01*
X121663095Y-57204761D01*
X121901190Y-57204761D01*
X121996428Y-57157142D01*
X122044047Y-57109523D01*
X122091666Y-57014285D01*
X122091666Y-56823809D01*
X122044047Y-56728571D01*
X121996428Y-56680952D01*
X121901190Y-56633333D01*
X122139285Y-57538095D02*
X121472619Y-57776190D01*
X122139285Y-58014285D01*
X120489285Y-38800000D02*
X120489285Y-39180952D01*
X119822619Y-38942857D02*
X120679761Y-38942857D01*
X120775000Y-38990476D01*
X120822619Y-39085714D01*
X120822619Y-39180952D01*
X119822619Y-39657142D02*
X119870238Y-39561904D01*
X119917857Y-39514285D01*
X120013095Y-39466666D01*
X120298809Y-39466666D01*
X120394047Y-39514285D01*
X120441666Y-39561904D01*
X120489285Y-39657142D01*
X120489285Y-39800000D01*
X120441666Y-39895238D01*
X120394047Y-39942857D01*
X120298809Y-39990476D01*
X120013095Y-39990476D01*
X119917857Y-39942857D01*
X119870238Y-39895238D01*
X119822619Y-39800000D01*
X119822619Y-39657142D01*
X119822619Y-40419047D02*
X120489285Y-40419047D01*
X120298809Y-40419047D02*
X120394047Y-40466666D01*
X120441666Y-40514285D01*
X120489285Y-40609523D01*
X120489285Y-40704761D01*
X119822619Y-42276190D02*
X119822619Y-41800000D01*
X120822619Y-41800000D01*
X119822619Y-42609523D02*
X120489285Y-42609523D01*
X120822619Y-42609523D02*
X120775000Y-42561904D01*
X120727380Y-42609523D01*
X120775000Y-42657142D01*
X120822619Y-42609523D01*
X120727380Y-42609523D01*
X119822619Y-43847619D02*
X120489285Y-43847619D01*
X120298809Y-43847619D02*
X120394047Y-43895238D01*
X120441666Y-43942857D01*
X120489285Y-44038095D01*
X120489285Y-44133333D01*
X119870238Y-44847619D02*
X119822619Y-44752380D01*
X119822619Y-44561904D01*
X119870238Y-44466666D01*
X119965476Y-44419047D01*
X120346428Y-44419047D01*
X120441666Y-44466666D01*
X120489285Y-44561904D01*
X120489285Y-44752380D01*
X120441666Y-44847619D01*
X120346428Y-44895238D01*
X120251190Y-44895238D01*
X120155952Y-44419047D01*
X119870238Y-45752380D02*
X119822619Y-45657142D01*
X119822619Y-45466666D01*
X119870238Y-45371428D01*
X119917857Y-45323809D01*
X120013095Y-45276190D01*
X120298809Y-45276190D01*
X120394047Y-45323809D01*
X120441666Y-45371428D01*
X120489285Y-45466666D01*
X120489285Y-45657142D01*
X120441666Y-45752380D01*
X119822619Y-46180952D02*
X120822619Y-46180952D01*
X119822619Y-46609523D02*
X120346428Y-46609523D01*
X120441666Y-46561904D01*
X120489285Y-46466666D01*
X120489285Y-46323809D01*
X120441666Y-46228571D01*
X120394047Y-46180952D01*
X119822619Y-47514285D02*
X120346428Y-47514285D01*
X120441666Y-47466666D01*
X120489285Y-47371428D01*
X120489285Y-47180952D01*
X120441666Y-47085714D01*
X119870238Y-47514285D02*
X119822619Y-47419047D01*
X119822619Y-47180952D01*
X119870238Y-47085714D01*
X119965476Y-47038095D01*
X120060714Y-47038095D01*
X120155952Y-47085714D01*
X120203571Y-47180952D01*
X120203571Y-47419047D01*
X120251190Y-47514285D01*
X119822619Y-47990476D02*
X120489285Y-47990476D01*
X120298809Y-47990476D02*
X120394047Y-48038095D01*
X120441666Y-48085714D01*
X120489285Y-48180952D01*
X120489285Y-48276190D01*
X120489285Y-49038095D02*
X119679761Y-49038095D01*
X119584523Y-48990476D01*
X119536904Y-48942857D01*
X119489285Y-48847619D01*
X119489285Y-48704761D01*
X119536904Y-48609523D01*
X119870238Y-49038095D02*
X119822619Y-48942857D01*
X119822619Y-48752380D01*
X119870238Y-48657142D01*
X119917857Y-48609523D01*
X120013095Y-48561904D01*
X120298809Y-48561904D01*
X120394047Y-48609523D01*
X120441666Y-48657142D01*
X120489285Y-48752380D01*
X120489285Y-48942857D01*
X120441666Y-49038095D01*
X119870238Y-49895238D02*
X119822619Y-49800000D01*
X119822619Y-49609523D01*
X119870238Y-49514285D01*
X119965476Y-49466666D01*
X120346428Y-49466666D01*
X120441666Y-49514285D01*
X120489285Y-49609523D01*
X120489285Y-49800000D01*
X120441666Y-49895238D01*
X120346428Y-49942857D01*
X120251190Y-49942857D01*
X120155952Y-49466666D01*
X119917857Y-50371428D02*
X119870238Y-50419047D01*
X119822619Y-50371428D01*
X119870238Y-50323809D01*
X119917857Y-50371428D01*
X119822619Y-50371428D01*
X120441666Y-50371428D02*
X120394047Y-50419047D01*
X120346428Y-50371428D01*
X120394047Y-50323809D01*
X120441666Y-50371428D01*
X120346428Y-50371428D01*
X120489285Y-52038095D02*
X119822619Y-52038095D01*
X120870238Y-51800000D02*
X120155952Y-51561904D01*
X120155952Y-52180952D01*
X119917857Y-52561904D02*
X119870238Y-52609523D01*
X119822619Y-52561904D01*
X119870238Y-52514285D01*
X119917857Y-52561904D01*
X119822619Y-52561904D01*
X120822619Y-53514285D02*
X120822619Y-53038095D01*
X120346428Y-52990476D01*
X120394047Y-53038095D01*
X120441666Y-53133333D01*
X120441666Y-53371428D01*
X120394047Y-53466666D01*
X120346428Y-53514285D01*
X120251190Y-53561904D01*
X120013095Y-53561904D01*
X119917857Y-53514285D01*
X119870238Y-53466666D01*
X119822619Y-53371428D01*
X119822619Y-53133333D01*
X119870238Y-53038095D01*
X119917857Y-52990476D01*
X120489285Y-54609523D02*
X120489285Y-54990476D01*
X120822619Y-54752380D02*
X119965476Y-54752380D01*
X119870238Y-54800000D01*
X119822619Y-54895238D01*
X119822619Y-54990476D01*
X119822619Y-55466666D02*
X119870238Y-55371428D01*
X119917857Y-55323809D01*
X120013095Y-55276190D01*
X120298809Y-55276190D01*
X120394047Y-55323809D01*
X120441666Y-55371428D01*
X120489285Y-55466666D01*
X120489285Y-55609523D01*
X120441666Y-55704761D01*
X120394047Y-55752380D01*
X120298809Y-55800000D01*
X120013095Y-55800000D01*
X119917857Y-55752380D01*
X119870238Y-55704761D01*
X119822619Y-55609523D01*
X119822619Y-55466666D01*
X120822619Y-57466666D02*
X120822619Y-56990476D01*
X120346428Y-56942857D01*
X120394047Y-56990476D01*
X120441666Y-57085714D01*
X120441666Y-57323809D01*
X120394047Y-57419047D01*
X120346428Y-57466666D01*
X120251190Y-57514285D01*
X120013095Y-57514285D01*
X119917857Y-57466666D01*
X119870238Y-57419047D01*
X119822619Y-57323809D01*
X119822619Y-57085714D01*
X119870238Y-56990476D01*
X119917857Y-56942857D01*
X119917857Y-57942857D02*
X119870238Y-57990476D01*
X119822619Y-57942857D01*
X119870238Y-57895238D01*
X119917857Y-57942857D01*
X119822619Y-57942857D01*
X120822619Y-58895238D02*
X120822619Y-58419047D01*
X120346428Y-58371428D01*
X120394047Y-58419047D01*
X120441666Y-58514285D01*
X120441666Y-58752380D01*
X120394047Y-58847619D01*
X120346428Y-58895238D01*
X120251190Y-58942857D01*
X120013095Y-58942857D01*
X119917857Y-58895238D01*
X119870238Y-58847619D01*
X119822619Y-58752380D01*
X119822619Y-58514285D01*
X119870238Y-58419047D01*
X119917857Y-58371428D01*
X120489285Y-59276190D02*
X119822619Y-59514285D01*
X120489285Y-59752380D01*
X56895238Y-31527380D02*
X56895238Y-32241666D01*
X56847619Y-32384523D01*
X56752380Y-32479761D01*
X56609523Y-32527380D01*
X56514285Y-32527380D01*
X57276190Y-31527380D02*
X57895238Y-31527380D01*
X57561904Y-31908333D01*
X57704761Y-31908333D01*
X57799999Y-31955952D01*
X57847619Y-32003571D01*
X57895238Y-32098809D01*
X57895238Y-32336904D01*
X57847619Y-32432142D01*
X57799999Y-32479761D01*
X57704761Y-32527380D01*
X57419047Y-32527380D01*
X57323809Y-32479761D01*
X57276190Y-32432142D01*
X58323809Y-32432142D02*
X58371428Y-32479761D01*
X58323809Y-32527380D01*
X58276190Y-32479761D01*
X58323809Y-32432142D01*
X58323809Y-32527380D01*
X58323809Y-31908333D02*
X58371428Y-31955952D01*
X58323809Y-32003571D01*
X58276190Y-31955952D01*
X58323809Y-31908333D01*
X58323809Y-32003571D01*
X60085714Y-32527380D02*
X59514285Y-32527380D01*
X59799999Y-32527380D02*
X59799999Y-31527380D01*
X59704761Y-31670238D01*
X59609523Y-31765476D01*
X59514285Y-31813095D01*
X60514285Y-32146428D02*
X61276190Y-32146428D01*
X61704761Y-31622619D02*
X61752380Y-31575000D01*
X61847619Y-31527380D01*
X62085714Y-31527380D01*
X62180952Y-31575000D01*
X62228571Y-31622619D01*
X62276190Y-31717857D01*
X62276190Y-31813095D01*
X62228571Y-31955952D01*
X61657142Y-32527380D01*
X62276190Y-32527380D01*
X63847619Y-32479761D02*
X63752380Y-32527380D01*
X63561904Y-32527380D01*
X63466666Y-32479761D01*
X63419047Y-32384523D01*
X63419047Y-32003571D01*
X63466666Y-31908333D01*
X63561904Y-31860714D01*
X63752380Y-31860714D01*
X63847619Y-31908333D01*
X63895238Y-32003571D01*
X63895238Y-32098809D01*
X63419047Y-32194047D01*
X64228571Y-32527380D02*
X64752380Y-31860714D01*
X64228571Y-31860714D02*
X64752380Y-32527380D01*
X64990476Y-31860714D02*
X65371428Y-31860714D01*
X65133333Y-31527380D02*
X65133333Y-32384523D01*
X65180952Y-32479761D01*
X65276190Y-32527380D01*
X65371428Y-32527380D01*
X66466666Y-32527380D02*
X66466666Y-31527380D01*
X66704761Y-31527380D01*
X66847619Y-31575000D01*
X66942857Y-31670238D01*
X66990476Y-31765476D01*
X67038095Y-31955952D01*
X67038095Y-32098809D01*
X66990476Y-32289285D01*
X66942857Y-32384523D01*
X66847619Y-32479761D01*
X66704761Y-32527380D01*
X66466666Y-32527380D01*
X68038095Y-32432142D02*
X67990476Y-32479761D01*
X67847619Y-32527380D01*
X67752380Y-32527380D01*
X67609523Y-32479761D01*
X67514285Y-32384523D01*
X67466666Y-32289285D01*
X67419047Y-32098809D01*
X67419047Y-31955952D01*
X67466666Y-31765476D01*
X67514285Y-31670238D01*
X67609523Y-31575000D01*
X67752380Y-31527380D01*
X67847619Y-31527380D01*
X67990476Y-31575000D01*
X68038095Y-31622619D01*
X56252380Y-33272619D02*
X56300000Y-33225000D01*
X56395238Y-33177380D01*
X56633333Y-33177380D01*
X56728571Y-33225000D01*
X56776190Y-33272619D01*
X56823809Y-33367857D01*
X56823809Y-33463095D01*
X56776190Y-33605952D01*
X56204761Y-34177380D01*
X56823809Y-34177380D01*
X57252380Y-33796428D02*
X58014285Y-33796428D01*
X58395238Y-33177380D02*
X59014285Y-33177380D01*
X58680952Y-33558333D01*
X58823809Y-33558333D01*
X58919047Y-33605952D01*
X58966666Y-33653571D01*
X59014285Y-33748809D01*
X59014285Y-33986904D01*
X58966666Y-34082142D01*
X58919047Y-34129761D01*
X58823809Y-34177380D01*
X58538095Y-34177380D01*
X58442857Y-34129761D01*
X58395238Y-34082142D01*
X60680952Y-34177380D02*
X60204761Y-34177380D01*
X60204761Y-33177380D01*
X61014285Y-34177380D02*
X61014285Y-33510714D01*
X61014285Y-33177380D02*
X60966666Y-33225000D01*
X61014285Y-33272619D01*
X61061904Y-33225000D01*
X61014285Y-33177380D01*
X61014285Y-33272619D01*
X62252380Y-34177380D02*
X62252380Y-33510714D01*
X62252380Y-33701190D02*
X62300000Y-33605952D01*
X62347619Y-33558333D01*
X62442857Y-33510714D01*
X62538095Y-33510714D01*
X63252380Y-34129761D02*
X63157142Y-34177380D01*
X62966666Y-34177380D01*
X62871428Y-34129761D01*
X62823809Y-34034523D01*
X62823809Y-33653571D01*
X62871428Y-33558333D01*
X62966666Y-33510714D01*
X63157142Y-33510714D01*
X63252380Y-33558333D01*
X63300000Y-33653571D01*
X63300000Y-33748809D01*
X62823809Y-33844047D01*
X64157142Y-34129761D02*
X64061904Y-34177380D01*
X63871428Y-34177380D01*
X63776190Y-34129761D01*
X63728571Y-34082142D01*
X63680952Y-33986904D01*
X63680952Y-33701190D01*
X63728571Y-33605952D01*
X63776190Y-33558333D01*
X63871428Y-33510714D01*
X64061904Y-33510714D01*
X64157142Y-33558333D01*
X64585714Y-34177380D02*
X64585714Y-33177380D01*
X65014285Y-34177380D02*
X65014285Y-33653571D01*
X64966666Y-33558333D01*
X64871428Y-33510714D01*
X64728571Y-33510714D01*
X64633333Y-33558333D01*
X64585714Y-33605952D01*
X65919047Y-34177380D02*
X65919047Y-33653571D01*
X65871428Y-33558333D01*
X65776190Y-33510714D01*
X65585714Y-33510714D01*
X65490476Y-33558333D01*
X65919047Y-34129761D02*
X65823809Y-34177380D01*
X65585714Y-34177380D01*
X65490476Y-34129761D01*
X65442857Y-34034523D01*
X65442857Y-33939285D01*
X65490476Y-33844047D01*
X65585714Y-33796428D01*
X65823809Y-33796428D01*
X65919047Y-33748809D01*
X66395238Y-34177380D02*
X66395238Y-33510714D01*
X66395238Y-33701190D02*
X66442857Y-33605952D01*
X66490476Y-33558333D01*
X66585714Y-33510714D01*
X66680952Y-33510714D01*
X67442857Y-33510714D02*
X67442857Y-34320238D01*
X67395238Y-34415476D01*
X67347619Y-34463095D01*
X67252380Y-34510714D01*
X67109523Y-34510714D01*
X67014285Y-34463095D01*
X67442857Y-34129761D02*
X67347619Y-34177380D01*
X67157142Y-34177380D01*
X67061904Y-34129761D01*
X67014285Y-34082142D01*
X66966666Y-33986904D01*
X66966666Y-33701190D01*
X67014285Y-33605952D01*
X67061904Y-33558333D01*
X67157142Y-33510714D01*
X67347619Y-33510714D01*
X67442857Y-33558333D01*
X68300000Y-34129761D02*
X68204761Y-34177380D01*
X68014285Y-34177380D01*
X67919047Y-34129761D01*
X67871428Y-34034523D01*
X67871428Y-33653571D01*
X67919047Y-33558333D01*
X68014285Y-33510714D01*
X68204761Y-33510714D01*
X68300000Y-33558333D01*
X68347619Y-33653571D01*
X68347619Y-33748809D01*
X67871428Y-33844047D01*
X91119047Y-32271428D02*
X91880952Y-32271428D01*
X81919047Y-32971428D02*
X82680952Y-32971428D01*
X82300000Y-33352380D02*
X82300000Y-32590476D01*
X78519047Y-37271428D02*
X79280952Y-37271428D01*
X74419047Y-37271428D02*
X75180952Y-37271428D01*
X74800000Y-37652380D02*
X74800000Y-36890476D01*
D11*
X78556800Y-54993300D02*
X76606800Y-54993300D01*
X78556800Y-54993300D02*
X80506800Y-54993300D01*
X78556800Y-60113300D02*
X76606800Y-60113300D01*
X78556800Y-60113300D02*
X82006800Y-60113300D01*
X77662100Y-43644920D02*
X77662100Y-45929920D01*
X77662100Y-45929920D02*
X79132100Y-45929920D01*
X79132100Y-45929920D02*
X79132100Y-43644920D01*
X83780300Y-46183920D02*
X83780300Y-43898920D01*
X82310300Y-46183920D02*
X83780300Y-46183920D01*
X82310300Y-43898920D02*
X82310300Y-46183920D01*
X104050000Y-47300000D02*
X107350000Y-47300000D01*
X107350000Y-47300000D02*
X107350000Y-41900000D01*
X104050000Y-47300000D02*
X104050000Y-41900000D01*
X110951778Y-35662800D02*
X110434622Y-35662800D01*
X110951778Y-37082800D02*
X110434622Y-37082800D01*
X102566400Y-38358578D02*
X102566400Y-37841422D01*
X103986400Y-38358578D02*
X103986400Y-37841422D01*
X113090000Y-34350000D02*
X113090000Y-31690000D01*
X110490000Y-34350000D02*
X113090000Y-34350000D01*
X110490000Y-31690000D02*
X113090000Y-31690000D01*
X110490000Y-34350000D02*
X110490000Y-31690000D01*
X109220000Y-34350000D02*
X107890000Y-34350000D01*
X107890000Y-34350000D02*
X107890000Y-33020000D01*
X103100000Y-34962500D02*
X102650000Y-34962500D01*
X103100000Y-33112500D02*
X103100000Y-34962500D01*
X95300000Y-30562500D02*
X95300000Y-30812500D01*
X103100000Y-30562500D02*
X103100000Y-30812500D01*
X95300000Y-33112500D02*
X95300000Y-34962500D01*
X95300000Y-34962500D02*
X95750000Y-34962500D01*
X100900000Y-35512500D02*
X100450000Y-35512500D01*
X100900000Y-35512500D02*
X100900000Y-35062500D01*
X90636400Y-40674600D02*
X90636400Y-38014600D01*
X85496400Y-40674600D02*
X90636400Y-40674600D01*
X85496400Y-38014600D02*
X90636400Y-38014600D01*
X85496400Y-40674600D02*
X85496400Y-38014600D01*
X84226400Y-40674600D02*
X82896400Y-40674600D01*
X82896400Y-40674600D02*
X82896400Y-39344600D01*
X85030000Y-34350000D02*
X85030000Y-33020000D01*
X86360000Y-34350000D02*
X85030000Y-34350000D01*
X87630000Y-34350000D02*
X87630000Y-31690000D01*
X87630000Y-31690000D02*
X90230000Y-31690000D01*
X87630000Y-34350000D02*
X90230000Y-34350000D01*
X90230000Y-34350000D02*
X90230000Y-31690000D01*
X90901600Y-54386400D02*
X90901600Y-58694400D01*
X86593600Y-58694400D02*
X86593600Y-54386400D01*
X98924800Y-52938621D02*
X98924800Y-53264179D01*
X97904800Y-52938621D02*
X97904800Y-53264179D01*
X97904800Y-56139021D02*
X97904800Y-56464579D01*
X98924800Y-56139021D02*
X98924800Y-56464579D01*
X60083000Y-45032000D02*
X60558000Y-45032000D01*
X60558000Y-45032000D02*
X60558000Y-45507000D01*
X53813000Y-52252000D02*
X53338000Y-52252000D01*
X53338000Y-52252000D02*
X53338000Y-51777000D01*
X60083000Y-52252000D02*
X60558000Y-52252000D01*
X60558000Y-52252000D02*
X60558000Y-51777000D01*
X53813000Y-45032000D02*
X53338000Y-45032000D01*
X98160000Y-40726000D02*
X99960000Y-40726000D01*
X99960000Y-37506000D02*
X97510000Y-37506000D01*
X93014000Y-58523800D02*
X93014000Y-58753800D01*
X93014000Y-58753800D02*
X93989000Y-58753800D01*
X96234000Y-58523800D02*
X96234000Y-58753800D01*
X95259000Y-58753800D02*
X96234000Y-58753800D01*
X95259000Y-55533800D02*
X96234000Y-55533800D01*
X96234000Y-55533800D02*
X96234000Y-55763800D01*
X92984000Y-55533800D02*
X93989000Y-55533800D01*
X44360000Y-46142000D02*
X43860000Y-46392000D01*
X44360000Y-46642000D02*
X44360000Y-46142000D01*
X43860000Y-46392000D02*
X44360000Y-46642000D01*
X39600000Y-44442000D02*
X39600000Y-45552000D01*
X39600000Y-47232000D02*
X39600000Y-48342000D01*
X43310000Y-44442000D02*
X43310000Y-45552000D01*
X43310000Y-47232000D02*
X43310000Y-48342000D01*
X62900000Y-46235000D02*
X65185000Y-46235000D01*
X65185000Y-46235000D02*
X65185000Y-44765000D01*
X65185000Y-44765000D02*
X62900000Y-44765000D01*
X113540000Y-93490000D02*
X113540000Y-90190000D01*
X113540000Y-90190000D02*
X108140000Y-90190000D01*
X113540000Y-93490000D02*
X108140000Y-93490000D01*
X103572000Y-52289400D02*
X104902000Y-52289400D01*
X103572000Y-53619400D02*
X103572000Y-52289400D01*
X103572000Y-54889400D02*
X106232000Y-54889400D01*
X106232000Y-54889400D02*
X106232000Y-60029400D01*
X103572000Y-54889400D02*
X103572000Y-60029400D01*
X103572000Y-60029400D02*
X106232000Y-60029400D01*
X100650000Y-113290000D02*
X99320000Y-113290000D01*
X100650000Y-111960000D02*
X100650000Y-113290000D01*
X100650000Y-110690000D02*
X97990000Y-110690000D01*
X97990000Y-110690000D02*
X97990000Y-103010000D01*
X100650000Y-110690000D02*
X100650000Y-103010000D01*
X100650000Y-103010000D02*
X97990000Y-103010000D01*
X95570000Y-103010000D02*
X92910000Y-103010000D01*
X95570000Y-110690000D02*
X95570000Y-103010000D01*
X92910000Y-110690000D02*
X92910000Y-103010000D01*
X95570000Y-110690000D02*
X92910000Y-110690000D01*
X95570000Y-111960000D02*
X95570000Y-113290000D01*
X95570000Y-113290000D02*
X94240000Y-113290000D01*
X114010000Y-113490000D02*
X112680000Y-113490000D01*
X114010000Y-112160000D02*
X114010000Y-113490000D01*
X114010000Y-110890000D02*
X111350000Y-110890000D01*
X111350000Y-110890000D02*
X111350000Y-98130000D01*
X114010000Y-110890000D02*
X114010000Y-98130000D01*
X114010000Y-98130000D02*
X111350000Y-98130000D01*
X108930000Y-98130000D02*
X106270000Y-98130000D01*
X108930000Y-110890000D02*
X108930000Y-98130000D01*
X106270000Y-110890000D02*
X106270000Y-98130000D01*
X108930000Y-110890000D02*
X106270000Y-110890000D01*
X108930000Y-112160000D02*
X108930000Y-113490000D01*
X108930000Y-113490000D02*
X107600000Y-113490000D01*
X45380600Y-42510400D02*
X46710600Y-42510400D01*
X45380600Y-43840400D02*
X45380600Y-42510400D01*
X45380600Y-45110400D02*
X48040600Y-45110400D01*
X48040600Y-45110400D02*
X48040600Y-47710400D01*
X45380600Y-45110400D02*
X45380600Y-47710400D01*
X45380600Y-47710400D02*
X48040600Y-47710400D01*
X45834000Y-86436000D02*
X44504000Y-86436000D01*
X45834000Y-85106000D02*
X45834000Y-86436000D01*
X45834000Y-83836000D02*
X43174000Y-83836000D01*
X43174000Y-83836000D02*
X43174000Y-81236000D01*
X45834000Y-83836000D02*
X45834000Y-81236000D01*
X45834000Y-81236000D02*
X43174000Y-81236000D01*
X45834000Y-88856000D02*
X43174000Y-88856000D01*
X45834000Y-91456000D02*
X45834000Y-88856000D01*
X43174000Y-91456000D02*
X43174000Y-88856000D01*
X45834000Y-91456000D02*
X43174000Y-91456000D01*
X45834000Y-92726000D02*
X45834000Y-94056000D01*
X45834000Y-94056000D02*
X44504000Y-94056000D01*
X45834000Y-101676000D02*
X44504000Y-101676000D01*
X45834000Y-100346000D02*
X45834000Y-101676000D01*
X45834000Y-99076000D02*
X43174000Y-99076000D01*
X43174000Y-99076000D02*
X43174000Y-96476000D01*
X45834000Y-99076000D02*
X45834000Y-96476000D01*
X45834000Y-96476000D02*
X43174000Y-96476000D01*
X45834000Y-104096000D02*
X43174000Y-104096000D01*
X45834000Y-106696000D02*
X45834000Y-104096000D01*
X43174000Y-106696000D02*
X43174000Y-104096000D01*
X45834000Y-106696000D02*
X43174000Y-106696000D01*
X45834000Y-107966000D02*
X45834000Y-109296000D01*
X45834000Y-109296000D02*
X44504000Y-109296000D01*
X87690000Y-105350000D02*
X85030000Y-105350000D01*
X87690000Y-110490000D02*
X87690000Y-105350000D01*
X85030000Y-110490000D02*
X85030000Y-105350000D01*
X87690000Y-110490000D02*
X85030000Y-110490000D01*
X87690000Y-111760000D02*
X87690000Y-113090000D01*
X87690000Y-113090000D02*
X86360000Y-113090000D01*
X77530000Y-105350000D02*
X74870000Y-105350000D01*
X77530000Y-110490000D02*
X77530000Y-105350000D01*
X74870000Y-110490000D02*
X74870000Y-105350000D01*
X77530000Y-110490000D02*
X74870000Y-110490000D01*
X77530000Y-111760000D02*
X77530000Y-113090000D01*
X77530000Y-113090000D02*
X76200000Y-113090000D01*
X82610000Y-113090000D02*
X81280000Y-113090000D01*
X82610000Y-111760000D02*
X82610000Y-113090000D01*
X82610000Y-110490000D02*
X79950000Y-110490000D01*
X79950000Y-110490000D02*
X79950000Y-105350000D01*
X82610000Y-110490000D02*
X82610000Y-105350000D01*
X82610000Y-105350000D02*
X79950000Y-105350000D01*
X72450000Y-105350000D02*
X69790000Y-105350000D01*
X72450000Y-110490000D02*
X72450000Y-105350000D01*
X69790000Y-110490000D02*
X69790000Y-105350000D01*
X72450000Y-110490000D02*
X69790000Y-110490000D01*
X72450000Y-111760000D02*
X72450000Y-113090000D01*
X72450000Y-113090000D02*
X71120000Y-113090000D01*
X46034000Y-73216000D02*
X43374000Y-73216000D01*
X46034000Y-75816000D02*
X46034000Y-73216000D01*
X43374000Y-75816000D02*
X43374000Y-73216000D01*
X46034000Y-75816000D02*
X43374000Y-75816000D01*
X46034000Y-77086000D02*
X46034000Y-78416000D01*
X46034000Y-78416000D02*
X44704000Y-78416000D01*
X51114000Y-78416000D02*
X49784000Y-78416000D01*
X51114000Y-77086000D02*
X51114000Y-78416000D01*
X51114000Y-75816000D02*
X48454000Y-75816000D01*
X48454000Y-75816000D02*
X48454000Y-70676000D01*
X51114000Y-75816000D02*
X51114000Y-70676000D01*
X51114000Y-70676000D02*
X48454000Y-70676000D01*
X90342800Y-71252000D02*
X90342800Y-75560000D01*
X86034800Y-75560000D02*
X86034800Y-71252000D01*
X112460000Y-44070000D02*
X114410000Y-44070000D01*
X112460000Y-44070000D02*
X110510000Y-44070000D01*
X112460000Y-38950000D02*
X114410000Y-38950000D01*
X112460000Y-38950000D02*
X109010000Y-38950000D01*
X65280000Y-47442000D02*
X66740000Y-47442000D01*
X65280000Y-50602000D02*
X67440000Y-50602000D01*
X65280000Y-50602000D02*
X65280000Y-49672000D01*
X65280000Y-47442000D02*
X65280000Y-48372000D01*
X65280000Y-51760000D02*
X66740000Y-51760000D01*
X65280000Y-54920000D02*
X67440000Y-54920000D01*
X65280000Y-54920000D02*
X65280000Y-53990000D01*
X65280000Y-51760000D02*
X65280000Y-52690000D01*
X85777800Y-96337000D02*
X87237800Y-96337000D01*
X85777800Y-99497000D02*
X87937800Y-99497000D01*
X85777800Y-99497000D02*
X85777800Y-98567000D01*
X85777800Y-96337000D02*
X85777800Y-97267000D01*
X85473000Y-90545800D02*
X85473000Y-91475800D01*
X85473000Y-93705800D02*
X85473000Y-92775800D01*
X85473000Y-93705800D02*
X87633000Y-93705800D01*
X85473000Y-90545800D02*
X86933000Y-90545800D01*
X106065000Y-76200000D02*
X106065000Y-72750000D01*
X106065000Y-76200000D02*
X106065000Y-78150000D01*
X100945000Y-76200000D02*
X100945000Y-74250000D01*
X100945000Y-76200000D02*
X100945000Y-78150000D01*
X78141100Y-50546120D02*
X76681100Y-50546120D01*
X78141100Y-47386120D02*
X75981100Y-47386120D01*
X78141100Y-47386120D02*
X78141100Y-48316120D01*
X78141100Y-50546120D02*
X78141100Y-49616120D01*
X82845701Y-50573321D02*
X82845701Y-49643321D01*
X82845701Y-47413321D02*
X82845701Y-48343321D01*
X82845701Y-47413321D02*
X80685701Y-47413321D01*
X82845701Y-50573321D02*
X81385701Y-50573321D01*
X60774200Y-103884400D02*
X62234200Y-103884400D01*
X60774200Y-107044400D02*
X62934200Y-107044400D01*
X60774200Y-107044400D02*
X60774200Y-106114400D01*
X60774200Y-103884400D02*
X60774200Y-104814400D01*
X56574200Y-103834400D02*
X56574200Y-104764400D01*
X56574200Y-106994400D02*
X56574200Y-106064400D01*
X56574200Y-106994400D02*
X58734200Y-106994400D01*
X56574200Y-103834400D02*
X58034200Y-103834400D01*
X51057200Y-109129000D02*
X54507200Y-109129000D01*
X51057200Y-109129000D02*
X49107200Y-109129000D01*
X51057200Y-104009000D02*
X53007200Y-104009000D01*
X51057200Y-104009000D02*
X49107200Y-104009000D01*
X60436000Y-81667000D02*
X60436000Y-82597000D01*
X60436000Y-84827000D02*
X60436000Y-83897000D01*
X60436000Y-84827000D02*
X62596000Y-84827000D01*
X60436000Y-81667000D02*
X61896000Y-81667000D01*
X60394000Y-88647600D02*
X60394000Y-89577600D01*
X60394000Y-91807600D02*
X60394000Y-90877600D01*
X60394000Y-91807600D02*
X62554000Y-91807600D01*
X60394000Y-88647600D02*
X61854000Y-88647600D01*
X60545600Y-96652200D02*
X60545600Y-97582200D01*
X60545600Y-99812200D02*
X60545600Y-98882200D01*
X60545600Y-99812200D02*
X62705600Y-99812200D01*
X60545600Y-96652200D02*
X62005600Y-96652200D01*
X56536000Y-81567000D02*
X57996000Y-81567000D01*
X56536000Y-84727000D02*
X58696000Y-84727000D01*
X56536000Y-84727000D02*
X56536000Y-83797000D01*
X56536000Y-81567000D02*
X56536000Y-82497000D01*
X56444000Y-88697600D02*
X57904000Y-88697600D01*
X56444000Y-91857600D02*
X58604000Y-91857600D01*
X56444000Y-91857600D02*
X56444000Y-90927600D01*
X56444000Y-88697600D02*
X56444000Y-89627600D01*
X56395600Y-96602200D02*
X56395600Y-97532200D01*
X56395600Y-99762200D02*
X56395600Y-98832200D01*
X56395600Y-99762200D02*
X58555600Y-99762200D01*
X56395600Y-96602200D02*
X57855600Y-96602200D01*
X51146000Y-86657000D02*
X54596000Y-86657000D01*
X51146000Y-86657000D02*
X49196000Y-86657000D01*
X51146000Y-81537000D02*
X53096000Y-81537000D01*
X51146000Y-81537000D02*
X49196000Y-81537000D01*
X51104000Y-88667600D02*
X49154000Y-88667600D01*
X51104000Y-88667600D02*
X53054000Y-88667600D01*
X51104000Y-93787600D02*
X49154000Y-93787600D01*
X51104000Y-93787600D02*
X54554000Y-93787600D01*
X51055600Y-96622200D02*
X49105600Y-96622200D01*
X51055600Y-96622200D02*
X53005600Y-96622200D01*
X51055600Y-101742200D02*
X49105600Y-101742200D01*
X51055600Y-101742200D02*
X54505600Y-101742200D01*
X97237221Y-69090000D02*
X97562779Y-69090000D01*
X97237221Y-70110000D02*
X97562779Y-70110000D01*
X48466000Y-60306000D02*
X46966000Y-60306000D01*
X44466000Y-61556000D02*
X44466000Y-66056000D01*
X46966000Y-67306000D02*
X48466000Y-67306000D01*
X50966000Y-66056000D02*
X50966000Y-61556000D01*
X62650000Y-66056000D02*
X62650000Y-61556000D01*
X58650000Y-67306000D02*
X60150000Y-67306000D01*
X56150000Y-61556000D02*
X56150000Y-66056000D01*
X60150000Y-60306000D02*
X58650000Y-60306000D01*
X101940000Y-47495000D02*
X101940000Y-48220000D01*
X101940000Y-48220000D02*
X101215000Y-48220000D01*
X96720000Y-43725000D02*
X96720000Y-43000000D01*
X96720000Y-43000000D02*
X97445000Y-43000000D01*
X96720000Y-47495000D02*
X96720000Y-48220000D01*
X96720000Y-48220000D02*
X97445000Y-48220000D01*
X101940000Y-43725000D02*
X101940000Y-43000000D01*
X92044200Y-74769000D02*
X92044200Y-74999000D01*
X92044200Y-74999000D02*
X93019200Y-74999000D01*
X95264200Y-74769000D02*
X95264200Y-74999000D01*
X94289200Y-74999000D02*
X95264200Y-74999000D01*
X94289200Y-71779000D02*
X95264200Y-71779000D01*
X95264200Y-71779000D02*
X95264200Y-72009000D01*
X92014200Y-71779000D02*
X93019200Y-71779000D01*
X97251600Y-100997000D02*
X99051600Y-100997000D01*
X99051600Y-97777000D02*
X96601600Y-97777000D01*
X110800000Y-93990000D02*
X108350000Y-93990000D01*
X109000000Y-97210000D02*
X110800000Y-97210000D01*
X77840000Y-103210000D02*
X79640000Y-103210000D01*
X79640000Y-99990000D02*
X77190000Y-99990000D01*
X74140000Y-31210000D02*
X74140000Y-35930000D01*
X74140000Y-35930000D02*
X80260000Y-35930000D01*
X80260000Y-35930000D02*
X80260000Y-31210000D01*
X80260000Y-31210000D02*
X74140000Y-31210000D01*
X75900000Y-31210000D02*
X75900000Y-31010000D01*
X75900000Y-31010000D02*
X75600000Y-31010000D01*
X75600000Y-31010000D02*
X75600000Y-31210000D01*
X75900000Y-31110000D02*
X75600000Y-31110000D01*
X76700000Y-31210000D02*
X76700000Y-31820000D01*
X76700000Y-31820000D02*
X74750000Y-31820000D01*
X74750000Y-31820000D02*
X74750000Y-35320000D01*
X74750000Y-35320000D02*
X79650000Y-35320000D01*
X79650000Y-35320000D02*
X79650000Y-31820000D01*
X79650000Y-31820000D02*
X77700000Y-31820000D01*
X77700000Y-31820000D02*
X77700000Y-31210000D01*
X74140000Y-32520000D02*
X74750000Y-32520000D01*
X74140000Y-33820000D02*
X74750000Y-33820000D01*
X80260000Y-32520000D02*
X79650000Y-32520000D01*
X80260000Y-33820000D02*
X79650000Y-33820000D01*
X77100000Y-35320000D02*
X77100000Y-34820000D01*
X77100000Y-34820000D02*
X77300000Y-34820000D01*
X77300000Y-34820000D02*
X77300000Y-35320000D01*
X77200000Y-35320000D02*
X77200000Y-34820000D01*
X75090000Y-30910000D02*
X73840000Y-30910000D01*
X73840000Y-30910000D02*
X73840000Y-32160000D01*
D10*
X77794895Y-60405680D02*
X77794895Y-61215204D01*
X77842514Y-61310442D01*
X77890133Y-61358061D01*
X77985371Y-61405680D01*
X78175847Y-61405680D01*
X78271085Y-61358061D01*
X78318704Y-61310442D01*
X78366323Y-61215204D01*
X78366323Y-60405680D01*
X78747276Y-60405680D02*
X79366323Y-60405680D01*
X79032990Y-60786633D01*
X79175847Y-60786633D01*
X79271085Y-60834252D01*
X79318704Y-60881871D01*
X79366323Y-60977109D01*
X79366323Y-61215204D01*
X79318704Y-61310442D01*
X79271085Y-61358061D01*
X79175847Y-61405680D01*
X78890133Y-61405680D01*
X78794895Y-61358061D01*
X78747276Y-61310442D01*
X46657142Y-53057142D02*
X46609523Y-53104761D01*
X46466666Y-53152380D01*
X46371428Y-53152380D01*
X46228571Y-53104761D01*
X46133333Y-53009523D01*
X46085714Y-52914285D01*
X46038095Y-52723809D01*
X46038095Y-52580952D01*
X46085714Y-52390476D01*
X46133333Y-52295238D01*
X46228571Y-52200000D01*
X46371428Y-52152380D01*
X46466666Y-52152380D01*
X46609523Y-52200000D01*
X46657142Y-52247619D01*
X47038095Y-52247619D02*
X47085714Y-52200000D01*
X47180952Y-52152380D01*
X47419047Y-52152380D01*
X47514285Y-52200000D01*
X47561904Y-52247619D01*
X47609523Y-52342857D01*
X47609523Y-52438095D01*
X47561904Y-52580952D01*
X46990476Y-53152380D01*
X47609523Y-53152380D01*
X47990476Y-52247619D02*
X48038095Y-52200000D01*
X48133333Y-52152380D01*
X48371428Y-52152380D01*
X48466666Y-52200000D01*
X48514285Y-52247619D01*
X48561904Y-52342857D01*
X48561904Y-52438095D01*
X48514285Y-52580952D01*
X47942857Y-53152380D01*
X48561904Y-53152380D01*
X91257142Y-41857142D02*
X91209523Y-41904761D01*
X91066666Y-41952380D01*
X90971428Y-41952380D01*
X90828571Y-41904761D01*
X90733333Y-41809523D01*
X90685714Y-41714285D01*
X90638095Y-41523809D01*
X90638095Y-41380952D01*
X90685714Y-41190476D01*
X90733333Y-41095238D01*
X90828571Y-41000000D01*
X90971428Y-40952380D01*
X91066666Y-40952380D01*
X91209523Y-41000000D01*
X91257142Y-41047619D01*
X91638095Y-41047619D02*
X91685714Y-41000000D01*
X91780952Y-40952380D01*
X92019047Y-40952380D01*
X92114285Y-41000000D01*
X92161904Y-41047619D01*
X92209523Y-41142857D01*
X92209523Y-41238095D01*
X92161904Y-41380952D01*
X91590476Y-41952380D01*
X92209523Y-41952380D01*
X92542857Y-40952380D02*
X93161904Y-40952380D01*
X92828571Y-41333333D01*
X92971428Y-41333333D01*
X93066666Y-41380952D01*
X93114285Y-41428571D01*
X93161904Y-41523809D01*
X93161904Y-41761904D01*
X93114285Y-41857142D01*
X93066666Y-41904761D01*
X92971428Y-41952380D01*
X92685714Y-41952380D01*
X92590476Y-41904761D01*
X92542857Y-41857142D01*
X54033333Y-39357142D02*
X53985714Y-39404761D01*
X53842857Y-39452380D01*
X53747619Y-39452380D01*
X53604761Y-39404761D01*
X53509523Y-39309523D01*
X53461904Y-39214285D01*
X53414285Y-39023809D01*
X53414285Y-38880952D01*
X53461904Y-38690476D01*
X53509523Y-38595238D01*
X53604761Y-38500000D01*
X53747619Y-38452380D01*
X53842857Y-38452380D01*
X53985714Y-38500000D01*
X54033333Y-38547619D01*
X54985714Y-39452380D02*
X54414285Y-39452380D01*
X54700000Y-39452380D02*
X54700000Y-38452380D01*
X54604761Y-38595238D01*
X54509523Y-38690476D01*
X54414285Y-38738095D01*
X47433333Y-50057142D02*
X47385714Y-50104761D01*
X47242857Y-50152380D01*
X47147619Y-50152380D01*
X47004761Y-50104761D01*
X46909523Y-50009523D01*
X46861904Y-49914285D01*
X46814285Y-49723809D01*
X46814285Y-49580952D01*
X46861904Y-49390476D01*
X46909523Y-49295238D01*
X47004761Y-49200000D01*
X47147619Y-49152380D01*
X47242857Y-49152380D01*
X47385714Y-49200000D01*
X47433333Y-49247619D01*
X47814285Y-49247619D02*
X47861904Y-49200000D01*
X47957142Y-49152380D01*
X48195238Y-49152380D01*
X48290476Y-49200000D01*
X48338095Y-49247619D01*
X48385714Y-49342857D01*
X48385714Y-49438095D01*
X48338095Y-49580952D01*
X47766666Y-50152380D01*
X48385714Y-50152380D01*
X62957142Y-42266666D02*
X63004761Y-42314285D01*
X63052380Y-42457142D01*
X63052380Y-42552380D01*
X63004761Y-42695238D01*
X62909523Y-42790476D01*
X62814285Y-42838095D01*
X62623809Y-42885714D01*
X62480952Y-42885714D01*
X62290476Y-42838095D01*
X62195238Y-42790476D01*
X62100000Y-42695238D01*
X62052380Y-42552380D01*
X62052380Y-42457142D01*
X62100000Y-42314285D01*
X62147619Y-42266666D01*
X62052380Y-41933333D02*
X62052380Y-41314285D01*
X62433333Y-41647619D01*
X62433333Y-41504761D01*
X62480952Y-41409523D01*
X62528571Y-41361904D01*
X62623809Y-41314285D01*
X62861904Y-41314285D01*
X62957142Y-41361904D01*
X63004761Y-41409523D01*
X63052380Y-41504761D01*
X63052380Y-41790476D01*
X63004761Y-41885714D01*
X62957142Y-41933333D01*
X50533333Y-42157142D02*
X50485714Y-42204761D01*
X50342857Y-42252380D01*
X50247619Y-42252380D01*
X50104761Y-42204761D01*
X50009523Y-42109523D01*
X49961904Y-42014285D01*
X49914285Y-41823809D01*
X49914285Y-41680952D01*
X49961904Y-41490476D01*
X50009523Y-41395238D01*
X50104761Y-41300000D01*
X50247619Y-41252380D01*
X50342857Y-41252380D01*
X50485714Y-41300000D01*
X50533333Y-41347619D01*
X51390476Y-41585714D02*
X51390476Y-42252380D01*
X51152380Y-41204761D02*
X50914285Y-41919047D01*
X51533333Y-41919047D01*
X56457142Y-39366666D02*
X56504761Y-39414285D01*
X56552380Y-39557142D01*
X56552380Y-39652380D01*
X56504761Y-39795238D01*
X56409523Y-39890476D01*
X56314285Y-39938095D01*
X56123809Y-39985714D01*
X55980952Y-39985714D01*
X55790476Y-39938095D01*
X55695238Y-39890476D01*
X55600000Y-39795238D01*
X55552380Y-39652380D01*
X55552380Y-39557142D01*
X55600000Y-39414285D01*
X55647619Y-39366666D01*
X55552380Y-38461904D02*
X55552380Y-38938095D01*
X56028571Y-38985714D01*
X55980952Y-38938095D01*
X55933333Y-38842857D01*
X55933333Y-38604761D01*
X55980952Y-38509523D01*
X56028571Y-38461904D01*
X56123809Y-38414285D01*
X56361904Y-38414285D01*
X56457142Y-38461904D01*
X56504761Y-38509523D01*
X56552380Y-38604761D01*
X56552380Y-38842857D01*
X56504761Y-38938095D01*
X56457142Y-38985714D01*
X53973333Y-40757142D02*
X53925714Y-40804761D01*
X53782857Y-40852380D01*
X53687619Y-40852380D01*
X53544761Y-40804761D01*
X53449523Y-40709523D01*
X53401904Y-40614285D01*
X53354285Y-40423809D01*
X53354285Y-40280952D01*
X53401904Y-40090476D01*
X53449523Y-39995238D01*
X53544761Y-39900000D01*
X53687619Y-39852380D01*
X53782857Y-39852380D01*
X53925714Y-39900000D01*
X53973333Y-39947619D01*
X54830476Y-39852380D02*
X54640000Y-39852380D01*
X54544761Y-39900000D01*
X54497142Y-39947619D01*
X54401904Y-40090476D01*
X54354285Y-40280952D01*
X54354285Y-40661904D01*
X54401904Y-40757142D01*
X54449523Y-40804761D01*
X54544761Y-40852380D01*
X54735238Y-40852380D01*
X54830476Y-40804761D01*
X54878095Y-40757142D01*
X54925714Y-40661904D01*
X54925714Y-40423809D01*
X54878095Y-40328571D01*
X54830476Y-40280952D01*
X54735238Y-40233333D01*
X54544761Y-40233333D01*
X54449523Y-40280952D01*
X54401904Y-40328571D01*
X54354285Y-40423809D01*
X57433333Y-57757142D02*
X57385714Y-57804761D01*
X57242857Y-57852380D01*
X57147619Y-57852380D01*
X57004761Y-57804761D01*
X56909523Y-57709523D01*
X56861904Y-57614285D01*
X56814285Y-57423809D01*
X56814285Y-57280952D01*
X56861904Y-57090476D01*
X56909523Y-56995238D01*
X57004761Y-56900000D01*
X57147619Y-56852380D01*
X57242857Y-56852380D01*
X57385714Y-56900000D01*
X57433333Y-56947619D01*
X57766666Y-56852380D02*
X58433333Y-56852380D01*
X58004761Y-57852380D01*
X93676133Y-61992942D02*
X93628514Y-62040561D01*
X93485657Y-62088180D01*
X93390419Y-62088180D01*
X93247561Y-62040561D01*
X93152323Y-61945323D01*
X93104704Y-61850085D01*
X93057085Y-61659609D01*
X93057085Y-61516752D01*
X93104704Y-61326276D01*
X93152323Y-61231038D01*
X93247561Y-61135800D01*
X93390419Y-61088180D01*
X93485657Y-61088180D01*
X93628514Y-61135800D01*
X93676133Y-61183419D01*
X94152323Y-62088180D02*
X94342800Y-62088180D01*
X94438038Y-62040561D01*
X94485657Y-61992942D01*
X94580895Y-61850085D01*
X94628514Y-61659609D01*
X94628514Y-61278657D01*
X94580895Y-61183419D01*
X94533276Y-61135800D01*
X94438038Y-61088180D01*
X94247561Y-61088180D01*
X94152323Y-61135800D01*
X94104704Y-61183419D01*
X94057085Y-61278657D01*
X94057085Y-61516752D01*
X94104704Y-61611990D01*
X94152323Y-61659609D01*
X94247561Y-61707228D01*
X94438038Y-61707228D01*
X94533276Y-61659609D01*
X94580895Y-61611990D01*
X94628514Y-61516752D01*
X100457142Y-61742857D02*
X100504761Y-61790476D01*
X100552380Y-61933333D01*
X100552380Y-62028571D01*
X100504761Y-62171428D01*
X100409523Y-62266666D01*
X100314285Y-62314285D01*
X100123809Y-62361904D01*
X99980952Y-62361904D01*
X99790476Y-62314285D01*
X99695238Y-62266666D01*
X99600000Y-62171428D01*
X99552380Y-62028571D01*
X99552380Y-61933333D01*
X99600000Y-61790476D01*
X99647619Y-61742857D01*
X100552380Y-60790476D02*
X100552380Y-61361904D01*
X100552380Y-61076190D02*
X99552380Y-61076190D01*
X99695238Y-61171428D01*
X99790476Y-61266666D01*
X99838095Y-61361904D01*
X99552380Y-60171428D02*
X99552380Y-60076190D01*
X99600000Y-59980952D01*
X99647619Y-59933333D01*
X99742857Y-59885714D01*
X99933333Y-59838095D01*
X100171428Y-59838095D01*
X100361904Y-59885714D01*
X100457142Y-59933333D01*
X100504761Y-59980952D01*
X100552380Y-60076190D01*
X100552380Y-60171428D01*
X100504761Y-60266666D01*
X100457142Y-60314285D01*
X100361904Y-60361904D01*
X100171428Y-60409523D01*
X99933333Y-60409523D01*
X99742857Y-60361904D01*
X99647619Y-60314285D01*
X99600000Y-60266666D01*
X99552380Y-60171428D01*
X83451142Y-54860842D02*
X83403523Y-54908461D01*
X83260666Y-54956080D01*
X83165428Y-54956080D01*
X83022571Y-54908461D01*
X82927333Y-54813223D01*
X82879714Y-54717985D01*
X82832095Y-54527509D01*
X82832095Y-54384652D01*
X82879714Y-54194176D01*
X82927333Y-54098938D01*
X83022571Y-54003700D01*
X83165428Y-53956080D01*
X83260666Y-53956080D01*
X83403523Y-54003700D01*
X83451142Y-54051319D01*
X84403523Y-54956080D02*
X83832095Y-54956080D01*
X84117809Y-54956080D02*
X84117809Y-53956080D01*
X84022571Y-54098938D01*
X83927333Y-54194176D01*
X83832095Y-54241795D01*
X85355904Y-54956080D02*
X84784476Y-54956080D01*
X85070190Y-54956080D02*
X85070190Y-53956080D01*
X84974952Y-54098938D01*
X84879714Y-54194176D01*
X84784476Y-54241795D01*
X96857142Y-51142857D02*
X96904761Y-51190476D01*
X96952380Y-51333333D01*
X96952380Y-51428571D01*
X96904761Y-51571428D01*
X96809523Y-51666666D01*
X96714285Y-51714285D01*
X96523809Y-51761904D01*
X96380952Y-51761904D01*
X96190476Y-51714285D01*
X96095238Y-51666666D01*
X96000000Y-51571428D01*
X95952380Y-51428571D01*
X95952380Y-51333333D01*
X96000000Y-51190476D01*
X96047619Y-51142857D01*
X96952380Y-50190476D02*
X96952380Y-50761904D01*
X96952380Y-50476190D02*
X95952380Y-50476190D01*
X96095238Y-50571428D01*
X96190476Y-50666666D01*
X96238095Y-50761904D01*
X96047619Y-49809523D02*
X96000000Y-49761904D01*
X95952380Y-49666666D01*
X95952380Y-49428571D01*
X96000000Y-49333333D01*
X96047619Y-49285714D01*
X96142857Y-49238095D01*
X96238095Y-49238095D01*
X96380952Y-49285714D01*
X96952380Y-49857142D01*
X96952380Y-49238095D01*
X73397142Y-53972857D02*
X73444761Y-54020476D01*
X73492380Y-54163333D01*
X73492380Y-54258571D01*
X73444761Y-54401428D01*
X73349523Y-54496666D01*
X73254285Y-54544285D01*
X73063809Y-54591904D01*
X72920952Y-54591904D01*
X72730476Y-54544285D01*
X72635238Y-54496666D01*
X72540000Y-54401428D01*
X72492380Y-54258571D01*
X72492380Y-54163333D01*
X72540000Y-54020476D01*
X72587619Y-53972857D01*
X73492380Y-53020476D02*
X73492380Y-53591904D01*
X73492380Y-53306190D02*
X72492380Y-53306190D01*
X72635238Y-53401428D01*
X72730476Y-53496666D01*
X72778095Y-53591904D01*
X72492380Y-52687142D02*
X72492380Y-52068095D01*
X72873333Y-52401428D01*
X72873333Y-52258571D01*
X72920952Y-52163333D01*
X72968571Y-52115714D01*
X73063809Y-52068095D01*
X73301904Y-52068095D01*
X73397142Y-52115714D01*
X73444761Y-52163333D01*
X73492380Y-52258571D01*
X73492380Y-52544285D01*
X73444761Y-52639523D01*
X73397142Y-52687142D01*
X91357142Y-52957142D02*
X91309523Y-53004761D01*
X91166666Y-53052380D01*
X91071428Y-53052380D01*
X90928571Y-53004761D01*
X90833333Y-52909523D01*
X90785714Y-52814285D01*
X90738095Y-52623809D01*
X90738095Y-52480952D01*
X90785714Y-52290476D01*
X90833333Y-52195238D01*
X90928571Y-52100000D01*
X91071428Y-52052380D01*
X91166666Y-52052380D01*
X91309523Y-52100000D01*
X91357142Y-52147619D01*
X92309523Y-53052380D02*
X91738095Y-53052380D01*
X92023809Y-53052380D02*
X92023809Y-52052380D01*
X91928571Y-52195238D01*
X91833333Y-52290476D01*
X91738095Y-52338095D01*
X93166666Y-52385714D02*
X93166666Y-53052380D01*
X92928571Y-52004761D02*
X92690476Y-52719047D01*
X93309523Y-52719047D01*
X102557142Y-61542857D02*
X102604761Y-61590476D01*
X102652380Y-61733333D01*
X102652380Y-61828571D01*
X102604761Y-61971428D01*
X102509523Y-62066666D01*
X102414285Y-62114285D01*
X102223809Y-62161904D01*
X102080952Y-62161904D01*
X101890476Y-62114285D01*
X101795238Y-62066666D01*
X101700000Y-61971428D01*
X101652380Y-61828571D01*
X101652380Y-61733333D01*
X101700000Y-61590476D01*
X101747619Y-61542857D01*
X102652380Y-60590476D02*
X102652380Y-61161904D01*
X102652380Y-60876190D02*
X101652380Y-60876190D01*
X101795238Y-60971428D01*
X101890476Y-61066666D01*
X101938095Y-61161904D01*
X101652380Y-59685714D02*
X101652380Y-60161904D01*
X102128571Y-60209523D01*
X102080952Y-60161904D01*
X102033333Y-60066666D01*
X102033333Y-59828571D01*
X102080952Y-59733333D01*
X102128571Y-59685714D01*
X102223809Y-59638095D01*
X102461904Y-59638095D01*
X102557142Y-59685714D01*
X102604761Y-59733333D01*
X102652380Y-59828571D01*
X102652380Y-60066666D01*
X102604761Y-60161904D01*
X102557142Y-60209523D01*
X78952380Y-42138095D02*
X77952380Y-42138095D01*
X77952380Y-41900000D01*
X78000000Y-41757142D01*
X78095238Y-41661904D01*
X78190476Y-41614285D01*
X78380952Y-41566666D01*
X78523809Y-41566666D01*
X78714285Y-41614285D01*
X78809523Y-41661904D01*
X78904761Y-41757142D01*
X78952380Y-41900000D01*
X78952380Y-42138095D01*
X78952380Y-40614285D02*
X78952380Y-41185714D01*
X78952380Y-40900000D02*
X77952380Y-40900000D01*
X78095238Y-40995238D01*
X78190476Y-41090476D01*
X78238095Y-41185714D01*
X85052380Y-45438095D02*
X84052380Y-45438095D01*
X84052380Y-45200000D01*
X84100000Y-45057142D01*
X84195238Y-44961904D01*
X84290476Y-44914285D01*
X84480952Y-44866666D01*
X84623809Y-44866666D01*
X84814285Y-44914285D01*
X84909523Y-44961904D01*
X85004761Y-45057142D01*
X85052380Y-45200000D01*
X85052380Y-45438095D01*
X84147619Y-44485714D02*
X84100000Y-44438095D01*
X84052380Y-44342857D01*
X84052380Y-44104761D01*
X84100000Y-44009523D01*
X84147619Y-43961904D01*
X84242857Y-43914285D01*
X84338095Y-43914285D01*
X84480952Y-43961904D01*
X85052380Y-44533333D01*
X85052380Y-43914285D01*
X109452380Y-48438095D02*
X108452380Y-48438095D01*
X108452380Y-48200000D01*
X108500000Y-48057142D01*
X108595238Y-47961904D01*
X108690476Y-47914285D01*
X108880952Y-47866666D01*
X109023809Y-47866666D01*
X109214285Y-47914285D01*
X109309523Y-47961904D01*
X109404761Y-48057142D01*
X109452380Y-48200000D01*
X109452380Y-48438095D01*
X108452380Y-47533333D02*
X108452380Y-46914285D01*
X108833333Y-47247619D01*
X108833333Y-47104761D01*
X108880952Y-47009523D01*
X108928571Y-46961904D01*
X109023809Y-46914285D01*
X109261904Y-46914285D01*
X109357142Y-46961904D01*
X109404761Y-47009523D01*
X109452380Y-47104761D01*
X109452380Y-47390476D01*
X109404761Y-47485714D01*
X109357142Y-47533333D01*
X113666666Y-35928571D02*
X113333333Y-35928571D01*
X113333333Y-36452380D02*
X113333333Y-35452380D01*
X113809523Y-35452380D01*
X114523809Y-35928571D02*
X114666666Y-35976190D01*
X114714285Y-36023809D01*
X114761904Y-36119047D01*
X114761904Y-36261904D01*
X114714285Y-36357142D01*
X114666666Y-36404761D01*
X114571428Y-36452380D01*
X114190476Y-36452380D01*
X114190476Y-35452380D01*
X114523809Y-35452380D01*
X114619047Y-35500000D01*
X114666666Y-35547619D01*
X114714285Y-35642857D01*
X114714285Y-35738095D01*
X114666666Y-35833333D01*
X114619047Y-35880952D01*
X114523809Y-35928571D01*
X114190476Y-35928571D01*
X115714285Y-36452380D02*
X115142857Y-36452380D01*
X115428571Y-36452380D02*
X115428571Y-35452380D01*
X115333333Y-35595238D01*
X115238095Y-35690476D01*
X115142857Y-35738095D01*
X105428571Y-38033333D02*
X105428571Y-38366666D01*
X105952380Y-38366666D02*
X104952380Y-38366666D01*
X104952380Y-37890476D01*
X105428571Y-37176190D02*
X105476190Y-37033333D01*
X105523809Y-36985714D01*
X105619047Y-36938095D01*
X105761904Y-36938095D01*
X105857142Y-36985714D01*
X105904761Y-37033333D01*
X105952380Y-37128571D01*
X105952380Y-37509523D01*
X104952380Y-37509523D01*
X104952380Y-37176190D01*
X105000000Y-37080952D01*
X105047619Y-37033333D01*
X105142857Y-36985714D01*
X105238095Y-36985714D01*
X105333333Y-37033333D01*
X105380952Y-37080952D01*
X105428571Y-37176190D01*
X105428571Y-37509523D01*
X105047619Y-36557142D02*
X105000000Y-36509523D01*
X104952380Y-36414285D01*
X104952380Y-36176190D01*
X105000000Y-36080952D01*
X105047619Y-36033333D01*
X105142857Y-35985714D01*
X105238095Y-35985714D01*
X105380952Y-36033333D01*
X105952380Y-36604761D01*
X105952380Y-35985714D01*
X105366666Y-31852380D02*
X105366666Y-32566666D01*
X105319047Y-32709523D01*
X105223809Y-32804761D01*
X105080952Y-32852380D01*
X104985714Y-32852380D01*
X106366666Y-32852380D02*
X105795238Y-32852380D01*
X106080952Y-32852380D02*
X106080952Y-31852380D01*
X105985714Y-31995238D01*
X105890476Y-32090476D01*
X105795238Y-32138095D01*
X93266666Y-32652380D02*
X93266666Y-33366666D01*
X93219047Y-33509523D01*
X93123809Y-33604761D01*
X92980952Y-33652380D01*
X92885714Y-33652380D01*
X93695238Y-32747619D02*
X93742857Y-32700000D01*
X93838095Y-32652380D01*
X94076190Y-32652380D01*
X94171428Y-32700000D01*
X94219047Y-32747619D01*
X94266666Y-32842857D01*
X94266666Y-32938095D01*
X94219047Y-33080952D01*
X93647619Y-33652380D01*
X94266666Y-33652380D01*
X80552380Y-39677933D02*
X81266666Y-39677933D01*
X81409523Y-39725552D01*
X81504761Y-39820790D01*
X81552380Y-39963647D01*
X81552380Y-40058885D01*
X80552380Y-39296980D02*
X80552380Y-38677933D01*
X80933333Y-39011266D01*
X80933333Y-38868409D01*
X80980952Y-38773171D01*
X81028571Y-38725552D01*
X81123809Y-38677933D01*
X81361904Y-38677933D01*
X81457142Y-38725552D01*
X81504761Y-38773171D01*
X81552380Y-38868409D01*
X81552380Y-39154123D01*
X81504761Y-39249361D01*
X81457142Y-39296980D01*
X82066666Y-31052380D02*
X82066666Y-31766666D01*
X82019047Y-31909523D01*
X81923809Y-32004761D01*
X81780952Y-32052380D01*
X81685714Y-32052380D01*
X83019047Y-31052380D02*
X82542857Y-31052380D01*
X82495238Y-31528571D01*
X82542857Y-31480952D01*
X82638095Y-31433333D01*
X82876190Y-31433333D01*
X82971428Y-31480952D01*
X83019047Y-31528571D01*
X83066666Y-31623809D01*
X83066666Y-31861904D01*
X83019047Y-31957142D01*
X82971428Y-32004761D01*
X82876190Y-32052380D01*
X82638095Y-32052380D01*
X82542857Y-32004761D01*
X82495238Y-31957142D01*
X86199980Y-56707066D02*
X86199980Y-57183257D01*
X85199980Y-57183257D01*
X86199980Y-55849923D02*
X86199980Y-56421352D01*
X86199980Y-56135638D02*
X85199980Y-56135638D01*
X85342838Y-56230876D01*
X85438076Y-56326114D01*
X85485695Y-56421352D01*
X76852380Y-42266666D02*
X76376190Y-42600000D01*
X76852380Y-42838095D02*
X75852380Y-42838095D01*
X75852380Y-42457142D01*
X75900000Y-42361904D01*
X75947619Y-42314285D01*
X76042857Y-42266666D01*
X76185714Y-42266666D01*
X76280952Y-42314285D01*
X76328571Y-42361904D01*
X76376190Y-42457142D01*
X76376190Y-42838095D01*
X75947619Y-41885714D02*
X75900000Y-41838095D01*
X75852380Y-41742857D01*
X75852380Y-41504761D01*
X75900000Y-41409523D01*
X75947619Y-41361904D01*
X76042857Y-41314285D01*
X76138095Y-41314285D01*
X76280952Y-41361904D01*
X76852380Y-41933333D01*
X76852380Y-41314285D01*
X82052380Y-42466666D02*
X81576190Y-42800000D01*
X82052380Y-43038095D02*
X81052380Y-43038095D01*
X81052380Y-42657142D01*
X81100000Y-42561904D01*
X81147619Y-42514285D01*
X81242857Y-42466666D01*
X81385714Y-42466666D01*
X81480952Y-42514285D01*
X81528571Y-42561904D01*
X81576190Y-42657142D01*
X81576190Y-43038095D01*
X81052380Y-42133333D02*
X81052380Y-41514285D01*
X81433333Y-41847619D01*
X81433333Y-41704761D01*
X81480952Y-41609523D01*
X81528571Y-41561904D01*
X81623809Y-41514285D01*
X81861904Y-41514285D01*
X81957142Y-41561904D01*
X82004761Y-41609523D01*
X82052380Y-41704761D01*
X82052380Y-41990476D01*
X82004761Y-42085714D01*
X81957142Y-42133333D01*
X80752380Y-42466666D02*
X80276190Y-42800000D01*
X80752380Y-43038095D02*
X79752380Y-43038095D01*
X79752380Y-42657142D01*
X79800000Y-42561904D01*
X79847619Y-42514285D01*
X79942857Y-42466666D01*
X80085714Y-42466666D01*
X80180952Y-42514285D01*
X80228571Y-42561904D01*
X80276190Y-42657142D01*
X80276190Y-43038095D01*
X80085714Y-41609523D02*
X80752380Y-41609523D01*
X79704761Y-41847619D02*
X80419047Y-42085714D01*
X80419047Y-41466666D01*
X98033333Y-61052380D02*
X97700000Y-60576190D01*
X97461904Y-61052380D02*
X97461904Y-60052380D01*
X97842857Y-60052380D01*
X97938095Y-60100000D01*
X97985714Y-60147619D01*
X98033333Y-60242857D01*
X98033333Y-60385714D01*
X97985714Y-60480952D01*
X97938095Y-60528571D01*
X97842857Y-60576190D01*
X97461904Y-60576190D01*
X98938095Y-60052380D02*
X98461904Y-60052380D01*
X98414285Y-60528571D01*
X98461904Y-60480952D01*
X98557142Y-60433333D01*
X98795238Y-60433333D01*
X98890476Y-60480952D01*
X98938095Y-60528571D01*
X98985714Y-60623809D01*
X98985714Y-60861904D01*
X98938095Y-60957142D01*
X98890476Y-61004761D01*
X98795238Y-61052380D01*
X98557142Y-61052380D01*
X98461904Y-61004761D01*
X98414285Y-60957142D01*
X100852380Y-52966666D02*
X100376190Y-53300000D01*
X100852380Y-53538095D02*
X99852380Y-53538095D01*
X99852380Y-53157142D01*
X99900000Y-53061904D01*
X99947619Y-53014285D01*
X100042857Y-52966666D01*
X100185714Y-52966666D01*
X100280952Y-53014285D01*
X100328571Y-53061904D01*
X100376190Y-53157142D01*
X100376190Y-53538095D01*
X99852380Y-52109523D02*
X99852380Y-52300000D01*
X99900000Y-52395238D01*
X99947619Y-52442857D01*
X100090476Y-52538095D01*
X100280952Y-52585714D01*
X100661904Y-52585714D01*
X100757142Y-52538095D01*
X100804761Y-52490476D01*
X100852380Y-52395238D01*
X100852380Y-52204761D01*
X100804761Y-52109523D01*
X100757142Y-52061904D01*
X100661904Y-52014285D01*
X100423809Y-52014285D01*
X100328571Y-52061904D01*
X100280952Y-52109523D01*
X100233333Y-52204761D01*
X100233333Y-52395238D01*
X100280952Y-52490476D01*
X100328571Y-52538095D01*
X100423809Y-52585714D01*
X100652380Y-55866666D02*
X100176190Y-56200000D01*
X100652380Y-56438095D02*
X99652380Y-56438095D01*
X99652380Y-56057142D01*
X99700000Y-55961904D01*
X99747619Y-55914285D01*
X99842857Y-55866666D01*
X99985714Y-55866666D01*
X100080952Y-55914285D01*
X100128571Y-55961904D01*
X100176190Y-56057142D01*
X100176190Y-56438095D01*
X99652380Y-55533333D02*
X99652380Y-54866666D01*
X100652380Y-55295238D01*
X83825733Y-57445280D02*
X83492400Y-56969090D01*
X83254304Y-57445280D02*
X83254304Y-56445280D01*
X83635257Y-56445280D01*
X83730495Y-56492900D01*
X83778114Y-56540519D01*
X83825733Y-56635757D01*
X83825733Y-56778614D01*
X83778114Y-56873852D01*
X83730495Y-56921471D01*
X83635257Y-56969090D01*
X83254304Y-56969090D01*
X84397161Y-56873852D02*
X84301923Y-56826233D01*
X84254304Y-56778614D01*
X84206685Y-56683376D01*
X84206685Y-56635757D01*
X84254304Y-56540519D01*
X84301923Y-56492900D01*
X84397161Y-56445280D01*
X84587638Y-56445280D01*
X84682876Y-56492900D01*
X84730495Y-56540519D01*
X84778114Y-56635757D01*
X84778114Y-56683376D01*
X84730495Y-56778614D01*
X84682876Y-56826233D01*
X84587638Y-56873852D01*
X84397161Y-56873852D01*
X84301923Y-56921471D01*
X84254304Y-56969090D01*
X84206685Y-57064328D01*
X84206685Y-57254804D01*
X84254304Y-57350042D01*
X84301923Y-57397661D01*
X84397161Y-57445280D01*
X84587638Y-57445280D01*
X84682876Y-57397661D01*
X84730495Y-57350042D01*
X84778114Y-57254804D01*
X84778114Y-57064328D01*
X84730495Y-56969090D01*
X84682876Y-56921471D01*
X84587638Y-56873852D01*
X51038095Y-39352380D02*
X51038095Y-40161904D01*
X51085714Y-40257142D01*
X51133333Y-40304761D01*
X51228571Y-40352380D01*
X51419047Y-40352380D01*
X51514285Y-40304761D01*
X51561904Y-40257142D01*
X51609523Y-40161904D01*
X51609523Y-39352380D01*
X52609523Y-40352380D02*
X52038095Y-40352380D01*
X52323809Y-40352380D02*
X52323809Y-39352380D01*
X52228571Y-39495238D01*
X52133333Y-39590476D01*
X52038095Y-39638095D01*
X94238095Y-38252380D02*
X94238095Y-39061904D01*
X94285714Y-39157142D01*
X94333333Y-39204761D01*
X94428571Y-39252380D01*
X94619047Y-39252380D01*
X94714285Y-39204761D01*
X94761904Y-39157142D01*
X94809523Y-39061904D01*
X94809523Y-38252380D01*
X95714285Y-38585714D02*
X95714285Y-39252380D01*
X95476190Y-38204761D02*
X95238095Y-38919047D01*
X95857142Y-38919047D01*
X89438095Y-59552380D02*
X89438095Y-60361904D01*
X89485714Y-60457142D01*
X89533333Y-60504761D01*
X89628571Y-60552380D01*
X89819047Y-60552380D01*
X89914285Y-60504761D01*
X89961904Y-60457142D01*
X90009523Y-60361904D01*
X90009523Y-59552380D01*
X90438095Y-59647619D02*
X90485714Y-59600000D01*
X90580952Y-59552380D01*
X90819047Y-59552380D01*
X90914285Y-59600000D01*
X90961904Y-59647619D01*
X91009523Y-59742857D01*
X91009523Y-59838095D01*
X90961904Y-59980952D01*
X90390476Y-60552380D01*
X91009523Y-60552380D01*
X90833333Y-79257142D02*
X90785714Y-79304761D01*
X90642857Y-79352380D01*
X90547619Y-79352380D01*
X90404761Y-79304761D01*
X90309523Y-79209523D01*
X90261904Y-79114285D01*
X90214285Y-78923809D01*
X90214285Y-78780952D01*
X90261904Y-78590476D01*
X90309523Y-78495238D01*
X90404761Y-78400000D01*
X90547619Y-78352380D01*
X90642857Y-78352380D01*
X90785714Y-78400000D01*
X90833333Y-78447619D01*
X91404761Y-78780952D02*
X91309523Y-78733333D01*
X91261904Y-78685714D01*
X91214285Y-78590476D01*
X91214285Y-78542857D01*
X91261904Y-78447619D01*
X91309523Y-78400000D01*
X91404761Y-78352380D01*
X91595238Y-78352380D01*
X91690476Y-78400000D01*
X91738095Y-78447619D01*
X91785714Y-78542857D01*
X91785714Y-78590476D01*
X91738095Y-78685714D01*
X91690476Y-78733333D01*
X91595238Y-78780952D01*
X91404761Y-78780952D01*
X91309523Y-78828571D01*
X91261904Y-78876190D01*
X91214285Y-78971428D01*
X91214285Y-79161904D01*
X91261904Y-79257142D01*
X91309523Y-79304761D01*
X91404761Y-79352380D01*
X91595238Y-79352380D01*
X91690476Y-79304761D01*
X91738095Y-79257142D01*
X91785714Y-79161904D01*
X91785714Y-78971428D01*
X91738095Y-78876190D01*
X91690476Y-78828571D01*
X91595238Y-78780952D01*
X99157142Y-79042857D02*
X99204761Y-79090476D01*
X99252380Y-79233333D01*
X99252380Y-79328571D01*
X99204761Y-79471428D01*
X99109523Y-79566666D01*
X99014285Y-79614285D01*
X98823809Y-79661904D01*
X98680952Y-79661904D01*
X98490476Y-79614285D01*
X98395238Y-79566666D01*
X98300000Y-79471428D01*
X98252380Y-79328571D01*
X98252380Y-79233333D01*
X98300000Y-79090476D01*
X98347619Y-79042857D01*
X99252380Y-78090476D02*
X99252380Y-78661904D01*
X99252380Y-78376190D02*
X98252380Y-78376190D01*
X98395238Y-78471428D01*
X98490476Y-78566666D01*
X98538095Y-78661904D01*
X98252380Y-77233333D02*
X98252380Y-77423809D01*
X98300000Y-77519047D01*
X98347619Y-77566666D01*
X98490476Y-77661904D01*
X98680952Y-77709523D01*
X99061904Y-77709523D01*
X99157142Y-77661904D01*
X99204761Y-77614285D01*
X99252380Y-77519047D01*
X99252380Y-77328571D01*
X99204761Y-77233333D01*
X99157142Y-77185714D01*
X99061904Y-77138095D01*
X98823809Y-77138095D01*
X98728571Y-77185714D01*
X98680952Y-77233333D01*
X98633333Y-77328571D01*
X98633333Y-77519047D01*
X98680952Y-77614285D01*
X98728571Y-77661904D01*
X98823809Y-77709523D01*
X96657142Y-74257142D02*
X96609523Y-74304761D01*
X96466666Y-74352380D01*
X96371428Y-74352380D01*
X96228571Y-74304761D01*
X96133333Y-74209523D01*
X96085714Y-74114285D01*
X96038095Y-73923809D01*
X96038095Y-73780952D01*
X96085714Y-73590476D01*
X96133333Y-73495238D01*
X96228571Y-73400000D01*
X96371428Y-73352380D01*
X96466666Y-73352380D01*
X96609523Y-73400000D01*
X96657142Y-73447619D01*
X97609523Y-74352380D02*
X97038095Y-74352380D01*
X97323809Y-74352380D02*
X97323809Y-73352380D01*
X97228571Y-73495238D01*
X97133333Y-73590476D01*
X97038095Y-73638095D01*
X97942857Y-73352380D02*
X98609523Y-73352380D01*
X98180952Y-74352380D01*
X92757142Y-67757142D02*
X92709523Y-67804761D01*
X92566666Y-67852380D01*
X92471428Y-67852380D01*
X92328571Y-67804761D01*
X92233333Y-67709523D01*
X92185714Y-67614285D01*
X92138095Y-67423809D01*
X92138095Y-67280952D01*
X92185714Y-67090476D01*
X92233333Y-66995238D01*
X92328571Y-66900000D01*
X92471428Y-66852380D01*
X92566666Y-66852380D01*
X92709523Y-66900000D01*
X92757142Y-66947619D01*
X93709523Y-67852380D02*
X93138095Y-67852380D01*
X93423809Y-67852380D02*
X93423809Y-66852380D01*
X93328571Y-66995238D01*
X93233333Y-67090476D01*
X93138095Y-67138095D01*
X94280952Y-67280952D02*
X94185714Y-67233333D01*
X94138095Y-67185714D01*
X94090476Y-67090476D01*
X94090476Y-67042857D01*
X94138095Y-66947619D01*
X94185714Y-66900000D01*
X94280952Y-66852380D01*
X94471428Y-66852380D01*
X94566666Y-66900000D01*
X94614285Y-66947619D01*
X94661904Y-67042857D01*
X94661904Y-67090476D01*
X94614285Y-67185714D01*
X94566666Y-67233333D01*
X94471428Y-67280952D01*
X94280952Y-67280952D01*
X94185714Y-67328571D01*
X94138095Y-67376190D01*
X94090476Y-67471428D01*
X94090476Y-67661904D01*
X94138095Y-67757142D01*
X94185714Y-67804761D01*
X94280952Y-67852380D01*
X94471428Y-67852380D01*
X94566666Y-67804761D01*
X94614285Y-67757142D01*
X94661904Y-67661904D01*
X94661904Y-67471428D01*
X94614285Y-67376190D01*
X94566666Y-67328571D01*
X94471428Y-67280952D01*
X92757142Y-66257142D02*
X92709523Y-66304761D01*
X92566666Y-66352380D01*
X92471428Y-66352380D01*
X92328571Y-66304761D01*
X92233333Y-66209523D01*
X92185714Y-66114285D01*
X92138095Y-65923809D01*
X92138095Y-65780952D01*
X92185714Y-65590476D01*
X92233333Y-65495238D01*
X92328571Y-65400000D01*
X92471428Y-65352380D01*
X92566666Y-65352380D01*
X92709523Y-65400000D01*
X92757142Y-65447619D01*
X93709523Y-66352380D02*
X93138095Y-66352380D01*
X93423809Y-66352380D02*
X93423809Y-65352380D01*
X93328571Y-65495238D01*
X93233333Y-65590476D01*
X93138095Y-65638095D01*
X94185714Y-66352380D02*
X94376190Y-66352380D01*
X94471428Y-66304761D01*
X94519047Y-66257142D01*
X94614285Y-66114285D01*
X94661904Y-65923809D01*
X94661904Y-65542857D01*
X94614285Y-65447619D01*
X94566666Y-65400000D01*
X94471428Y-65352380D01*
X94280952Y-65352380D01*
X94185714Y-65400000D01*
X94138095Y-65447619D01*
X94090476Y-65542857D01*
X94090476Y-65780952D01*
X94138095Y-65876190D01*
X94185714Y-65923809D01*
X94280952Y-65971428D01*
X94471428Y-65971428D01*
X94566666Y-65923809D01*
X94614285Y-65876190D01*
X94661904Y-65780952D01*
X50257142Y-58457142D02*
X50209523Y-58504761D01*
X50066666Y-58552380D01*
X49971428Y-58552380D01*
X49828571Y-58504761D01*
X49733333Y-58409523D01*
X49685714Y-58314285D01*
X49638095Y-58123809D01*
X49638095Y-57980952D01*
X49685714Y-57790476D01*
X49733333Y-57695238D01*
X49828571Y-57600000D01*
X49971428Y-57552380D01*
X50066666Y-57552380D01*
X50209523Y-57600000D01*
X50257142Y-57647619D01*
X50638095Y-57647619D02*
X50685714Y-57600000D01*
X50780952Y-57552380D01*
X51019047Y-57552380D01*
X51114285Y-57600000D01*
X51161904Y-57647619D01*
X51209523Y-57742857D01*
X51209523Y-57838095D01*
X51161904Y-57980952D01*
X50590476Y-58552380D01*
X51209523Y-58552380D01*
X51828571Y-57552380D02*
X51923809Y-57552380D01*
X52019047Y-57600000D01*
X52066666Y-57647619D01*
X52114285Y-57742857D01*
X52161904Y-57933333D01*
X52161904Y-58171428D01*
X52114285Y-58361904D01*
X52066666Y-58457142D01*
X52019047Y-58504761D01*
X51923809Y-58552380D01*
X51828571Y-58552380D01*
X51733333Y-58504761D01*
X51685714Y-58457142D01*
X51638095Y-58361904D01*
X51590476Y-58171428D01*
X51590476Y-57933333D01*
X51638095Y-57742857D01*
X51685714Y-57647619D01*
X51733333Y-57600000D01*
X51828571Y-57552380D01*
X65961904Y-42852380D02*
X65961904Y-41852380D01*
X66200000Y-41852380D01*
X66342857Y-41900000D01*
X66438095Y-41995238D01*
X66485714Y-42090476D01*
X66533333Y-42280952D01*
X66533333Y-42423809D01*
X66485714Y-42614285D01*
X66438095Y-42709523D01*
X66342857Y-42804761D01*
X66200000Y-42852380D01*
X65961904Y-42852380D01*
X67390476Y-42185714D02*
X67390476Y-42852380D01*
X67152380Y-41804761D02*
X66914285Y-42519047D01*
X67533333Y-42519047D01*
X115161904Y-91052380D02*
X115161904Y-90052380D01*
X115400000Y-90052380D01*
X115542857Y-90100000D01*
X115638095Y-90195238D01*
X115685714Y-90290476D01*
X115733333Y-90480952D01*
X115733333Y-90623809D01*
X115685714Y-90814285D01*
X115638095Y-90909523D01*
X115542857Y-91004761D01*
X115400000Y-91052380D01*
X115161904Y-91052380D01*
X116638095Y-90052380D02*
X116161904Y-90052380D01*
X116114285Y-90528571D01*
X116161904Y-90480952D01*
X116257142Y-90433333D01*
X116495238Y-90433333D01*
X116590476Y-90480952D01*
X116638095Y-90528571D01*
X116685714Y-90623809D01*
X116685714Y-90861904D01*
X116638095Y-90957142D01*
X116590476Y-91004761D01*
X116495238Y-91052380D01*
X116257142Y-91052380D01*
X116161904Y-91004761D01*
X116114285Y-90957142D01*
X104568666Y-50741780D02*
X104568666Y-51456066D01*
X104521047Y-51598923D01*
X104425809Y-51694161D01*
X104282952Y-51741780D01*
X104187714Y-51741780D01*
X105473428Y-50741780D02*
X105282952Y-50741780D01*
X105187714Y-50789400D01*
X105140095Y-50837019D01*
X105044857Y-50979876D01*
X104997238Y-51170352D01*
X104997238Y-51551304D01*
X105044857Y-51646542D01*
X105092476Y-51694161D01*
X105187714Y-51741780D01*
X105378190Y-51741780D01*
X105473428Y-51694161D01*
X105521047Y-51646542D01*
X105568666Y-51551304D01*
X105568666Y-51313209D01*
X105521047Y-51217971D01*
X105473428Y-51170352D01*
X105378190Y-51122733D01*
X105187714Y-51122733D01*
X105092476Y-51170352D01*
X105044857Y-51217971D01*
X104997238Y-51313209D01*
X98986666Y-114552380D02*
X98986666Y-115266666D01*
X98939047Y-115409523D01*
X98843809Y-115504761D01*
X98700952Y-115552380D01*
X98605714Y-115552380D01*
X99367619Y-114552380D02*
X100034285Y-114552380D01*
X99605714Y-115552380D01*
X93906666Y-114352380D02*
X93906666Y-115066666D01*
X93859047Y-115209523D01*
X93763809Y-115304761D01*
X93620952Y-115352380D01*
X93525714Y-115352380D01*
X94525714Y-114780952D02*
X94430476Y-114733333D01*
X94382857Y-114685714D01*
X94335238Y-114590476D01*
X94335238Y-114542857D01*
X94382857Y-114447619D01*
X94430476Y-114400000D01*
X94525714Y-114352380D01*
X94716190Y-114352380D01*
X94811428Y-114400000D01*
X94859047Y-114447619D01*
X94906666Y-114542857D01*
X94906666Y-114590476D01*
X94859047Y-114685714D01*
X94811428Y-114733333D01*
X94716190Y-114780952D01*
X94525714Y-114780952D01*
X94430476Y-114828571D01*
X94382857Y-114876190D01*
X94335238Y-114971428D01*
X94335238Y-115161904D01*
X94382857Y-115257142D01*
X94430476Y-115304761D01*
X94525714Y-115352380D01*
X94716190Y-115352380D01*
X94811428Y-115304761D01*
X94859047Y-115257142D01*
X94906666Y-115161904D01*
X94906666Y-114971428D01*
X94859047Y-114876190D01*
X94811428Y-114828571D01*
X94716190Y-114780952D01*
X112066666Y-114452380D02*
X112066666Y-115166666D01*
X112019047Y-115309523D01*
X111923809Y-115404761D01*
X111780952Y-115452380D01*
X111685714Y-115452380D01*
X112590476Y-115452380D02*
X112780952Y-115452380D01*
X112876190Y-115404761D01*
X112923809Y-115357142D01*
X113019047Y-115214285D01*
X113066666Y-115023809D01*
X113066666Y-114642857D01*
X113019047Y-114547619D01*
X112971428Y-114500000D01*
X112876190Y-114452380D01*
X112685714Y-114452380D01*
X112590476Y-114500000D01*
X112542857Y-114547619D01*
X112495238Y-114642857D01*
X112495238Y-114880952D01*
X112542857Y-114976190D01*
X112590476Y-115023809D01*
X112685714Y-115071428D01*
X112876190Y-115071428D01*
X112971428Y-115023809D01*
X113019047Y-114976190D01*
X113066666Y-114880952D01*
X106790476Y-114552380D02*
X106790476Y-115266666D01*
X106742857Y-115409523D01*
X106647619Y-115504761D01*
X106504761Y-115552380D01*
X106409523Y-115552380D01*
X107790476Y-115552380D02*
X107219047Y-115552380D01*
X107504761Y-115552380D02*
X107504761Y-114552380D01*
X107409523Y-114695238D01*
X107314285Y-114790476D01*
X107219047Y-114838095D01*
X108409523Y-114552380D02*
X108504761Y-114552380D01*
X108600000Y-114600000D01*
X108647619Y-114647619D01*
X108695238Y-114742857D01*
X108742857Y-114933333D01*
X108742857Y-115171428D01*
X108695238Y-115361904D01*
X108647619Y-115457142D01*
X108600000Y-115504761D01*
X108504761Y-115552380D01*
X108409523Y-115552380D01*
X108314285Y-115504761D01*
X108266666Y-115457142D01*
X108219047Y-115361904D01*
X108171428Y-115171428D01*
X108171428Y-114933333D01*
X108219047Y-114742857D01*
X108266666Y-114647619D01*
X108314285Y-114600000D01*
X108409523Y-114552380D01*
X45990476Y-39552380D02*
X45990476Y-40266666D01*
X45942857Y-40409523D01*
X45847619Y-40504761D01*
X45704761Y-40552380D01*
X45609523Y-40552380D01*
X46990476Y-40552380D02*
X46419047Y-40552380D01*
X46704761Y-40552380D02*
X46704761Y-39552380D01*
X46609523Y-39695238D01*
X46514285Y-39790476D01*
X46419047Y-39838095D01*
X47942857Y-40552380D02*
X47371428Y-40552380D01*
X47657142Y-40552380D02*
X47657142Y-39552380D01*
X47561904Y-39695238D01*
X47466666Y-39790476D01*
X47371428Y-39838095D01*
X41052380Y-84709523D02*
X41766666Y-84709523D01*
X41909523Y-84757142D01*
X42004761Y-84852380D01*
X42052380Y-84995238D01*
X42052380Y-85090476D01*
X42052380Y-83709523D02*
X42052380Y-84280952D01*
X42052380Y-83995238D02*
X41052380Y-83995238D01*
X41195238Y-84090476D01*
X41290476Y-84185714D01*
X41338095Y-84280952D01*
X41147619Y-83328571D02*
X41100000Y-83280952D01*
X41052380Y-83185714D01*
X41052380Y-82947619D01*
X41100000Y-82852380D01*
X41147619Y-82804761D01*
X41242857Y-82757142D01*
X41338095Y-82757142D01*
X41480952Y-82804761D01*
X42052380Y-83376190D01*
X42052380Y-82757142D01*
X41152380Y-92509523D02*
X41866666Y-92509523D01*
X42009523Y-92557142D01*
X42104761Y-92652380D01*
X42152380Y-92795238D01*
X42152380Y-92890476D01*
X42152380Y-91509523D02*
X42152380Y-92080952D01*
X42152380Y-91795238D02*
X41152380Y-91795238D01*
X41295238Y-91890476D01*
X41390476Y-91985714D01*
X41438095Y-92080952D01*
X41152380Y-91176190D02*
X41152380Y-90557142D01*
X41533333Y-90890476D01*
X41533333Y-90747619D01*
X41580952Y-90652380D01*
X41628571Y-90604761D01*
X41723809Y-90557142D01*
X41961904Y-90557142D01*
X42057142Y-90604761D01*
X42104761Y-90652380D01*
X42152380Y-90747619D01*
X42152380Y-91033333D01*
X42104761Y-91128571D01*
X42057142Y-91176190D01*
X40852380Y-100009523D02*
X41566666Y-100009523D01*
X41709523Y-100057142D01*
X41804761Y-100152380D01*
X41852380Y-100295238D01*
X41852380Y-100390476D01*
X41852380Y-99009523D02*
X41852380Y-99580952D01*
X41852380Y-99295238D02*
X40852380Y-99295238D01*
X40995238Y-99390476D01*
X41090476Y-99485714D01*
X41138095Y-99580952D01*
X41185714Y-98152380D02*
X41852380Y-98152380D01*
X40804761Y-98390476D02*
X41519047Y-98628571D01*
X41519047Y-98009523D01*
X41152380Y-107009523D02*
X41866666Y-107009523D01*
X42009523Y-107057142D01*
X42104761Y-107152380D01*
X42152380Y-107295238D01*
X42152380Y-107390476D01*
X42152380Y-106009523D02*
X42152380Y-106580952D01*
X42152380Y-106295238D02*
X41152380Y-106295238D01*
X41295238Y-106390476D01*
X41390476Y-106485714D01*
X41438095Y-106580952D01*
X41152380Y-105104761D02*
X41152380Y-105580952D01*
X41628571Y-105628571D01*
X41580952Y-105580952D01*
X41533333Y-105485714D01*
X41533333Y-105247619D01*
X41580952Y-105152380D01*
X41628571Y-105104761D01*
X41723809Y-105057142D01*
X41961904Y-105057142D01*
X42057142Y-105104761D01*
X42104761Y-105152380D01*
X42152380Y-105247619D01*
X42152380Y-105485714D01*
X42104761Y-105580952D01*
X42057142Y-105628571D01*
X85390476Y-114152380D02*
X85390476Y-114866666D01*
X85342857Y-115009523D01*
X85247619Y-115104761D01*
X85104761Y-115152380D01*
X85009523Y-115152380D01*
X86390476Y-115152380D02*
X85819047Y-115152380D01*
X86104761Y-115152380D02*
X86104761Y-114152380D01*
X86009523Y-114295238D01*
X85914285Y-114390476D01*
X85819047Y-114438095D01*
X87247619Y-114152380D02*
X87057142Y-114152380D01*
X86961904Y-114200000D01*
X86914285Y-114247619D01*
X86819047Y-114390476D01*
X86771428Y-114580952D01*
X86771428Y-114961904D01*
X86819047Y-115057142D01*
X86866666Y-115104761D01*
X86961904Y-115152380D01*
X87152380Y-115152380D01*
X87247619Y-115104761D01*
X87295238Y-115057142D01*
X87342857Y-114961904D01*
X87342857Y-114723809D01*
X87295238Y-114628571D01*
X87247619Y-114580952D01*
X87152380Y-114533333D01*
X86961904Y-114533333D01*
X86866666Y-114580952D01*
X86819047Y-114628571D01*
X86771428Y-114723809D01*
X75290476Y-114452380D02*
X75290476Y-115166666D01*
X75242857Y-115309523D01*
X75147619Y-115404761D01*
X75004761Y-115452380D01*
X74909523Y-115452380D01*
X76290476Y-115452380D02*
X75719047Y-115452380D01*
X76004761Y-115452380D02*
X76004761Y-114452380D01*
X75909523Y-114595238D01*
X75814285Y-114690476D01*
X75719047Y-114738095D01*
X76623809Y-114452380D02*
X77290476Y-114452380D01*
X76861904Y-115452380D01*
X80290476Y-114352380D02*
X80290476Y-115066666D01*
X80242857Y-115209523D01*
X80147619Y-115304761D01*
X80004761Y-115352380D01*
X79909523Y-115352380D01*
X81290476Y-115352380D02*
X80719047Y-115352380D01*
X81004761Y-115352380D02*
X81004761Y-114352380D01*
X80909523Y-114495238D01*
X80814285Y-114590476D01*
X80719047Y-114638095D01*
X81861904Y-114780952D02*
X81766666Y-114733333D01*
X81719047Y-114685714D01*
X81671428Y-114590476D01*
X81671428Y-114542857D01*
X81719047Y-114447619D01*
X81766666Y-114400000D01*
X81861904Y-114352380D01*
X82052380Y-114352380D01*
X82147619Y-114400000D01*
X82195238Y-114447619D01*
X82242857Y-114542857D01*
X82242857Y-114590476D01*
X82195238Y-114685714D01*
X82147619Y-114733333D01*
X82052380Y-114780952D01*
X81861904Y-114780952D01*
X81766666Y-114828571D01*
X81719047Y-114876190D01*
X81671428Y-114971428D01*
X81671428Y-115161904D01*
X81719047Y-115257142D01*
X81766666Y-115304761D01*
X81861904Y-115352380D01*
X82052380Y-115352380D01*
X82147619Y-115304761D01*
X82195238Y-115257142D01*
X82242857Y-115161904D01*
X82242857Y-114971428D01*
X82195238Y-114876190D01*
X82147619Y-114828571D01*
X82052380Y-114780952D01*
X70390476Y-114452380D02*
X70390476Y-115166666D01*
X70342857Y-115309523D01*
X70247619Y-115404761D01*
X70104761Y-115452380D01*
X70009523Y-115452380D01*
X71390476Y-115452380D02*
X70819047Y-115452380D01*
X71104761Y-115452380D02*
X71104761Y-114452380D01*
X71009523Y-114595238D01*
X70914285Y-114690476D01*
X70819047Y-114738095D01*
X71866666Y-115452380D02*
X72057142Y-115452380D01*
X72152380Y-115404761D01*
X72200000Y-115357142D01*
X72295238Y-115214285D01*
X72342857Y-115023809D01*
X72342857Y-114642857D01*
X72295238Y-114547619D01*
X72247619Y-114500000D01*
X72152380Y-114452380D01*
X71961904Y-114452380D01*
X71866666Y-114500000D01*
X71819047Y-114547619D01*
X71771428Y-114642857D01*
X71771428Y-114880952D01*
X71819047Y-114976190D01*
X71866666Y-115023809D01*
X71961904Y-115071428D01*
X72152380Y-115071428D01*
X72247619Y-115023809D01*
X72295238Y-114976190D01*
X72342857Y-114880952D01*
X40952380Y-76909523D02*
X41666666Y-76909523D01*
X41809523Y-76957142D01*
X41904761Y-77052380D01*
X41952380Y-77195238D01*
X41952380Y-77290476D01*
X41047619Y-76480952D02*
X41000000Y-76433333D01*
X40952380Y-76338095D01*
X40952380Y-76100000D01*
X41000000Y-76004761D01*
X41047619Y-75957142D01*
X41142857Y-75909523D01*
X41238095Y-75909523D01*
X41380952Y-75957142D01*
X41952380Y-76528571D01*
X41952380Y-75909523D01*
X40952380Y-75290476D02*
X40952380Y-75195238D01*
X41000000Y-75100000D01*
X41047619Y-75052380D01*
X41142857Y-75004761D01*
X41333333Y-74957142D01*
X41571428Y-74957142D01*
X41761904Y-75004761D01*
X41857142Y-75052380D01*
X41904761Y-75100000D01*
X41952380Y-75195238D01*
X41952380Y-75290476D01*
X41904761Y-75385714D01*
X41857142Y-75433333D01*
X41761904Y-75480952D01*
X41571428Y-75528571D01*
X41333333Y-75528571D01*
X41142857Y-75480952D01*
X41047619Y-75433333D01*
X41000000Y-75385714D01*
X40952380Y-75290476D01*
X52452380Y-73809523D02*
X53166666Y-73809523D01*
X53309523Y-73857142D01*
X53404761Y-73952380D01*
X53452380Y-74095238D01*
X53452380Y-74190476D01*
X52547619Y-73380952D02*
X52500000Y-73333333D01*
X52452380Y-73238095D01*
X52452380Y-73000000D01*
X52500000Y-72904761D01*
X52547619Y-72857142D01*
X52642857Y-72809523D01*
X52738095Y-72809523D01*
X52880952Y-72857142D01*
X53452380Y-73428571D01*
X53452380Y-72809523D01*
X53452380Y-71857142D02*
X53452380Y-72428571D01*
X53452380Y-72142857D02*
X52452380Y-72142857D01*
X52595238Y-72238095D01*
X52690476Y-72333333D01*
X52738095Y-72428571D01*
X85641180Y-73572666D02*
X85641180Y-74048857D01*
X84641180Y-74048857D01*
X84736419Y-73286952D02*
X84688800Y-73239333D01*
X84641180Y-73144095D01*
X84641180Y-72906000D01*
X84688800Y-72810761D01*
X84736419Y-72763142D01*
X84831657Y-72715523D01*
X84926895Y-72715523D01*
X85069752Y-72763142D01*
X85641180Y-73334571D01*
X85641180Y-72715523D01*
X113404761Y-45847619D02*
X113309523Y-45800000D01*
X113214285Y-45704761D01*
X113071428Y-45561904D01*
X112976190Y-45514285D01*
X112880952Y-45514285D01*
X112928571Y-45752380D02*
X112833333Y-45704761D01*
X112738095Y-45609523D01*
X112690476Y-45419047D01*
X112690476Y-45085714D01*
X112738095Y-44895238D01*
X112833333Y-44800000D01*
X112928571Y-44752380D01*
X113119047Y-44752380D01*
X113214285Y-44800000D01*
X113309523Y-44895238D01*
X113357142Y-45085714D01*
X113357142Y-45419047D01*
X113309523Y-45609523D01*
X113214285Y-45704761D01*
X113119047Y-45752380D01*
X112928571Y-45752380D01*
X114309523Y-45752380D02*
X113738095Y-45752380D01*
X114023809Y-45752380D02*
X114023809Y-44752380D01*
X113928571Y-44895238D01*
X113833333Y-44990476D01*
X113738095Y-45038095D01*
X68604761Y-47347619D02*
X68509523Y-47300000D01*
X68414285Y-47204761D01*
X68271428Y-47061904D01*
X68176190Y-47014285D01*
X68080952Y-47014285D01*
X68128571Y-47252380D02*
X68033333Y-47204761D01*
X67938095Y-47109523D01*
X67890476Y-46919047D01*
X67890476Y-46585714D01*
X67938095Y-46395238D01*
X68033333Y-46300000D01*
X68128571Y-46252380D01*
X68319047Y-46252380D01*
X68414285Y-46300000D01*
X68509523Y-46395238D01*
X68557142Y-46585714D01*
X68557142Y-46919047D01*
X68509523Y-47109523D01*
X68414285Y-47204761D01*
X68319047Y-47252380D01*
X68128571Y-47252380D01*
X68938095Y-46347619D02*
X68985714Y-46300000D01*
X69080952Y-46252380D01*
X69319047Y-46252380D01*
X69414285Y-46300000D01*
X69461904Y-46347619D01*
X69509523Y-46442857D01*
X69509523Y-46538095D01*
X69461904Y-46680952D01*
X68890476Y-47252380D01*
X69509523Y-47252380D01*
X67904761Y-57047619D02*
X67809523Y-57000000D01*
X67714285Y-56904761D01*
X67571428Y-56761904D01*
X67476190Y-56714285D01*
X67380952Y-56714285D01*
X67428571Y-56952380D02*
X67333333Y-56904761D01*
X67238095Y-56809523D01*
X67190476Y-56619047D01*
X67190476Y-56285714D01*
X67238095Y-56095238D01*
X67333333Y-56000000D01*
X67428571Y-55952380D01*
X67619047Y-55952380D01*
X67714285Y-56000000D01*
X67809523Y-56095238D01*
X67857142Y-56285714D01*
X67857142Y-56619047D01*
X67809523Y-56809523D01*
X67714285Y-56904761D01*
X67619047Y-56952380D01*
X67428571Y-56952380D01*
X68190476Y-55952380D02*
X68809523Y-55952380D01*
X68476190Y-56333333D01*
X68619047Y-56333333D01*
X68714285Y-56380952D01*
X68761904Y-56428571D01*
X68809523Y-56523809D01*
X68809523Y-56761904D01*
X68761904Y-56857142D01*
X68714285Y-56904761D01*
X68619047Y-56952380D01*
X68333333Y-56952380D01*
X68238095Y-56904761D01*
X68190476Y-56857142D01*
X86442561Y-100964619D02*
X86347323Y-100917000D01*
X86252085Y-100821761D01*
X86109228Y-100678904D01*
X86013990Y-100631285D01*
X85918752Y-100631285D01*
X85966371Y-100869380D02*
X85871133Y-100821761D01*
X85775895Y-100726523D01*
X85728276Y-100536047D01*
X85728276Y-100202714D01*
X85775895Y-100012238D01*
X85871133Y-99917000D01*
X85966371Y-99869380D01*
X86156847Y-99869380D01*
X86252085Y-99917000D01*
X86347323Y-100012238D01*
X86394942Y-100202714D01*
X86394942Y-100536047D01*
X86347323Y-100726523D01*
X86252085Y-100821761D01*
X86156847Y-100869380D01*
X85966371Y-100869380D01*
X87252085Y-100202714D02*
X87252085Y-100869380D01*
X87013990Y-99821761D02*
X86775895Y-100536047D01*
X87394942Y-100536047D01*
X86137761Y-95173419D02*
X86042523Y-95125800D01*
X85947285Y-95030561D01*
X85804428Y-94887704D01*
X85709190Y-94840085D01*
X85613952Y-94840085D01*
X85661571Y-95078180D02*
X85566333Y-95030561D01*
X85471095Y-94935323D01*
X85423476Y-94744847D01*
X85423476Y-94411514D01*
X85471095Y-94221038D01*
X85566333Y-94125800D01*
X85661571Y-94078180D01*
X85852047Y-94078180D01*
X85947285Y-94125800D01*
X86042523Y-94221038D01*
X86090142Y-94411514D01*
X86090142Y-94744847D01*
X86042523Y-94935323D01*
X85947285Y-95030561D01*
X85852047Y-95078180D01*
X85661571Y-95078180D01*
X86994904Y-94078180D02*
X86518714Y-94078180D01*
X86471095Y-94554371D01*
X86518714Y-94506752D01*
X86613952Y-94459133D01*
X86852047Y-94459133D01*
X86947285Y-94506752D01*
X86994904Y-94554371D01*
X87042523Y-94649609D01*
X87042523Y-94887704D01*
X86994904Y-94982942D01*
X86947285Y-95030561D01*
X86852047Y-95078180D01*
X86613952Y-95078180D01*
X86518714Y-95030561D01*
X86471095Y-94982942D01*
X107452619Y-76295238D02*
X107405000Y-76390476D01*
X107309761Y-76485714D01*
X107166904Y-76628571D01*
X107119285Y-76723809D01*
X107119285Y-76819047D01*
X107357380Y-76771428D02*
X107309761Y-76866666D01*
X107214523Y-76961904D01*
X107024047Y-77009523D01*
X106690714Y-77009523D01*
X106500238Y-76961904D01*
X106405000Y-76866666D01*
X106357380Y-76771428D01*
X106357380Y-76580952D01*
X106405000Y-76485714D01*
X106500238Y-76390476D01*
X106690714Y-76342857D01*
X107024047Y-76342857D01*
X107214523Y-76390476D01*
X107309761Y-76485714D01*
X107357380Y-76580952D01*
X107357380Y-76771428D01*
X106357380Y-75485714D02*
X106357380Y-75676190D01*
X106405000Y-75771428D01*
X106452619Y-75819047D01*
X106595476Y-75914285D01*
X106785952Y-75961904D01*
X107166904Y-75961904D01*
X107262142Y-75914285D01*
X107309761Y-75866666D01*
X107357380Y-75771428D01*
X107357380Y-75580952D01*
X107309761Y-75485714D01*
X107262142Y-75438095D01*
X107166904Y-75390476D01*
X106928809Y-75390476D01*
X106833571Y-75438095D01*
X106785952Y-75485714D01*
X106738333Y-75580952D01*
X106738333Y-75771428D01*
X106785952Y-75866666D01*
X106833571Y-75914285D01*
X106928809Y-75961904D01*
X79704761Y-47247619D02*
X79609523Y-47200000D01*
X79514285Y-47104761D01*
X79371428Y-46961904D01*
X79276190Y-46914285D01*
X79180952Y-46914285D01*
X79228571Y-47152380D02*
X79133333Y-47104761D01*
X79038095Y-47009523D01*
X78990476Y-46819047D01*
X78990476Y-46485714D01*
X79038095Y-46295238D01*
X79133333Y-46200000D01*
X79228571Y-46152380D01*
X79419047Y-46152380D01*
X79514285Y-46200000D01*
X79609523Y-46295238D01*
X79657142Y-46485714D01*
X79657142Y-46819047D01*
X79609523Y-47009523D01*
X79514285Y-47104761D01*
X79419047Y-47152380D01*
X79228571Y-47152380D01*
X79990476Y-46152380D02*
X80657142Y-46152380D01*
X80228571Y-47152380D01*
X84704761Y-47147619D02*
X84609523Y-47100000D01*
X84514285Y-47004761D01*
X84371428Y-46861904D01*
X84276190Y-46814285D01*
X84180952Y-46814285D01*
X84228571Y-47052380D02*
X84133333Y-47004761D01*
X84038095Y-46909523D01*
X83990476Y-46719047D01*
X83990476Y-46385714D01*
X84038095Y-46195238D01*
X84133333Y-46100000D01*
X84228571Y-46052380D01*
X84419047Y-46052380D01*
X84514285Y-46100000D01*
X84609523Y-46195238D01*
X84657142Y-46385714D01*
X84657142Y-46719047D01*
X84609523Y-46909523D01*
X84514285Y-47004761D01*
X84419047Y-47052380D01*
X84228571Y-47052380D01*
X85228571Y-46480952D02*
X85133333Y-46433333D01*
X85085714Y-46385714D01*
X85038095Y-46290476D01*
X85038095Y-46242857D01*
X85085714Y-46147619D01*
X85133333Y-46100000D01*
X85228571Y-46052380D01*
X85419047Y-46052380D01*
X85514285Y-46100000D01*
X85561904Y-46147619D01*
X85609523Y-46242857D01*
X85609523Y-46290476D01*
X85561904Y-46385714D01*
X85514285Y-46433333D01*
X85419047Y-46480952D01*
X85228571Y-46480952D01*
X85133333Y-46528571D01*
X85085714Y-46576190D01*
X85038095Y-46671428D01*
X85038095Y-46861904D01*
X85085714Y-46957142D01*
X85133333Y-47004761D01*
X85228571Y-47052380D01*
X85419047Y-47052380D01*
X85514285Y-47004761D01*
X85561904Y-46957142D01*
X85609523Y-46861904D01*
X85609523Y-46671428D01*
X85561904Y-46576190D01*
X85514285Y-46528571D01*
X85419047Y-46480952D01*
X68004761Y-105847619D02*
X67909523Y-105800000D01*
X67814285Y-105704761D01*
X67671428Y-105561904D01*
X67576190Y-105514285D01*
X67480952Y-105514285D01*
X67528571Y-105752380D02*
X67433333Y-105704761D01*
X67338095Y-105609523D01*
X67290476Y-105419047D01*
X67290476Y-105085714D01*
X67338095Y-104895238D01*
X67433333Y-104800000D01*
X67528571Y-104752380D01*
X67719047Y-104752380D01*
X67814285Y-104800000D01*
X67909523Y-104895238D01*
X67957142Y-105085714D01*
X67957142Y-105419047D01*
X67909523Y-105609523D01*
X67814285Y-105704761D01*
X67719047Y-105752380D01*
X67528571Y-105752380D01*
X68433333Y-105752380D02*
X68623809Y-105752380D01*
X68719047Y-105704761D01*
X68766666Y-105657142D01*
X68861904Y-105514285D01*
X68909523Y-105323809D01*
X68909523Y-104942857D01*
X68861904Y-104847619D01*
X68814285Y-104800000D01*
X68719047Y-104752380D01*
X68528571Y-104752380D01*
X68433333Y-104800000D01*
X68385714Y-104847619D01*
X68338095Y-104942857D01*
X68338095Y-105180952D01*
X68385714Y-105276190D01*
X68433333Y-105323809D01*
X68528571Y-105371428D01*
X68719047Y-105371428D01*
X68814285Y-105323809D01*
X68861904Y-105276190D01*
X68909523Y-105180952D01*
X64528571Y-105847619D02*
X64433333Y-105800000D01*
X64338095Y-105704761D01*
X64195238Y-105561904D01*
X64100000Y-105514285D01*
X64004761Y-105514285D01*
X64052380Y-105752380D02*
X63957142Y-105704761D01*
X63861904Y-105609523D01*
X63814285Y-105419047D01*
X63814285Y-105085714D01*
X63861904Y-104895238D01*
X63957142Y-104800000D01*
X64052380Y-104752380D01*
X64242857Y-104752380D01*
X64338095Y-104800000D01*
X64433333Y-104895238D01*
X64480952Y-105085714D01*
X64480952Y-105419047D01*
X64433333Y-105609523D01*
X64338095Y-105704761D01*
X64242857Y-105752380D01*
X64052380Y-105752380D01*
X65433333Y-105752380D02*
X64861904Y-105752380D01*
X65147619Y-105752380D02*
X65147619Y-104752380D01*
X65052380Y-104895238D01*
X64957142Y-104990476D01*
X64861904Y-105038095D01*
X66052380Y-104752380D02*
X66147619Y-104752380D01*
X66242857Y-104800000D01*
X66290476Y-104847619D01*
X66338095Y-104942857D01*
X66385714Y-105133333D01*
X66385714Y-105371428D01*
X66338095Y-105561904D01*
X66290476Y-105657142D01*
X66242857Y-105704761D01*
X66147619Y-105752380D01*
X66052380Y-105752380D01*
X65957142Y-105704761D01*
X65909523Y-105657142D01*
X65861904Y-105561904D01*
X65814285Y-105371428D01*
X65814285Y-105133333D01*
X65861904Y-104942857D01*
X65909523Y-104847619D01*
X65957142Y-104800000D01*
X66052380Y-104752380D01*
X50485771Y-110516619D02*
X50390533Y-110469000D01*
X50295295Y-110373761D01*
X50152438Y-110230904D01*
X50057200Y-110183285D01*
X49961961Y-110183285D01*
X50009580Y-110421380D02*
X49914342Y-110373761D01*
X49819104Y-110278523D01*
X49771485Y-110088047D01*
X49771485Y-109754714D01*
X49819104Y-109564238D01*
X49914342Y-109469000D01*
X50009580Y-109421380D01*
X50200057Y-109421380D01*
X50295295Y-109469000D01*
X50390533Y-109564238D01*
X50438152Y-109754714D01*
X50438152Y-110088047D01*
X50390533Y-110278523D01*
X50295295Y-110373761D01*
X50200057Y-110421380D01*
X50009580Y-110421380D01*
X51390533Y-110421380D02*
X50819104Y-110421380D01*
X51104819Y-110421380D02*
X51104819Y-109421380D01*
X51009580Y-109564238D01*
X50914342Y-109659476D01*
X50819104Y-109707095D01*
X52342914Y-110421380D02*
X51771485Y-110421380D01*
X52057200Y-110421380D02*
X52057200Y-109421380D01*
X51961961Y-109564238D01*
X51866723Y-109659476D01*
X51771485Y-109707095D01*
X69228571Y-83747619D02*
X69133333Y-83700000D01*
X69038095Y-83604761D01*
X68895238Y-83461904D01*
X68800000Y-83414285D01*
X68704761Y-83414285D01*
X68752380Y-83652380D02*
X68657142Y-83604761D01*
X68561904Y-83509523D01*
X68514285Y-83319047D01*
X68514285Y-82985714D01*
X68561904Y-82795238D01*
X68657142Y-82700000D01*
X68752380Y-82652380D01*
X68942857Y-82652380D01*
X69038095Y-82700000D01*
X69133333Y-82795238D01*
X69180952Y-82985714D01*
X69180952Y-83319047D01*
X69133333Y-83509523D01*
X69038095Y-83604761D01*
X68942857Y-83652380D01*
X68752380Y-83652380D01*
X70133333Y-83652380D02*
X69561904Y-83652380D01*
X69847619Y-83652380D02*
X69847619Y-82652380D01*
X69752380Y-82795238D01*
X69657142Y-82890476D01*
X69561904Y-82938095D01*
X70514285Y-82747619D02*
X70561904Y-82700000D01*
X70657142Y-82652380D01*
X70895238Y-82652380D01*
X70990476Y-82700000D01*
X71038095Y-82747619D01*
X71085714Y-82842857D01*
X71085714Y-82938095D01*
X71038095Y-83080952D01*
X70466666Y-83652380D01*
X71085714Y-83652380D01*
X68828571Y-90947619D02*
X68733333Y-90900000D01*
X68638095Y-90804761D01*
X68495238Y-90661904D01*
X68400000Y-90614285D01*
X68304761Y-90614285D01*
X68352380Y-90852380D02*
X68257142Y-90804761D01*
X68161904Y-90709523D01*
X68114285Y-90519047D01*
X68114285Y-90185714D01*
X68161904Y-89995238D01*
X68257142Y-89900000D01*
X68352380Y-89852380D01*
X68542857Y-89852380D01*
X68638095Y-89900000D01*
X68733333Y-89995238D01*
X68780952Y-90185714D01*
X68780952Y-90519047D01*
X68733333Y-90709523D01*
X68638095Y-90804761D01*
X68542857Y-90852380D01*
X68352380Y-90852380D01*
X69733333Y-90852380D02*
X69161904Y-90852380D01*
X69447619Y-90852380D02*
X69447619Y-89852380D01*
X69352380Y-89995238D01*
X69257142Y-90090476D01*
X69161904Y-90138095D01*
X70066666Y-89852380D02*
X70685714Y-89852380D01*
X70352380Y-90233333D01*
X70495238Y-90233333D01*
X70590476Y-90280952D01*
X70638095Y-90328571D01*
X70685714Y-90423809D01*
X70685714Y-90661904D01*
X70638095Y-90757142D01*
X70590476Y-90804761D01*
X70495238Y-90852380D01*
X70209523Y-90852380D01*
X70114285Y-90804761D01*
X70066666Y-90757142D01*
X69128571Y-98847619D02*
X69033333Y-98800000D01*
X68938095Y-98704761D01*
X68795238Y-98561904D01*
X68700000Y-98514285D01*
X68604761Y-98514285D01*
X68652380Y-98752380D02*
X68557142Y-98704761D01*
X68461904Y-98609523D01*
X68414285Y-98419047D01*
X68414285Y-98085714D01*
X68461904Y-97895238D01*
X68557142Y-97800000D01*
X68652380Y-97752380D01*
X68842857Y-97752380D01*
X68938095Y-97800000D01*
X69033333Y-97895238D01*
X69080952Y-98085714D01*
X69080952Y-98419047D01*
X69033333Y-98609523D01*
X68938095Y-98704761D01*
X68842857Y-98752380D01*
X68652380Y-98752380D01*
X70033333Y-98752380D02*
X69461904Y-98752380D01*
X69747619Y-98752380D02*
X69747619Y-97752380D01*
X69652380Y-97895238D01*
X69557142Y-97990476D01*
X69461904Y-98038095D01*
X70890476Y-98085714D02*
X70890476Y-98752380D01*
X70652380Y-97704761D02*
X70414285Y-98419047D01*
X71033333Y-98419047D01*
X65928571Y-83847619D02*
X65833333Y-83800000D01*
X65738095Y-83704761D01*
X65595238Y-83561904D01*
X65500000Y-83514285D01*
X65404761Y-83514285D01*
X65452380Y-83752380D02*
X65357142Y-83704761D01*
X65261904Y-83609523D01*
X65214285Y-83419047D01*
X65214285Y-83085714D01*
X65261904Y-82895238D01*
X65357142Y-82800000D01*
X65452380Y-82752380D01*
X65642857Y-82752380D01*
X65738095Y-82800000D01*
X65833333Y-82895238D01*
X65880952Y-83085714D01*
X65880952Y-83419047D01*
X65833333Y-83609523D01*
X65738095Y-83704761D01*
X65642857Y-83752380D01*
X65452380Y-83752380D01*
X66833333Y-83752380D02*
X66261904Y-83752380D01*
X66547619Y-83752380D02*
X66547619Y-82752380D01*
X66452380Y-82895238D01*
X66357142Y-82990476D01*
X66261904Y-83038095D01*
X67738095Y-82752380D02*
X67261904Y-82752380D01*
X67214285Y-83228571D01*
X67261904Y-83180952D01*
X67357142Y-83133333D01*
X67595238Y-83133333D01*
X67690476Y-83180952D01*
X67738095Y-83228571D01*
X67785714Y-83323809D01*
X67785714Y-83561904D01*
X67738095Y-83657142D01*
X67690476Y-83704761D01*
X67595238Y-83752380D01*
X67357142Y-83752380D01*
X67261904Y-83704761D01*
X67214285Y-83657142D01*
X65328571Y-90847619D02*
X65233333Y-90800000D01*
X65138095Y-90704761D01*
X64995238Y-90561904D01*
X64900000Y-90514285D01*
X64804761Y-90514285D01*
X64852380Y-90752380D02*
X64757142Y-90704761D01*
X64661904Y-90609523D01*
X64614285Y-90419047D01*
X64614285Y-90085714D01*
X64661904Y-89895238D01*
X64757142Y-89800000D01*
X64852380Y-89752380D01*
X65042857Y-89752380D01*
X65138095Y-89800000D01*
X65233333Y-89895238D01*
X65280952Y-90085714D01*
X65280952Y-90419047D01*
X65233333Y-90609523D01*
X65138095Y-90704761D01*
X65042857Y-90752380D01*
X64852380Y-90752380D01*
X66233333Y-90752380D02*
X65661904Y-90752380D01*
X65947619Y-90752380D02*
X65947619Y-89752380D01*
X65852380Y-89895238D01*
X65757142Y-89990476D01*
X65661904Y-90038095D01*
X67090476Y-89752380D02*
X66900000Y-89752380D01*
X66804761Y-89800000D01*
X66757142Y-89847619D01*
X66661904Y-89990476D01*
X66614285Y-90180952D01*
X66614285Y-90561904D01*
X66661904Y-90657142D01*
X66709523Y-90704761D01*
X66804761Y-90752380D01*
X66995238Y-90752380D01*
X67090476Y-90704761D01*
X67138095Y-90657142D01*
X67185714Y-90561904D01*
X67185714Y-90323809D01*
X67138095Y-90228571D01*
X67090476Y-90180952D01*
X66995238Y-90133333D01*
X66804761Y-90133333D01*
X66709523Y-90180952D01*
X66661904Y-90228571D01*
X66614285Y-90323809D01*
X65328571Y-98847619D02*
X65233333Y-98800000D01*
X65138095Y-98704761D01*
X64995238Y-98561904D01*
X64900000Y-98514285D01*
X64804761Y-98514285D01*
X64852380Y-98752380D02*
X64757142Y-98704761D01*
X64661904Y-98609523D01*
X64614285Y-98419047D01*
X64614285Y-98085714D01*
X64661904Y-97895238D01*
X64757142Y-97800000D01*
X64852380Y-97752380D01*
X65042857Y-97752380D01*
X65138095Y-97800000D01*
X65233333Y-97895238D01*
X65280952Y-98085714D01*
X65280952Y-98419047D01*
X65233333Y-98609523D01*
X65138095Y-98704761D01*
X65042857Y-98752380D01*
X64852380Y-98752380D01*
X66233333Y-98752380D02*
X65661904Y-98752380D01*
X65947619Y-98752380D02*
X65947619Y-97752380D01*
X65852380Y-97895238D01*
X65757142Y-97990476D01*
X65661904Y-98038095D01*
X66566666Y-97752380D02*
X67233333Y-97752380D01*
X66804761Y-98752380D01*
X50574571Y-88044619D02*
X50479333Y-87997000D01*
X50384095Y-87901761D01*
X50241238Y-87758904D01*
X50146000Y-87711285D01*
X50050761Y-87711285D01*
X50098380Y-87949380D02*
X50003142Y-87901761D01*
X49907904Y-87806523D01*
X49860285Y-87616047D01*
X49860285Y-87282714D01*
X49907904Y-87092238D01*
X50003142Y-86997000D01*
X50098380Y-86949380D01*
X50288857Y-86949380D01*
X50384095Y-86997000D01*
X50479333Y-87092238D01*
X50526952Y-87282714D01*
X50526952Y-87616047D01*
X50479333Y-87806523D01*
X50384095Y-87901761D01*
X50288857Y-87949380D01*
X50098380Y-87949380D01*
X51479333Y-87949380D02*
X50907904Y-87949380D01*
X51193619Y-87949380D02*
X51193619Y-86949380D01*
X51098380Y-87092238D01*
X51003142Y-87187476D01*
X50907904Y-87235095D01*
X52050761Y-87377952D02*
X51955523Y-87330333D01*
X51907904Y-87282714D01*
X51860285Y-87187476D01*
X51860285Y-87139857D01*
X51907904Y-87044619D01*
X51955523Y-86997000D01*
X52050761Y-86949380D01*
X52241238Y-86949380D01*
X52336476Y-86997000D01*
X52384095Y-87044619D01*
X52431714Y-87139857D01*
X52431714Y-87187476D01*
X52384095Y-87282714D01*
X52336476Y-87330333D01*
X52241238Y-87377952D01*
X52050761Y-87377952D01*
X51955523Y-87425571D01*
X51907904Y-87473190D01*
X51860285Y-87568428D01*
X51860285Y-87758904D01*
X51907904Y-87854142D01*
X51955523Y-87901761D01*
X52050761Y-87949380D01*
X52241238Y-87949380D01*
X52336476Y-87901761D01*
X52384095Y-87854142D01*
X52431714Y-87758904D01*
X52431714Y-87568428D01*
X52384095Y-87473190D01*
X52336476Y-87425571D01*
X52241238Y-87377952D01*
X50532571Y-95175219D02*
X50437333Y-95127600D01*
X50342095Y-95032361D01*
X50199238Y-94889504D01*
X50104000Y-94841885D01*
X50008761Y-94841885D01*
X50056380Y-95079980D02*
X49961142Y-95032361D01*
X49865904Y-94937123D01*
X49818285Y-94746647D01*
X49818285Y-94413314D01*
X49865904Y-94222838D01*
X49961142Y-94127600D01*
X50056380Y-94079980D01*
X50246857Y-94079980D01*
X50342095Y-94127600D01*
X50437333Y-94222838D01*
X50484952Y-94413314D01*
X50484952Y-94746647D01*
X50437333Y-94937123D01*
X50342095Y-95032361D01*
X50246857Y-95079980D01*
X50056380Y-95079980D01*
X51437333Y-95079980D02*
X50865904Y-95079980D01*
X51151619Y-95079980D02*
X51151619Y-94079980D01*
X51056380Y-94222838D01*
X50961142Y-94318076D01*
X50865904Y-94365695D01*
X51913523Y-95079980D02*
X52104000Y-95079980D01*
X52199238Y-95032361D01*
X52246857Y-94984742D01*
X52342095Y-94841885D01*
X52389714Y-94651409D01*
X52389714Y-94270457D01*
X52342095Y-94175219D01*
X52294476Y-94127600D01*
X52199238Y-94079980D01*
X52008761Y-94079980D01*
X51913523Y-94127600D01*
X51865904Y-94175219D01*
X51818285Y-94270457D01*
X51818285Y-94508552D01*
X51865904Y-94603790D01*
X51913523Y-94651409D01*
X52008761Y-94699028D01*
X52199238Y-94699028D01*
X52294476Y-94651409D01*
X52342095Y-94603790D01*
X52389714Y-94508552D01*
X50484171Y-103129819D02*
X50388933Y-103082200D01*
X50293695Y-102986961D01*
X50150838Y-102844104D01*
X50055600Y-102796485D01*
X49960361Y-102796485D01*
X50007980Y-103034580D02*
X49912742Y-102986961D01*
X49817504Y-102891723D01*
X49769885Y-102701247D01*
X49769885Y-102367914D01*
X49817504Y-102177438D01*
X49912742Y-102082200D01*
X50007980Y-102034580D01*
X50198457Y-102034580D01*
X50293695Y-102082200D01*
X50388933Y-102177438D01*
X50436552Y-102367914D01*
X50436552Y-102701247D01*
X50388933Y-102891723D01*
X50293695Y-102986961D01*
X50198457Y-103034580D01*
X50007980Y-103034580D01*
X50817504Y-102129819D02*
X50865123Y-102082200D01*
X50960361Y-102034580D01*
X51198457Y-102034580D01*
X51293695Y-102082200D01*
X51341314Y-102129819D01*
X51388933Y-102225057D01*
X51388933Y-102320295D01*
X51341314Y-102463152D01*
X50769885Y-103034580D01*
X51388933Y-103034580D01*
X52007980Y-102034580D02*
X52103219Y-102034580D01*
X52198457Y-102082200D01*
X52246076Y-102129819D01*
X52293695Y-102225057D01*
X52341314Y-102415533D01*
X52341314Y-102653628D01*
X52293695Y-102844104D01*
X52246076Y-102939342D01*
X52198457Y-102986961D01*
X52103219Y-103034580D01*
X52007980Y-103034580D01*
X51912742Y-102986961D01*
X51865123Y-102939342D01*
X51817504Y-102844104D01*
X51769885Y-102653628D01*
X51769885Y-102415533D01*
X51817504Y-102225057D01*
X51865123Y-102129819D01*
X51912742Y-102082200D01*
X52007980Y-102034580D01*
X83976133Y-53316480D02*
X83642800Y-52840290D01*
X83404704Y-53316480D02*
X83404704Y-52316480D01*
X83785657Y-52316480D01*
X83880895Y-52364100D01*
X83928514Y-52411719D01*
X83976133Y-52506957D01*
X83976133Y-52649814D01*
X83928514Y-52745052D01*
X83880895Y-52792671D01*
X83785657Y-52840290D01*
X83404704Y-52840290D01*
X84928514Y-53316480D02*
X84357085Y-53316480D01*
X84642800Y-53316480D02*
X84642800Y-52316480D01*
X84547561Y-52459338D01*
X84452323Y-52554576D01*
X84357085Y-52602195D01*
X96033333Y-78252380D02*
X95700000Y-77776190D01*
X95461904Y-78252380D02*
X95461904Y-77252380D01*
X95842857Y-77252380D01*
X95938095Y-77300000D01*
X95985714Y-77347619D01*
X96033333Y-77442857D01*
X96033333Y-77585714D01*
X95985714Y-77680952D01*
X95938095Y-77728571D01*
X95842857Y-77776190D01*
X95461904Y-77776190D01*
X96509523Y-78252380D02*
X96700000Y-78252380D01*
X96795238Y-78204761D01*
X96842857Y-78157142D01*
X96938095Y-78014285D01*
X96985714Y-77823809D01*
X96985714Y-77442857D01*
X96938095Y-77347619D01*
X96890476Y-77300000D01*
X96795238Y-77252380D01*
X96604761Y-77252380D01*
X96509523Y-77300000D01*
X96461904Y-77347619D01*
X96414285Y-77442857D01*
X96414285Y-77680952D01*
X96461904Y-77776190D01*
X96509523Y-77823809D01*
X96604761Y-77871428D01*
X96795238Y-77871428D01*
X96890476Y-77823809D01*
X96938095Y-77776190D01*
X96985714Y-77680952D01*
X96757142Y-68622380D02*
X96423809Y-68146190D01*
X96185714Y-68622380D02*
X96185714Y-67622380D01*
X96566666Y-67622380D01*
X96661904Y-67670000D01*
X96709523Y-67717619D01*
X96757142Y-67812857D01*
X96757142Y-67955714D01*
X96709523Y-68050952D01*
X96661904Y-68098571D01*
X96566666Y-68146190D01*
X96185714Y-68146190D01*
X97709523Y-68622380D02*
X97138095Y-68622380D01*
X97423809Y-68622380D02*
X97423809Y-67622380D01*
X97328571Y-67765238D01*
X97233333Y-67860476D01*
X97138095Y-67908095D01*
X98328571Y-67622380D02*
X98423809Y-67622380D01*
X98519047Y-67670000D01*
X98566666Y-67717619D01*
X98614285Y-67812857D01*
X98661904Y-68003333D01*
X98661904Y-68241428D01*
X98614285Y-68431904D01*
X98566666Y-68527142D01*
X98519047Y-68574761D01*
X98423809Y-68622380D01*
X98328571Y-68622380D01*
X98233333Y-68574761D01*
X98185714Y-68527142D01*
X98138095Y-68431904D01*
X98090476Y-68241428D01*
X98090476Y-68003333D01*
X98138095Y-67812857D01*
X98185714Y-67717619D01*
X98233333Y-67670000D01*
X98328571Y-67622380D01*
X100152380Y-68942857D02*
X99676190Y-69276190D01*
X100152380Y-69514285D02*
X99152380Y-69514285D01*
X99152380Y-69133333D01*
X99200000Y-69038095D01*
X99247619Y-68990476D01*
X99342857Y-68942857D01*
X99485714Y-68942857D01*
X99580952Y-68990476D01*
X99628571Y-69038095D01*
X99676190Y-69133333D01*
X99676190Y-69514285D01*
X100152380Y-67990476D02*
X100152380Y-68561904D01*
X100152380Y-68276190D02*
X99152380Y-68276190D01*
X99295238Y-68371428D01*
X99390476Y-68466666D01*
X99438095Y-68561904D01*
X100152380Y-67038095D02*
X100152380Y-67609523D01*
X100152380Y-67323809D02*
X99152380Y-67323809D01*
X99295238Y-67419047D01*
X99390476Y-67514285D01*
X99438095Y-67609523D01*
X94252380Y-48842857D02*
X93776190Y-49176190D01*
X94252380Y-49414285D02*
X93252380Y-49414285D01*
X93252380Y-49033333D01*
X93300000Y-48938095D01*
X93347619Y-48890476D01*
X93442857Y-48842857D01*
X93585714Y-48842857D01*
X93680952Y-48890476D01*
X93728571Y-48938095D01*
X93776190Y-49033333D01*
X93776190Y-49414285D01*
X94252380Y-47890476D02*
X94252380Y-48461904D01*
X94252380Y-48176190D02*
X93252380Y-48176190D01*
X93395238Y-48271428D01*
X93490476Y-48366666D01*
X93538095Y-48461904D01*
X93252380Y-46985714D02*
X93252380Y-47461904D01*
X93728571Y-47509523D01*
X93680952Y-47461904D01*
X93633333Y-47366666D01*
X93633333Y-47128571D01*
X93680952Y-47033333D01*
X93728571Y-46985714D01*
X93823809Y-46938095D01*
X94061904Y-46938095D01*
X94157142Y-46985714D01*
X94204761Y-47033333D01*
X94252380Y-47128571D01*
X94252380Y-47366666D01*
X94204761Y-47461904D01*
X94157142Y-47509523D01*
X66257142Y-45652380D02*
X65923809Y-45176190D01*
X65685714Y-45652380D02*
X65685714Y-44652380D01*
X66066666Y-44652380D01*
X66161904Y-44700000D01*
X66209523Y-44747619D01*
X66257142Y-44842857D01*
X66257142Y-44985714D01*
X66209523Y-45080952D01*
X66161904Y-45128571D01*
X66066666Y-45176190D01*
X65685714Y-45176190D01*
X67209523Y-45652380D02*
X66638095Y-45652380D01*
X66923809Y-45652380D02*
X66923809Y-44652380D01*
X66828571Y-44795238D01*
X66733333Y-44890476D01*
X66638095Y-44938095D01*
X68066666Y-44652380D02*
X67876190Y-44652380D01*
X67780952Y-44700000D01*
X67733333Y-44747619D01*
X67638095Y-44890476D01*
X67590476Y-45080952D01*
X67590476Y-45461904D01*
X67638095Y-45557142D01*
X67685714Y-45604761D01*
X67780952Y-45652380D01*
X67971428Y-45652380D01*
X68066666Y-45604761D01*
X68114285Y-45557142D01*
X68161904Y-45461904D01*
X68161904Y-45223809D01*
X68114285Y-45128571D01*
X68066666Y-45080952D01*
X67971428Y-45033333D01*
X67780952Y-45033333D01*
X67685714Y-45080952D01*
X67638095Y-45128571D01*
X67590476Y-45223809D01*
X70852380Y-49342857D02*
X70376190Y-49676190D01*
X70852380Y-49914285D02*
X69852380Y-49914285D01*
X69852380Y-49533333D01*
X69900000Y-49438095D01*
X69947619Y-49390476D01*
X70042857Y-49342857D01*
X70185714Y-49342857D01*
X70280952Y-49390476D01*
X70328571Y-49438095D01*
X70376190Y-49533333D01*
X70376190Y-49914285D01*
X70852380Y-48390476D02*
X70852380Y-48961904D01*
X70852380Y-48676190D02*
X69852380Y-48676190D01*
X69995238Y-48771428D01*
X70090476Y-48866666D01*
X70138095Y-48961904D01*
X69852380Y-48057142D02*
X69852380Y-47390476D01*
X70852380Y-47819047D01*
X70652380Y-55442857D02*
X70176190Y-55776190D01*
X70652380Y-56014285D02*
X69652380Y-56014285D01*
X69652380Y-55633333D01*
X69700000Y-55538095D01*
X69747619Y-55490476D01*
X69842857Y-55442857D01*
X69985714Y-55442857D01*
X70080952Y-55490476D01*
X70128571Y-55538095D01*
X70176190Y-55633333D01*
X70176190Y-56014285D01*
X70652380Y-54490476D02*
X70652380Y-55061904D01*
X70652380Y-54776190D02*
X69652380Y-54776190D01*
X69795238Y-54871428D01*
X69890476Y-54966666D01*
X69938095Y-55061904D01*
X70080952Y-53919047D02*
X70033333Y-54014285D01*
X69985714Y-54061904D01*
X69890476Y-54109523D01*
X69842857Y-54109523D01*
X69747619Y-54061904D01*
X69700000Y-54014285D01*
X69652380Y-53919047D01*
X69652380Y-53728571D01*
X69700000Y-53633333D01*
X69747619Y-53585714D01*
X69842857Y-53538095D01*
X69890476Y-53538095D01*
X69985714Y-53585714D01*
X70033333Y-53633333D01*
X70080952Y-53728571D01*
X70080952Y-53919047D01*
X70128571Y-54014285D01*
X70176190Y-54061904D01*
X70271428Y-54109523D01*
X70461904Y-54109523D01*
X70557142Y-54061904D01*
X70604761Y-54014285D01*
X70652380Y-53919047D01*
X70652380Y-53728571D01*
X70604761Y-53633333D01*
X70557142Y-53585714D01*
X70461904Y-53538095D01*
X70271428Y-53538095D01*
X70176190Y-53585714D01*
X70128571Y-53633333D01*
X70080952Y-53728571D01*
X50157142Y-56952380D02*
X49823809Y-56476190D01*
X49585714Y-56952380D02*
X49585714Y-55952380D01*
X49966666Y-55952380D01*
X50061904Y-56000000D01*
X50109523Y-56047619D01*
X50157142Y-56142857D01*
X50157142Y-56285714D01*
X50109523Y-56380952D01*
X50061904Y-56428571D01*
X49966666Y-56476190D01*
X49585714Y-56476190D01*
X51109523Y-56952380D02*
X50538095Y-56952380D01*
X50823809Y-56952380D02*
X50823809Y-55952380D01*
X50728571Y-56095238D01*
X50633333Y-56190476D01*
X50538095Y-56238095D01*
X51585714Y-56952380D02*
X51776190Y-56952380D01*
X51871428Y-56904761D01*
X51919047Y-56857142D01*
X52014285Y-56714285D01*
X52061904Y-56523809D01*
X52061904Y-56142857D01*
X52014285Y-56047619D01*
X51966666Y-56000000D01*
X51871428Y-55952380D01*
X51680952Y-55952380D01*
X51585714Y-56000000D01*
X51538095Y-56047619D01*
X51490476Y-56142857D01*
X51490476Y-56380952D01*
X51538095Y-56476190D01*
X51585714Y-56523809D01*
X51680952Y-56571428D01*
X51871428Y-56571428D01*
X51966666Y-56523809D01*
X52014285Y-56476190D01*
X52061904Y-56380952D01*
X66752380Y-58542857D02*
X66276190Y-58876190D01*
X66752380Y-59114285D02*
X65752380Y-59114285D01*
X65752380Y-58733333D01*
X65800000Y-58638095D01*
X65847619Y-58590476D01*
X65942857Y-58542857D01*
X66085714Y-58542857D01*
X66180952Y-58590476D01*
X66228571Y-58638095D01*
X66276190Y-58733333D01*
X66276190Y-59114285D01*
X65847619Y-58161904D02*
X65800000Y-58114285D01*
X65752380Y-58019047D01*
X65752380Y-57780952D01*
X65800000Y-57685714D01*
X65847619Y-57638095D01*
X65942857Y-57590476D01*
X66038095Y-57590476D01*
X66180952Y-57638095D01*
X66752380Y-58209523D01*
X66752380Y-57590476D01*
X65752380Y-56971428D02*
X65752380Y-56876190D01*
X65800000Y-56780952D01*
X65847619Y-56733333D01*
X65942857Y-56685714D01*
X66133333Y-56638095D01*
X66371428Y-56638095D01*
X66561904Y-56685714D01*
X66657142Y-56733333D01*
X66704761Y-56780952D01*
X66752380Y-56876190D01*
X66752380Y-56971428D01*
X66704761Y-57066666D01*
X66657142Y-57114285D01*
X66561904Y-57161904D01*
X66371428Y-57209523D01*
X66133333Y-57209523D01*
X65942857Y-57161904D01*
X65847619Y-57114285D01*
X65800000Y-57066666D01*
X65752380Y-56971428D01*
X92052380Y-97242857D02*
X91576190Y-97576190D01*
X92052380Y-97814285D02*
X91052380Y-97814285D01*
X91052380Y-97433333D01*
X91100000Y-97338095D01*
X91147619Y-97290476D01*
X91242857Y-97242857D01*
X91385714Y-97242857D01*
X91480952Y-97290476D01*
X91528571Y-97338095D01*
X91576190Y-97433333D01*
X91576190Y-97814285D01*
X91147619Y-96861904D02*
X91100000Y-96814285D01*
X91052380Y-96719047D01*
X91052380Y-96480952D01*
X91100000Y-96385714D01*
X91147619Y-96338095D01*
X91242857Y-96290476D01*
X91338095Y-96290476D01*
X91480952Y-96338095D01*
X92052380Y-96909523D01*
X92052380Y-96290476D01*
X92052380Y-95338095D02*
X92052380Y-95909523D01*
X92052380Y-95623809D02*
X91052380Y-95623809D01*
X91195238Y-95719047D01*
X91290476Y-95814285D01*
X91338095Y-95909523D01*
X93752380Y-92942857D02*
X93276190Y-93276190D01*
X93752380Y-93514285D02*
X92752380Y-93514285D01*
X92752380Y-93133333D01*
X92800000Y-93038095D01*
X92847619Y-92990476D01*
X92942857Y-92942857D01*
X93085714Y-92942857D01*
X93180952Y-92990476D01*
X93228571Y-93038095D01*
X93276190Y-93133333D01*
X93276190Y-93514285D01*
X92847619Y-92561904D02*
X92800000Y-92514285D01*
X92752380Y-92419047D01*
X92752380Y-92180952D01*
X92800000Y-92085714D01*
X92847619Y-92038095D01*
X92942857Y-91990476D01*
X93038095Y-91990476D01*
X93180952Y-92038095D01*
X93752380Y-92609523D01*
X93752380Y-91990476D01*
X92847619Y-91609523D02*
X92800000Y-91561904D01*
X92752380Y-91466666D01*
X92752380Y-91228571D01*
X92800000Y-91133333D01*
X92847619Y-91085714D01*
X92942857Y-91038095D01*
X93038095Y-91038095D01*
X93180952Y-91085714D01*
X93752380Y-91657142D01*
X93752380Y-91038095D01*
X81852380Y-98442857D02*
X81376190Y-98776190D01*
X81852380Y-99014285D02*
X80852380Y-99014285D01*
X80852380Y-98633333D01*
X80900000Y-98538095D01*
X80947619Y-98490476D01*
X81042857Y-98442857D01*
X81185714Y-98442857D01*
X81280952Y-98490476D01*
X81328571Y-98538095D01*
X81376190Y-98633333D01*
X81376190Y-99014285D01*
X80947619Y-98061904D02*
X80900000Y-98014285D01*
X80852380Y-97919047D01*
X80852380Y-97680952D01*
X80900000Y-97585714D01*
X80947619Y-97538095D01*
X81042857Y-97490476D01*
X81138095Y-97490476D01*
X81280952Y-97538095D01*
X81852380Y-98109523D01*
X81852380Y-97490476D01*
X80852380Y-97157142D02*
X80852380Y-96538095D01*
X81233333Y-96871428D01*
X81233333Y-96728571D01*
X81280952Y-96633333D01*
X81328571Y-96585714D01*
X81423809Y-96538095D01*
X81661904Y-96538095D01*
X81757142Y-96585714D01*
X81804761Y-96633333D01*
X81852380Y-96728571D01*
X81852380Y-97014285D01*
X81804761Y-97109523D01*
X81757142Y-97157142D01*
X82340380Y-93530657D02*
X81864190Y-93863990D01*
X82340380Y-94102085D02*
X81340380Y-94102085D01*
X81340380Y-93721133D01*
X81388000Y-93625895D01*
X81435619Y-93578276D01*
X81530857Y-93530657D01*
X81673714Y-93530657D01*
X81768952Y-93578276D01*
X81816571Y-93625895D01*
X81864190Y-93721133D01*
X81864190Y-94102085D01*
X81435619Y-93149704D02*
X81388000Y-93102085D01*
X81340380Y-93006847D01*
X81340380Y-92768752D01*
X81388000Y-92673514D01*
X81435619Y-92625895D01*
X81530857Y-92578276D01*
X81626095Y-92578276D01*
X81768952Y-92625895D01*
X82340380Y-93197323D01*
X82340380Y-92578276D01*
X81673714Y-91721133D02*
X82340380Y-91721133D01*
X81292761Y-91959228D02*
X82007047Y-92197323D01*
X82007047Y-91578276D01*
X109497142Y-87552380D02*
X109163809Y-87076190D01*
X108925714Y-87552380D02*
X108925714Y-86552380D01*
X109306666Y-86552380D01*
X109401904Y-86600000D01*
X109449523Y-86647619D01*
X109497142Y-86742857D01*
X109497142Y-86885714D01*
X109449523Y-86980952D01*
X109401904Y-87028571D01*
X109306666Y-87076190D01*
X108925714Y-87076190D01*
X109878095Y-86647619D02*
X109925714Y-86600000D01*
X110020952Y-86552380D01*
X110259047Y-86552380D01*
X110354285Y-86600000D01*
X110401904Y-86647619D01*
X110449523Y-86742857D01*
X110449523Y-86838095D01*
X110401904Y-86980952D01*
X109830476Y-87552380D01*
X110449523Y-87552380D01*
X111354285Y-86552380D02*
X110878095Y-86552380D01*
X110830476Y-87028571D01*
X110878095Y-86980952D01*
X110973333Y-86933333D01*
X111211428Y-86933333D01*
X111306666Y-86980952D01*
X111354285Y-87028571D01*
X111401904Y-87123809D01*
X111401904Y-87361904D01*
X111354285Y-87457142D01*
X111306666Y-87504761D01*
X111211428Y-87552380D01*
X110973333Y-87552380D01*
X110878095Y-87504761D01*
X110830476Y-87457142D01*
X101552380Y-68942857D02*
X101076190Y-69276190D01*
X101552380Y-69514285D02*
X100552380Y-69514285D01*
X100552380Y-69133333D01*
X100600000Y-69038095D01*
X100647619Y-68990476D01*
X100742857Y-68942857D01*
X100885714Y-68942857D01*
X100980952Y-68990476D01*
X101028571Y-69038095D01*
X101076190Y-69133333D01*
X101076190Y-69514285D01*
X100647619Y-68561904D02*
X100600000Y-68514285D01*
X100552380Y-68419047D01*
X100552380Y-68180952D01*
X100600000Y-68085714D01*
X100647619Y-68038095D01*
X100742857Y-67990476D01*
X100838095Y-67990476D01*
X100980952Y-68038095D01*
X101552380Y-68609523D01*
X101552380Y-67990476D01*
X100552380Y-67133333D02*
X100552380Y-67323809D01*
X100600000Y-67419047D01*
X100647619Y-67466666D01*
X100790476Y-67561904D01*
X100980952Y-67609523D01*
X101361904Y-67609523D01*
X101457142Y-67561904D01*
X101504761Y-67514285D01*
X101552380Y-67419047D01*
X101552380Y-67228571D01*
X101504761Y-67133333D01*
X101457142Y-67085714D01*
X101361904Y-67038095D01*
X101123809Y-67038095D01*
X101028571Y-67085714D01*
X100980952Y-67133333D01*
X100933333Y-67228571D01*
X100933333Y-67419047D01*
X100980952Y-67514285D01*
X101028571Y-67561904D01*
X101123809Y-67609523D01*
X104252380Y-71342857D02*
X103776190Y-71676190D01*
X104252380Y-71914285D02*
X103252380Y-71914285D01*
X103252380Y-71533333D01*
X103300000Y-71438095D01*
X103347619Y-71390476D01*
X103442857Y-71342857D01*
X103585714Y-71342857D01*
X103680952Y-71390476D01*
X103728571Y-71438095D01*
X103776190Y-71533333D01*
X103776190Y-71914285D01*
X103347619Y-70961904D02*
X103300000Y-70914285D01*
X103252380Y-70819047D01*
X103252380Y-70580952D01*
X103300000Y-70485714D01*
X103347619Y-70438095D01*
X103442857Y-70390476D01*
X103538095Y-70390476D01*
X103680952Y-70438095D01*
X104252380Y-71009523D01*
X104252380Y-70390476D01*
X103252380Y-70057142D02*
X103252380Y-69390476D01*
X104252380Y-69819047D01*
X73552380Y-48042857D02*
X73076190Y-48376190D01*
X73552380Y-48614285D02*
X72552380Y-48614285D01*
X72552380Y-48233333D01*
X72600000Y-48138095D01*
X72647619Y-48090476D01*
X72742857Y-48042857D01*
X72885714Y-48042857D01*
X72980952Y-48090476D01*
X73028571Y-48138095D01*
X73076190Y-48233333D01*
X73076190Y-48614285D01*
X72647619Y-47661904D02*
X72600000Y-47614285D01*
X72552380Y-47519047D01*
X72552380Y-47280952D01*
X72600000Y-47185714D01*
X72647619Y-47138095D01*
X72742857Y-47090476D01*
X72838095Y-47090476D01*
X72980952Y-47138095D01*
X73552380Y-47709523D01*
X73552380Y-47090476D01*
X72980952Y-46519047D02*
X72933333Y-46614285D01*
X72885714Y-46661904D01*
X72790476Y-46709523D01*
X72742857Y-46709523D01*
X72647619Y-46661904D01*
X72600000Y-46614285D01*
X72552380Y-46519047D01*
X72552380Y-46328571D01*
X72600000Y-46233333D01*
X72647619Y-46185714D01*
X72742857Y-46138095D01*
X72790476Y-46138095D01*
X72885714Y-46185714D01*
X72933333Y-46233333D01*
X72980952Y-46328571D01*
X72980952Y-46519047D01*
X73028571Y-46614285D01*
X73076190Y-46661904D01*
X73171428Y-46709523D01*
X73361904Y-46709523D01*
X73457142Y-46661904D01*
X73504761Y-46614285D01*
X73552380Y-46519047D01*
X73552380Y-46328571D01*
X73504761Y-46233333D01*
X73457142Y-46185714D01*
X73361904Y-46138095D01*
X73171428Y-46138095D01*
X73076190Y-46185714D01*
X73028571Y-46233333D01*
X72980952Y-46328571D01*
X73552380Y-45142857D02*
X73076190Y-45476190D01*
X73552380Y-45714285D02*
X72552380Y-45714285D01*
X72552380Y-45333333D01*
X72600000Y-45238095D01*
X72647619Y-45190476D01*
X72742857Y-45142857D01*
X72885714Y-45142857D01*
X72980952Y-45190476D01*
X73028571Y-45238095D01*
X73076190Y-45333333D01*
X73076190Y-45714285D01*
X72647619Y-44761904D02*
X72600000Y-44714285D01*
X72552380Y-44619047D01*
X72552380Y-44380952D01*
X72600000Y-44285714D01*
X72647619Y-44238095D01*
X72742857Y-44190476D01*
X72838095Y-44190476D01*
X72980952Y-44238095D01*
X73552380Y-44809523D01*
X73552380Y-44190476D01*
X73552380Y-43714285D02*
X73552380Y-43523809D01*
X73504761Y-43428571D01*
X73457142Y-43380952D01*
X73314285Y-43285714D01*
X73123809Y-43238095D01*
X72742857Y-43238095D01*
X72647619Y-43285714D01*
X72600000Y-43333333D01*
X72552380Y-43428571D01*
X72552380Y-43619047D01*
X72600000Y-43714285D01*
X72647619Y-43761904D01*
X72742857Y-43809523D01*
X72980952Y-43809523D01*
X73076190Y-43761904D01*
X73123809Y-43714285D01*
X73171428Y-43619047D01*
X73171428Y-43428571D01*
X73123809Y-43333333D01*
X73076190Y-43285714D01*
X72980952Y-43238095D01*
X62057142Y-111652380D02*
X61723809Y-111176190D01*
X61485714Y-111652380D02*
X61485714Y-110652380D01*
X61866666Y-110652380D01*
X61961904Y-110700000D01*
X62009523Y-110747619D01*
X62057142Y-110842857D01*
X62057142Y-110985714D01*
X62009523Y-111080952D01*
X61961904Y-111128571D01*
X61866666Y-111176190D01*
X61485714Y-111176190D01*
X62390476Y-110652380D02*
X63009523Y-110652380D01*
X62676190Y-111033333D01*
X62819047Y-111033333D01*
X62914285Y-111080952D01*
X62961904Y-111128571D01*
X63009523Y-111223809D01*
X63009523Y-111461904D01*
X62961904Y-111557142D01*
X62914285Y-111604761D01*
X62819047Y-111652380D01*
X62533333Y-111652380D01*
X62438095Y-111604761D01*
X62390476Y-111557142D01*
X63628571Y-110652380D02*
X63723809Y-110652380D01*
X63819047Y-110700000D01*
X63866666Y-110747619D01*
X63914285Y-110842857D01*
X63961904Y-111033333D01*
X63961904Y-111271428D01*
X63914285Y-111461904D01*
X63866666Y-111557142D01*
X63819047Y-111604761D01*
X63723809Y-111652380D01*
X63628571Y-111652380D01*
X63533333Y-111604761D01*
X63485714Y-111557142D01*
X63438095Y-111461904D01*
X63390476Y-111271428D01*
X63390476Y-111033333D01*
X63438095Y-110842857D01*
X63485714Y-110747619D01*
X63533333Y-110700000D01*
X63628571Y-110652380D01*
X58757142Y-111652380D02*
X58423809Y-111176190D01*
X58185714Y-111652380D02*
X58185714Y-110652380D01*
X58566666Y-110652380D01*
X58661904Y-110700000D01*
X58709523Y-110747619D01*
X58757142Y-110842857D01*
X58757142Y-110985714D01*
X58709523Y-111080952D01*
X58661904Y-111128571D01*
X58566666Y-111176190D01*
X58185714Y-111176190D01*
X59090476Y-110652380D02*
X59709523Y-110652380D01*
X59376190Y-111033333D01*
X59519047Y-111033333D01*
X59614285Y-111080952D01*
X59661904Y-111128571D01*
X59709523Y-111223809D01*
X59709523Y-111461904D01*
X59661904Y-111557142D01*
X59614285Y-111604761D01*
X59519047Y-111652380D01*
X59233333Y-111652380D01*
X59138095Y-111604761D01*
X59090476Y-111557142D01*
X60661904Y-111652380D02*
X60090476Y-111652380D01*
X60376190Y-111652380D02*
X60376190Y-110652380D01*
X60280952Y-110795238D01*
X60185714Y-110890476D01*
X60090476Y-110938095D01*
X55157142Y-111752380D02*
X54823809Y-111276190D01*
X54585714Y-111752380D02*
X54585714Y-110752380D01*
X54966666Y-110752380D01*
X55061904Y-110800000D01*
X55109523Y-110847619D01*
X55157142Y-110942857D01*
X55157142Y-111085714D01*
X55109523Y-111180952D01*
X55061904Y-111228571D01*
X54966666Y-111276190D01*
X54585714Y-111276190D01*
X55490476Y-110752380D02*
X56109523Y-110752380D01*
X55776190Y-111133333D01*
X55919047Y-111133333D01*
X56014285Y-111180952D01*
X56061904Y-111228571D01*
X56109523Y-111323809D01*
X56109523Y-111561904D01*
X56061904Y-111657142D01*
X56014285Y-111704761D01*
X55919047Y-111752380D01*
X55633333Y-111752380D01*
X55538095Y-111704761D01*
X55490476Y-111657142D01*
X56490476Y-110847619D02*
X56538095Y-110800000D01*
X56633333Y-110752380D01*
X56871428Y-110752380D01*
X56966666Y-110800000D01*
X57014285Y-110847619D01*
X57061904Y-110942857D01*
X57061904Y-111038095D01*
X57014285Y-111180952D01*
X56442857Y-111752380D01*
X57061904Y-111752380D01*
X61157142Y-87752380D02*
X60823809Y-87276190D01*
X60585714Y-87752380D02*
X60585714Y-86752380D01*
X60966666Y-86752380D01*
X61061904Y-86800000D01*
X61109523Y-86847619D01*
X61157142Y-86942857D01*
X61157142Y-87085714D01*
X61109523Y-87180952D01*
X61061904Y-87228571D01*
X60966666Y-87276190D01*
X60585714Y-87276190D01*
X61490476Y-86752380D02*
X62109523Y-86752380D01*
X61776190Y-87133333D01*
X61919047Y-87133333D01*
X62014285Y-87180952D01*
X62061904Y-87228571D01*
X62109523Y-87323809D01*
X62109523Y-87561904D01*
X62061904Y-87657142D01*
X62014285Y-87704761D01*
X61919047Y-87752380D01*
X61633333Y-87752380D01*
X61538095Y-87704761D01*
X61490476Y-87657142D01*
X62442857Y-86752380D02*
X63061904Y-86752380D01*
X62728571Y-87133333D01*
X62871428Y-87133333D01*
X62966666Y-87180952D01*
X63014285Y-87228571D01*
X63061904Y-87323809D01*
X63061904Y-87561904D01*
X63014285Y-87657142D01*
X62966666Y-87704761D01*
X62871428Y-87752380D01*
X62585714Y-87752380D01*
X62490476Y-87704761D01*
X62442857Y-87657142D01*
X61157142Y-95152380D02*
X60823809Y-94676190D01*
X60585714Y-95152380D02*
X60585714Y-94152380D01*
X60966666Y-94152380D01*
X61061904Y-94200000D01*
X61109523Y-94247619D01*
X61157142Y-94342857D01*
X61157142Y-94485714D01*
X61109523Y-94580952D01*
X61061904Y-94628571D01*
X60966666Y-94676190D01*
X60585714Y-94676190D01*
X61490476Y-94152380D02*
X62109523Y-94152380D01*
X61776190Y-94533333D01*
X61919047Y-94533333D01*
X62014285Y-94580952D01*
X62061904Y-94628571D01*
X62109523Y-94723809D01*
X62109523Y-94961904D01*
X62061904Y-95057142D01*
X62014285Y-95104761D01*
X61919047Y-95152380D01*
X61633333Y-95152380D01*
X61538095Y-95104761D01*
X61490476Y-95057142D01*
X62966666Y-94485714D02*
X62966666Y-95152380D01*
X62728571Y-94104761D02*
X62490476Y-94819047D01*
X63109523Y-94819047D01*
X61457142Y-102852380D02*
X61123809Y-102376190D01*
X60885714Y-102852380D02*
X60885714Y-101852380D01*
X61266666Y-101852380D01*
X61361904Y-101900000D01*
X61409523Y-101947619D01*
X61457142Y-102042857D01*
X61457142Y-102185714D01*
X61409523Y-102280952D01*
X61361904Y-102328571D01*
X61266666Y-102376190D01*
X60885714Y-102376190D01*
X61790476Y-101852380D02*
X62409523Y-101852380D01*
X62076190Y-102233333D01*
X62219047Y-102233333D01*
X62314285Y-102280952D01*
X62361904Y-102328571D01*
X62409523Y-102423809D01*
X62409523Y-102661904D01*
X62361904Y-102757142D01*
X62314285Y-102804761D01*
X62219047Y-102852380D01*
X61933333Y-102852380D01*
X61838095Y-102804761D01*
X61790476Y-102757142D01*
X63314285Y-101852380D02*
X62838095Y-101852380D01*
X62790476Y-102328571D01*
X62838095Y-102280952D01*
X62933333Y-102233333D01*
X63171428Y-102233333D01*
X63266666Y-102280952D01*
X63314285Y-102328571D01*
X63361904Y-102423809D01*
X63361904Y-102661904D01*
X63314285Y-102757142D01*
X63266666Y-102804761D01*
X63171428Y-102852380D01*
X62933333Y-102852380D01*
X62838095Y-102804761D01*
X62790476Y-102757142D01*
X58103142Y-87669380D02*
X57769809Y-87193190D01*
X57531714Y-87669380D02*
X57531714Y-86669380D01*
X57912666Y-86669380D01*
X58007904Y-86717000D01*
X58055523Y-86764619D01*
X58103142Y-86859857D01*
X58103142Y-87002714D01*
X58055523Y-87097952D01*
X58007904Y-87145571D01*
X57912666Y-87193190D01*
X57531714Y-87193190D01*
X58436476Y-86669380D02*
X59055523Y-86669380D01*
X58722190Y-87050333D01*
X58865047Y-87050333D01*
X58960285Y-87097952D01*
X59007904Y-87145571D01*
X59055523Y-87240809D01*
X59055523Y-87478904D01*
X59007904Y-87574142D01*
X58960285Y-87621761D01*
X58865047Y-87669380D01*
X58579333Y-87669380D01*
X58484095Y-87621761D01*
X58436476Y-87574142D01*
X59912666Y-86669380D02*
X59722190Y-86669380D01*
X59626952Y-86717000D01*
X59579333Y-86764619D01*
X59484095Y-86907476D01*
X59436476Y-87097952D01*
X59436476Y-87478904D01*
X59484095Y-87574142D01*
X59531714Y-87621761D01*
X59626952Y-87669380D01*
X59817428Y-87669380D01*
X59912666Y-87621761D01*
X59960285Y-87574142D01*
X60007904Y-87478904D01*
X60007904Y-87240809D01*
X59960285Y-87145571D01*
X59912666Y-87097952D01*
X59817428Y-87050333D01*
X59626952Y-87050333D01*
X59531714Y-87097952D01*
X59484095Y-87145571D01*
X59436476Y-87240809D01*
X58011142Y-94749980D02*
X57677809Y-94273790D01*
X57439714Y-94749980D02*
X57439714Y-93749980D01*
X57820666Y-93749980D01*
X57915904Y-93797600D01*
X57963523Y-93845219D01*
X58011142Y-93940457D01*
X58011142Y-94083314D01*
X57963523Y-94178552D01*
X57915904Y-94226171D01*
X57820666Y-94273790D01*
X57439714Y-94273790D01*
X58344476Y-93749980D02*
X58963523Y-93749980D01*
X58630190Y-94130933D01*
X58773047Y-94130933D01*
X58868285Y-94178552D01*
X58915904Y-94226171D01*
X58963523Y-94321409D01*
X58963523Y-94559504D01*
X58915904Y-94654742D01*
X58868285Y-94702361D01*
X58773047Y-94749980D01*
X58487333Y-94749980D01*
X58392095Y-94702361D01*
X58344476Y-94654742D01*
X59296857Y-93749980D02*
X59963523Y-93749980D01*
X59534952Y-94749980D01*
X58012742Y-102604580D02*
X57679409Y-102128390D01*
X57441314Y-102604580D02*
X57441314Y-101604580D01*
X57822266Y-101604580D01*
X57917504Y-101652200D01*
X57965123Y-101699819D01*
X58012742Y-101795057D01*
X58012742Y-101937914D01*
X57965123Y-102033152D01*
X57917504Y-102080771D01*
X57822266Y-102128390D01*
X57441314Y-102128390D01*
X58346076Y-101604580D02*
X58965123Y-101604580D01*
X58631790Y-101985533D01*
X58774647Y-101985533D01*
X58869885Y-102033152D01*
X58917504Y-102080771D01*
X58965123Y-102176009D01*
X58965123Y-102414104D01*
X58917504Y-102509342D01*
X58869885Y-102556961D01*
X58774647Y-102604580D01*
X58488933Y-102604580D01*
X58393695Y-102556961D01*
X58346076Y-102509342D01*
X59536552Y-102033152D02*
X59441314Y-101985533D01*
X59393695Y-101937914D01*
X59346076Y-101842676D01*
X59346076Y-101795057D01*
X59393695Y-101699819D01*
X59441314Y-101652200D01*
X59536552Y-101604580D01*
X59727028Y-101604580D01*
X59822266Y-101652200D01*
X59869885Y-101699819D01*
X59917504Y-101795057D01*
X59917504Y-101842676D01*
X59869885Y-101937914D01*
X59822266Y-101985533D01*
X59727028Y-102033152D01*
X59536552Y-102033152D01*
X59441314Y-102080771D01*
X59393695Y-102128390D01*
X59346076Y-102223628D01*
X59346076Y-102414104D01*
X59393695Y-102509342D01*
X59441314Y-102556961D01*
X59536552Y-102604580D01*
X59727028Y-102604580D01*
X59822266Y-102556961D01*
X59869885Y-102509342D01*
X59917504Y-102414104D01*
X59917504Y-102223628D01*
X59869885Y-102128390D01*
X59822266Y-102080771D01*
X59727028Y-102033152D01*
X55057142Y-87952380D02*
X54723809Y-87476190D01*
X54485714Y-87952380D02*
X54485714Y-86952380D01*
X54866666Y-86952380D01*
X54961904Y-87000000D01*
X55009523Y-87047619D01*
X55057142Y-87142857D01*
X55057142Y-87285714D01*
X55009523Y-87380952D01*
X54961904Y-87428571D01*
X54866666Y-87476190D01*
X54485714Y-87476190D01*
X55390476Y-86952380D02*
X56009523Y-86952380D01*
X55676190Y-87333333D01*
X55819047Y-87333333D01*
X55914285Y-87380952D01*
X55961904Y-87428571D01*
X56009523Y-87523809D01*
X56009523Y-87761904D01*
X55961904Y-87857142D01*
X55914285Y-87904761D01*
X55819047Y-87952380D01*
X55533333Y-87952380D01*
X55438095Y-87904761D01*
X55390476Y-87857142D01*
X56485714Y-87952380D02*
X56676190Y-87952380D01*
X56771428Y-87904761D01*
X56819047Y-87857142D01*
X56914285Y-87714285D01*
X56961904Y-87523809D01*
X56961904Y-87142857D01*
X56914285Y-87047619D01*
X56866666Y-87000000D01*
X56771428Y-86952380D01*
X56580952Y-86952380D01*
X56485714Y-87000000D01*
X56438095Y-87047619D01*
X56390476Y-87142857D01*
X56390476Y-87380952D01*
X56438095Y-87476190D01*
X56485714Y-87523809D01*
X56580952Y-87571428D01*
X56771428Y-87571428D01*
X56866666Y-87523809D01*
X56914285Y-87476190D01*
X56961904Y-87380952D01*
X55157142Y-94952380D02*
X54823809Y-94476190D01*
X54585714Y-94952380D02*
X54585714Y-93952380D01*
X54966666Y-93952380D01*
X55061904Y-94000000D01*
X55109523Y-94047619D01*
X55157142Y-94142857D01*
X55157142Y-94285714D01*
X55109523Y-94380952D01*
X55061904Y-94428571D01*
X54966666Y-94476190D01*
X54585714Y-94476190D01*
X56014285Y-94285714D02*
X56014285Y-94952380D01*
X55776190Y-93904761D02*
X55538095Y-94619047D01*
X56157142Y-94619047D01*
X56728571Y-93952380D02*
X56823809Y-93952380D01*
X56919047Y-94000000D01*
X56966666Y-94047619D01*
X57014285Y-94142857D01*
X57061904Y-94333333D01*
X57061904Y-94571428D01*
X57014285Y-94761904D01*
X56966666Y-94857142D01*
X56919047Y-94904761D01*
X56823809Y-94952380D01*
X56728571Y-94952380D01*
X56633333Y-94904761D01*
X56585714Y-94857142D01*
X56538095Y-94761904D01*
X56490476Y-94571428D01*
X56490476Y-94333333D01*
X56538095Y-94142857D01*
X56585714Y-94047619D01*
X56633333Y-94000000D01*
X56728571Y-93952380D01*
X55257142Y-102852380D02*
X54923809Y-102376190D01*
X54685714Y-102852380D02*
X54685714Y-101852380D01*
X55066666Y-101852380D01*
X55161904Y-101900000D01*
X55209523Y-101947619D01*
X55257142Y-102042857D01*
X55257142Y-102185714D01*
X55209523Y-102280952D01*
X55161904Y-102328571D01*
X55066666Y-102376190D01*
X54685714Y-102376190D01*
X56114285Y-102185714D02*
X56114285Y-102852380D01*
X55876190Y-101804761D02*
X55638095Y-102519047D01*
X56257142Y-102519047D01*
X57161904Y-102852380D02*
X56590476Y-102852380D01*
X56876190Y-102852380D02*
X56876190Y-101852380D01*
X56780952Y-101995238D01*
X56685714Y-102090476D01*
X56590476Y-102138095D01*
X43870761Y-65139333D02*
X43918380Y-64996476D01*
X43918380Y-64758380D01*
X43870761Y-64663142D01*
X43823142Y-64615523D01*
X43727904Y-64567904D01*
X43632666Y-64567904D01*
X43537428Y-64615523D01*
X43489809Y-64663142D01*
X43442190Y-64758380D01*
X43394571Y-64948857D01*
X43346952Y-65044095D01*
X43299333Y-65091714D01*
X43204095Y-65139333D01*
X43108857Y-65139333D01*
X43013619Y-65091714D01*
X42966000Y-65044095D01*
X42918380Y-64948857D01*
X42918380Y-64710761D01*
X42966000Y-64567904D01*
X42918380Y-64234571D02*
X43918380Y-63996476D01*
X43204095Y-63806000D01*
X43918380Y-63615523D01*
X42918380Y-63377428D01*
X43918380Y-62472666D02*
X43918380Y-63044095D01*
X43918380Y-62758380D02*
X42918380Y-62758380D01*
X43061238Y-62853619D01*
X43156476Y-62948857D01*
X43204095Y-63044095D01*
X55554761Y-65139333D02*
X55602380Y-64996476D01*
X55602380Y-64758380D01*
X55554761Y-64663142D01*
X55507142Y-64615523D01*
X55411904Y-64567904D01*
X55316666Y-64567904D01*
X55221428Y-64615523D01*
X55173809Y-64663142D01*
X55126190Y-64758380D01*
X55078571Y-64948857D01*
X55030952Y-65044095D01*
X54983333Y-65091714D01*
X54888095Y-65139333D01*
X54792857Y-65139333D01*
X54697619Y-65091714D01*
X54650000Y-65044095D01*
X54602380Y-64948857D01*
X54602380Y-64710761D01*
X54650000Y-64567904D01*
X54602380Y-64234571D02*
X55602380Y-63996476D01*
X54888095Y-63806000D01*
X55602380Y-63615523D01*
X54602380Y-63377428D01*
X54697619Y-63044095D02*
X54650000Y-62996476D01*
X54602380Y-62901238D01*
X54602380Y-62663142D01*
X54650000Y-62567904D01*
X54697619Y-62520285D01*
X54792857Y-62472666D01*
X54888095Y-62472666D01*
X55030952Y-62520285D01*
X55602380Y-63091714D01*
X55602380Y-62472666D01*
X100452380Y-50561904D02*
X101261904Y-50561904D01*
X101357142Y-50514285D01*
X101404761Y-50466666D01*
X101452380Y-50371428D01*
X101452380Y-50180952D01*
X101404761Y-50085714D01*
X101357142Y-50038095D01*
X101261904Y-49990476D01*
X100452380Y-49990476D01*
X100452380Y-49038095D02*
X100452380Y-49514285D01*
X100928571Y-49561904D01*
X100880952Y-49514285D01*
X100833333Y-49419047D01*
X100833333Y-49180952D01*
X100880952Y-49085714D01*
X100928571Y-49038095D01*
X101023809Y-48990476D01*
X101261904Y-48990476D01*
X101357142Y-49038095D01*
X101404761Y-49085714D01*
X101452380Y-49180952D01*
X101452380Y-49419047D01*
X101404761Y-49514285D01*
X101357142Y-49561904D01*
X88138095Y-69552380D02*
X88138095Y-70361904D01*
X88185714Y-70457142D01*
X88233333Y-70504761D01*
X88328571Y-70552380D01*
X88519047Y-70552380D01*
X88614285Y-70504761D01*
X88661904Y-70457142D01*
X88709523Y-70361904D01*
X88709523Y-69552380D01*
X89614285Y-69552380D02*
X89423809Y-69552380D01*
X89328571Y-69600000D01*
X89280952Y-69647619D01*
X89185714Y-69790476D01*
X89138095Y-69980952D01*
X89138095Y-70361904D01*
X89185714Y-70457142D01*
X89233333Y-70504761D01*
X89328571Y-70552380D01*
X89519047Y-70552380D01*
X89614285Y-70504761D01*
X89661904Y-70457142D01*
X89709523Y-70361904D01*
X89709523Y-70123809D01*
X89661904Y-70028571D01*
X89614285Y-69980952D01*
X89519047Y-69933333D01*
X89328571Y-69933333D01*
X89233333Y-69980952D01*
X89185714Y-70028571D01*
X89138095Y-70123809D01*
X97389695Y-95939380D02*
X97389695Y-96748904D01*
X97437314Y-96844142D01*
X97484933Y-96891761D01*
X97580171Y-96939380D01*
X97770647Y-96939380D01*
X97865885Y-96891761D01*
X97913504Y-96844142D01*
X97961123Y-96748904D01*
X97961123Y-95939380D01*
X98342076Y-95939380D02*
X99008742Y-95939380D01*
X98580171Y-96939380D01*
X115338095Y-94752380D02*
X115338095Y-95561904D01*
X115385714Y-95657142D01*
X115433333Y-95704761D01*
X115528571Y-95752380D01*
X115719047Y-95752380D01*
X115814285Y-95704761D01*
X115861904Y-95657142D01*
X115909523Y-95561904D01*
X115909523Y-94752380D01*
X116528571Y-95180952D02*
X116433333Y-95133333D01*
X116385714Y-95085714D01*
X116338095Y-94990476D01*
X116338095Y-94942857D01*
X116385714Y-94847619D01*
X116433333Y-94800000D01*
X116528571Y-94752380D01*
X116719047Y-94752380D01*
X116814285Y-94800000D01*
X116861904Y-94847619D01*
X116909523Y-94942857D01*
X116909523Y-94990476D01*
X116861904Y-95085714D01*
X116814285Y-95133333D01*
X116719047Y-95180952D01*
X116528571Y-95180952D01*
X116433333Y-95228571D01*
X116385714Y-95276190D01*
X116338095Y-95371428D01*
X116338095Y-95561904D01*
X116385714Y-95657142D01*
X116433333Y-95704761D01*
X116528571Y-95752380D01*
X116719047Y-95752380D01*
X116814285Y-95704761D01*
X116861904Y-95657142D01*
X116909523Y-95561904D01*
X116909523Y-95371428D01*
X116861904Y-95276190D01*
X116814285Y-95228571D01*
X116719047Y-95180952D01*
X77978095Y-98152380D02*
X77978095Y-98961904D01*
X78025714Y-99057142D01*
X78073333Y-99104761D01*
X78168571Y-99152380D01*
X78359047Y-99152380D01*
X78454285Y-99104761D01*
X78501904Y-99057142D01*
X78549523Y-98961904D01*
X78549523Y-98152380D01*
X79073333Y-99152380D02*
X79263809Y-99152380D01*
X79359047Y-99104761D01*
X79406666Y-99057142D01*
X79501904Y-98914285D01*
X79549523Y-98723809D01*
X79549523Y-98342857D01*
X79501904Y-98247619D01*
X79454285Y-98200000D01*
X79359047Y-98152380D01*
X79168571Y-98152380D01*
X79073333Y-98200000D01*
X79025714Y-98247619D01*
X78978095Y-98342857D01*
X78978095Y-98580952D01*
X79025714Y-98676190D01*
X79073333Y-98723809D01*
X79168571Y-98771428D01*
X79359047Y-98771428D01*
X79454285Y-98723809D01*
X79501904Y-98676190D01*
X79549523Y-98580952D01*
X76466666Y-37152380D02*
X76466666Y-37866666D01*
X76419047Y-38009523D01*
X76323809Y-38104761D01*
X76180952Y-38152380D01*
X76085714Y-38152380D01*
X77371428Y-37485714D02*
X77371428Y-38152380D01*
X77133333Y-37104761D02*
X76895238Y-37819047D01*
X77514285Y-37819047D01*
X91257142Y-43857142D02*
X91209523Y-43904761D01*
X91066666Y-43952380D01*
X90971428Y-43952380D01*
X90828571Y-43904761D01*
X90733333Y-43809523D01*
X90685714Y-43714285D01*
X90638095Y-43523809D01*
X90638095Y-43380952D01*
X90685714Y-43190476D01*
X90733333Y-43095238D01*
X90828571Y-43000000D01*
X90971428Y-42952380D01*
X91066666Y-42952380D01*
X91209523Y-43000000D01*
X91257142Y-43047619D01*
X91638095Y-43047619D02*
X91685714Y-43000000D01*
X91780952Y-42952380D01*
X92019047Y-42952380D01*
X92114285Y-43000000D01*
X92161904Y-43047619D01*
X92209523Y-43142857D01*
X92209523Y-43238095D01*
X92161904Y-43380952D01*
X91590476Y-43952380D01*
X92209523Y-43952380D01*
X93161904Y-43952380D02*
X92590476Y-43952380D01*
X92876190Y-43952380D02*
X92876190Y-42952380D01*
X92780952Y-43095238D01*
X92685714Y-43190476D01*
X92590476Y-43238095D01*
X46657142Y-51557142D02*
X46609523Y-51604761D01*
X46466666Y-51652380D01*
X46371428Y-51652380D01*
X46228571Y-51604761D01*
X46133333Y-51509523D01*
X46085714Y-51414285D01*
X46038095Y-51223809D01*
X46038095Y-51080952D01*
X46085714Y-50890476D01*
X46133333Y-50795238D01*
X46228571Y-50700000D01*
X46371428Y-50652380D01*
X46466666Y-50652380D01*
X46609523Y-50700000D01*
X46657142Y-50747619D01*
X47038095Y-50747619D02*
X47085714Y-50700000D01*
X47180952Y-50652380D01*
X47419047Y-50652380D01*
X47514285Y-50700000D01*
X47561904Y-50747619D01*
X47609523Y-50842857D01*
X47609523Y-50938095D01*
X47561904Y-51080952D01*
X46990476Y-51652380D01*
X47609523Y-51652380D01*
X48466666Y-50985714D02*
X48466666Y-51652380D01*
X48228571Y-50604761D02*
X47990476Y-51319047D01*
X48609523Y-51319047D01*
X81857142Y-36952380D02*
X81523809Y-36476190D01*
X81285714Y-36952380D02*
X81285714Y-35952380D01*
X81666666Y-35952380D01*
X81761904Y-36000000D01*
X81809523Y-36047619D01*
X81857142Y-36142857D01*
X81857142Y-36285714D01*
X81809523Y-36380952D01*
X81761904Y-36428571D01*
X81666666Y-36476190D01*
X81285714Y-36476190D01*
X82809523Y-36952380D02*
X82238095Y-36952380D01*
X82523809Y-36952380D02*
X82523809Y-35952380D01*
X82428571Y-36095238D01*
X82333333Y-36190476D01*
X82238095Y-36238095D01*
X83190476Y-36047619D02*
X83238095Y-36000000D01*
X83333333Y-35952380D01*
X83571428Y-35952380D01*
X83666666Y-36000000D01*
X83714285Y-36047619D01*
X83761904Y-36142857D01*
X83761904Y-36238095D01*
X83714285Y-36380952D01*
X83142857Y-36952380D01*
X83761904Y-36952380D01*
X91057142Y-36852380D02*
X90723809Y-36376190D01*
X90485714Y-36852380D02*
X90485714Y-35852380D01*
X90866666Y-35852380D01*
X90961904Y-35900000D01*
X91009523Y-35947619D01*
X91057142Y-36042857D01*
X91057142Y-36185714D01*
X91009523Y-36280952D01*
X90961904Y-36328571D01*
X90866666Y-36376190D01*
X90485714Y-36376190D01*
X92009523Y-36852380D02*
X91438095Y-36852380D01*
X91723809Y-36852380D02*
X91723809Y-35852380D01*
X91628571Y-35995238D01*
X91533333Y-36090476D01*
X91438095Y-36138095D01*
X92342857Y-35852380D02*
X92961904Y-35852380D01*
X92628571Y-36233333D01*
X92771428Y-36233333D01*
X92866666Y-36280952D01*
X92914285Y-36328571D01*
X92961904Y-36423809D01*
X92961904Y-36661904D01*
X92914285Y-36757142D01*
X92866666Y-36804761D01*
X92771428Y-36852380D01*
X92485714Y-36852380D01*
X92390476Y-36804761D01*
X92342857Y-36757142D01*
X71352380Y-34142857D02*
X70876190Y-34476190D01*
X71352380Y-34714285D02*
X70352380Y-34714285D01*
X70352380Y-34333333D01*
X70400000Y-34238095D01*
X70447619Y-34190476D01*
X70542857Y-34142857D01*
X70685714Y-34142857D01*
X70780952Y-34190476D01*
X70828571Y-34238095D01*
X70876190Y-34333333D01*
X70876190Y-34714285D01*
X71352380Y-33190476D02*
X71352380Y-33761904D01*
X71352380Y-33476190D02*
X70352380Y-33476190D01*
X70495238Y-33571428D01*
X70590476Y-33666666D01*
X70638095Y-33761904D01*
X70685714Y-32333333D02*
X71352380Y-32333333D01*
X70304761Y-32571428D02*
X71019047Y-32809523D01*
X71019047Y-32190476D01*
X71452380Y-37642857D02*
X70976190Y-37976190D01*
X71452380Y-38214285D02*
X70452380Y-38214285D01*
X70452380Y-37833333D01*
X70500000Y-37738095D01*
X70547619Y-37690476D01*
X70642857Y-37642857D01*
X70785714Y-37642857D01*
X70880952Y-37690476D01*
X70928571Y-37738095D01*
X70976190Y-37833333D01*
X70976190Y-38214285D01*
X70785714Y-36785714D02*
X71452380Y-36785714D01*
X70404761Y-37023809D02*
X71119047Y-37261904D01*
X71119047Y-36642857D01*
X70547619Y-36309523D02*
X70500000Y-36261904D01*
X70452380Y-36166666D01*
X70452380Y-35928571D01*
X70500000Y-35833333D01*
X70547619Y-35785714D01*
X70642857Y-35738095D01*
X70738095Y-35738095D01*
X70880952Y-35785714D01*
X71452380Y-36357142D01*
X71452380Y-35738095D01*
M02*
