G04 #@! TF.GenerationSoftware,KiCad,Pcbnew,5.1.5+dfsg1-2build2*
G04 #@! TF.CreationDate,2020-12-06T20:51:44-05:00*
G04 #@! TF.ProjectId,eboard,65626f61-7264-42e6-9b69-6361645f7063,rev?*
G04 #@! TF.SameCoordinates,Original*
G04 #@! TF.FileFunction,Legend,Top*
G04 #@! TF.FilePolarity,Positive*
%FSLAX46Y46*%
G04 Gerber Fmt 4.6, Leading zero omitted, Abs format (unit mm)*
G04 Created by KiCad (PCBNEW 5.1.5+dfsg1-2build2) date 2020-12-06 20:51:44*
%MOMM*%
%LPD*%
G04 APERTURE LIST*
%ADD10C,0.120000*%
%ADD11C,0.150000*%
G04 APERTURE END LIST*
D10*
X78556800Y-54993300D02*
X76606800Y-54993300D01*
X78556800Y-54993300D02*
X80506800Y-54993300D01*
X78556800Y-60113300D02*
X76606800Y-60113300D01*
X78556800Y-60113300D02*
X82006800Y-60113300D01*
X77662100Y-43644920D02*
X77662100Y-45929920D01*
X77662100Y-45929920D02*
X79132100Y-45929920D01*
X79132100Y-45929920D02*
X79132100Y-43644920D01*
X83780300Y-46183920D02*
X83780300Y-43898920D01*
X82310300Y-46183920D02*
X83780300Y-46183920D01*
X82310300Y-43898920D02*
X82310300Y-46183920D01*
X104050000Y-47300000D02*
X107350000Y-47300000D01*
X107350000Y-47300000D02*
X107350000Y-41900000D01*
X104050000Y-47300000D02*
X104050000Y-41900000D01*
X110951778Y-35662800D02*
X110434622Y-35662800D01*
X110951778Y-37082800D02*
X110434622Y-37082800D01*
X102566400Y-38358578D02*
X102566400Y-37841422D01*
X103986400Y-38358578D02*
X103986400Y-37841422D01*
X113090000Y-34350000D02*
X113090000Y-31690000D01*
X110490000Y-34350000D02*
X113090000Y-34350000D01*
X110490000Y-31690000D02*
X113090000Y-31690000D01*
X110490000Y-34350000D02*
X110490000Y-31690000D01*
X109220000Y-34350000D02*
X107890000Y-34350000D01*
X107890000Y-34350000D02*
X107890000Y-33020000D01*
X103100000Y-34962500D02*
X102650000Y-34962500D01*
X103100000Y-33112500D02*
X103100000Y-34962500D01*
X95300000Y-30562500D02*
X95300000Y-30812500D01*
X103100000Y-30562500D02*
X103100000Y-30812500D01*
X95300000Y-33112500D02*
X95300000Y-34962500D01*
X95300000Y-34962500D02*
X95750000Y-34962500D01*
X100900000Y-35512500D02*
X100450000Y-35512500D01*
X100900000Y-35512500D02*
X100900000Y-35062500D01*
X90636400Y-40674600D02*
X90636400Y-38014600D01*
X85496400Y-40674600D02*
X90636400Y-40674600D01*
X85496400Y-38014600D02*
X90636400Y-38014600D01*
X85496400Y-40674600D02*
X85496400Y-38014600D01*
X84226400Y-40674600D02*
X82896400Y-40674600D01*
X82896400Y-40674600D02*
X82896400Y-39344600D01*
X85030000Y-34350000D02*
X85030000Y-33020000D01*
X86360000Y-34350000D02*
X85030000Y-34350000D01*
X87630000Y-34350000D02*
X87630000Y-31690000D01*
X87630000Y-31690000D02*
X90230000Y-31690000D01*
X87630000Y-34350000D02*
X90230000Y-34350000D01*
X90230000Y-34350000D02*
X90230000Y-31690000D01*
X90901600Y-54386400D02*
X90901600Y-58694400D01*
X86593600Y-58694400D02*
X86593600Y-54386400D01*
X98924800Y-52938621D02*
X98924800Y-53264179D01*
X97904800Y-52938621D02*
X97904800Y-53264179D01*
X97904800Y-56139021D02*
X97904800Y-56464579D01*
X98924800Y-56139021D02*
X98924800Y-56464579D01*
X60083000Y-45032000D02*
X60558000Y-45032000D01*
X60558000Y-45032000D02*
X60558000Y-45507000D01*
X53813000Y-52252000D02*
X53338000Y-52252000D01*
X53338000Y-52252000D02*
X53338000Y-51777000D01*
X60083000Y-52252000D02*
X60558000Y-52252000D01*
X60558000Y-52252000D02*
X60558000Y-51777000D01*
X53813000Y-45032000D02*
X53338000Y-45032000D01*
X98160000Y-40726000D02*
X99960000Y-40726000D01*
X99960000Y-37506000D02*
X97510000Y-37506000D01*
X93014000Y-58523800D02*
X93014000Y-58753800D01*
X93014000Y-58753800D02*
X93989000Y-58753800D01*
X96234000Y-58523800D02*
X96234000Y-58753800D01*
X95259000Y-58753800D02*
X96234000Y-58753800D01*
X95259000Y-55533800D02*
X96234000Y-55533800D01*
X96234000Y-55533800D02*
X96234000Y-55763800D01*
X92984000Y-55533800D02*
X93989000Y-55533800D01*
X44360000Y-46142000D02*
X43860000Y-46392000D01*
X44360000Y-46642000D02*
X44360000Y-46142000D01*
X43860000Y-46392000D02*
X44360000Y-46642000D01*
X39600000Y-44442000D02*
X39600000Y-45552000D01*
X39600000Y-47232000D02*
X39600000Y-48342000D01*
X43310000Y-44442000D02*
X43310000Y-45552000D01*
X43310000Y-47232000D02*
X43310000Y-48342000D01*
X62900000Y-46235000D02*
X65185000Y-46235000D01*
X65185000Y-46235000D02*
X65185000Y-44765000D01*
X65185000Y-44765000D02*
X62900000Y-44765000D01*
X113540000Y-93490000D02*
X113540000Y-90190000D01*
X113540000Y-90190000D02*
X108140000Y-90190000D01*
X113540000Y-93490000D02*
X108140000Y-93490000D01*
X103572000Y-52289400D02*
X104902000Y-52289400D01*
X103572000Y-53619400D02*
X103572000Y-52289400D01*
X103572000Y-54889400D02*
X106232000Y-54889400D01*
X106232000Y-54889400D02*
X106232000Y-60029400D01*
X103572000Y-54889400D02*
X103572000Y-60029400D01*
X103572000Y-60029400D02*
X106232000Y-60029400D01*
X100650000Y-113290000D02*
X99320000Y-113290000D01*
X100650000Y-111960000D02*
X100650000Y-113290000D01*
X100650000Y-110690000D02*
X97990000Y-110690000D01*
X97990000Y-110690000D02*
X97990000Y-103010000D01*
X100650000Y-110690000D02*
X100650000Y-103010000D01*
X100650000Y-103010000D02*
X97990000Y-103010000D01*
X95570000Y-103010000D02*
X92910000Y-103010000D01*
X95570000Y-110690000D02*
X95570000Y-103010000D01*
X92910000Y-110690000D02*
X92910000Y-103010000D01*
X95570000Y-110690000D02*
X92910000Y-110690000D01*
X95570000Y-111960000D02*
X95570000Y-113290000D01*
X95570000Y-113290000D02*
X94240000Y-113290000D01*
X114010000Y-113490000D02*
X112680000Y-113490000D01*
X114010000Y-112160000D02*
X114010000Y-113490000D01*
X114010000Y-110890000D02*
X111350000Y-110890000D01*
X111350000Y-110890000D02*
X111350000Y-98130000D01*
X114010000Y-110890000D02*
X114010000Y-98130000D01*
X114010000Y-98130000D02*
X111350000Y-98130000D01*
X108930000Y-98130000D02*
X106270000Y-98130000D01*
X108930000Y-110890000D02*
X108930000Y-98130000D01*
X106270000Y-110890000D02*
X106270000Y-98130000D01*
X108930000Y-110890000D02*
X106270000Y-110890000D01*
X108930000Y-112160000D02*
X108930000Y-113490000D01*
X108930000Y-113490000D02*
X107600000Y-113490000D01*
X45380600Y-42510400D02*
X46710600Y-42510400D01*
X45380600Y-43840400D02*
X45380600Y-42510400D01*
X45380600Y-45110400D02*
X48040600Y-45110400D01*
X48040600Y-45110400D02*
X48040600Y-47710400D01*
X45380600Y-45110400D02*
X45380600Y-47710400D01*
X45380600Y-47710400D02*
X48040600Y-47710400D01*
X45834000Y-86436000D02*
X44504000Y-86436000D01*
X45834000Y-85106000D02*
X45834000Y-86436000D01*
X45834000Y-83836000D02*
X43174000Y-83836000D01*
X43174000Y-83836000D02*
X43174000Y-81236000D01*
X45834000Y-83836000D02*
X45834000Y-81236000D01*
X45834000Y-81236000D02*
X43174000Y-81236000D01*
X45834000Y-88856000D02*
X43174000Y-88856000D01*
X45834000Y-91456000D02*
X45834000Y-88856000D01*
X43174000Y-91456000D02*
X43174000Y-88856000D01*
X45834000Y-91456000D02*
X43174000Y-91456000D01*
X45834000Y-92726000D02*
X45834000Y-94056000D01*
X45834000Y-94056000D02*
X44504000Y-94056000D01*
X45834000Y-101676000D02*
X44504000Y-101676000D01*
X45834000Y-100346000D02*
X45834000Y-101676000D01*
X45834000Y-99076000D02*
X43174000Y-99076000D01*
X43174000Y-99076000D02*
X43174000Y-96476000D01*
X45834000Y-99076000D02*
X45834000Y-96476000D01*
X45834000Y-96476000D02*
X43174000Y-96476000D01*
X45834000Y-104096000D02*
X43174000Y-104096000D01*
X45834000Y-106696000D02*
X45834000Y-104096000D01*
X43174000Y-106696000D02*
X43174000Y-104096000D01*
X45834000Y-106696000D02*
X43174000Y-106696000D01*
X45834000Y-107966000D02*
X45834000Y-109296000D01*
X45834000Y-109296000D02*
X44504000Y-109296000D01*
X87690000Y-105350000D02*
X85030000Y-105350000D01*
X87690000Y-110490000D02*
X87690000Y-105350000D01*
X85030000Y-110490000D02*
X85030000Y-105350000D01*
X87690000Y-110490000D02*
X85030000Y-110490000D01*
X87690000Y-111760000D02*
X87690000Y-113090000D01*
X87690000Y-113090000D02*
X86360000Y-113090000D01*
X77530000Y-105350000D02*
X74870000Y-105350000D01*
X77530000Y-110490000D02*
X77530000Y-105350000D01*
X74870000Y-110490000D02*
X74870000Y-105350000D01*
X77530000Y-110490000D02*
X74870000Y-110490000D01*
X77530000Y-111760000D02*
X77530000Y-113090000D01*
X77530000Y-113090000D02*
X76200000Y-113090000D01*
X82610000Y-113090000D02*
X81280000Y-113090000D01*
X82610000Y-111760000D02*
X82610000Y-113090000D01*
X82610000Y-110490000D02*
X79950000Y-110490000D01*
X79950000Y-110490000D02*
X79950000Y-105350000D01*
X82610000Y-110490000D02*
X82610000Y-105350000D01*
X82610000Y-105350000D02*
X79950000Y-105350000D01*
X72450000Y-105350000D02*
X69790000Y-105350000D01*
X72450000Y-110490000D02*
X72450000Y-105350000D01*
X69790000Y-110490000D02*
X69790000Y-105350000D01*
X72450000Y-110490000D02*
X69790000Y-110490000D01*
X72450000Y-111760000D02*
X72450000Y-113090000D01*
X72450000Y-113090000D02*
X71120000Y-113090000D01*
X46034000Y-73216000D02*
X43374000Y-73216000D01*
X46034000Y-75816000D02*
X46034000Y-73216000D01*
X43374000Y-75816000D02*
X43374000Y-73216000D01*
X46034000Y-75816000D02*
X43374000Y-75816000D01*
X46034000Y-77086000D02*
X46034000Y-78416000D01*
X46034000Y-78416000D02*
X44704000Y-78416000D01*
X51114000Y-78416000D02*
X49784000Y-78416000D01*
X51114000Y-77086000D02*
X51114000Y-78416000D01*
X51114000Y-75816000D02*
X48454000Y-75816000D01*
X48454000Y-75816000D02*
X48454000Y-70676000D01*
X51114000Y-75816000D02*
X51114000Y-70676000D01*
X51114000Y-70676000D02*
X48454000Y-70676000D01*
X90342800Y-71252000D02*
X90342800Y-75560000D01*
X86034800Y-75560000D02*
X86034800Y-71252000D01*
X112460000Y-44070000D02*
X114410000Y-44070000D01*
X112460000Y-44070000D02*
X110510000Y-44070000D01*
X112460000Y-38950000D02*
X114410000Y-38950000D01*
X112460000Y-38950000D02*
X109010000Y-38950000D01*
X65280000Y-47442000D02*
X66740000Y-47442000D01*
X65280000Y-50602000D02*
X67440000Y-50602000D01*
X65280000Y-50602000D02*
X65280000Y-49672000D01*
X65280000Y-47442000D02*
X65280000Y-48372000D01*
X65280000Y-51760000D02*
X66740000Y-51760000D01*
X65280000Y-54920000D02*
X67440000Y-54920000D01*
X65280000Y-54920000D02*
X65280000Y-53990000D01*
X65280000Y-51760000D02*
X65280000Y-52690000D01*
X85777800Y-96337000D02*
X87237800Y-96337000D01*
X85777800Y-99497000D02*
X87937800Y-99497000D01*
X85777800Y-99497000D02*
X85777800Y-98567000D01*
X85777800Y-96337000D02*
X85777800Y-97267000D01*
X85473000Y-90545800D02*
X85473000Y-91475800D01*
X85473000Y-93705800D02*
X85473000Y-92775800D01*
X85473000Y-93705800D02*
X87633000Y-93705800D01*
X85473000Y-90545800D02*
X86933000Y-90545800D01*
X106065000Y-76200000D02*
X106065000Y-72750000D01*
X106065000Y-76200000D02*
X106065000Y-78150000D01*
X100945000Y-76200000D02*
X100945000Y-74250000D01*
X100945000Y-76200000D02*
X100945000Y-78150000D01*
X78141100Y-50546120D02*
X76681100Y-50546120D01*
X78141100Y-47386120D02*
X75981100Y-47386120D01*
X78141100Y-47386120D02*
X78141100Y-48316120D01*
X78141100Y-50546120D02*
X78141100Y-49616120D01*
X82845701Y-50573321D02*
X82845701Y-49643321D01*
X82845701Y-47413321D02*
X82845701Y-48343321D01*
X82845701Y-47413321D02*
X80685701Y-47413321D01*
X82845701Y-50573321D02*
X81385701Y-50573321D01*
X60774200Y-103884400D02*
X62234200Y-103884400D01*
X60774200Y-107044400D02*
X62934200Y-107044400D01*
X60774200Y-107044400D02*
X60774200Y-106114400D01*
X60774200Y-103884400D02*
X60774200Y-104814400D01*
X56574200Y-103834400D02*
X56574200Y-104764400D01*
X56574200Y-106994400D02*
X56574200Y-106064400D01*
X56574200Y-106994400D02*
X58734200Y-106994400D01*
X56574200Y-103834400D02*
X58034200Y-103834400D01*
X51057200Y-109129000D02*
X54507200Y-109129000D01*
X51057200Y-109129000D02*
X49107200Y-109129000D01*
X51057200Y-104009000D02*
X53007200Y-104009000D01*
X51057200Y-104009000D02*
X49107200Y-104009000D01*
X60436000Y-81667000D02*
X60436000Y-82597000D01*
X60436000Y-84827000D02*
X60436000Y-83897000D01*
X60436000Y-84827000D02*
X62596000Y-84827000D01*
X60436000Y-81667000D02*
X61896000Y-81667000D01*
X60394000Y-88647600D02*
X60394000Y-89577600D01*
X60394000Y-91807600D02*
X60394000Y-90877600D01*
X60394000Y-91807600D02*
X62554000Y-91807600D01*
X60394000Y-88647600D02*
X61854000Y-88647600D01*
X60545600Y-96652200D02*
X60545600Y-97582200D01*
X60545600Y-99812200D02*
X60545600Y-98882200D01*
X60545600Y-99812200D02*
X62705600Y-99812200D01*
X60545600Y-96652200D02*
X62005600Y-96652200D01*
X56536000Y-81567000D02*
X57996000Y-81567000D01*
X56536000Y-84727000D02*
X58696000Y-84727000D01*
X56536000Y-84727000D02*
X56536000Y-83797000D01*
X56536000Y-81567000D02*
X56536000Y-82497000D01*
X56444000Y-88697600D02*
X57904000Y-88697600D01*
X56444000Y-91857600D02*
X58604000Y-91857600D01*
X56444000Y-91857600D02*
X56444000Y-90927600D01*
X56444000Y-88697600D02*
X56444000Y-89627600D01*
X56395600Y-96602200D02*
X56395600Y-97532200D01*
X56395600Y-99762200D02*
X56395600Y-98832200D01*
X56395600Y-99762200D02*
X58555600Y-99762200D01*
X56395600Y-96602200D02*
X57855600Y-96602200D01*
X51146000Y-86657000D02*
X54596000Y-86657000D01*
X51146000Y-86657000D02*
X49196000Y-86657000D01*
X51146000Y-81537000D02*
X53096000Y-81537000D01*
X51146000Y-81537000D02*
X49196000Y-81537000D01*
X51104000Y-88667600D02*
X49154000Y-88667600D01*
X51104000Y-88667600D02*
X53054000Y-88667600D01*
X51104000Y-93787600D02*
X49154000Y-93787600D01*
X51104000Y-93787600D02*
X54554000Y-93787600D01*
X51055600Y-96622200D02*
X49105600Y-96622200D01*
X51055600Y-96622200D02*
X53005600Y-96622200D01*
X51055600Y-101742200D02*
X49105600Y-101742200D01*
X51055600Y-101742200D02*
X54505600Y-101742200D01*
X97237221Y-69090000D02*
X97562779Y-69090000D01*
X97237221Y-70110000D02*
X97562779Y-70110000D01*
X48466000Y-60306000D02*
X46966000Y-60306000D01*
X44466000Y-61556000D02*
X44466000Y-66056000D01*
X46966000Y-67306000D02*
X48466000Y-67306000D01*
X50966000Y-66056000D02*
X50966000Y-61556000D01*
X62650000Y-66056000D02*
X62650000Y-61556000D01*
X58650000Y-67306000D02*
X60150000Y-67306000D01*
X56150000Y-61556000D02*
X56150000Y-66056000D01*
X60150000Y-60306000D02*
X58650000Y-60306000D01*
X101940000Y-47495000D02*
X101940000Y-48220000D01*
X101940000Y-48220000D02*
X101215000Y-48220000D01*
X96720000Y-43725000D02*
X96720000Y-43000000D01*
X96720000Y-43000000D02*
X97445000Y-43000000D01*
X96720000Y-47495000D02*
X96720000Y-48220000D01*
X96720000Y-48220000D02*
X97445000Y-48220000D01*
X101940000Y-43725000D02*
X101940000Y-43000000D01*
X92044200Y-74769000D02*
X92044200Y-74999000D01*
X92044200Y-74999000D02*
X93019200Y-74999000D01*
X95264200Y-74769000D02*
X95264200Y-74999000D01*
X94289200Y-74999000D02*
X95264200Y-74999000D01*
X94289200Y-71779000D02*
X95264200Y-71779000D01*
X95264200Y-71779000D02*
X95264200Y-72009000D01*
X92014200Y-71779000D02*
X93019200Y-71779000D01*
X97251600Y-100997000D02*
X99051600Y-100997000D01*
X99051600Y-97777000D02*
X96601600Y-97777000D01*
X110800000Y-93990000D02*
X108350000Y-93990000D01*
X109000000Y-97210000D02*
X110800000Y-97210000D01*
X77840000Y-103210000D02*
X79640000Y-103210000D01*
X79640000Y-99990000D02*
X77190000Y-99990000D01*
X74140000Y-31210000D02*
X74140000Y-35930000D01*
X74140000Y-35930000D02*
X80260000Y-35930000D01*
X80260000Y-35930000D02*
X80260000Y-31210000D01*
X80260000Y-31210000D02*
X74140000Y-31210000D01*
X75900000Y-31210000D02*
X75900000Y-31010000D01*
X75900000Y-31010000D02*
X75600000Y-31010000D01*
X75600000Y-31010000D02*
X75600000Y-31210000D01*
X75900000Y-31110000D02*
X75600000Y-31110000D01*
X76700000Y-31210000D02*
X76700000Y-31820000D01*
X76700000Y-31820000D02*
X74750000Y-31820000D01*
X74750000Y-31820000D02*
X74750000Y-35320000D01*
X74750000Y-35320000D02*
X79650000Y-35320000D01*
X79650000Y-35320000D02*
X79650000Y-31820000D01*
X79650000Y-31820000D02*
X77700000Y-31820000D01*
X77700000Y-31820000D02*
X77700000Y-31210000D01*
X74140000Y-32520000D02*
X74750000Y-32520000D01*
X74140000Y-33820000D02*
X74750000Y-33820000D01*
X80260000Y-32520000D02*
X79650000Y-32520000D01*
X80260000Y-33820000D02*
X79650000Y-33820000D01*
X77100000Y-35320000D02*
X77100000Y-34820000D01*
X77100000Y-34820000D02*
X77300000Y-34820000D01*
X77300000Y-34820000D02*
X77300000Y-35320000D01*
X77200000Y-35320000D02*
X77200000Y-34820000D01*
X75090000Y-30910000D02*
X73840000Y-30910000D01*
X73840000Y-30910000D02*
X73840000Y-32160000D01*
D11*
X77794895Y-60405680D02*
X77794895Y-61215204D01*
X77842514Y-61310442D01*
X77890133Y-61358061D01*
X77985371Y-61405680D01*
X78175847Y-61405680D01*
X78271085Y-61358061D01*
X78318704Y-61310442D01*
X78366323Y-61215204D01*
X78366323Y-60405680D01*
X78747276Y-60405680D02*
X79366323Y-60405680D01*
X79032990Y-60786633D01*
X79175847Y-60786633D01*
X79271085Y-60834252D01*
X79318704Y-60881871D01*
X79366323Y-60977109D01*
X79366323Y-61215204D01*
X79318704Y-61310442D01*
X79271085Y-61358061D01*
X79175847Y-61405680D01*
X78890133Y-61405680D01*
X78794895Y-61358061D01*
X78747276Y-61310442D01*
X49496742Y-50066542D02*
X49449123Y-50114161D01*
X49306266Y-50161780D01*
X49211028Y-50161780D01*
X49068171Y-50114161D01*
X48972933Y-50018923D01*
X48925314Y-49923685D01*
X48877695Y-49733209D01*
X48877695Y-49590352D01*
X48925314Y-49399876D01*
X48972933Y-49304638D01*
X49068171Y-49209400D01*
X49211028Y-49161780D01*
X49306266Y-49161780D01*
X49449123Y-49209400D01*
X49496742Y-49257019D01*
X49877695Y-49257019D02*
X49925314Y-49209400D01*
X50020552Y-49161780D01*
X50258647Y-49161780D01*
X50353885Y-49209400D01*
X50401504Y-49257019D01*
X50449123Y-49352257D01*
X50449123Y-49447495D01*
X50401504Y-49590352D01*
X49830076Y-50161780D01*
X50449123Y-50161780D01*
X50830076Y-49257019D02*
X50877695Y-49209400D01*
X50972933Y-49161780D01*
X51211028Y-49161780D01*
X51306266Y-49209400D01*
X51353885Y-49257019D01*
X51401504Y-49352257D01*
X51401504Y-49447495D01*
X51353885Y-49590352D01*
X50782457Y-50161780D01*
X51401504Y-50161780D01*
X94357142Y-42927142D02*
X94309523Y-42974761D01*
X94166666Y-43022380D01*
X94071428Y-43022380D01*
X93928571Y-42974761D01*
X93833333Y-42879523D01*
X93785714Y-42784285D01*
X93738095Y-42593809D01*
X93738095Y-42450952D01*
X93785714Y-42260476D01*
X93833333Y-42165238D01*
X93928571Y-42070000D01*
X94071428Y-42022380D01*
X94166666Y-42022380D01*
X94309523Y-42070000D01*
X94357142Y-42117619D01*
X94738095Y-42117619D02*
X94785714Y-42070000D01*
X94880952Y-42022380D01*
X95119047Y-42022380D01*
X95214285Y-42070000D01*
X95261904Y-42117619D01*
X95309523Y-42212857D01*
X95309523Y-42308095D01*
X95261904Y-42450952D01*
X94690476Y-43022380D01*
X95309523Y-43022380D01*
X95642857Y-42022380D02*
X96261904Y-42022380D01*
X95928571Y-42403333D01*
X96071428Y-42403333D01*
X96166666Y-42450952D01*
X96214285Y-42498571D01*
X96261904Y-42593809D01*
X96261904Y-42831904D01*
X96214285Y-42927142D01*
X96166666Y-42974761D01*
X96071428Y-43022380D01*
X95785714Y-43022380D01*
X95690476Y-42974761D01*
X95642857Y-42927142D01*
X53973333Y-44215142D02*
X53925714Y-44262761D01*
X53782857Y-44310380D01*
X53687619Y-44310380D01*
X53544761Y-44262761D01*
X53449523Y-44167523D01*
X53401904Y-44072285D01*
X53354285Y-43881809D01*
X53354285Y-43738952D01*
X53401904Y-43548476D01*
X53449523Y-43453238D01*
X53544761Y-43358000D01*
X53687619Y-43310380D01*
X53782857Y-43310380D01*
X53925714Y-43358000D01*
X53973333Y-43405619D01*
X54925714Y-44310380D02*
X54354285Y-44310380D01*
X54640000Y-44310380D02*
X54640000Y-43310380D01*
X54544761Y-43453238D01*
X54449523Y-43548476D01*
X54354285Y-43596095D01*
X50125333Y-48720342D02*
X50077714Y-48767961D01*
X49934857Y-48815580D01*
X49839619Y-48815580D01*
X49696761Y-48767961D01*
X49601523Y-48672723D01*
X49553904Y-48577485D01*
X49506285Y-48387009D01*
X49506285Y-48244152D01*
X49553904Y-48053676D01*
X49601523Y-47958438D01*
X49696761Y-47863200D01*
X49839619Y-47815580D01*
X49934857Y-47815580D01*
X50077714Y-47863200D01*
X50125333Y-47910819D01*
X50506285Y-47910819D02*
X50553904Y-47863200D01*
X50649142Y-47815580D01*
X50887238Y-47815580D01*
X50982476Y-47863200D01*
X51030095Y-47910819D01*
X51077714Y-48006057D01*
X51077714Y-48101295D01*
X51030095Y-48244152D01*
X50458666Y-48815580D01*
X51077714Y-48815580D01*
X59842342Y-43473666D02*
X59889961Y-43521285D01*
X59937580Y-43664142D01*
X59937580Y-43759380D01*
X59889961Y-43902238D01*
X59794723Y-43997476D01*
X59699485Y-44045095D01*
X59509009Y-44092714D01*
X59366152Y-44092714D01*
X59175676Y-44045095D01*
X59080438Y-43997476D01*
X58985200Y-43902238D01*
X58937580Y-43759380D01*
X58937580Y-43664142D01*
X58985200Y-43521285D01*
X59032819Y-43473666D01*
X58937580Y-43140333D02*
X58937580Y-42521285D01*
X59318533Y-42854619D01*
X59318533Y-42711761D01*
X59366152Y-42616523D01*
X59413771Y-42568904D01*
X59509009Y-42521285D01*
X59747104Y-42521285D01*
X59842342Y-42568904D01*
X59889961Y-42616523D01*
X59937580Y-42711761D01*
X59937580Y-42997476D01*
X59889961Y-43092714D01*
X59842342Y-43140333D01*
X51573133Y-45367542D02*
X51525514Y-45415161D01*
X51382657Y-45462780D01*
X51287419Y-45462780D01*
X51144561Y-45415161D01*
X51049323Y-45319923D01*
X51001704Y-45224685D01*
X50954085Y-45034209D01*
X50954085Y-44891352D01*
X51001704Y-44700876D01*
X51049323Y-44605638D01*
X51144561Y-44510400D01*
X51287419Y-44462780D01*
X51382657Y-44462780D01*
X51525514Y-44510400D01*
X51573133Y-44558019D01*
X52430276Y-44796114D02*
X52430276Y-45462780D01*
X52192180Y-44415161D02*
X51954085Y-45129447D01*
X52573133Y-45129447D01*
X55575142Y-42584666D02*
X55622761Y-42632285D01*
X55670380Y-42775142D01*
X55670380Y-42870380D01*
X55622761Y-43013238D01*
X55527523Y-43108476D01*
X55432285Y-43156095D01*
X55241809Y-43203714D01*
X55098952Y-43203714D01*
X54908476Y-43156095D01*
X54813238Y-43108476D01*
X54718000Y-43013238D01*
X54670380Y-42870380D01*
X54670380Y-42775142D01*
X54718000Y-42632285D01*
X54765619Y-42584666D01*
X54670380Y-41679904D02*
X54670380Y-42156095D01*
X55146571Y-42203714D01*
X55098952Y-42156095D01*
X55051333Y-42060857D01*
X55051333Y-41822761D01*
X55098952Y-41727523D01*
X55146571Y-41679904D01*
X55241809Y-41632285D01*
X55479904Y-41632285D01*
X55575142Y-41679904D01*
X55622761Y-41727523D01*
X55670380Y-41822761D01*
X55670380Y-42060857D01*
X55622761Y-42156095D01*
X55575142Y-42203714D01*
X53973333Y-45315142D02*
X53925714Y-45362761D01*
X53782857Y-45410380D01*
X53687619Y-45410380D01*
X53544761Y-45362761D01*
X53449523Y-45267523D01*
X53401904Y-45172285D01*
X53354285Y-44981809D01*
X53354285Y-44838952D01*
X53401904Y-44648476D01*
X53449523Y-44553238D01*
X53544761Y-44458000D01*
X53687619Y-44410380D01*
X53782857Y-44410380D01*
X53925714Y-44458000D01*
X53973333Y-44505619D01*
X54830476Y-44410380D02*
X54640000Y-44410380D01*
X54544761Y-44458000D01*
X54497142Y-44505619D01*
X54401904Y-44648476D01*
X54354285Y-44838952D01*
X54354285Y-45219904D01*
X54401904Y-45315142D01*
X54449523Y-45362761D01*
X54544761Y-45410380D01*
X54735238Y-45410380D01*
X54830476Y-45362761D01*
X54878095Y-45315142D01*
X54925714Y-45219904D01*
X54925714Y-44981809D01*
X54878095Y-44886571D01*
X54830476Y-44838952D01*
X54735238Y-44791333D01*
X54544761Y-44791333D01*
X54449523Y-44838952D01*
X54401904Y-44886571D01*
X54354285Y-44981809D01*
X57592933Y-54051142D02*
X57545314Y-54098761D01*
X57402457Y-54146380D01*
X57307219Y-54146380D01*
X57164361Y-54098761D01*
X57069123Y-54003523D01*
X57021504Y-53908285D01*
X56973885Y-53717809D01*
X56973885Y-53574952D01*
X57021504Y-53384476D01*
X57069123Y-53289238D01*
X57164361Y-53194000D01*
X57307219Y-53146380D01*
X57402457Y-53146380D01*
X57545314Y-53194000D01*
X57592933Y-53241619D01*
X57926266Y-53146380D02*
X58592933Y-53146380D01*
X58164361Y-54146380D01*
X93676133Y-61992942D02*
X93628514Y-62040561D01*
X93485657Y-62088180D01*
X93390419Y-62088180D01*
X93247561Y-62040561D01*
X93152323Y-61945323D01*
X93104704Y-61850085D01*
X93057085Y-61659609D01*
X93057085Y-61516752D01*
X93104704Y-61326276D01*
X93152323Y-61231038D01*
X93247561Y-61135800D01*
X93390419Y-61088180D01*
X93485657Y-61088180D01*
X93628514Y-61135800D01*
X93676133Y-61183419D01*
X94152323Y-62088180D02*
X94342800Y-62088180D01*
X94438038Y-62040561D01*
X94485657Y-61992942D01*
X94580895Y-61850085D01*
X94628514Y-61659609D01*
X94628514Y-61278657D01*
X94580895Y-61183419D01*
X94533276Y-61135800D01*
X94438038Y-61088180D01*
X94247561Y-61088180D01*
X94152323Y-61135800D01*
X94104704Y-61183419D01*
X94057085Y-61278657D01*
X94057085Y-61516752D01*
X94104704Y-61611990D01*
X94152323Y-61659609D01*
X94247561Y-61707228D01*
X94438038Y-61707228D01*
X94533276Y-61659609D01*
X94580895Y-61611990D01*
X94628514Y-61516752D01*
X99329142Y-59230657D02*
X99376761Y-59278276D01*
X99424380Y-59421133D01*
X99424380Y-59516371D01*
X99376761Y-59659228D01*
X99281523Y-59754466D01*
X99186285Y-59802085D01*
X98995809Y-59849704D01*
X98852952Y-59849704D01*
X98662476Y-59802085D01*
X98567238Y-59754466D01*
X98472000Y-59659228D01*
X98424380Y-59516371D01*
X98424380Y-59421133D01*
X98472000Y-59278276D01*
X98519619Y-59230657D01*
X99424380Y-58278276D02*
X99424380Y-58849704D01*
X99424380Y-58563990D02*
X98424380Y-58563990D01*
X98567238Y-58659228D01*
X98662476Y-58754466D01*
X98710095Y-58849704D01*
X98424380Y-57659228D02*
X98424380Y-57563990D01*
X98472000Y-57468752D01*
X98519619Y-57421133D01*
X98614857Y-57373514D01*
X98805333Y-57325895D01*
X99043428Y-57325895D01*
X99233904Y-57373514D01*
X99329142Y-57421133D01*
X99376761Y-57468752D01*
X99424380Y-57563990D01*
X99424380Y-57659228D01*
X99376761Y-57754466D01*
X99329142Y-57802085D01*
X99233904Y-57849704D01*
X99043428Y-57897323D01*
X98805333Y-57897323D01*
X98614857Y-57849704D01*
X98519619Y-57802085D01*
X98472000Y-57754466D01*
X98424380Y-57659228D01*
X83451142Y-54860842D02*
X83403523Y-54908461D01*
X83260666Y-54956080D01*
X83165428Y-54956080D01*
X83022571Y-54908461D01*
X82927333Y-54813223D01*
X82879714Y-54717985D01*
X82832095Y-54527509D01*
X82832095Y-54384652D01*
X82879714Y-54194176D01*
X82927333Y-54098938D01*
X83022571Y-54003700D01*
X83165428Y-53956080D01*
X83260666Y-53956080D01*
X83403523Y-54003700D01*
X83451142Y-54051319D01*
X84403523Y-54956080D02*
X83832095Y-54956080D01*
X84117809Y-54956080D02*
X84117809Y-53956080D01*
X84022571Y-54098938D01*
X83927333Y-54194176D01*
X83832095Y-54241795D01*
X85355904Y-54956080D02*
X84784476Y-54956080D01*
X85070190Y-54956080D02*
X85070190Y-53956080D01*
X84974952Y-54098938D01*
X84879714Y-54194176D01*
X84784476Y-54241795D01*
X98062342Y-53795057D02*
X98109961Y-53842676D01*
X98157580Y-53985533D01*
X98157580Y-54080771D01*
X98109961Y-54223628D01*
X98014723Y-54318866D01*
X97919485Y-54366485D01*
X97729009Y-54414104D01*
X97586152Y-54414104D01*
X97395676Y-54366485D01*
X97300438Y-54318866D01*
X97205200Y-54223628D01*
X97157580Y-54080771D01*
X97157580Y-53985533D01*
X97205200Y-53842676D01*
X97252819Y-53795057D01*
X98157580Y-52842676D02*
X98157580Y-53414104D01*
X98157580Y-53128390D02*
X97157580Y-53128390D01*
X97300438Y-53223628D01*
X97395676Y-53318866D01*
X97443295Y-53414104D01*
X97252819Y-52461723D02*
X97205200Y-52414104D01*
X97157580Y-52318866D01*
X97157580Y-52080771D01*
X97205200Y-51985533D01*
X97252819Y-51937914D01*
X97348057Y-51890295D01*
X97443295Y-51890295D01*
X97586152Y-51937914D01*
X98157580Y-52509342D01*
X98157580Y-51890295D01*
X73397142Y-53972857D02*
X73444761Y-54020476D01*
X73492380Y-54163333D01*
X73492380Y-54258571D01*
X73444761Y-54401428D01*
X73349523Y-54496666D01*
X73254285Y-54544285D01*
X73063809Y-54591904D01*
X72920952Y-54591904D01*
X72730476Y-54544285D01*
X72635238Y-54496666D01*
X72540000Y-54401428D01*
X72492380Y-54258571D01*
X72492380Y-54163333D01*
X72540000Y-54020476D01*
X72587619Y-53972857D01*
X73492380Y-53020476D02*
X73492380Y-53591904D01*
X73492380Y-53306190D02*
X72492380Y-53306190D01*
X72635238Y-53401428D01*
X72730476Y-53496666D01*
X72778095Y-53591904D01*
X72492380Y-52687142D02*
X72492380Y-52068095D01*
X72873333Y-52401428D01*
X72873333Y-52258571D01*
X72920952Y-52163333D01*
X72968571Y-52115714D01*
X73063809Y-52068095D01*
X73301904Y-52068095D01*
X73397142Y-52115714D01*
X73444761Y-52163333D01*
X73492380Y-52258571D01*
X73492380Y-52544285D01*
X73444761Y-52639523D01*
X73397142Y-52687142D01*
X93157142Y-53387142D02*
X93109523Y-53434761D01*
X92966666Y-53482380D01*
X92871428Y-53482380D01*
X92728571Y-53434761D01*
X92633333Y-53339523D01*
X92585714Y-53244285D01*
X92538095Y-53053809D01*
X92538095Y-52910952D01*
X92585714Y-52720476D01*
X92633333Y-52625238D01*
X92728571Y-52530000D01*
X92871428Y-52482380D01*
X92966666Y-52482380D01*
X93109523Y-52530000D01*
X93157142Y-52577619D01*
X94109523Y-53482380D02*
X93538095Y-53482380D01*
X93823809Y-53482380D02*
X93823809Y-52482380D01*
X93728571Y-52625238D01*
X93633333Y-52720476D01*
X93538095Y-52768095D01*
X94966666Y-52815714D02*
X94966666Y-53482380D01*
X94728571Y-52434761D02*
X94490476Y-53149047D01*
X95109523Y-53149047D01*
X103727142Y-58285657D02*
X103774761Y-58333276D01*
X103822380Y-58476133D01*
X103822380Y-58571371D01*
X103774761Y-58714228D01*
X103679523Y-58809466D01*
X103584285Y-58857085D01*
X103393809Y-58904704D01*
X103250952Y-58904704D01*
X103060476Y-58857085D01*
X102965238Y-58809466D01*
X102870000Y-58714228D01*
X102822380Y-58571371D01*
X102822380Y-58476133D01*
X102870000Y-58333276D01*
X102917619Y-58285657D01*
X103822380Y-57333276D02*
X103822380Y-57904704D01*
X103822380Y-57618990D02*
X102822380Y-57618990D01*
X102965238Y-57714228D01*
X103060476Y-57809466D01*
X103108095Y-57904704D01*
X102822380Y-56428514D02*
X102822380Y-56904704D01*
X103298571Y-56952323D01*
X103250952Y-56904704D01*
X103203333Y-56809466D01*
X103203333Y-56571371D01*
X103250952Y-56476133D01*
X103298571Y-56428514D01*
X103393809Y-56380895D01*
X103631904Y-56380895D01*
X103727142Y-56428514D01*
X103774761Y-56476133D01*
X103822380Y-56571371D01*
X103822380Y-56809466D01*
X103774761Y-56904704D01*
X103727142Y-56952323D01*
X77419480Y-45183015D02*
X76419480Y-45183015D01*
X76419480Y-44944920D01*
X76467100Y-44802062D01*
X76562338Y-44706824D01*
X76657576Y-44659205D01*
X76848052Y-44611586D01*
X76990909Y-44611586D01*
X77181385Y-44659205D01*
X77276623Y-44706824D01*
X77371861Y-44802062D01*
X77419480Y-44944920D01*
X77419480Y-45183015D01*
X77419480Y-43659205D02*
X77419480Y-44230634D01*
X77419480Y-43944920D02*
X76419480Y-43944920D01*
X76562338Y-44040158D01*
X76657576Y-44135396D01*
X76705195Y-44230634D01*
X82067680Y-45437015D02*
X81067680Y-45437015D01*
X81067680Y-45198920D01*
X81115300Y-45056062D01*
X81210538Y-44960824D01*
X81305776Y-44913205D01*
X81496252Y-44865586D01*
X81639109Y-44865586D01*
X81829585Y-44913205D01*
X81924823Y-44960824D01*
X82020061Y-45056062D01*
X82067680Y-45198920D01*
X82067680Y-45437015D01*
X81162919Y-44484634D02*
X81115300Y-44437015D01*
X81067680Y-44341777D01*
X81067680Y-44103681D01*
X81115300Y-44008443D01*
X81162919Y-43960824D01*
X81258157Y-43913205D01*
X81353395Y-43913205D01*
X81496252Y-43960824D01*
X82067680Y-44532253D01*
X82067680Y-43913205D01*
X103652380Y-44638095D02*
X102652380Y-44638095D01*
X102652380Y-44400000D01*
X102700000Y-44257142D01*
X102795238Y-44161904D01*
X102890476Y-44114285D01*
X103080952Y-44066666D01*
X103223809Y-44066666D01*
X103414285Y-44114285D01*
X103509523Y-44161904D01*
X103604761Y-44257142D01*
X103652380Y-44400000D01*
X103652380Y-44638095D01*
X102652380Y-43733333D02*
X102652380Y-43114285D01*
X103033333Y-43447619D01*
X103033333Y-43304761D01*
X103080952Y-43209523D01*
X103128571Y-43161904D01*
X103223809Y-43114285D01*
X103461904Y-43114285D01*
X103557142Y-43161904D01*
X103604761Y-43209523D01*
X103652380Y-43304761D01*
X103652380Y-43590476D01*
X103604761Y-43685714D01*
X103557142Y-43733333D01*
X109859866Y-37951371D02*
X109526533Y-37951371D01*
X109526533Y-38475180D02*
X109526533Y-37475180D01*
X110002723Y-37475180D01*
X110717009Y-37951371D02*
X110859866Y-37998990D01*
X110907485Y-38046609D01*
X110955104Y-38141847D01*
X110955104Y-38284704D01*
X110907485Y-38379942D01*
X110859866Y-38427561D01*
X110764628Y-38475180D01*
X110383676Y-38475180D01*
X110383676Y-37475180D01*
X110717009Y-37475180D01*
X110812247Y-37522800D01*
X110859866Y-37570419D01*
X110907485Y-37665657D01*
X110907485Y-37760895D01*
X110859866Y-37856133D01*
X110812247Y-37903752D01*
X110717009Y-37951371D01*
X110383676Y-37951371D01*
X111907485Y-38475180D02*
X111336057Y-38475180D01*
X111621771Y-38475180D02*
X111621771Y-37475180D01*
X111526533Y-37618038D01*
X111431295Y-37713276D01*
X111336057Y-37760895D01*
X101554971Y-38933333D02*
X101554971Y-39266666D01*
X102078780Y-39266666D02*
X101078780Y-39266666D01*
X101078780Y-38790476D01*
X101554971Y-38076190D02*
X101602590Y-37933333D01*
X101650209Y-37885714D01*
X101745447Y-37838095D01*
X101888304Y-37838095D01*
X101983542Y-37885714D01*
X102031161Y-37933333D01*
X102078780Y-38028571D01*
X102078780Y-38409523D01*
X101078780Y-38409523D01*
X101078780Y-38076190D01*
X101126400Y-37980952D01*
X101174019Y-37933333D01*
X101269257Y-37885714D01*
X101364495Y-37885714D01*
X101459733Y-37933333D01*
X101507352Y-37980952D01*
X101554971Y-38076190D01*
X101554971Y-38409523D01*
X101174019Y-37457142D02*
X101126400Y-37409523D01*
X101078780Y-37314285D01*
X101078780Y-37076190D01*
X101126400Y-36980952D01*
X101174019Y-36933333D01*
X101269257Y-36885714D01*
X101364495Y-36885714D01*
X101507352Y-36933333D01*
X102078780Y-37504761D01*
X102078780Y-36885714D01*
X106342380Y-33353333D02*
X107056666Y-33353333D01*
X107199523Y-33400952D01*
X107294761Y-33496190D01*
X107342380Y-33639047D01*
X107342380Y-33734285D01*
X107342380Y-32353333D02*
X107342380Y-32924761D01*
X107342380Y-32639047D02*
X106342380Y-32639047D01*
X106485238Y-32734285D01*
X106580476Y-32829523D01*
X106628095Y-32924761D01*
X98866666Y-35764880D02*
X98866666Y-36479166D01*
X98819047Y-36622023D01*
X98723809Y-36717261D01*
X98580952Y-36764880D01*
X98485714Y-36764880D01*
X99295238Y-35860119D02*
X99342857Y-35812500D01*
X99438095Y-35764880D01*
X99676190Y-35764880D01*
X99771428Y-35812500D01*
X99819047Y-35860119D01*
X99866666Y-35955357D01*
X99866666Y-36050595D01*
X99819047Y-36193452D01*
X99247619Y-36764880D01*
X99866666Y-36764880D01*
X81348780Y-39677933D02*
X82063066Y-39677933D01*
X82205923Y-39725552D01*
X82301161Y-39820790D01*
X82348780Y-39963647D01*
X82348780Y-40058885D01*
X81348780Y-39296980D02*
X81348780Y-38677933D01*
X81729733Y-39011266D01*
X81729733Y-38868409D01*
X81777352Y-38773171D01*
X81824971Y-38725552D01*
X81920209Y-38677933D01*
X82158304Y-38677933D01*
X82253542Y-38725552D01*
X82301161Y-38773171D01*
X82348780Y-38868409D01*
X82348780Y-39154123D01*
X82301161Y-39249361D01*
X82253542Y-39296980D01*
X83482380Y-33353333D02*
X84196666Y-33353333D01*
X84339523Y-33400952D01*
X84434761Y-33496190D01*
X84482380Y-33639047D01*
X84482380Y-33734285D01*
X83482380Y-32400952D02*
X83482380Y-32877142D01*
X83958571Y-32924761D01*
X83910952Y-32877142D01*
X83863333Y-32781904D01*
X83863333Y-32543809D01*
X83910952Y-32448571D01*
X83958571Y-32400952D01*
X84053809Y-32353333D01*
X84291904Y-32353333D01*
X84387142Y-32400952D01*
X84434761Y-32448571D01*
X84482380Y-32543809D01*
X84482380Y-32781904D01*
X84434761Y-32877142D01*
X84387142Y-32924761D01*
X86199980Y-56707066D02*
X86199980Y-57183257D01*
X85199980Y-57183257D01*
X86199980Y-55849923D02*
X86199980Y-56421352D01*
X86199980Y-56135638D02*
X85199980Y-56135638D01*
X85342838Y-56230876D01*
X85438076Y-56326114D01*
X85485695Y-56421352D01*
X75672880Y-44766666D02*
X75196690Y-45100000D01*
X75672880Y-45338095D02*
X74672880Y-45338095D01*
X74672880Y-44957142D01*
X74720500Y-44861904D01*
X74768119Y-44814285D01*
X74863357Y-44766666D01*
X75006214Y-44766666D01*
X75101452Y-44814285D01*
X75149071Y-44861904D01*
X75196690Y-44957142D01*
X75196690Y-45338095D01*
X74768119Y-44385714D02*
X74720500Y-44338095D01*
X74672880Y-44242857D01*
X74672880Y-44004761D01*
X74720500Y-43909523D01*
X74768119Y-43861904D01*
X74863357Y-43814285D01*
X74958595Y-43814285D01*
X75101452Y-43861904D01*
X75672880Y-44433333D01*
X75672880Y-43814285D01*
X83144080Y-44766666D02*
X82667890Y-45100000D01*
X83144080Y-45338095D02*
X82144080Y-45338095D01*
X82144080Y-44957142D01*
X82191700Y-44861904D01*
X82239319Y-44814285D01*
X82334557Y-44766666D01*
X82477414Y-44766666D01*
X82572652Y-44814285D01*
X82620271Y-44861904D01*
X82667890Y-44957142D01*
X82667890Y-45338095D01*
X82144080Y-44433333D02*
X82144080Y-43814285D01*
X82525033Y-44147619D01*
X82525033Y-44004761D01*
X82572652Y-43909523D01*
X82620271Y-43861904D01*
X82715509Y-43814285D01*
X82953604Y-43814285D01*
X83048842Y-43861904D01*
X83096461Y-43909523D01*
X83144080Y-44004761D01*
X83144080Y-44290476D01*
X83096461Y-44385714D01*
X83048842Y-44433333D01*
X82022380Y-44766666D02*
X81546190Y-45100000D01*
X82022380Y-45338095D02*
X81022380Y-45338095D01*
X81022380Y-44957142D01*
X81070000Y-44861904D01*
X81117619Y-44814285D01*
X81212857Y-44766666D01*
X81355714Y-44766666D01*
X81450952Y-44814285D01*
X81498571Y-44861904D01*
X81546190Y-44957142D01*
X81546190Y-45338095D01*
X81355714Y-43909523D02*
X82022380Y-43909523D01*
X80974761Y-44147619D02*
X81689047Y-44385714D01*
X81689047Y-43766666D01*
X97943333Y-58327380D02*
X97610000Y-57851190D01*
X97371904Y-58327380D02*
X97371904Y-57327380D01*
X97752857Y-57327380D01*
X97848095Y-57375000D01*
X97895714Y-57422619D01*
X97943333Y-57517857D01*
X97943333Y-57660714D01*
X97895714Y-57755952D01*
X97848095Y-57803571D01*
X97752857Y-57851190D01*
X97371904Y-57851190D01*
X98848095Y-57327380D02*
X98371904Y-57327380D01*
X98324285Y-57803571D01*
X98371904Y-57755952D01*
X98467142Y-57708333D01*
X98705238Y-57708333D01*
X98800476Y-57755952D01*
X98848095Y-57803571D01*
X98895714Y-57898809D01*
X98895714Y-58136904D01*
X98848095Y-58232142D01*
X98800476Y-58279761D01*
X98705238Y-58327380D01*
X98467142Y-58327380D01*
X98371904Y-58279761D01*
X98324285Y-58232142D01*
X100297180Y-53268066D02*
X99820990Y-53601400D01*
X100297180Y-53839495D02*
X99297180Y-53839495D01*
X99297180Y-53458542D01*
X99344800Y-53363304D01*
X99392419Y-53315685D01*
X99487657Y-53268066D01*
X99630514Y-53268066D01*
X99725752Y-53315685D01*
X99773371Y-53363304D01*
X99820990Y-53458542D01*
X99820990Y-53839495D01*
X99297180Y-52410923D02*
X99297180Y-52601400D01*
X99344800Y-52696638D01*
X99392419Y-52744257D01*
X99535276Y-52839495D01*
X99725752Y-52887114D01*
X100106704Y-52887114D01*
X100201942Y-52839495D01*
X100249561Y-52791876D01*
X100297180Y-52696638D01*
X100297180Y-52506161D01*
X100249561Y-52410923D01*
X100201942Y-52363304D01*
X100106704Y-52315685D01*
X99868609Y-52315685D01*
X99773371Y-52363304D01*
X99725752Y-52410923D01*
X99678133Y-52506161D01*
X99678133Y-52696638D01*
X99725752Y-52791876D01*
X99773371Y-52839495D01*
X99868609Y-52887114D01*
X100297180Y-56468466D02*
X99820990Y-56801800D01*
X100297180Y-57039895D02*
X99297180Y-57039895D01*
X99297180Y-56658942D01*
X99344800Y-56563704D01*
X99392419Y-56516085D01*
X99487657Y-56468466D01*
X99630514Y-56468466D01*
X99725752Y-56516085D01*
X99773371Y-56563704D01*
X99820990Y-56658942D01*
X99820990Y-57039895D01*
X99297180Y-56135133D02*
X99297180Y-55468466D01*
X100297180Y-55897038D01*
X83825733Y-57445280D02*
X83492400Y-56969090D01*
X83254304Y-57445280D02*
X83254304Y-56445280D01*
X83635257Y-56445280D01*
X83730495Y-56492900D01*
X83778114Y-56540519D01*
X83825733Y-56635757D01*
X83825733Y-56778614D01*
X83778114Y-56873852D01*
X83730495Y-56921471D01*
X83635257Y-56969090D01*
X83254304Y-56969090D01*
X84397161Y-56873852D02*
X84301923Y-56826233D01*
X84254304Y-56778614D01*
X84206685Y-56683376D01*
X84206685Y-56635757D01*
X84254304Y-56540519D01*
X84301923Y-56492900D01*
X84397161Y-56445280D01*
X84587638Y-56445280D01*
X84682876Y-56492900D01*
X84730495Y-56540519D01*
X84778114Y-56635757D01*
X84778114Y-56683376D01*
X84730495Y-56778614D01*
X84682876Y-56826233D01*
X84587638Y-56873852D01*
X84397161Y-56873852D01*
X84301923Y-56921471D01*
X84254304Y-56969090D01*
X84206685Y-57064328D01*
X84206685Y-57254804D01*
X84254304Y-57350042D01*
X84301923Y-57397661D01*
X84397161Y-57445280D01*
X84587638Y-57445280D01*
X84682876Y-57397661D01*
X84730495Y-57350042D01*
X84778114Y-57254804D01*
X84778114Y-57064328D01*
X84730495Y-56969090D01*
X84682876Y-56921471D01*
X84587638Y-56873852D01*
X56186095Y-43294380D02*
X56186095Y-44103904D01*
X56233714Y-44199142D01*
X56281333Y-44246761D01*
X56376571Y-44294380D01*
X56567047Y-44294380D01*
X56662285Y-44246761D01*
X56709904Y-44199142D01*
X56757523Y-44103904D01*
X56757523Y-43294380D01*
X57757523Y-44294380D02*
X57186095Y-44294380D01*
X57471809Y-44294380D02*
X57471809Y-43294380D01*
X57376571Y-43437238D01*
X57281333Y-43532476D01*
X57186095Y-43580095D01*
X98298095Y-35668380D02*
X98298095Y-36477904D01*
X98345714Y-36573142D01*
X98393333Y-36620761D01*
X98488571Y-36668380D01*
X98679047Y-36668380D01*
X98774285Y-36620761D01*
X98821904Y-36573142D01*
X98869523Y-36477904D01*
X98869523Y-35668380D01*
X99774285Y-36001714D02*
X99774285Y-36668380D01*
X99536190Y-35620761D02*
X99298095Y-36335047D01*
X99917142Y-36335047D01*
X93882415Y-53896180D02*
X93882415Y-54705704D01*
X93930034Y-54800942D01*
X93977653Y-54848561D01*
X94072891Y-54896180D01*
X94263367Y-54896180D01*
X94358605Y-54848561D01*
X94406224Y-54800942D01*
X94453843Y-54705704D01*
X94453843Y-53896180D01*
X94882415Y-53991419D02*
X94930034Y-53943800D01*
X95025272Y-53896180D01*
X95263367Y-53896180D01*
X95358605Y-53943800D01*
X95406224Y-53991419D01*
X95453843Y-54086657D01*
X95453843Y-54181895D01*
X95406224Y-54324752D01*
X94834796Y-54896180D01*
X95453843Y-54896180D01*
X45266666Y-47558666D02*
X45266666Y-47082476D01*
X45552380Y-47653904D02*
X44552380Y-47320571D01*
X45552380Y-46987238D01*
X45028571Y-46653904D02*
X45028571Y-46320571D01*
X45552380Y-46177714D02*
X45552380Y-46653904D01*
X44552380Y-46653904D01*
X44552380Y-46177714D01*
X45552380Y-45225333D02*
X45552380Y-45796761D01*
X45552380Y-45511047D02*
X44552380Y-45511047D01*
X44695238Y-45606285D01*
X44790476Y-45701523D01*
X44838095Y-45796761D01*
X92924333Y-75895142D02*
X92876714Y-75942761D01*
X92733857Y-75990380D01*
X92638619Y-75990380D01*
X92495761Y-75942761D01*
X92400523Y-75847523D01*
X92352904Y-75752285D01*
X92305285Y-75561809D01*
X92305285Y-75418952D01*
X92352904Y-75228476D01*
X92400523Y-75133238D01*
X92495761Y-75038000D01*
X92638619Y-74990380D01*
X92733857Y-74990380D01*
X92876714Y-75038000D01*
X92924333Y-75085619D01*
X93495761Y-75418952D02*
X93400523Y-75371333D01*
X93352904Y-75323714D01*
X93305285Y-75228476D01*
X93305285Y-75180857D01*
X93352904Y-75085619D01*
X93400523Y-75038000D01*
X93495761Y-74990380D01*
X93686238Y-74990380D01*
X93781476Y-75038000D01*
X93829095Y-75085619D01*
X93876714Y-75180857D01*
X93876714Y-75228476D01*
X93829095Y-75323714D01*
X93781476Y-75371333D01*
X93686238Y-75418952D01*
X93495761Y-75418952D01*
X93400523Y-75466571D01*
X93352904Y-75514190D01*
X93305285Y-75609428D01*
X93305285Y-75799904D01*
X93352904Y-75895142D01*
X93400523Y-75942761D01*
X93495761Y-75990380D01*
X93686238Y-75990380D01*
X93781476Y-75942761D01*
X93829095Y-75895142D01*
X93876714Y-75799904D01*
X93876714Y-75609428D01*
X93829095Y-75514190D01*
X93781476Y-75466571D01*
X93686238Y-75418952D01*
X98241342Y-76331857D02*
X98288961Y-76379476D01*
X98336580Y-76522333D01*
X98336580Y-76617571D01*
X98288961Y-76760428D01*
X98193723Y-76855666D01*
X98098485Y-76903285D01*
X97908009Y-76950904D01*
X97765152Y-76950904D01*
X97574676Y-76903285D01*
X97479438Y-76855666D01*
X97384200Y-76760428D01*
X97336580Y-76617571D01*
X97336580Y-76522333D01*
X97384200Y-76379476D01*
X97431819Y-76331857D01*
X98336580Y-75379476D02*
X98336580Y-75950904D01*
X98336580Y-75665190D02*
X97336580Y-75665190D01*
X97479438Y-75760428D01*
X97574676Y-75855666D01*
X97622295Y-75950904D01*
X97336580Y-74522333D02*
X97336580Y-74712809D01*
X97384200Y-74808047D01*
X97431819Y-74855666D01*
X97574676Y-74950904D01*
X97765152Y-74998523D01*
X98146104Y-74998523D01*
X98241342Y-74950904D01*
X98288961Y-74903285D01*
X98336580Y-74808047D01*
X98336580Y-74617571D01*
X98288961Y-74522333D01*
X98241342Y-74474714D01*
X98146104Y-74427095D01*
X97908009Y-74427095D01*
X97812771Y-74474714D01*
X97765152Y-74522333D01*
X97717533Y-74617571D01*
X97717533Y-74808047D01*
X97765152Y-74903285D01*
X97812771Y-74950904D01*
X97908009Y-74998523D01*
X98127142Y-72642857D02*
X98174761Y-72690476D01*
X98222380Y-72833333D01*
X98222380Y-72928571D01*
X98174761Y-73071428D01*
X98079523Y-73166666D01*
X97984285Y-73214285D01*
X97793809Y-73261904D01*
X97650952Y-73261904D01*
X97460476Y-73214285D01*
X97365238Y-73166666D01*
X97270000Y-73071428D01*
X97222380Y-72928571D01*
X97222380Y-72833333D01*
X97270000Y-72690476D01*
X97317619Y-72642857D01*
X98222380Y-71690476D02*
X98222380Y-72261904D01*
X98222380Y-71976190D02*
X97222380Y-71976190D01*
X97365238Y-72071428D01*
X97460476Y-72166666D01*
X97508095Y-72261904D01*
X97222380Y-71357142D02*
X97222380Y-70690476D01*
X98222380Y-71119047D01*
X92686742Y-69790542D02*
X92639123Y-69838161D01*
X92496266Y-69885780D01*
X92401028Y-69885780D01*
X92258171Y-69838161D01*
X92162933Y-69742923D01*
X92115314Y-69647685D01*
X92067695Y-69457209D01*
X92067695Y-69314352D01*
X92115314Y-69123876D01*
X92162933Y-69028638D01*
X92258171Y-68933400D01*
X92401028Y-68885780D01*
X92496266Y-68885780D01*
X92639123Y-68933400D01*
X92686742Y-68981019D01*
X93639123Y-69885780D02*
X93067695Y-69885780D01*
X93353409Y-69885780D02*
X93353409Y-68885780D01*
X93258171Y-69028638D01*
X93162933Y-69123876D01*
X93067695Y-69171495D01*
X94210552Y-69314352D02*
X94115314Y-69266733D01*
X94067695Y-69219114D01*
X94020076Y-69123876D01*
X94020076Y-69076257D01*
X94067695Y-68981019D01*
X94115314Y-68933400D01*
X94210552Y-68885780D01*
X94401028Y-68885780D01*
X94496266Y-68933400D01*
X94543885Y-68981019D01*
X94591504Y-69076257D01*
X94591504Y-69123876D01*
X94543885Y-69219114D01*
X94496266Y-69266733D01*
X94401028Y-69314352D01*
X94210552Y-69314352D01*
X94115314Y-69361971D01*
X94067695Y-69409590D01*
X94020076Y-69504828D01*
X94020076Y-69695304D01*
X94067695Y-69790542D01*
X94115314Y-69838161D01*
X94210552Y-69885780D01*
X94401028Y-69885780D01*
X94496266Y-69838161D01*
X94543885Y-69790542D01*
X94591504Y-69695304D01*
X94591504Y-69504828D01*
X94543885Y-69409590D01*
X94496266Y-69361971D01*
X94401028Y-69314352D01*
X92786742Y-68290542D02*
X92739123Y-68338161D01*
X92596266Y-68385780D01*
X92501028Y-68385780D01*
X92358171Y-68338161D01*
X92262933Y-68242923D01*
X92215314Y-68147685D01*
X92167695Y-67957209D01*
X92167695Y-67814352D01*
X92215314Y-67623876D01*
X92262933Y-67528638D01*
X92358171Y-67433400D01*
X92501028Y-67385780D01*
X92596266Y-67385780D01*
X92739123Y-67433400D01*
X92786742Y-67481019D01*
X93739123Y-68385780D02*
X93167695Y-68385780D01*
X93453409Y-68385780D02*
X93453409Y-67385780D01*
X93358171Y-67528638D01*
X93262933Y-67623876D01*
X93167695Y-67671495D01*
X94215314Y-68385780D02*
X94405790Y-68385780D01*
X94501028Y-68338161D01*
X94548647Y-68290542D01*
X94643885Y-68147685D01*
X94691504Y-67957209D01*
X94691504Y-67576257D01*
X94643885Y-67481019D01*
X94596266Y-67433400D01*
X94501028Y-67385780D01*
X94310552Y-67385780D01*
X94215314Y-67433400D01*
X94167695Y-67481019D01*
X94120076Y-67576257D01*
X94120076Y-67814352D01*
X94167695Y-67909590D01*
X94215314Y-67957209D01*
X94310552Y-68004828D01*
X94501028Y-68004828D01*
X94596266Y-67957209D01*
X94643885Y-67909590D01*
X94691504Y-67814352D01*
X47363142Y-59947142D02*
X47315523Y-59994761D01*
X47172666Y-60042380D01*
X47077428Y-60042380D01*
X46934571Y-59994761D01*
X46839333Y-59899523D01*
X46791714Y-59804285D01*
X46744095Y-59613809D01*
X46744095Y-59470952D01*
X46791714Y-59280476D01*
X46839333Y-59185238D01*
X46934571Y-59090000D01*
X47077428Y-59042380D01*
X47172666Y-59042380D01*
X47315523Y-59090000D01*
X47363142Y-59137619D01*
X47744095Y-59137619D02*
X47791714Y-59090000D01*
X47886952Y-59042380D01*
X48125047Y-59042380D01*
X48220285Y-59090000D01*
X48267904Y-59137619D01*
X48315523Y-59232857D01*
X48315523Y-59328095D01*
X48267904Y-59470952D01*
X47696476Y-60042380D01*
X48315523Y-60042380D01*
X48934571Y-59042380D02*
X49029809Y-59042380D01*
X49125047Y-59090000D01*
X49172666Y-59137619D01*
X49220285Y-59232857D01*
X49267904Y-59423333D01*
X49267904Y-59661428D01*
X49220285Y-59851904D01*
X49172666Y-59947142D01*
X49125047Y-59994761D01*
X49029809Y-60042380D01*
X48934571Y-60042380D01*
X48839333Y-59994761D01*
X48791714Y-59947142D01*
X48744095Y-59851904D01*
X48696476Y-59661428D01*
X48696476Y-59423333D01*
X48744095Y-59232857D01*
X48791714Y-59137619D01*
X48839333Y-59090000D01*
X48934571Y-59042380D01*
X62961904Y-47382380D02*
X62961904Y-46382380D01*
X63200000Y-46382380D01*
X63342857Y-46430000D01*
X63438095Y-46525238D01*
X63485714Y-46620476D01*
X63533333Y-46810952D01*
X63533333Y-46953809D01*
X63485714Y-47144285D01*
X63438095Y-47239523D01*
X63342857Y-47334761D01*
X63200000Y-47382380D01*
X62961904Y-47382380D01*
X64390476Y-46715714D02*
X64390476Y-47382380D01*
X64152380Y-46334761D02*
X63914285Y-47049047D01*
X64533333Y-47049047D01*
X109401904Y-94792380D02*
X109401904Y-93792380D01*
X109640000Y-93792380D01*
X109782857Y-93840000D01*
X109878095Y-93935238D01*
X109925714Y-94030476D01*
X109973333Y-94220952D01*
X109973333Y-94363809D01*
X109925714Y-94554285D01*
X109878095Y-94649523D01*
X109782857Y-94744761D01*
X109640000Y-94792380D01*
X109401904Y-94792380D01*
X110878095Y-93792380D02*
X110401904Y-93792380D01*
X110354285Y-94268571D01*
X110401904Y-94220952D01*
X110497142Y-94173333D01*
X110735238Y-94173333D01*
X110830476Y-94220952D01*
X110878095Y-94268571D01*
X110925714Y-94363809D01*
X110925714Y-94601904D01*
X110878095Y-94697142D01*
X110830476Y-94744761D01*
X110735238Y-94792380D01*
X110497142Y-94792380D01*
X110401904Y-94744761D01*
X110354285Y-94697142D01*
X104568666Y-50741780D02*
X104568666Y-51456066D01*
X104521047Y-51598923D01*
X104425809Y-51694161D01*
X104282952Y-51741780D01*
X104187714Y-51741780D01*
X105473428Y-50741780D02*
X105282952Y-50741780D01*
X105187714Y-50789400D01*
X105140095Y-50837019D01*
X105044857Y-50979876D01*
X104997238Y-51170352D01*
X104997238Y-51551304D01*
X105044857Y-51646542D01*
X105092476Y-51694161D01*
X105187714Y-51741780D01*
X105378190Y-51741780D01*
X105473428Y-51694161D01*
X105521047Y-51646542D01*
X105568666Y-51551304D01*
X105568666Y-51313209D01*
X105521047Y-51217971D01*
X105473428Y-51170352D01*
X105378190Y-51122733D01*
X105187714Y-51122733D01*
X105092476Y-51170352D01*
X105044857Y-51217971D01*
X104997238Y-51313209D01*
X98986666Y-113742380D02*
X98986666Y-114456666D01*
X98939047Y-114599523D01*
X98843809Y-114694761D01*
X98700952Y-114742380D01*
X98605714Y-114742380D01*
X99367619Y-113742380D02*
X100034285Y-113742380D01*
X99605714Y-114742380D01*
X93906666Y-113742380D02*
X93906666Y-114456666D01*
X93859047Y-114599523D01*
X93763809Y-114694761D01*
X93620952Y-114742380D01*
X93525714Y-114742380D01*
X94525714Y-114170952D02*
X94430476Y-114123333D01*
X94382857Y-114075714D01*
X94335238Y-113980476D01*
X94335238Y-113932857D01*
X94382857Y-113837619D01*
X94430476Y-113790000D01*
X94525714Y-113742380D01*
X94716190Y-113742380D01*
X94811428Y-113790000D01*
X94859047Y-113837619D01*
X94906666Y-113932857D01*
X94906666Y-113980476D01*
X94859047Y-114075714D01*
X94811428Y-114123333D01*
X94716190Y-114170952D01*
X94525714Y-114170952D01*
X94430476Y-114218571D01*
X94382857Y-114266190D01*
X94335238Y-114361428D01*
X94335238Y-114551904D01*
X94382857Y-114647142D01*
X94430476Y-114694761D01*
X94525714Y-114742380D01*
X94716190Y-114742380D01*
X94811428Y-114694761D01*
X94859047Y-114647142D01*
X94906666Y-114551904D01*
X94906666Y-114361428D01*
X94859047Y-114266190D01*
X94811428Y-114218571D01*
X94716190Y-114170952D01*
X112346666Y-113942380D02*
X112346666Y-114656666D01*
X112299047Y-114799523D01*
X112203809Y-114894761D01*
X112060952Y-114942380D01*
X111965714Y-114942380D01*
X112870476Y-114942380D02*
X113060952Y-114942380D01*
X113156190Y-114894761D01*
X113203809Y-114847142D01*
X113299047Y-114704285D01*
X113346666Y-114513809D01*
X113346666Y-114132857D01*
X113299047Y-114037619D01*
X113251428Y-113990000D01*
X113156190Y-113942380D01*
X112965714Y-113942380D01*
X112870476Y-113990000D01*
X112822857Y-114037619D01*
X112775238Y-114132857D01*
X112775238Y-114370952D01*
X112822857Y-114466190D01*
X112870476Y-114513809D01*
X112965714Y-114561428D01*
X113156190Y-114561428D01*
X113251428Y-114513809D01*
X113299047Y-114466190D01*
X113346666Y-114370952D01*
X106790476Y-113942380D02*
X106790476Y-114656666D01*
X106742857Y-114799523D01*
X106647619Y-114894761D01*
X106504761Y-114942380D01*
X106409523Y-114942380D01*
X107790476Y-114942380D02*
X107219047Y-114942380D01*
X107504761Y-114942380D02*
X107504761Y-113942380D01*
X107409523Y-114085238D01*
X107314285Y-114180476D01*
X107219047Y-114228095D01*
X108409523Y-113942380D02*
X108504761Y-113942380D01*
X108600000Y-113990000D01*
X108647619Y-114037619D01*
X108695238Y-114132857D01*
X108742857Y-114323333D01*
X108742857Y-114561428D01*
X108695238Y-114751904D01*
X108647619Y-114847142D01*
X108600000Y-114894761D01*
X108504761Y-114942380D01*
X108409523Y-114942380D01*
X108314285Y-114894761D01*
X108266666Y-114847142D01*
X108219047Y-114751904D01*
X108171428Y-114561428D01*
X108171428Y-114323333D01*
X108219047Y-114132857D01*
X108266666Y-114037619D01*
X108314285Y-113990000D01*
X108409523Y-113942380D01*
X45901076Y-40962780D02*
X45901076Y-41677066D01*
X45853457Y-41819923D01*
X45758219Y-41915161D01*
X45615361Y-41962780D01*
X45520123Y-41962780D01*
X46901076Y-41962780D02*
X46329647Y-41962780D01*
X46615361Y-41962780D02*
X46615361Y-40962780D01*
X46520123Y-41105638D01*
X46424885Y-41200876D01*
X46329647Y-41248495D01*
X47853457Y-41962780D02*
X47282028Y-41962780D01*
X47567742Y-41962780D02*
X47567742Y-40962780D01*
X47472504Y-41105638D01*
X47377266Y-41200876D01*
X47282028Y-41248495D01*
X43694476Y-86888380D02*
X43694476Y-87602666D01*
X43646857Y-87745523D01*
X43551619Y-87840761D01*
X43408761Y-87888380D01*
X43313523Y-87888380D01*
X44694476Y-87888380D02*
X44123047Y-87888380D01*
X44408761Y-87888380D02*
X44408761Y-86888380D01*
X44313523Y-87031238D01*
X44218285Y-87126476D01*
X44123047Y-87174095D01*
X45075428Y-86983619D02*
X45123047Y-86936000D01*
X45218285Y-86888380D01*
X45456380Y-86888380D01*
X45551619Y-86936000D01*
X45599238Y-86983619D01*
X45646857Y-87078857D01*
X45646857Y-87174095D01*
X45599238Y-87316952D01*
X45027809Y-87888380D01*
X45646857Y-87888380D01*
X43694476Y-94508380D02*
X43694476Y-95222666D01*
X43646857Y-95365523D01*
X43551619Y-95460761D01*
X43408761Y-95508380D01*
X43313523Y-95508380D01*
X44694476Y-95508380D02*
X44123047Y-95508380D01*
X44408761Y-95508380D02*
X44408761Y-94508380D01*
X44313523Y-94651238D01*
X44218285Y-94746476D01*
X44123047Y-94794095D01*
X45027809Y-94508380D02*
X45646857Y-94508380D01*
X45313523Y-94889333D01*
X45456380Y-94889333D01*
X45551619Y-94936952D01*
X45599238Y-94984571D01*
X45646857Y-95079809D01*
X45646857Y-95317904D01*
X45599238Y-95413142D01*
X45551619Y-95460761D01*
X45456380Y-95508380D01*
X45170666Y-95508380D01*
X45075428Y-95460761D01*
X45027809Y-95413142D01*
X43694476Y-102128380D02*
X43694476Y-102842666D01*
X43646857Y-102985523D01*
X43551619Y-103080761D01*
X43408761Y-103128380D01*
X43313523Y-103128380D01*
X44694476Y-103128380D02*
X44123047Y-103128380D01*
X44408761Y-103128380D02*
X44408761Y-102128380D01*
X44313523Y-102271238D01*
X44218285Y-102366476D01*
X44123047Y-102414095D01*
X45551619Y-102461714D02*
X45551619Y-103128380D01*
X45313523Y-102080761D02*
X45075428Y-102795047D01*
X45694476Y-102795047D01*
X43694476Y-109748380D02*
X43694476Y-110462666D01*
X43646857Y-110605523D01*
X43551619Y-110700761D01*
X43408761Y-110748380D01*
X43313523Y-110748380D01*
X44694476Y-110748380D02*
X44123047Y-110748380D01*
X44408761Y-110748380D02*
X44408761Y-109748380D01*
X44313523Y-109891238D01*
X44218285Y-109986476D01*
X44123047Y-110034095D01*
X45599238Y-109748380D02*
X45123047Y-109748380D01*
X45075428Y-110224571D01*
X45123047Y-110176952D01*
X45218285Y-110129333D01*
X45456380Y-110129333D01*
X45551619Y-110176952D01*
X45599238Y-110224571D01*
X45646857Y-110319809D01*
X45646857Y-110557904D01*
X45599238Y-110653142D01*
X45551619Y-110700761D01*
X45456380Y-110748380D01*
X45218285Y-110748380D01*
X45123047Y-110700761D01*
X45075428Y-110653142D01*
X85550476Y-113542380D02*
X85550476Y-114256666D01*
X85502857Y-114399523D01*
X85407619Y-114494761D01*
X85264761Y-114542380D01*
X85169523Y-114542380D01*
X86550476Y-114542380D02*
X85979047Y-114542380D01*
X86264761Y-114542380D02*
X86264761Y-113542380D01*
X86169523Y-113685238D01*
X86074285Y-113780476D01*
X85979047Y-113828095D01*
X87407619Y-113542380D02*
X87217142Y-113542380D01*
X87121904Y-113590000D01*
X87074285Y-113637619D01*
X86979047Y-113780476D01*
X86931428Y-113970952D01*
X86931428Y-114351904D01*
X86979047Y-114447142D01*
X87026666Y-114494761D01*
X87121904Y-114542380D01*
X87312380Y-114542380D01*
X87407619Y-114494761D01*
X87455238Y-114447142D01*
X87502857Y-114351904D01*
X87502857Y-114113809D01*
X87455238Y-114018571D01*
X87407619Y-113970952D01*
X87312380Y-113923333D01*
X87121904Y-113923333D01*
X87026666Y-113970952D01*
X86979047Y-114018571D01*
X86931428Y-114113809D01*
X75390476Y-113542380D02*
X75390476Y-114256666D01*
X75342857Y-114399523D01*
X75247619Y-114494761D01*
X75104761Y-114542380D01*
X75009523Y-114542380D01*
X76390476Y-114542380D02*
X75819047Y-114542380D01*
X76104761Y-114542380D02*
X76104761Y-113542380D01*
X76009523Y-113685238D01*
X75914285Y-113780476D01*
X75819047Y-113828095D01*
X76723809Y-113542380D02*
X77390476Y-113542380D01*
X76961904Y-114542380D01*
X80470476Y-113542380D02*
X80470476Y-114256666D01*
X80422857Y-114399523D01*
X80327619Y-114494761D01*
X80184761Y-114542380D01*
X80089523Y-114542380D01*
X81470476Y-114542380D02*
X80899047Y-114542380D01*
X81184761Y-114542380D02*
X81184761Y-113542380D01*
X81089523Y-113685238D01*
X80994285Y-113780476D01*
X80899047Y-113828095D01*
X82041904Y-113970952D02*
X81946666Y-113923333D01*
X81899047Y-113875714D01*
X81851428Y-113780476D01*
X81851428Y-113732857D01*
X81899047Y-113637619D01*
X81946666Y-113590000D01*
X82041904Y-113542380D01*
X82232380Y-113542380D01*
X82327619Y-113590000D01*
X82375238Y-113637619D01*
X82422857Y-113732857D01*
X82422857Y-113780476D01*
X82375238Y-113875714D01*
X82327619Y-113923333D01*
X82232380Y-113970952D01*
X82041904Y-113970952D01*
X81946666Y-114018571D01*
X81899047Y-114066190D01*
X81851428Y-114161428D01*
X81851428Y-114351904D01*
X81899047Y-114447142D01*
X81946666Y-114494761D01*
X82041904Y-114542380D01*
X82232380Y-114542380D01*
X82327619Y-114494761D01*
X82375238Y-114447142D01*
X82422857Y-114351904D01*
X82422857Y-114161428D01*
X82375238Y-114066190D01*
X82327619Y-114018571D01*
X82232380Y-113970952D01*
X70310476Y-113542380D02*
X70310476Y-114256666D01*
X70262857Y-114399523D01*
X70167619Y-114494761D01*
X70024761Y-114542380D01*
X69929523Y-114542380D01*
X71310476Y-114542380D02*
X70739047Y-114542380D01*
X71024761Y-114542380D02*
X71024761Y-113542380D01*
X70929523Y-113685238D01*
X70834285Y-113780476D01*
X70739047Y-113828095D01*
X71786666Y-114542380D02*
X71977142Y-114542380D01*
X72072380Y-114494761D01*
X72120000Y-114447142D01*
X72215238Y-114304285D01*
X72262857Y-114113809D01*
X72262857Y-113732857D01*
X72215238Y-113637619D01*
X72167619Y-113590000D01*
X72072380Y-113542380D01*
X71881904Y-113542380D01*
X71786666Y-113590000D01*
X71739047Y-113637619D01*
X71691428Y-113732857D01*
X71691428Y-113970952D01*
X71739047Y-114066190D01*
X71786666Y-114113809D01*
X71881904Y-114161428D01*
X72072380Y-114161428D01*
X72167619Y-114113809D01*
X72215238Y-114066190D01*
X72262857Y-113970952D01*
X43894476Y-78868380D02*
X43894476Y-79582666D01*
X43846857Y-79725523D01*
X43751619Y-79820761D01*
X43608761Y-79868380D01*
X43513523Y-79868380D01*
X44323047Y-78963619D02*
X44370666Y-78916000D01*
X44465904Y-78868380D01*
X44704000Y-78868380D01*
X44799238Y-78916000D01*
X44846857Y-78963619D01*
X44894476Y-79058857D01*
X44894476Y-79154095D01*
X44846857Y-79296952D01*
X44275428Y-79868380D01*
X44894476Y-79868380D01*
X45513523Y-78868380D02*
X45608761Y-78868380D01*
X45704000Y-78916000D01*
X45751619Y-78963619D01*
X45799238Y-79058857D01*
X45846857Y-79249333D01*
X45846857Y-79487428D01*
X45799238Y-79677904D01*
X45751619Y-79773142D01*
X45704000Y-79820761D01*
X45608761Y-79868380D01*
X45513523Y-79868380D01*
X45418285Y-79820761D01*
X45370666Y-79773142D01*
X45323047Y-79677904D01*
X45275428Y-79487428D01*
X45275428Y-79249333D01*
X45323047Y-79058857D01*
X45370666Y-78963619D01*
X45418285Y-78916000D01*
X45513523Y-78868380D01*
X48974476Y-78868380D02*
X48974476Y-79582666D01*
X48926857Y-79725523D01*
X48831619Y-79820761D01*
X48688761Y-79868380D01*
X48593523Y-79868380D01*
X49403047Y-78963619D02*
X49450666Y-78916000D01*
X49545904Y-78868380D01*
X49784000Y-78868380D01*
X49879238Y-78916000D01*
X49926857Y-78963619D01*
X49974476Y-79058857D01*
X49974476Y-79154095D01*
X49926857Y-79296952D01*
X49355428Y-79868380D01*
X49974476Y-79868380D01*
X50926857Y-79868380D02*
X50355428Y-79868380D01*
X50641142Y-79868380D02*
X50641142Y-78868380D01*
X50545904Y-79011238D01*
X50450666Y-79106476D01*
X50355428Y-79154095D01*
X85641180Y-73572666D02*
X85641180Y-74048857D01*
X84641180Y-74048857D01*
X84736419Y-73286952D02*
X84688800Y-73239333D01*
X84641180Y-73144095D01*
X84641180Y-72906000D01*
X84688800Y-72810761D01*
X84736419Y-72763142D01*
X84831657Y-72715523D01*
X84926895Y-72715523D01*
X85069752Y-72763142D01*
X85641180Y-73334571D01*
X85641180Y-72715523D01*
X112364761Y-38657619D02*
X112269523Y-38610000D01*
X112174285Y-38514761D01*
X112031428Y-38371904D01*
X111936190Y-38324285D01*
X111840952Y-38324285D01*
X111888571Y-38562380D02*
X111793333Y-38514761D01*
X111698095Y-38419523D01*
X111650476Y-38229047D01*
X111650476Y-37895714D01*
X111698095Y-37705238D01*
X111793333Y-37610000D01*
X111888571Y-37562380D01*
X112079047Y-37562380D01*
X112174285Y-37610000D01*
X112269523Y-37705238D01*
X112317142Y-37895714D01*
X112317142Y-38229047D01*
X112269523Y-38419523D01*
X112174285Y-38514761D01*
X112079047Y-38562380D01*
X111888571Y-38562380D01*
X113269523Y-38562380D02*
X112698095Y-38562380D01*
X112983809Y-38562380D02*
X112983809Y-37562380D01*
X112888571Y-37705238D01*
X112793333Y-37800476D01*
X112698095Y-37848095D01*
X65944761Y-52069619D02*
X65849523Y-52022000D01*
X65754285Y-51926761D01*
X65611428Y-51783904D01*
X65516190Y-51736285D01*
X65420952Y-51736285D01*
X65468571Y-51974380D02*
X65373333Y-51926761D01*
X65278095Y-51831523D01*
X65230476Y-51641047D01*
X65230476Y-51307714D01*
X65278095Y-51117238D01*
X65373333Y-51022000D01*
X65468571Y-50974380D01*
X65659047Y-50974380D01*
X65754285Y-51022000D01*
X65849523Y-51117238D01*
X65897142Y-51307714D01*
X65897142Y-51641047D01*
X65849523Y-51831523D01*
X65754285Y-51926761D01*
X65659047Y-51974380D01*
X65468571Y-51974380D01*
X66278095Y-51069619D02*
X66325714Y-51022000D01*
X66420952Y-50974380D01*
X66659047Y-50974380D01*
X66754285Y-51022000D01*
X66801904Y-51069619D01*
X66849523Y-51164857D01*
X66849523Y-51260095D01*
X66801904Y-51402952D01*
X66230476Y-51974380D01*
X66849523Y-51974380D01*
X65944761Y-56387619D02*
X65849523Y-56340000D01*
X65754285Y-56244761D01*
X65611428Y-56101904D01*
X65516190Y-56054285D01*
X65420952Y-56054285D01*
X65468571Y-56292380D02*
X65373333Y-56244761D01*
X65278095Y-56149523D01*
X65230476Y-55959047D01*
X65230476Y-55625714D01*
X65278095Y-55435238D01*
X65373333Y-55340000D01*
X65468571Y-55292380D01*
X65659047Y-55292380D01*
X65754285Y-55340000D01*
X65849523Y-55435238D01*
X65897142Y-55625714D01*
X65897142Y-55959047D01*
X65849523Y-56149523D01*
X65754285Y-56244761D01*
X65659047Y-56292380D01*
X65468571Y-56292380D01*
X66230476Y-55292380D02*
X66849523Y-55292380D01*
X66516190Y-55673333D01*
X66659047Y-55673333D01*
X66754285Y-55720952D01*
X66801904Y-55768571D01*
X66849523Y-55863809D01*
X66849523Y-56101904D01*
X66801904Y-56197142D01*
X66754285Y-56244761D01*
X66659047Y-56292380D01*
X66373333Y-56292380D01*
X66278095Y-56244761D01*
X66230476Y-56197142D01*
X86442561Y-100964619D02*
X86347323Y-100917000D01*
X86252085Y-100821761D01*
X86109228Y-100678904D01*
X86013990Y-100631285D01*
X85918752Y-100631285D01*
X85966371Y-100869380D02*
X85871133Y-100821761D01*
X85775895Y-100726523D01*
X85728276Y-100536047D01*
X85728276Y-100202714D01*
X85775895Y-100012238D01*
X85871133Y-99917000D01*
X85966371Y-99869380D01*
X86156847Y-99869380D01*
X86252085Y-99917000D01*
X86347323Y-100012238D01*
X86394942Y-100202714D01*
X86394942Y-100536047D01*
X86347323Y-100726523D01*
X86252085Y-100821761D01*
X86156847Y-100869380D01*
X85966371Y-100869380D01*
X87252085Y-100202714D02*
X87252085Y-100869380D01*
X87013990Y-99821761D02*
X86775895Y-100536047D01*
X87394942Y-100536047D01*
X86137761Y-95173419D02*
X86042523Y-95125800D01*
X85947285Y-95030561D01*
X85804428Y-94887704D01*
X85709190Y-94840085D01*
X85613952Y-94840085D01*
X85661571Y-95078180D02*
X85566333Y-95030561D01*
X85471095Y-94935323D01*
X85423476Y-94744847D01*
X85423476Y-94411514D01*
X85471095Y-94221038D01*
X85566333Y-94125800D01*
X85661571Y-94078180D01*
X85852047Y-94078180D01*
X85947285Y-94125800D01*
X86042523Y-94221038D01*
X86090142Y-94411514D01*
X86090142Y-94744847D01*
X86042523Y-94935323D01*
X85947285Y-95030561D01*
X85852047Y-95078180D01*
X85661571Y-95078180D01*
X86994904Y-94078180D02*
X86518714Y-94078180D01*
X86471095Y-94554371D01*
X86518714Y-94506752D01*
X86613952Y-94459133D01*
X86852047Y-94459133D01*
X86947285Y-94506752D01*
X86994904Y-94554371D01*
X87042523Y-94649609D01*
X87042523Y-94887704D01*
X86994904Y-94982942D01*
X86947285Y-95030561D01*
X86852047Y-95078180D01*
X86613952Y-95078180D01*
X86518714Y-95030561D01*
X86471095Y-94982942D01*
X107452619Y-76295238D02*
X107405000Y-76390476D01*
X107309761Y-76485714D01*
X107166904Y-76628571D01*
X107119285Y-76723809D01*
X107119285Y-76819047D01*
X107357380Y-76771428D02*
X107309761Y-76866666D01*
X107214523Y-76961904D01*
X107024047Y-77009523D01*
X106690714Y-77009523D01*
X106500238Y-76961904D01*
X106405000Y-76866666D01*
X106357380Y-76771428D01*
X106357380Y-76580952D01*
X106405000Y-76485714D01*
X106500238Y-76390476D01*
X106690714Y-76342857D01*
X107024047Y-76342857D01*
X107214523Y-76390476D01*
X107309761Y-76485714D01*
X107357380Y-76580952D01*
X107357380Y-76771428D01*
X106357380Y-75485714D02*
X106357380Y-75676190D01*
X106405000Y-75771428D01*
X106452619Y-75819047D01*
X106595476Y-75914285D01*
X106785952Y-75961904D01*
X107166904Y-75961904D01*
X107262142Y-75914285D01*
X107309761Y-75866666D01*
X107357380Y-75771428D01*
X107357380Y-75580952D01*
X107309761Y-75485714D01*
X107262142Y-75438095D01*
X107166904Y-75390476D01*
X106928809Y-75390476D01*
X106833571Y-75438095D01*
X106785952Y-75485714D01*
X106738333Y-75580952D01*
X106738333Y-75771428D01*
X106785952Y-75866666D01*
X106833571Y-75914285D01*
X106928809Y-75961904D01*
X77285861Y-47013739D02*
X77190623Y-46966120D01*
X77095385Y-46870881D01*
X76952528Y-46728024D01*
X76857290Y-46680405D01*
X76762052Y-46680405D01*
X76809671Y-46918500D02*
X76714433Y-46870881D01*
X76619195Y-46775643D01*
X76571576Y-46585167D01*
X76571576Y-46251834D01*
X76619195Y-46061358D01*
X76714433Y-45966120D01*
X76809671Y-45918500D01*
X77000147Y-45918500D01*
X77095385Y-45966120D01*
X77190623Y-46061358D01*
X77238242Y-46251834D01*
X77238242Y-46585167D01*
X77190623Y-46775643D01*
X77095385Y-46870881D01*
X77000147Y-46918500D01*
X76809671Y-46918500D01*
X77571576Y-45918500D02*
X78238242Y-45918500D01*
X77809671Y-46918500D01*
X81990462Y-47040940D02*
X81895224Y-46993321D01*
X81799986Y-46898082D01*
X81657129Y-46755225D01*
X81561891Y-46707606D01*
X81466653Y-46707606D01*
X81514272Y-46945701D02*
X81419034Y-46898082D01*
X81323796Y-46802844D01*
X81276177Y-46612368D01*
X81276177Y-46279035D01*
X81323796Y-46088559D01*
X81419034Y-45993321D01*
X81514272Y-45945701D01*
X81704748Y-45945701D01*
X81799986Y-45993321D01*
X81895224Y-46088559D01*
X81942843Y-46279035D01*
X81942843Y-46612368D01*
X81895224Y-46802844D01*
X81799986Y-46898082D01*
X81704748Y-46945701D01*
X81514272Y-46945701D01*
X82514272Y-46374273D02*
X82419034Y-46326654D01*
X82371415Y-46279035D01*
X82323796Y-46183797D01*
X82323796Y-46136178D01*
X82371415Y-46040940D01*
X82419034Y-45993321D01*
X82514272Y-45945701D01*
X82704748Y-45945701D01*
X82799986Y-45993321D01*
X82847605Y-46040940D01*
X82895224Y-46136178D01*
X82895224Y-46183797D01*
X82847605Y-46279035D01*
X82799986Y-46326654D01*
X82704748Y-46374273D01*
X82514272Y-46374273D01*
X82419034Y-46421892D01*
X82371415Y-46469511D01*
X82323796Y-46564749D01*
X82323796Y-46755225D01*
X82371415Y-46850463D01*
X82419034Y-46898082D01*
X82514272Y-46945701D01*
X82704748Y-46945701D01*
X82799986Y-46898082D01*
X82847605Y-46850463D01*
X82895224Y-46755225D01*
X82895224Y-46564749D01*
X82847605Y-46469511D01*
X82799986Y-46421892D01*
X82704748Y-46374273D01*
X61438961Y-108512019D02*
X61343723Y-108464400D01*
X61248485Y-108369161D01*
X61105628Y-108226304D01*
X61010390Y-108178685D01*
X60915152Y-108178685D01*
X60962771Y-108416780D02*
X60867533Y-108369161D01*
X60772295Y-108273923D01*
X60724676Y-108083447D01*
X60724676Y-107750114D01*
X60772295Y-107559638D01*
X60867533Y-107464400D01*
X60962771Y-107416780D01*
X61153247Y-107416780D01*
X61248485Y-107464400D01*
X61343723Y-107559638D01*
X61391342Y-107750114D01*
X61391342Y-108083447D01*
X61343723Y-108273923D01*
X61248485Y-108369161D01*
X61153247Y-108416780D01*
X60962771Y-108416780D01*
X61867533Y-108416780D02*
X62058009Y-108416780D01*
X62153247Y-108369161D01*
X62200866Y-108321542D01*
X62296104Y-108178685D01*
X62343723Y-107988209D01*
X62343723Y-107607257D01*
X62296104Y-107512019D01*
X62248485Y-107464400D01*
X62153247Y-107416780D01*
X61962771Y-107416780D01*
X61867533Y-107464400D01*
X61819914Y-107512019D01*
X61772295Y-107607257D01*
X61772295Y-107845352D01*
X61819914Y-107940590D01*
X61867533Y-107988209D01*
X61962771Y-108035828D01*
X62153247Y-108035828D01*
X62248485Y-107988209D01*
X62296104Y-107940590D01*
X62343723Y-107845352D01*
X56762771Y-108462019D02*
X56667533Y-108414400D01*
X56572295Y-108319161D01*
X56429438Y-108176304D01*
X56334200Y-108128685D01*
X56238961Y-108128685D01*
X56286580Y-108366780D02*
X56191342Y-108319161D01*
X56096104Y-108223923D01*
X56048485Y-108033447D01*
X56048485Y-107700114D01*
X56096104Y-107509638D01*
X56191342Y-107414400D01*
X56286580Y-107366780D01*
X56477057Y-107366780D01*
X56572295Y-107414400D01*
X56667533Y-107509638D01*
X56715152Y-107700114D01*
X56715152Y-108033447D01*
X56667533Y-108223923D01*
X56572295Y-108319161D01*
X56477057Y-108366780D01*
X56286580Y-108366780D01*
X57667533Y-108366780D02*
X57096104Y-108366780D01*
X57381819Y-108366780D02*
X57381819Y-107366780D01*
X57286580Y-107509638D01*
X57191342Y-107604876D01*
X57096104Y-107652495D01*
X58286580Y-107366780D02*
X58381819Y-107366780D01*
X58477057Y-107414400D01*
X58524676Y-107462019D01*
X58572295Y-107557257D01*
X58619914Y-107747733D01*
X58619914Y-107985828D01*
X58572295Y-108176304D01*
X58524676Y-108271542D01*
X58477057Y-108319161D01*
X58381819Y-108366780D01*
X58286580Y-108366780D01*
X58191342Y-108319161D01*
X58143723Y-108271542D01*
X58096104Y-108176304D01*
X58048485Y-107985828D01*
X58048485Y-107747733D01*
X58096104Y-107557257D01*
X58143723Y-107462019D01*
X58191342Y-107414400D01*
X58286580Y-107366780D01*
X50485771Y-110516619D02*
X50390533Y-110469000D01*
X50295295Y-110373761D01*
X50152438Y-110230904D01*
X50057200Y-110183285D01*
X49961961Y-110183285D01*
X50009580Y-110421380D02*
X49914342Y-110373761D01*
X49819104Y-110278523D01*
X49771485Y-110088047D01*
X49771485Y-109754714D01*
X49819104Y-109564238D01*
X49914342Y-109469000D01*
X50009580Y-109421380D01*
X50200057Y-109421380D01*
X50295295Y-109469000D01*
X50390533Y-109564238D01*
X50438152Y-109754714D01*
X50438152Y-110088047D01*
X50390533Y-110278523D01*
X50295295Y-110373761D01*
X50200057Y-110421380D01*
X50009580Y-110421380D01*
X51390533Y-110421380D02*
X50819104Y-110421380D01*
X51104819Y-110421380D02*
X51104819Y-109421380D01*
X51009580Y-109564238D01*
X50914342Y-109659476D01*
X50819104Y-109707095D01*
X52342914Y-110421380D02*
X51771485Y-110421380D01*
X52057200Y-110421380D02*
X52057200Y-109421380D01*
X51961961Y-109564238D01*
X51866723Y-109659476D01*
X51771485Y-109707095D01*
X60624571Y-86294619D02*
X60529333Y-86247000D01*
X60434095Y-86151761D01*
X60291238Y-86008904D01*
X60196000Y-85961285D01*
X60100761Y-85961285D01*
X60148380Y-86199380D02*
X60053142Y-86151761D01*
X59957904Y-86056523D01*
X59910285Y-85866047D01*
X59910285Y-85532714D01*
X59957904Y-85342238D01*
X60053142Y-85247000D01*
X60148380Y-85199380D01*
X60338857Y-85199380D01*
X60434095Y-85247000D01*
X60529333Y-85342238D01*
X60576952Y-85532714D01*
X60576952Y-85866047D01*
X60529333Y-86056523D01*
X60434095Y-86151761D01*
X60338857Y-86199380D01*
X60148380Y-86199380D01*
X61529333Y-86199380D02*
X60957904Y-86199380D01*
X61243619Y-86199380D02*
X61243619Y-85199380D01*
X61148380Y-85342238D01*
X61053142Y-85437476D01*
X60957904Y-85485095D01*
X61910285Y-85294619D02*
X61957904Y-85247000D01*
X62053142Y-85199380D01*
X62291238Y-85199380D01*
X62386476Y-85247000D01*
X62434095Y-85294619D01*
X62481714Y-85389857D01*
X62481714Y-85485095D01*
X62434095Y-85627952D01*
X61862666Y-86199380D01*
X62481714Y-86199380D01*
X60582571Y-93275219D02*
X60487333Y-93227600D01*
X60392095Y-93132361D01*
X60249238Y-92989504D01*
X60154000Y-92941885D01*
X60058761Y-92941885D01*
X60106380Y-93179980D02*
X60011142Y-93132361D01*
X59915904Y-93037123D01*
X59868285Y-92846647D01*
X59868285Y-92513314D01*
X59915904Y-92322838D01*
X60011142Y-92227600D01*
X60106380Y-92179980D01*
X60296857Y-92179980D01*
X60392095Y-92227600D01*
X60487333Y-92322838D01*
X60534952Y-92513314D01*
X60534952Y-92846647D01*
X60487333Y-93037123D01*
X60392095Y-93132361D01*
X60296857Y-93179980D01*
X60106380Y-93179980D01*
X61487333Y-93179980D02*
X60915904Y-93179980D01*
X61201619Y-93179980D02*
X61201619Y-92179980D01*
X61106380Y-92322838D01*
X61011142Y-92418076D01*
X60915904Y-92465695D01*
X61820666Y-92179980D02*
X62439714Y-92179980D01*
X62106380Y-92560933D01*
X62249238Y-92560933D01*
X62344476Y-92608552D01*
X62392095Y-92656171D01*
X62439714Y-92751409D01*
X62439714Y-92989504D01*
X62392095Y-93084742D01*
X62344476Y-93132361D01*
X62249238Y-93179980D01*
X61963523Y-93179980D01*
X61868285Y-93132361D01*
X61820666Y-93084742D01*
X60734171Y-101279819D02*
X60638933Y-101232200D01*
X60543695Y-101136961D01*
X60400838Y-100994104D01*
X60305600Y-100946485D01*
X60210361Y-100946485D01*
X60257980Y-101184580D02*
X60162742Y-101136961D01*
X60067504Y-101041723D01*
X60019885Y-100851247D01*
X60019885Y-100517914D01*
X60067504Y-100327438D01*
X60162742Y-100232200D01*
X60257980Y-100184580D01*
X60448457Y-100184580D01*
X60543695Y-100232200D01*
X60638933Y-100327438D01*
X60686552Y-100517914D01*
X60686552Y-100851247D01*
X60638933Y-101041723D01*
X60543695Y-101136961D01*
X60448457Y-101184580D01*
X60257980Y-101184580D01*
X61638933Y-101184580D02*
X61067504Y-101184580D01*
X61353219Y-101184580D02*
X61353219Y-100184580D01*
X61257980Y-100327438D01*
X61162742Y-100422676D01*
X61067504Y-100470295D01*
X62496076Y-100517914D02*
X62496076Y-101184580D01*
X62257980Y-100136961D02*
X62019885Y-100851247D01*
X62638933Y-100851247D01*
X56724571Y-86194619D02*
X56629333Y-86147000D01*
X56534095Y-86051761D01*
X56391238Y-85908904D01*
X56296000Y-85861285D01*
X56200761Y-85861285D01*
X56248380Y-86099380D02*
X56153142Y-86051761D01*
X56057904Y-85956523D01*
X56010285Y-85766047D01*
X56010285Y-85432714D01*
X56057904Y-85242238D01*
X56153142Y-85147000D01*
X56248380Y-85099380D01*
X56438857Y-85099380D01*
X56534095Y-85147000D01*
X56629333Y-85242238D01*
X56676952Y-85432714D01*
X56676952Y-85766047D01*
X56629333Y-85956523D01*
X56534095Y-86051761D01*
X56438857Y-86099380D01*
X56248380Y-86099380D01*
X57629333Y-86099380D02*
X57057904Y-86099380D01*
X57343619Y-86099380D02*
X57343619Y-85099380D01*
X57248380Y-85242238D01*
X57153142Y-85337476D01*
X57057904Y-85385095D01*
X58534095Y-85099380D02*
X58057904Y-85099380D01*
X58010285Y-85575571D01*
X58057904Y-85527952D01*
X58153142Y-85480333D01*
X58391238Y-85480333D01*
X58486476Y-85527952D01*
X58534095Y-85575571D01*
X58581714Y-85670809D01*
X58581714Y-85908904D01*
X58534095Y-86004142D01*
X58486476Y-86051761D01*
X58391238Y-86099380D01*
X58153142Y-86099380D01*
X58057904Y-86051761D01*
X58010285Y-86004142D01*
X56632571Y-93325219D02*
X56537333Y-93277600D01*
X56442095Y-93182361D01*
X56299238Y-93039504D01*
X56204000Y-92991885D01*
X56108761Y-92991885D01*
X56156380Y-93229980D02*
X56061142Y-93182361D01*
X55965904Y-93087123D01*
X55918285Y-92896647D01*
X55918285Y-92563314D01*
X55965904Y-92372838D01*
X56061142Y-92277600D01*
X56156380Y-92229980D01*
X56346857Y-92229980D01*
X56442095Y-92277600D01*
X56537333Y-92372838D01*
X56584952Y-92563314D01*
X56584952Y-92896647D01*
X56537333Y-93087123D01*
X56442095Y-93182361D01*
X56346857Y-93229980D01*
X56156380Y-93229980D01*
X57537333Y-93229980D02*
X56965904Y-93229980D01*
X57251619Y-93229980D02*
X57251619Y-92229980D01*
X57156380Y-92372838D01*
X57061142Y-92468076D01*
X56965904Y-92515695D01*
X58394476Y-92229980D02*
X58204000Y-92229980D01*
X58108761Y-92277600D01*
X58061142Y-92325219D01*
X57965904Y-92468076D01*
X57918285Y-92658552D01*
X57918285Y-93039504D01*
X57965904Y-93134742D01*
X58013523Y-93182361D01*
X58108761Y-93229980D01*
X58299238Y-93229980D01*
X58394476Y-93182361D01*
X58442095Y-93134742D01*
X58489714Y-93039504D01*
X58489714Y-92801409D01*
X58442095Y-92706171D01*
X58394476Y-92658552D01*
X58299238Y-92610933D01*
X58108761Y-92610933D01*
X58013523Y-92658552D01*
X57965904Y-92706171D01*
X57918285Y-92801409D01*
X56584171Y-101229819D02*
X56488933Y-101182200D01*
X56393695Y-101086961D01*
X56250838Y-100944104D01*
X56155600Y-100896485D01*
X56060361Y-100896485D01*
X56107980Y-101134580D02*
X56012742Y-101086961D01*
X55917504Y-100991723D01*
X55869885Y-100801247D01*
X55869885Y-100467914D01*
X55917504Y-100277438D01*
X56012742Y-100182200D01*
X56107980Y-100134580D01*
X56298457Y-100134580D01*
X56393695Y-100182200D01*
X56488933Y-100277438D01*
X56536552Y-100467914D01*
X56536552Y-100801247D01*
X56488933Y-100991723D01*
X56393695Y-101086961D01*
X56298457Y-101134580D01*
X56107980Y-101134580D01*
X57488933Y-101134580D02*
X56917504Y-101134580D01*
X57203219Y-101134580D02*
X57203219Y-100134580D01*
X57107980Y-100277438D01*
X57012742Y-100372676D01*
X56917504Y-100420295D01*
X57822266Y-100134580D02*
X58488933Y-100134580D01*
X58060361Y-101134580D01*
X50574571Y-88044619D02*
X50479333Y-87997000D01*
X50384095Y-87901761D01*
X50241238Y-87758904D01*
X50146000Y-87711285D01*
X50050761Y-87711285D01*
X50098380Y-87949380D02*
X50003142Y-87901761D01*
X49907904Y-87806523D01*
X49860285Y-87616047D01*
X49860285Y-87282714D01*
X49907904Y-87092238D01*
X50003142Y-86997000D01*
X50098380Y-86949380D01*
X50288857Y-86949380D01*
X50384095Y-86997000D01*
X50479333Y-87092238D01*
X50526952Y-87282714D01*
X50526952Y-87616047D01*
X50479333Y-87806523D01*
X50384095Y-87901761D01*
X50288857Y-87949380D01*
X50098380Y-87949380D01*
X51479333Y-87949380D02*
X50907904Y-87949380D01*
X51193619Y-87949380D02*
X51193619Y-86949380D01*
X51098380Y-87092238D01*
X51003142Y-87187476D01*
X50907904Y-87235095D01*
X52050761Y-87377952D02*
X51955523Y-87330333D01*
X51907904Y-87282714D01*
X51860285Y-87187476D01*
X51860285Y-87139857D01*
X51907904Y-87044619D01*
X51955523Y-86997000D01*
X52050761Y-86949380D01*
X52241238Y-86949380D01*
X52336476Y-86997000D01*
X52384095Y-87044619D01*
X52431714Y-87139857D01*
X52431714Y-87187476D01*
X52384095Y-87282714D01*
X52336476Y-87330333D01*
X52241238Y-87377952D01*
X52050761Y-87377952D01*
X51955523Y-87425571D01*
X51907904Y-87473190D01*
X51860285Y-87568428D01*
X51860285Y-87758904D01*
X51907904Y-87854142D01*
X51955523Y-87901761D01*
X52050761Y-87949380D01*
X52241238Y-87949380D01*
X52336476Y-87901761D01*
X52384095Y-87854142D01*
X52431714Y-87758904D01*
X52431714Y-87568428D01*
X52384095Y-87473190D01*
X52336476Y-87425571D01*
X52241238Y-87377952D01*
X50532571Y-95175219D02*
X50437333Y-95127600D01*
X50342095Y-95032361D01*
X50199238Y-94889504D01*
X50104000Y-94841885D01*
X50008761Y-94841885D01*
X50056380Y-95079980D02*
X49961142Y-95032361D01*
X49865904Y-94937123D01*
X49818285Y-94746647D01*
X49818285Y-94413314D01*
X49865904Y-94222838D01*
X49961142Y-94127600D01*
X50056380Y-94079980D01*
X50246857Y-94079980D01*
X50342095Y-94127600D01*
X50437333Y-94222838D01*
X50484952Y-94413314D01*
X50484952Y-94746647D01*
X50437333Y-94937123D01*
X50342095Y-95032361D01*
X50246857Y-95079980D01*
X50056380Y-95079980D01*
X51437333Y-95079980D02*
X50865904Y-95079980D01*
X51151619Y-95079980D02*
X51151619Y-94079980D01*
X51056380Y-94222838D01*
X50961142Y-94318076D01*
X50865904Y-94365695D01*
X51913523Y-95079980D02*
X52104000Y-95079980D01*
X52199238Y-95032361D01*
X52246857Y-94984742D01*
X52342095Y-94841885D01*
X52389714Y-94651409D01*
X52389714Y-94270457D01*
X52342095Y-94175219D01*
X52294476Y-94127600D01*
X52199238Y-94079980D01*
X52008761Y-94079980D01*
X51913523Y-94127600D01*
X51865904Y-94175219D01*
X51818285Y-94270457D01*
X51818285Y-94508552D01*
X51865904Y-94603790D01*
X51913523Y-94651409D01*
X52008761Y-94699028D01*
X52199238Y-94699028D01*
X52294476Y-94651409D01*
X52342095Y-94603790D01*
X52389714Y-94508552D01*
X50484171Y-103129819D02*
X50388933Y-103082200D01*
X50293695Y-102986961D01*
X50150838Y-102844104D01*
X50055600Y-102796485D01*
X49960361Y-102796485D01*
X50007980Y-103034580D02*
X49912742Y-102986961D01*
X49817504Y-102891723D01*
X49769885Y-102701247D01*
X49769885Y-102367914D01*
X49817504Y-102177438D01*
X49912742Y-102082200D01*
X50007980Y-102034580D01*
X50198457Y-102034580D01*
X50293695Y-102082200D01*
X50388933Y-102177438D01*
X50436552Y-102367914D01*
X50436552Y-102701247D01*
X50388933Y-102891723D01*
X50293695Y-102986961D01*
X50198457Y-103034580D01*
X50007980Y-103034580D01*
X50817504Y-102129819D02*
X50865123Y-102082200D01*
X50960361Y-102034580D01*
X51198457Y-102034580D01*
X51293695Y-102082200D01*
X51341314Y-102129819D01*
X51388933Y-102225057D01*
X51388933Y-102320295D01*
X51341314Y-102463152D01*
X50769885Y-103034580D01*
X51388933Y-103034580D01*
X52007980Y-102034580D02*
X52103219Y-102034580D01*
X52198457Y-102082200D01*
X52246076Y-102129819D01*
X52293695Y-102225057D01*
X52341314Y-102415533D01*
X52341314Y-102653628D01*
X52293695Y-102844104D01*
X52246076Y-102939342D01*
X52198457Y-102986961D01*
X52103219Y-103034580D01*
X52007980Y-103034580D01*
X51912742Y-102986961D01*
X51865123Y-102939342D01*
X51817504Y-102844104D01*
X51769885Y-102653628D01*
X51769885Y-102415533D01*
X51817504Y-102225057D01*
X51865123Y-102129819D01*
X51912742Y-102082200D01*
X52007980Y-102034580D01*
X83976133Y-53316480D02*
X83642800Y-52840290D01*
X83404704Y-53316480D02*
X83404704Y-52316480D01*
X83785657Y-52316480D01*
X83880895Y-52364100D01*
X83928514Y-52411719D01*
X83976133Y-52506957D01*
X83976133Y-52649814D01*
X83928514Y-52745052D01*
X83880895Y-52792671D01*
X83785657Y-52840290D01*
X83404704Y-52840290D01*
X84928514Y-53316480D02*
X84357085Y-53316480D01*
X84642800Y-53316480D02*
X84642800Y-52316480D01*
X84547561Y-52459338D01*
X84452323Y-52554576D01*
X84357085Y-52602195D01*
X96637533Y-75571380D02*
X96304200Y-75095190D01*
X96066104Y-75571380D02*
X96066104Y-74571380D01*
X96447057Y-74571380D01*
X96542295Y-74619000D01*
X96589914Y-74666619D01*
X96637533Y-74761857D01*
X96637533Y-74904714D01*
X96589914Y-74999952D01*
X96542295Y-75047571D01*
X96447057Y-75095190D01*
X96066104Y-75095190D01*
X97113723Y-75571380D02*
X97304200Y-75571380D01*
X97399438Y-75523761D01*
X97447057Y-75476142D01*
X97542295Y-75333285D01*
X97589914Y-75142809D01*
X97589914Y-74761857D01*
X97542295Y-74666619D01*
X97494676Y-74619000D01*
X97399438Y-74571380D01*
X97208961Y-74571380D01*
X97113723Y-74619000D01*
X97066104Y-74666619D01*
X97018485Y-74761857D01*
X97018485Y-74999952D01*
X97066104Y-75095190D01*
X97113723Y-75142809D01*
X97208961Y-75190428D01*
X97399438Y-75190428D01*
X97494676Y-75142809D01*
X97542295Y-75095190D01*
X97589914Y-74999952D01*
X96757142Y-68622380D02*
X96423809Y-68146190D01*
X96185714Y-68622380D02*
X96185714Y-67622380D01*
X96566666Y-67622380D01*
X96661904Y-67670000D01*
X96709523Y-67717619D01*
X96757142Y-67812857D01*
X96757142Y-67955714D01*
X96709523Y-68050952D01*
X96661904Y-68098571D01*
X96566666Y-68146190D01*
X96185714Y-68146190D01*
X97709523Y-68622380D02*
X97138095Y-68622380D01*
X97423809Y-68622380D02*
X97423809Y-67622380D01*
X97328571Y-67765238D01*
X97233333Y-67860476D01*
X97138095Y-67908095D01*
X98328571Y-67622380D02*
X98423809Y-67622380D01*
X98519047Y-67670000D01*
X98566666Y-67717619D01*
X98614285Y-67812857D01*
X98661904Y-68003333D01*
X98661904Y-68241428D01*
X98614285Y-68431904D01*
X98566666Y-68527142D01*
X98519047Y-68574761D01*
X98423809Y-68622380D01*
X98328571Y-68622380D01*
X98233333Y-68574761D01*
X98185714Y-68527142D01*
X98138095Y-68431904D01*
X98090476Y-68241428D01*
X98090476Y-68003333D01*
X98138095Y-67812857D01*
X98185714Y-67717619D01*
X98233333Y-67670000D01*
X98328571Y-67622380D01*
X97682380Y-72642857D02*
X97206190Y-72976190D01*
X97682380Y-73214285D02*
X96682380Y-73214285D01*
X96682380Y-72833333D01*
X96730000Y-72738095D01*
X96777619Y-72690476D01*
X96872857Y-72642857D01*
X97015714Y-72642857D01*
X97110952Y-72690476D01*
X97158571Y-72738095D01*
X97206190Y-72833333D01*
X97206190Y-73214285D01*
X97682380Y-71690476D02*
X97682380Y-72261904D01*
X97682380Y-71976190D02*
X96682380Y-71976190D01*
X96825238Y-72071428D01*
X96920476Y-72166666D01*
X96968095Y-72261904D01*
X97682380Y-70738095D02*
X97682380Y-71309523D01*
X97682380Y-71023809D02*
X96682380Y-71023809D01*
X96825238Y-71119047D01*
X96920476Y-71214285D01*
X96968095Y-71309523D01*
X94482380Y-46142857D02*
X94006190Y-46476190D01*
X94482380Y-46714285D02*
X93482380Y-46714285D01*
X93482380Y-46333333D01*
X93530000Y-46238095D01*
X93577619Y-46190476D01*
X93672857Y-46142857D01*
X93815714Y-46142857D01*
X93910952Y-46190476D01*
X93958571Y-46238095D01*
X94006190Y-46333333D01*
X94006190Y-46714285D01*
X94482380Y-45190476D02*
X94482380Y-45761904D01*
X94482380Y-45476190D02*
X93482380Y-45476190D01*
X93625238Y-45571428D01*
X93720476Y-45666666D01*
X93768095Y-45761904D01*
X93482380Y-44285714D02*
X93482380Y-44761904D01*
X93958571Y-44809523D01*
X93910952Y-44761904D01*
X93863333Y-44666666D01*
X93863333Y-44428571D01*
X93910952Y-44333333D01*
X93958571Y-44285714D01*
X94053809Y-44238095D01*
X94291904Y-44238095D01*
X94387142Y-44285714D01*
X94434761Y-44333333D01*
X94482380Y-44428571D01*
X94482380Y-44666666D01*
X94434761Y-44761904D01*
X94387142Y-44809523D01*
X62757142Y-48722380D02*
X62423809Y-48246190D01*
X62185714Y-48722380D02*
X62185714Y-47722380D01*
X62566666Y-47722380D01*
X62661904Y-47770000D01*
X62709523Y-47817619D01*
X62757142Y-47912857D01*
X62757142Y-48055714D01*
X62709523Y-48150952D01*
X62661904Y-48198571D01*
X62566666Y-48246190D01*
X62185714Y-48246190D01*
X63709523Y-48722380D02*
X63138095Y-48722380D01*
X63423809Y-48722380D02*
X63423809Y-47722380D01*
X63328571Y-47865238D01*
X63233333Y-47960476D01*
X63138095Y-48008095D01*
X64566666Y-47722380D02*
X64376190Y-47722380D01*
X64280952Y-47770000D01*
X64233333Y-47817619D01*
X64138095Y-47960476D01*
X64090476Y-48150952D01*
X64090476Y-48531904D01*
X64138095Y-48627142D01*
X64185714Y-48674761D01*
X64280952Y-48722380D01*
X64471428Y-48722380D01*
X64566666Y-48674761D01*
X64614285Y-48627142D01*
X64661904Y-48531904D01*
X64661904Y-48293809D01*
X64614285Y-48198571D01*
X64566666Y-48150952D01*
X64471428Y-48103333D01*
X64280952Y-48103333D01*
X64185714Y-48150952D01*
X64138095Y-48198571D01*
X64090476Y-48293809D01*
X70456380Y-50426857D02*
X69980190Y-50760190D01*
X70456380Y-50998285D02*
X69456380Y-50998285D01*
X69456380Y-50617333D01*
X69504000Y-50522095D01*
X69551619Y-50474476D01*
X69646857Y-50426857D01*
X69789714Y-50426857D01*
X69884952Y-50474476D01*
X69932571Y-50522095D01*
X69980190Y-50617333D01*
X69980190Y-50998285D01*
X70456380Y-49474476D02*
X70456380Y-50045904D01*
X70456380Y-49760190D02*
X69456380Y-49760190D01*
X69599238Y-49855428D01*
X69694476Y-49950666D01*
X69742095Y-50045904D01*
X69456380Y-49141142D02*
X69456380Y-48474476D01*
X70456380Y-48903047D01*
X68116380Y-54236857D02*
X67640190Y-54570190D01*
X68116380Y-54808285D02*
X67116380Y-54808285D01*
X67116380Y-54427333D01*
X67164000Y-54332095D01*
X67211619Y-54284476D01*
X67306857Y-54236857D01*
X67449714Y-54236857D01*
X67544952Y-54284476D01*
X67592571Y-54332095D01*
X67640190Y-54427333D01*
X67640190Y-54808285D01*
X68116380Y-53284476D02*
X68116380Y-53855904D01*
X68116380Y-53570190D02*
X67116380Y-53570190D01*
X67259238Y-53665428D01*
X67354476Y-53760666D01*
X67402095Y-53855904D01*
X67544952Y-52713047D02*
X67497333Y-52808285D01*
X67449714Y-52855904D01*
X67354476Y-52903523D01*
X67306857Y-52903523D01*
X67211619Y-52855904D01*
X67164000Y-52808285D01*
X67116380Y-52713047D01*
X67116380Y-52522571D01*
X67164000Y-52427333D01*
X67211619Y-52379714D01*
X67306857Y-52332095D01*
X67354476Y-52332095D01*
X67449714Y-52379714D01*
X67497333Y-52427333D01*
X67544952Y-52522571D01*
X67544952Y-52713047D01*
X67592571Y-52808285D01*
X67640190Y-52855904D01*
X67735428Y-52903523D01*
X67925904Y-52903523D01*
X68021142Y-52855904D01*
X68068761Y-52808285D01*
X68116380Y-52713047D01*
X68116380Y-52522571D01*
X68068761Y-52427333D01*
X68021142Y-52379714D01*
X67925904Y-52332095D01*
X67735428Y-52332095D01*
X67640190Y-52379714D01*
X67592571Y-52427333D01*
X67544952Y-52522571D01*
X47363142Y-56432380D02*
X47029809Y-55956190D01*
X46791714Y-56432380D02*
X46791714Y-55432380D01*
X47172666Y-55432380D01*
X47267904Y-55480000D01*
X47315523Y-55527619D01*
X47363142Y-55622857D01*
X47363142Y-55765714D01*
X47315523Y-55860952D01*
X47267904Y-55908571D01*
X47172666Y-55956190D01*
X46791714Y-55956190D01*
X48315523Y-56432380D02*
X47744095Y-56432380D01*
X48029809Y-56432380D02*
X48029809Y-55432380D01*
X47934571Y-55575238D01*
X47839333Y-55670476D01*
X47744095Y-55718095D01*
X48791714Y-56432380D02*
X48982190Y-56432380D01*
X49077428Y-56384761D01*
X49125047Y-56337142D01*
X49220285Y-56194285D01*
X49267904Y-56003809D01*
X49267904Y-55622857D01*
X49220285Y-55527619D01*
X49172666Y-55480000D01*
X49077428Y-55432380D01*
X48886952Y-55432380D01*
X48791714Y-55480000D01*
X48744095Y-55527619D01*
X48696476Y-55622857D01*
X48696476Y-55860952D01*
X48744095Y-55956190D01*
X48791714Y-56003809D01*
X48886952Y-56051428D01*
X49077428Y-56051428D01*
X49172666Y-56003809D01*
X49220285Y-55956190D01*
X49267904Y-55860952D01*
X64082380Y-56842857D02*
X63606190Y-57176190D01*
X64082380Y-57414285D02*
X63082380Y-57414285D01*
X63082380Y-57033333D01*
X63130000Y-56938095D01*
X63177619Y-56890476D01*
X63272857Y-56842857D01*
X63415714Y-56842857D01*
X63510952Y-56890476D01*
X63558571Y-56938095D01*
X63606190Y-57033333D01*
X63606190Y-57414285D01*
X63177619Y-56461904D02*
X63130000Y-56414285D01*
X63082380Y-56319047D01*
X63082380Y-56080952D01*
X63130000Y-55985714D01*
X63177619Y-55938095D01*
X63272857Y-55890476D01*
X63368095Y-55890476D01*
X63510952Y-55938095D01*
X64082380Y-56509523D01*
X64082380Y-55890476D01*
X63082380Y-55271428D02*
X63082380Y-55176190D01*
X63130000Y-55080952D01*
X63177619Y-55033333D01*
X63272857Y-54985714D01*
X63463333Y-54938095D01*
X63701428Y-54938095D01*
X63891904Y-54985714D01*
X63987142Y-55033333D01*
X64034761Y-55080952D01*
X64082380Y-55176190D01*
X64082380Y-55271428D01*
X64034761Y-55366666D01*
X63987142Y-55414285D01*
X63891904Y-55461904D01*
X63701428Y-55509523D01*
X63463333Y-55509523D01*
X63272857Y-55461904D01*
X63177619Y-55414285D01*
X63130000Y-55366666D01*
X63082380Y-55271428D01*
X89172980Y-99855257D02*
X88696790Y-100188590D01*
X89172980Y-100426685D02*
X88172980Y-100426685D01*
X88172980Y-100045733D01*
X88220600Y-99950495D01*
X88268219Y-99902876D01*
X88363457Y-99855257D01*
X88506314Y-99855257D01*
X88601552Y-99902876D01*
X88649171Y-99950495D01*
X88696790Y-100045733D01*
X88696790Y-100426685D01*
X88268219Y-99474304D02*
X88220600Y-99426685D01*
X88172980Y-99331447D01*
X88172980Y-99093352D01*
X88220600Y-98998114D01*
X88268219Y-98950495D01*
X88363457Y-98902876D01*
X88458695Y-98902876D01*
X88601552Y-98950495D01*
X89172980Y-99521923D01*
X89172980Y-98902876D01*
X89172980Y-97950495D02*
X89172980Y-98521923D01*
X89172980Y-98236209D02*
X88172980Y-98236209D01*
X88315838Y-98331447D01*
X88411076Y-98426685D01*
X88458695Y-98521923D01*
X88766580Y-93022657D02*
X88290390Y-93355990D01*
X88766580Y-93594085D02*
X87766580Y-93594085D01*
X87766580Y-93213133D01*
X87814200Y-93117895D01*
X87861819Y-93070276D01*
X87957057Y-93022657D01*
X88099914Y-93022657D01*
X88195152Y-93070276D01*
X88242771Y-93117895D01*
X88290390Y-93213133D01*
X88290390Y-93594085D01*
X87861819Y-92641704D02*
X87814200Y-92594085D01*
X87766580Y-92498847D01*
X87766580Y-92260752D01*
X87814200Y-92165514D01*
X87861819Y-92117895D01*
X87957057Y-92070276D01*
X88052295Y-92070276D01*
X88195152Y-92117895D01*
X88766580Y-92689323D01*
X88766580Y-92070276D01*
X87861819Y-91689323D02*
X87814200Y-91641704D01*
X87766580Y-91546466D01*
X87766580Y-91308371D01*
X87814200Y-91213133D01*
X87861819Y-91165514D01*
X87957057Y-91117895D01*
X88052295Y-91117895D01*
X88195152Y-91165514D01*
X88766580Y-91736942D01*
X88766580Y-91117895D01*
X82645180Y-99169457D02*
X82168990Y-99502790D01*
X82645180Y-99740885D02*
X81645180Y-99740885D01*
X81645180Y-99359933D01*
X81692800Y-99264695D01*
X81740419Y-99217076D01*
X81835657Y-99169457D01*
X81978514Y-99169457D01*
X82073752Y-99217076D01*
X82121371Y-99264695D01*
X82168990Y-99359933D01*
X82168990Y-99740885D01*
X81740419Y-98788504D02*
X81692800Y-98740885D01*
X81645180Y-98645647D01*
X81645180Y-98407552D01*
X81692800Y-98312314D01*
X81740419Y-98264695D01*
X81835657Y-98217076D01*
X81930895Y-98217076D01*
X82073752Y-98264695D01*
X82645180Y-98836123D01*
X82645180Y-98217076D01*
X81645180Y-97883742D02*
X81645180Y-97264695D01*
X82026133Y-97598028D01*
X82026133Y-97455171D01*
X82073752Y-97359933D01*
X82121371Y-97312314D01*
X82216609Y-97264695D01*
X82454704Y-97264695D01*
X82549942Y-97312314D01*
X82597561Y-97359933D01*
X82645180Y-97455171D01*
X82645180Y-97740885D01*
X82597561Y-97836123D01*
X82549942Y-97883742D01*
X82340380Y-93530657D02*
X81864190Y-93863990D01*
X82340380Y-94102085D02*
X81340380Y-94102085D01*
X81340380Y-93721133D01*
X81388000Y-93625895D01*
X81435619Y-93578276D01*
X81530857Y-93530657D01*
X81673714Y-93530657D01*
X81768952Y-93578276D01*
X81816571Y-93625895D01*
X81864190Y-93721133D01*
X81864190Y-94102085D01*
X81435619Y-93149704D02*
X81388000Y-93102085D01*
X81340380Y-93006847D01*
X81340380Y-92768752D01*
X81388000Y-92673514D01*
X81435619Y-92625895D01*
X81530857Y-92578276D01*
X81626095Y-92578276D01*
X81768952Y-92625895D01*
X82340380Y-93197323D01*
X82340380Y-92578276D01*
X81673714Y-91721133D02*
X82340380Y-91721133D01*
X81292761Y-91959228D02*
X82007047Y-92197323D01*
X82007047Y-91578276D01*
X109497142Y-90922380D02*
X109163809Y-90446190D01*
X108925714Y-90922380D02*
X108925714Y-89922380D01*
X109306666Y-89922380D01*
X109401904Y-89970000D01*
X109449523Y-90017619D01*
X109497142Y-90112857D01*
X109497142Y-90255714D01*
X109449523Y-90350952D01*
X109401904Y-90398571D01*
X109306666Y-90446190D01*
X108925714Y-90446190D01*
X109878095Y-90017619D02*
X109925714Y-89970000D01*
X110020952Y-89922380D01*
X110259047Y-89922380D01*
X110354285Y-89970000D01*
X110401904Y-90017619D01*
X110449523Y-90112857D01*
X110449523Y-90208095D01*
X110401904Y-90350952D01*
X109830476Y-90922380D01*
X110449523Y-90922380D01*
X111354285Y-89922380D02*
X110878095Y-89922380D01*
X110830476Y-90398571D01*
X110878095Y-90350952D01*
X110973333Y-90303333D01*
X111211428Y-90303333D01*
X111306666Y-90350952D01*
X111354285Y-90398571D01*
X111401904Y-90493809D01*
X111401904Y-90731904D01*
X111354285Y-90827142D01*
X111306666Y-90874761D01*
X111211428Y-90922380D01*
X110973333Y-90922380D01*
X110878095Y-90874761D01*
X110830476Y-90827142D01*
X101222380Y-72642857D02*
X100746190Y-72976190D01*
X101222380Y-73214285D02*
X100222380Y-73214285D01*
X100222380Y-72833333D01*
X100270000Y-72738095D01*
X100317619Y-72690476D01*
X100412857Y-72642857D01*
X100555714Y-72642857D01*
X100650952Y-72690476D01*
X100698571Y-72738095D01*
X100746190Y-72833333D01*
X100746190Y-73214285D01*
X100317619Y-72261904D02*
X100270000Y-72214285D01*
X100222380Y-72119047D01*
X100222380Y-71880952D01*
X100270000Y-71785714D01*
X100317619Y-71738095D01*
X100412857Y-71690476D01*
X100508095Y-71690476D01*
X100650952Y-71738095D01*
X101222380Y-72309523D01*
X101222380Y-71690476D01*
X100222380Y-70833333D02*
X100222380Y-71023809D01*
X100270000Y-71119047D01*
X100317619Y-71166666D01*
X100460476Y-71261904D01*
X100650952Y-71309523D01*
X101031904Y-71309523D01*
X101127142Y-71261904D01*
X101174761Y-71214285D01*
X101222380Y-71119047D01*
X101222380Y-70928571D01*
X101174761Y-70833333D01*
X101127142Y-70785714D01*
X101031904Y-70738095D01*
X100793809Y-70738095D01*
X100698571Y-70785714D01*
X100650952Y-70833333D01*
X100603333Y-70928571D01*
X100603333Y-71119047D01*
X100650952Y-71214285D01*
X100698571Y-71261904D01*
X100793809Y-71309523D01*
X101136380Y-71508857D02*
X100660190Y-71842190D01*
X101136380Y-72080285D02*
X100136380Y-72080285D01*
X100136380Y-71699333D01*
X100184000Y-71604095D01*
X100231619Y-71556476D01*
X100326857Y-71508857D01*
X100469714Y-71508857D01*
X100564952Y-71556476D01*
X100612571Y-71604095D01*
X100660190Y-71699333D01*
X100660190Y-72080285D01*
X100231619Y-71127904D02*
X100184000Y-71080285D01*
X100136380Y-70985047D01*
X100136380Y-70746952D01*
X100184000Y-70651714D01*
X100231619Y-70604095D01*
X100326857Y-70556476D01*
X100422095Y-70556476D01*
X100564952Y-70604095D01*
X101136380Y-71175523D01*
X101136380Y-70556476D01*
X100136380Y-70223142D02*
X100136380Y-69556476D01*
X101136380Y-69985047D01*
X75955480Y-50421777D02*
X75479290Y-50755110D01*
X75955480Y-50993205D02*
X74955480Y-50993205D01*
X74955480Y-50612253D01*
X75003100Y-50517015D01*
X75050719Y-50469396D01*
X75145957Y-50421777D01*
X75288814Y-50421777D01*
X75384052Y-50469396D01*
X75431671Y-50517015D01*
X75479290Y-50612253D01*
X75479290Y-50993205D01*
X75050719Y-50040824D02*
X75003100Y-49993205D01*
X74955480Y-49897967D01*
X74955480Y-49659872D01*
X75003100Y-49564634D01*
X75050719Y-49517015D01*
X75145957Y-49469396D01*
X75241195Y-49469396D01*
X75384052Y-49517015D01*
X75955480Y-50088443D01*
X75955480Y-49469396D01*
X75384052Y-48897967D02*
X75336433Y-48993205D01*
X75288814Y-49040824D01*
X75193576Y-49088443D01*
X75145957Y-49088443D01*
X75050719Y-49040824D01*
X75003100Y-48993205D01*
X74955480Y-48897967D01*
X74955480Y-48707491D01*
X75003100Y-48612253D01*
X75050719Y-48564634D01*
X75145957Y-48517015D01*
X75193576Y-48517015D01*
X75288814Y-48564634D01*
X75336433Y-48612253D01*
X75384052Y-48707491D01*
X75384052Y-48897967D01*
X75431671Y-48993205D01*
X75479290Y-49040824D01*
X75574528Y-49088443D01*
X75765004Y-49088443D01*
X75860242Y-49040824D01*
X75907861Y-48993205D01*
X75955480Y-48897967D01*
X75955480Y-48707491D01*
X75907861Y-48612253D01*
X75860242Y-48564634D01*
X75765004Y-48517015D01*
X75574528Y-48517015D01*
X75479290Y-48564634D01*
X75431671Y-48612253D01*
X75384052Y-48707491D01*
X75955480Y-48135777D02*
X75479290Y-48469110D01*
X75955480Y-48707205D02*
X74955480Y-48707205D01*
X74955480Y-48326253D01*
X75003100Y-48231015D01*
X75050719Y-48183396D01*
X75145957Y-48135777D01*
X75288814Y-48135777D01*
X75384052Y-48183396D01*
X75431671Y-48231015D01*
X75479290Y-48326253D01*
X75479290Y-48707205D01*
X75050719Y-47754824D02*
X75003100Y-47707205D01*
X74955480Y-47611967D01*
X74955480Y-47373872D01*
X75003100Y-47278634D01*
X75050719Y-47231015D01*
X75145957Y-47183396D01*
X75241195Y-47183396D01*
X75384052Y-47231015D01*
X75955480Y-47802443D01*
X75955480Y-47183396D01*
X75955480Y-46707205D02*
X75955480Y-46516729D01*
X75907861Y-46421491D01*
X75860242Y-46373872D01*
X75717385Y-46278634D01*
X75526909Y-46231015D01*
X75145957Y-46231015D01*
X75050719Y-46278634D01*
X75003100Y-46326253D01*
X74955480Y-46421491D01*
X74955480Y-46611967D01*
X75003100Y-46707205D01*
X75050719Y-46754824D01*
X75145957Y-46802443D01*
X75384052Y-46802443D01*
X75479290Y-46754824D01*
X75526909Y-46707205D01*
X75574528Y-46611967D01*
X75574528Y-46421491D01*
X75526909Y-46326253D01*
X75479290Y-46278634D01*
X75384052Y-46231015D01*
X61591342Y-107696780D02*
X61258009Y-107220590D01*
X61019914Y-107696780D02*
X61019914Y-106696780D01*
X61400866Y-106696780D01*
X61496104Y-106744400D01*
X61543723Y-106792019D01*
X61591342Y-106887257D01*
X61591342Y-107030114D01*
X61543723Y-107125352D01*
X61496104Y-107172971D01*
X61400866Y-107220590D01*
X61019914Y-107220590D01*
X61924676Y-106696780D02*
X62543723Y-106696780D01*
X62210390Y-107077733D01*
X62353247Y-107077733D01*
X62448485Y-107125352D01*
X62496104Y-107172971D01*
X62543723Y-107268209D01*
X62543723Y-107506304D01*
X62496104Y-107601542D01*
X62448485Y-107649161D01*
X62353247Y-107696780D01*
X62067533Y-107696780D01*
X61972295Y-107649161D01*
X61924676Y-107601542D01*
X63162771Y-106696780D02*
X63258009Y-106696780D01*
X63353247Y-106744400D01*
X63400866Y-106792019D01*
X63448485Y-106887257D01*
X63496104Y-107077733D01*
X63496104Y-107315828D01*
X63448485Y-107506304D01*
X63400866Y-107601542D01*
X63353247Y-107649161D01*
X63258009Y-107696780D01*
X63162771Y-107696780D01*
X63067533Y-107649161D01*
X63019914Y-107601542D01*
X62972295Y-107506304D01*
X62924676Y-107315828D01*
X62924676Y-107077733D01*
X62972295Y-106887257D01*
X63019914Y-106792019D01*
X63067533Y-106744400D01*
X63162771Y-106696780D01*
X58441342Y-110036780D02*
X58108009Y-109560590D01*
X57869914Y-110036780D02*
X57869914Y-109036780D01*
X58250866Y-109036780D01*
X58346104Y-109084400D01*
X58393723Y-109132019D01*
X58441342Y-109227257D01*
X58441342Y-109370114D01*
X58393723Y-109465352D01*
X58346104Y-109512971D01*
X58250866Y-109560590D01*
X57869914Y-109560590D01*
X58774676Y-109036780D02*
X59393723Y-109036780D01*
X59060390Y-109417733D01*
X59203247Y-109417733D01*
X59298485Y-109465352D01*
X59346104Y-109512971D01*
X59393723Y-109608209D01*
X59393723Y-109846304D01*
X59346104Y-109941542D01*
X59298485Y-109989161D01*
X59203247Y-110036780D01*
X58917533Y-110036780D01*
X58822295Y-109989161D01*
X58774676Y-109941542D01*
X60346104Y-110036780D02*
X59774676Y-110036780D01*
X60060390Y-110036780D02*
X60060390Y-109036780D01*
X59965152Y-109179638D01*
X59869914Y-109274876D01*
X59774676Y-109322495D01*
X56091342Y-107696780D02*
X55758009Y-107220590D01*
X55519914Y-107696780D02*
X55519914Y-106696780D01*
X55900866Y-106696780D01*
X55996104Y-106744400D01*
X56043723Y-106792019D01*
X56091342Y-106887257D01*
X56091342Y-107030114D01*
X56043723Y-107125352D01*
X55996104Y-107172971D01*
X55900866Y-107220590D01*
X55519914Y-107220590D01*
X56424676Y-106696780D02*
X57043723Y-106696780D01*
X56710390Y-107077733D01*
X56853247Y-107077733D01*
X56948485Y-107125352D01*
X56996104Y-107172971D01*
X57043723Y-107268209D01*
X57043723Y-107506304D01*
X56996104Y-107601542D01*
X56948485Y-107649161D01*
X56853247Y-107696780D01*
X56567533Y-107696780D01*
X56472295Y-107649161D01*
X56424676Y-107601542D01*
X57424676Y-106792019D02*
X57472295Y-106744400D01*
X57567533Y-106696780D01*
X57805628Y-106696780D01*
X57900866Y-106744400D01*
X57948485Y-106792019D01*
X57996104Y-106887257D01*
X57996104Y-106982495D01*
X57948485Y-107125352D01*
X57377057Y-107696780D01*
X57996104Y-107696780D01*
X61303142Y-85329380D02*
X60969809Y-84853190D01*
X60731714Y-85329380D02*
X60731714Y-84329380D01*
X61112666Y-84329380D01*
X61207904Y-84377000D01*
X61255523Y-84424619D01*
X61303142Y-84519857D01*
X61303142Y-84662714D01*
X61255523Y-84757952D01*
X61207904Y-84805571D01*
X61112666Y-84853190D01*
X60731714Y-84853190D01*
X61636476Y-84329380D02*
X62255523Y-84329380D01*
X61922190Y-84710333D01*
X62065047Y-84710333D01*
X62160285Y-84757952D01*
X62207904Y-84805571D01*
X62255523Y-84900809D01*
X62255523Y-85138904D01*
X62207904Y-85234142D01*
X62160285Y-85281761D01*
X62065047Y-85329380D01*
X61779333Y-85329380D01*
X61684095Y-85281761D01*
X61636476Y-85234142D01*
X62588857Y-84329380D02*
X63207904Y-84329380D01*
X62874571Y-84710333D01*
X63017428Y-84710333D01*
X63112666Y-84757952D01*
X63160285Y-84805571D01*
X63207904Y-84900809D01*
X63207904Y-85138904D01*
X63160285Y-85234142D01*
X63112666Y-85281761D01*
X63017428Y-85329380D01*
X62731714Y-85329380D01*
X62636476Y-85281761D01*
X62588857Y-85234142D01*
X61261142Y-92509980D02*
X60927809Y-92033790D01*
X60689714Y-92509980D02*
X60689714Y-91509980D01*
X61070666Y-91509980D01*
X61165904Y-91557600D01*
X61213523Y-91605219D01*
X61261142Y-91700457D01*
X61261142Y-91843314D01*
X61213523Y-91938552D01*
X61165904Y-91986171D01*
X61070666Y-92033790D01*
X60689714Y-92033790D01*
X61594476Y-91509980D02*
X62213523Y-91509980D01*
X61880190Y-91890933D01*
X62023047Y-91890933D01*
X62118285Y-91938552D01*
X62165904Y-91986171D01*
X62213523Y-92081409D01*
X62213523Y-92319504D01*
X62165904Y-92414742D01*
X62118285Y-92462361D01*
X62023047Y-92509980D01*
X61737333Y-92509980D01*
X61642095Y-92462361D01*
X61594476Y-92414742D01*
X63070666Y-91843314D02*
X63070666Y-92509980D01*
X62832571Y-91462361D02*
X62594476Y-92176647D01*
X63213523Y-92176647D01*
X61412742Y-100364580D02*
X61079409Y-99888390D01*
X60841314Y-100364580D02*
X60841314Y-99364580D01*
X61222266Y-99364580D01*
X61317504Y-99412200D01*
X61365123Y-99459819D01*
X61412742Y-99555057D01*
X61412742Y-99697914D01*
X61365123Y-99793152D01*
X61317504Y-99840771D01*
X61222266Y-99888390D01*
X60841314Y-99888390D01*
X61746076Y-99364580D02*
X62365123Y-99364580D01*
X62031790Y-99745533D01*
X62174647Y-99745533D01*
X62269885Y-99793152D01*
X62317504Y-99840771D01*
X62365123Y-99936009D01*
X62365123Y-100174104D01*
X62317504Y-100269342D01*
X62269885Y-100316961D01*
X62174647Y-100364580D01*
X61888933Y-100364580D01*
X61793695Y-100316961D01*
X61746076Y-100269342D01*
X63269885Y-99364580D02*
X62793695Y-99364580D01*
X62746076Y-99840771D01*
X62793695Y-99793152D01*
X62888933Y-99745533D01*
X63127028Y-99745533D01*
X63222266Y-99793152D01*
X63269885Y-99840771D01*
X63317504Y-99936009D01*
X63317504Y-100174104D01*
X63269885Y-100269342D01*
X63222266Y-100316961D01*
X63127028Y-100364580D01*
X62888933Y-100364580D01*
X62793695Y-100316961D01*
X62746076Y-100269342D01*
X58103142Y-87669380D02*
X57769809Y-87193190D01*
X57531714Y-87669380D02*
X57531714Y-86669380D01*
X57912666Y-86669380D01*
X58007904Y-86717000D01*
X58055523Y-86764619D01*
X58103142Y-86859857D01*
X58103142Y-87002714D01*
X58055523Y-87097952D01*
X58007904Y-87145571D01*
X57912666Y-87193190D01*
X57531714Y-87193190D01*
X58436476Y-86669380D02*
X59055523Y-86669380D01*
X58722190Y-87050333D01*
X58865047Y-87050333D01*
X58960285Y-87097952D01*
X59007904Y-87145571D01*
X59055523Y-87240809D01*
X59055523Y-87478904D01*
X59007904Y-87574142D01*
X58960285Y-87621761D01*
X58865047Y-87669380D01*
X58579333Y-87669380D01*
X58484095Y-87621761D01*
X58436476Y-87574142D01*
X59912666Y-86669380D02*
X59722190Y-86669380D01*
X59626952Y-86717000D01*
X59579333Y-86764619D01*
X59484095Y-86907476D01*
X59436476Y-87097952D01*
X59436476Y-87478904D01*
X59484095Y-87574142D01*
X59531714Y-87621761D01*
X59626952Y-87669380D01*
X59817428Y-87669380D01*
X59912666Y-87621761D01*
X59960285Y-87574142D01*
X60007904Y-87478904D01*
X60007904Y-87240809D01*
X59960285Y-87145571D01*
X59912666Y-87097952D01*
X59817428Y-87050333D01*
X59626952Y-87050333D01*
X59531714Y-87097952D01*
X59484095Y-87145571D01*
X59436476Y-87240809D01*
X58011142Y-94749980D02*
X57677809Y-94273790D01*
X57439714Y-94749980D02*
X57439714Y-93749980D01*
X57820666Y-93749980D01*
X57915904Y-93797600D01*
X57963523Y-93845219D01*
X58011142Y-93940457D01*
X58011142Y-94083314D01*
X57963523Y-94178552D01*
X57915904Y-94226171D01*
X57820666Y-94273790D01*
X57439714Y-94273790D01*
X58344476Y-93749980D02*
X58963523Y-93749980D01*
X58630190Y-94130933D01*
X58773047Y-94130933D01*
X58868285Y-94178552D01*
X58915904Y-94226171D01*
X58963523Y-94321409D01*
X58963523Y-94559504D01*
X58915904Y-94654742D01*
X58868285Y-94702361D01*
X58773047Y-94749980D01*
X58487333Y-94749980D01*
X58392095Y-94702361D01*
X58344476Y-94654742D01*
X59296857Y-93749980D02*
X59963523Y-93749980D01*
X59534952Y-94749980D01*
X58012742Y-102604580D02*
X57679409Y-102128390D01*
X57441314Y-102604580D02*
X57441314Y-101604580D01*
X57822266Y-101604580D01*
X57917504Y-101652200D01*
X57965123Y-101699819D01*
X58012742Y-101795057D01*
X58012742Y-101937914D01*
X57965123Y-102033152D01*
X57917504Y-102080771D01*
X57822266Y-102128390D01*
X57441314Y-102128390D01*
X58346076Y-101604580D02*
X58965123Y-101604580D01*
X58631790Y-101985533D01*
X58774647Y-101985533D01*
X58869885Y-102033152D01*
X58917504Y-102080771D01*
X58965123Y-102176009D01*
X58965123Y-102414104D01*
X58917504Y-102509342D01*
X58869885Y-102556961D01*
X58774647Y-102604580D01*
X58488933Y-102604580D01*
X58393695Y-102556961D01*
X58346076Y-102509342D01*
X59536552Y-102033152D02*
X59441314Y-101985533D01*
X59393695Y-101937914D01*
X59346076Y-101842676D01*
X59346076Y-101795057D01*
X59393695Y-101699819D01*
X59441314Y-101652200D01*
X59536552Y-101604580D01*
X59727028Y-101604580D01*
X59822266Y-101652200D01*
X59869885Y-101699819D01*
X59917504Y-101795057D01*
X59917504Y-101842676D01*
X59869885Y-101937914D01*
X59822266Y-101985533D01*
X59727028Y-102033152D01*
X59536552Y-102033152D01*
X59441314Y-102080771D01*
X59393695Y-102128390D01*
X59346076Y-102223628D01*
X59346076Y-102414104D01*
X59393695Y-102509342D01*
X59441314Y-102556961D01*
X59536552Y-102604580D01*
X59727028Y-102604580D01*
X59822266Y-102556961D01*
X59869885Y-102509342D01*
X59917504Y-102414104D01*
X59917504Y-102223628D01*
X59869885Y-102128390D01*
X59822266Y-102080771D01*
X59727028Y-102033152D01*
X55753142Y-85329380D02*
X55419809Y-84853190D01*
X55181714Y-85329380D02*
X55181714Y-84329380D01*
X55562666Y-84329380D01*
X55657904Y-84377000D01*
X55705523Y-84424619D01*
X55753142Y-84519857D01*
X55753142Y-84662714D01*
X55705523Y-84757952D01*
X55657904Y-84805571D01*
X55562666Y-84853190D01*
X55181714Y-84853190D01*
X56086476Y-84329380D02*
X56705523Y-84329380D01*
X56372190Y-84710333D01*
X56515047Y-84710333D01*
X56610285Y-84757952D01*
X56657904Y-84805571D01*
X56705523Y-84900809D01*
X56705523Y-85138904D01*
X56657904Y-85234142D01*
X56610285Y-85281761D01*
X56515047Y-85329380D01*
X56229333Y-85329380D01*
X56134095Y-85281761D01*
X56086476Y-85234142D01*
X57181714Y-85329380D02*
X57372190Y-85329380D01*
X57467428Y-85281761D01*
X57515047Y-85234142D01*
X57610285Y-85091285D01*
X57657904Y-84900809D01*
X57657904Y-84519857D01*
X57610285Y-84424619D01*
X57562666Y-84377000D01*
X57467428Y-84329380D01*
X57276952Y-84329380D01*
X57181714Y-84377000D01*
X57134095Y-84424619D01*
X57086476Y-84519857D01*
X57086476Y-84757952D01*
X57134095Y-84853190D01*
X57181714Y-84900809D01*
X57276952Y-84948428D01*
X57467428Y-84948428D01*
X57562666Y-84900809D01*
X57610285Y-84853190D01*
X57657904Y-84757952D01*
X55711142Y-92409980D02*
X55377809Y-91933790D01*
X55139714Y-92409980D02*
X55139714Y-91409980D01*
X55520666Y-91409980D01*
X55615904Y-91457600D01*
X55663523Y-91505219D01*
X55711142Y-91600457D01*
X55711142Y-91743314D01*
X55663523Y-91838552D01*
X55615904Y-91886171D01*
X55520666Y-91933790D01*
X55139714Y-91933790D01*
X56568285Y-91743314D02*
X56568285Y-92409980D01*
X56330190Y-91362361D02*
X56092095Y-92076647D01*
X56711142Y-92076647D01*
X57282571Y-91409980D02*
X57377809Y-91409980D01*
X57473047Y-91457600D01*
X57520666Y-91505219D01*
X57568285Y-91600457D01*
X57615904Y-91790933D01*
X57615904Y-92029028D01*
X57568285Y-92219504D01*
X57520666Y-92314742D01*
X57473047Y-92362361D01*
X57377809Y-92409980D01*
X57282571Y-92409980D01*
X57187333Y-92362361D01*
X57139714Y-92314742D01*
X57092095Y-92219504D01*
X57044476Y-92029028D01*
X57044476Y-91790933D01*
X57092095Y-91600457D01*
X57139714Y-91505219D01*
X57187333Y-91457600D01*
X57282571Y-91409980D01*
X55462742Y-100314580D02*
X55129409Y-99838390D01*
X54891314Y-100314580D02*
X54891314Y-99314580D01*
X55272266Y-99314580D01*
X55367504Y-99362200D01*
X55415123Y-99409819D01*
X55462742Y-99505057D01*
X55462742Y-99647914D01*
X55415123Y-99743152D01*
X55367504Y-99790771D01*
X55272266Y-99838390D01*
X54891314Y-99838390D01*
X56319885Y-99647914D02*
X56319885Y-100314580D01*
X56081790Y-99266961D02*
X55843695Y-99981247D01*
X56462742Y-99981247D01*
X57367504Y-100314580D02*
X56796076Y-100314580D01*
X57081790Y-100314580D02*
X57081790Y-99314580D01*
X56986552Y-99457438D01*
X56891314Y-99552676D01*
X56796076Y-99600295D01*
X43870761Y-65139333D02*
X43918380Y-64996476D01*
X43918380Y-64758380D01*
X43870761Y-64663142D01*
X43823142Y-64615523D01*
X43727904Y-64567904D01*
X43632666Y-64567904D01*
X43537428Y-64615523D01*
X43489809Y-64663142D01*
X43442190Y-64758380D01*
X43394571Y-64948857D01*
X43346952Y-65044095D01*
X43299333Y-65091714D01*
X43204095Y-65139333D01*
X43108857Y-65139333D01*
X43013619Y-65091714D01*
X42966000Y-65044095D01*
X42918380Y-64948857D01*
X42918380Y-64710761D01*
X42966000Y-64567904D01*
X42918380Y-64234571D02*
X43918380Y-63996476D01*
X43204095Y-63806000D01*
X43918380Y-63615523D01*
X42918380Y-63377428D01*
X43918380Y-62472666D02*
X43918380Y-63044095D01*
X43918380Y-62758380D02*
X42918380Y-62758380D01*
X43061238Y-62853619D01*
X43156476Y-62948857D01*
X43204095Y-63044095D01*
X55554761Y-65139333D02*
X55602380Y-64996476D01*
X55602380Y-64758380D01*
X55554761Y-64663142D01*
X55507142Y-64615523D01*
X55411904Y-64567904D01*
X55316666Y-64567904D01*
X55221428Y-64615523D01*
X55173809Y-64663142D01*
X55126190Y-64758380D01*
X55078571Y-64948857D01*
X55030952Y-65044095D01*
X54983333Y-65091714D01*
X54888095Y-65139333D01*
X54792857Y-65139333D01*
X54697619Y-65091714D01*
X54650000Y-65044095D01*
X54602380Y-64948857D01*
X54602380Y-64710761D01*
X54650000Y-64567904D01*
X54602380Y-64234571D02*
X55602380Y-63996476D01*
X54888095Y-63806000D01*
X55602380Y-63615523D01*
X54602380Y-63377428D01*
X54697619Y-63044095D02*
X54650000Y-62996476D01*
X54602380Y-62901238D01*
X54602380Y-62663142D01*
X54650000Y-62567904D01*
X54697619Y-62520285D01*
X54792857Y-62472666D01*
X54888095Y-62472666D01*
X55030952Y-62520285D01*
X55602380Y-63091714D01*
X55602380Y-62472666D01*
X102582380Y-46371904D02*
X103391904Y-46371904D01*
X103487142Y-46324285D01*
X103534761Y-46276666D01*
X103582380Y-46181428D01*
X103582380Y-45990952D01*
X103534761Y-45895714D01*
X103487142Y-45848095D01*
X103391904Y-45800476D01*
X102582380Y-45800476D01*
X102582380Y-44848095D02*
X102582380Y-45324285D01*
X103058571Y-45371904D01*
X103010952Y-45324285D01*
X102963333Y-45229047D01*
X102963333Y-44990952D01*
X103010952Y-44895714D01*
X103058571Y-44848095D01*
X103153809Y-44800476D01*
X103391904Y-44800476D01*
X103487142Y-44848095D01*
X103534761Y-44895714D01*
X103582380Y-44990952D01*
X103582380Y-45229047D01*
X103534761Y-45324285D01*
X103487142Y-45371904D01*
X92912615Y-70141380D02*
X92912615Y-70950904D01*
X92960234Y-71046142D01*
X93007853Y-71093761D01*
X93103091Y-71141380D01*
X93293567Y-71141380D01*
X93388805Y-71093761D01*
X93436424Y-71046142D01*
X93484043Y-70950904D01*
X93484043Y-70141380D01*
X94388805Y-70141380D02*
X94198329Y-70141380D01*
X94103091Y-70189000D01*
X94055472Y-70236619D01*
X93960234Y-70379476D01*
X93912615Y-70569952D01*
X93912615Y-70950904D01*
X93960234Y-71046142D01*
X94007853Y-71093761D01*
X94103091Y-71141380D01*
X94293567Y-71141380D01*
X94388805Y-71093761D01*
X94436424Y-71046142D01*
X94484043Y-70950904D01*
X94484043Y-70712809D01*
X94436424Y-70617571D01*
X94388805Y-70569952D01*
X94293567Y-70522333D01*
X94103091Y-70522333D01*
X94007853Y-70569952D01*
X93960234Y-70617571D01*
X93912615Y-70712809D01*
X97389695Y-95939380D02*
X97389695Y-96748904D01*
X97437314Y-96844142D01*
X97484933Y-96891761D01*
X97580171Y-96939380D01*
X97770647Y-96939380D01*
X97865885Y-96891761D01*
X97913504Y-96844142D01*
X97961123Y-96748904D01*
X97961123Y-95939380D01*
X98342076Y-95939380D02*
X99008742Y-95939380D01*
X98580171Y-96939380D01*
X109138095Y-92152380D02*
X109138095Y-92961904D01*
X109185714Y-93057142D01*
X109233333Y-93104761D01*
X109328571Y-93152380D01*
X109519047Y-93152380D01*
X109614285Y-93104761D01*
X109661904Y-93057142D01*
X109709523Y-92961904D01*
X109709523Y-92152380D01*
X110328571Y-92580952D02*
X110233333Y-92533333D01*
X110185714Y-92485714D01*
X110138095Y-92390476D01*
X110138095Y-92342857D01*
X110185714Y-92247619D01*
X110233333Y-92200000D01*
X110328571Y-92152380D01*
X110519047Y-92152380D01*
X110614285Y-92200000D01*
X110661904Y-92247619D01*
X110709523Y-92342857D01*
X110709523Y-92390476D01*
X110661904Y-92485714D01*
X110614285Y-92533333D01*
X110519047Y-92580952D01*
X110328571Y-92580952D01*
X110233333Y-92628571D01*
X110185714Y-92676190D01*
X110138095Y-92771428D01*
X110138095Y-92961904D01*
X110185714Y-93057142D01*
X110233333Y-93104761D01*
X110328571Y-93152380D01*
X110519047Y-93152380D01*
X110614285Y-93104761D01*
X110661904Y-93057142D01*
X110709523Y-92961904D01*
X110709523Y-92771428D01*
X110661904Y-92676190D01*
X110614285Y-92628571D01*
X110519047Y-92580952D01*
X77978095Y-98152380D02*
X77978095Y-98961904D01*
X78025714Y-99057142D01*
X78073333Y-99104761D01*
X78168571Y-99152380D01*
X78359047Y-99152380D01*
X78454285Y-99104761D01*
X78501904Y-99057142D01*
X78549523Y-98961904D01*
X78549523Y-98152380D01*
X79073333Y-99152380D02*
X79263809Y-99152380D01*
X79359047Y-99104761D01*
X79406666Y-99057142D01*
X79501904Y-98914285D01*
X79549523Y-98723809D01*
X79549523Y-98342857D01*
X79501904Y-98247619D01*
X79454285Y-98200000D01*
X79359047Y-98152380D01*
X79168571Y-98152380D01*
X79073333Y-98200000D01*
X79025714Y-98247619D01*
X78978095Y-98342857D01*
X78978095Y-98580952D01*
X79025714Y-98676190D01*
X79073333Y-98723809D01*
X79168571Y-98771428D01*
X79359047Y-98771428D01*
X79454285Y-98723809D01*
X79501904Y-98676190D01*
X79549523Y-98580952D01*
X76866666Y-29572380D02*
X76866666Y-30286666D01*
X76819047Y-30429523D01*
X76723809Y-30524761D01*
X76580952Y-30572380D01*
X76485714Y-30572380D01*
X77771428Y-29905714D02*
X77771428Y-30572380D01*
X77533333Y-29524761D02*
X77295238Y-30239047D01*
X77914285Y-30239047D01*
X94357142Y-44027142D02*
X94309523Y-44074761D01*
X94166666Y-44122380D01*
X94071428Y-44122380D01*
X93928571Y-44074761D01*
X93833333Y-43979523D01*
X93785714Y-43884285D01*
X93738095Y-43693809D01*
X93738095Y-43550952D01*
X93785714Y-43360476D01*
X93833333Y-43265238D01*
X93928571Y-43170000D01*
X94071428Y-43122380D01*
X94166666Y-43122380D01*
X94309523Y-43170000D01*
X94357142Y-43217619D01*
X94738095Y-43217619D02*
X94785714Y-43170000D01*
X94880952Y-43122380D01*
X95119047Y-43122380D01*
X95214285Y-43170000D01*
X95261904Y-43217619D01*
X95309523Y-43312857D01*
X95309523Y-43408095D01*
X95261904Y-43550952D01*
X94690476Y-44122380D01*
X95309523Y-44122380D01*
X96261904Y-44122380D02*
X95690476Y-44122380D01*
X95976190Y-44122380D02*
X95976190Y-43122380D01*
X95880952Y-43265238D01*
X95785714Y-43360476D01*
X95690476Y-43408095D01*
X42238095Y-110252380D02*
X42238095Y-109252380D01*
X42238095Y-109728571D02*
X42809523Y-109728571D01*
X42809523Y-110252380D02*
X42809523Y-109252380D01*
X43809523Y-110252380D02*
X43238095Y-110252380D01*
X43523809Y-110252380D02*
X43523809Y-109252380D01*
X43428571Y-109395238D01*
X43333333Y-109490476D01*
X43238095Y-109538095D01*
X42238095Y-30252380D02*
X42238095Y-29252380D01*
X42238095Y-29728571D02*
X42809523Y-29728571D01*
X42809523Y-30252380D02*
X42809523Y-29252380D01*
X43238095Y-29347619D02*
X43285714Y-29300000D01*
X43380952Y-29252380D01*
X43619047Y-29252380D01*
X43714285Y-29300000D01*
X43761904Y-29347619D01*
X43809523Y-29442857D01*
X43809523Y-29538095D01*
X43761904Y-29680952D01*
X43190476Y-30252380D01*
X43809523Y-30252380D01*
X122238095Y-30252380D02*
X122238095Y-29252380D01*
X122238095Y-29728571D02*
X122809523Y-29728571D01*
X122809523Y-30252380D02*
X122809523Y-29252380D01*
X123190476Y-29252380D02*
X123809523Y-29252380D01*
X123476190Y-29633333D01*
X123619047Y-29633333D01*
X123714285Y-29680952D01*
X123761904Y-29728571D01*
X123809523Y-29823809D01*
X123809523Y-30061904D01*
X123761904Y-30157142D01*
X123714285Y-30204761D01*
X123619047Y-30252380D01*
X123333333Y-30252380D01*
X123238095Y-30204761D01*
X123190476Y-30157142D01*
X122238095Y-110252380D02*
X122238095Y-109252380D01*
X122238095Y-109728571D02*
X122809523Y-109728571D01*
X122809523Y-110252380D02*
X122809523Y-109252380D01*
X123714285Y-109585714D02*
X123714285Y-110252380D01*
X123476190Y-109204761D02*
X123238095Y-109919047D01*
X123857142Y-109919047D01*
X49496742Y-49301342D02*
X49449123Y-49348961D01*
X49306266Y-49396580D01*
X49211028Y-49396580D01*
X49068171Y-49348961D01*
X48972933Y-49253723D01*
X48925314Y-49158485D01*
X48877695Y-48968009D01*
X48877695Y-48825152D01*
X48925314Y-48634676D01*
X48972933Y-48539438D01*
X49068171Y-48444200D01*
X49211028Y-48396580D01*
X49306266Y-48396580D01*
X49449123Y-48444200D01*
X49496742Y-48491819D01*
X49877695Y-48491819D02*
X49925314Y-48444200D01*
X50020552Y-48396580D01*
X50258647Y-48396580D01*
X50353885Y-48444200D01*
X50401504Y-48491819D01*
X50449123Y-48587057D01*
X50449123Y-48682295D01*
X50401504Y-48825152D01*
X49830076Y-49396580D01*
X50449123Y-49396580D01*
X51306266Y-48729914D02*
X51306266Y-49396580D01*
X51068171Y-48348961D02*
X50830076Y-49063247D01*
X51449123Y-49063247D01*
X86527142Y-35564380D02*
X86193809Y-35088190D01*
X85955714Y-35564380D02*
X85955714Y-34564380D01*
X86336666Y-34564380D01*
X86431904Y-34612000D01*
X86479523Y-34659619D01*
X86527142Y-34754857D01*
X86527142Y-34897714D01*
X86479523Y-34992952D01*
X86431904Y-35040571D01*
X86336666Y-35088190D01*
X85955714Y-35088190D01*
X87479523Y-35564380D02*
X86908095Y-35564380D01*
X87193809Y-35564380D02*
X87193809Y-34564380D01*
X87098571Y-34707238D01*
X87003333Y-34802476D01*
X86908095Y-34850095D01*
X87860476Y-34659619D02*
X87908095Y-34612000D01*
X88003333Y-34564380D01*
X88241428Y-34564380D01*
X88336666Y-34612000D01*
X88384285Y-34659619D01*
X88431904Y-34754857D01*
X88431904Y-34850095D01*
X88384285Y-34992952D01*
X87812857Y-35564380D01*
X88431904Y-35564380D01*
X88559142Y-35564380D02*
X88225809Y-35088190D01*
X87987714Y-35564380D02*
X87987714Y-34564380D01*
X88368666Y-34564380D01*
X88463904Y-34612000D01*
X88511523Y-34659619D01*
X88559142Y-34754857D01*
X88559142Y-34897714D01*
X88511523Y-34992952D01*
X88463904Y-35040571D01*
X88368666Y-35088190D01*
X87987714Y-35088190D01*
X89511523Y-35564380D02*
X88940095Y-35564380D01*
X89225809Y-35564380D02*
X89225809Y-34564380D01*
X89130571Y-34707238D01*
X89035333Y-34802476D01*
X88940095Y-34850095D01*
X89844857Y-34564380D02*
X90463904Y-34564380D01*
X90130571Y-34945333D01*
X90273428Y-34945333D01*
X90368666Y-34992952D01*
X90416285Y-35040571D01*
X90463904Y-35135809D01*
X90463904Y-35373904D01*
X90416285Y-35469142D01*
X90368666Y-35516761D01*
X90273428Y-35564380D01*
X89987714Y-35564380D01*
X89892476Y-35516761D01*
X89844857Y-35469142D01*
X73936180Y-34247057D02*
X73459990Y-34580390D01*
X73936180Y-34818485D02*
X72936180Y-34818485D01*
X72936180Y-34437533D01*
X72983800Y-34342295D01*
X73031419Y-34294676D01*
X73126657Y-34247057D01*
X73269514Y-34247057D01*
X73364752Y-34294676D01*
X73412371Y-34342295D01*
X73459990Y-34437533D01*
X73459990Y-34818485D01*
X73936180Y-33294676D02*
X73936180Y-33866104D01*
X73936180Y-33580390D02*
X72936180Y-33580390D01*
X73079038Y-33675628D01*
X73174276Y-33770866D01*
X73221895Y-33866104D01*
X73269514Y-32437533D02*
X73936180Y-32437533D01*
X72888561Y-32675628D02*
X73602847Y-32913723D01*
X73602847Y-32294676D01*
X73936180Y-36279057D02*
X73459990Y-36612390D01*
X73936180Y-36850485D02*
X72936180Y-36850485D01*
X72936180Y-36469533D01*
X72983800Y-36374295D01*
X73031419Y-36326676D01*
X73126657Y-36279057D01*
X73269514Y-36279057D01*
X73364752Y-36326676D01*
X73412371Y-36374295D01*
X73459990Y-36469533D01*
X73459990Y-36850485D01*
X73269514Y-35421914D02*
X73936180Y-35421914D01*
X72888561Y-35660009D02*
X73602847Y-35898104D01*
X73602847Y-35279057D01*
X73031419Y-34945723D02*
X72983800Y-34898104D01*
X72936180Y-34802866D01*
X72936180Y-34564771D01*
X72983800Y-34469533D01*
X73031419Y-34421914D01*
X73126657Y-34374295D01*
X73221895Y-34374295D01*
X73364752Y-34421914D01*
X73936180Y-34993342D01*
X73936180Y-34374295D01*
M02*
