G04 #@! TF.GenerationSoftware,KiCad,Pcbnew,5.1.5+dfsg1-2build2*
G04 #@! TF.CreationDate,2021-02-20T12:55:14-05:00*
G04 #@! TF.ProjectId,eboard,65626f61-7264-42e6-9b69-6361645f7063,rev?*
G04 #@! TF.SameCoordinates,Original*
G04 #@! TF.FileFunction,Copper,L4,Bot*
G04 #@! TF.FilePolarity,Positive*
%FSLAX46Y46*%
G04 Gerber Fmt 4.6, Leading zero omitted, Abs format (unit mm)*
G04 Created by KiCad (PCBNEW 5.1.5+dfsg1-2build2) date 2021-02-20 12:55:14*
%MOMM*%
%LPD*%
G04 APERTURE LIST*
%ADD10C,0.500000*%
%ADD11C,0.100000*%
%ADD12R,1.700000X1.700000*%
%ADD13O,1.700000X1.700000*%
%ADD14C,1.450000*%
%ADD15O,1.200000X1.900000*%
%ADD16R,4.200000X1.350000*%
%ADD17C,2.000000*%
%ADD18O,1.200000X1.750000*%
%ADD19C,6.400000*%
%ADD20C,0.800000*%
%ADD21C,0.700000*%
%ADD22C,0.600000*%
%ADD23C,0.400000*%
%ADD24C,0.300000*%
%ADD25C,0.250000*%
%ADD26C,0.200000*%
G04 APERTURE END LIST*
D10*
X79206800Y-58553300D03*
X77906800Y-58553300D03*
X79206800Y-57553300D03*
X77906800Y-57553300D03*
X79206800Y-56553300D03*
X77906800Y-56553300D03*
G04 #@! TA.AperFunction,Conductor*
D11*
G36*
X79231304Y-56304504D02*
G01*
X79255573Y-56308104D01*
X79279371Y-56314065D01*
X79302471Y-56322330D01*
X79324649Y-56332820D01*
X79345693Y-56345433D01*
X79365398Y-56360047D01*
X79383577Y-56376523D01*
X79400053Y-56394702D01*
X79414667Y-56414407D01*
X79427280Y-56435451D01*
X79437770Y-56457629D01*
X79446035Y-56480729D01*
X79451996Y-56504527D01*
X79455596Y-56528796D01*
X79456800Y-56553300D01*
X79456800Y-58553300D01*
X79455596Y-58577804D01*
X79451996Y-58602073D01*
X79446035Y-58625871D01*
X79437770Y-58648971D01*
X79427280Y-58671149D01*
X79414667Y-58692193D01*
X79400053Y-58711898D01*
X79383577Y-58730077D01*
X79365398Y-58746553D01*
X79345693Y-58761167D01*
X79324649Y-58773780D01*
X79302471Y-58784270D01*
X79279371Y-58792535D01*
X79255573Y-58798496D01*
X79231304Y-58802096D01*
X79206800Y-58803300D01*
X77906800Y-58803300D01*
X77882296Y-58802096D01*
X77858027Y-58798496D01*
X77834229Y-58792535D01*
X77811129Y-58784270D01*
X77788951Y-58773780D01*
X77767907Y-58761167D01*
X77748202Y-58746553D01*
X77730023Y-58730077D01*
X77713547Y-58711898D01*
X77698933Y-58692193D01*
X77686320Y-58671149D01*
X77675830Y-58648971D01*
X77667565Y-58625871D01*
X77661604Y-58602073D01*
X77658004Y-58577804D01*
X77656800Y-58553300D01*
X77656800Y-56553300D01*
X77658004Y-56528796D01*
X77661604Y-56504527D01*
X77667565Y-56480729D01*
X77675830Y-56457629D01*
X77686320Y-56435451D01*
X77698933Y-56414407D01*
X77713547Y-56394702D01*
X77730023Y-56376523D01*
X77748202Y-56360047D01*
X77767907Y-56345433D01*
X77788951Y-56332820D01*
X77811129Y-56322330D01*
X77834229Y-56314065D01*
X77858027Y-56308104D01*
X77882296Y-56304504D01*
X77906800Y-56303300D01*
X79206800Y-56303300D01*
X79231304Y-56304504D01*
G37*
G04 #@! TD.AperFunction*
D12*
X109220000Y-33020000D03*
D13*
X111760000Y-33020000D03*
D14*
X101700000Y-34662500D03*
X96700000Y-34662500D03*
D15*
X102700000Y-31962500D03*
X95700000Y-31962500D03*
D12*
X84226400Y-39344600D03*
D13*
X86766400Y-39344600D03*
X89306400Y-39344600D03*
X88900000Y-33020000D03*
D12*
X86360000Y-33020000D03*
D10*
X94624000Y-58093800D03*
X94049000Y-57143800D03*
X95199000Y-57143800D03*
X94624000Y-56193800D03*
D16*
X41600000Y-43567000D03*
X41600000Y-49217000D03*
D13*
X99320000Y-104340000D03*
X99320000Y-106880000D03*
X99320000Y-109420000D03*
D12*
X99320000Y-111960000D03*
D13*
X112680000Y-99460000D03*
X112680000Y-102000000D03*
X112680000Y-104540000D03*
X112680000Y-107080000D03*
X112680000Y-109620000D03*
D12*
X112680000Y-112160000D03*
D13*
X46710600Y-46380400D03*
D12*
X46710600Y-43840400D03*
D13*
X44504000Y-82566000D03*
D12*
X44504000Y-85106000D03*
X44504000Y-92726000D03*
D13*
X44504000Y-90186000D03*
X44504000Y-97806000D03*
D12*
X44504000Y-100346000D03*
X44504000Y-107966000D03*
D13*
X44504000Y-105426000D03*
D12*
X86360000Y-111760000D03*
D13*
X86360000Y-109220000D03*
X86360000Y-106680000D03*
D12*
X76200000Y-111760000D03*
D13*
X76200000Y-109220000D03*
X76200000Y-106680000D03*
X81280000Y-106680000D03*
X81280000Y-109220000D03*
D12*
X81280000Y-111760000D03*
X71120000Y-111760000D03*
D13*
X71120000Y-109220000D03*
X71120000Y-106680000D03*
D12*
X44704000Y-77086000D03*
D13*
X44704000Y-74546000D03*
D17*
X45466000Y-60556000D03*
X49966000Y-60556000D03*
X45466000Y-67056000D03*
X49966000Y-67056000D03*
X61650000Y-67056000D03*
X57150000Y-67056000D03*
X61650000Y-60556000D03*
X57150000Y-60556000D03*
D10*
X100330000Y-44610000D03*
X100330000Y-45610000D03*
X100330000Y-46610000D03*
X99330000Y-44610000D03*
X99330000Y-45610000D03*
X99330000Y-46610000D03*
X98330000Y-44610000D03*
X98330000Y-45610000D03*
X98330000Y-46610000D03*
G04 #@! TA.AperFunction,Conductor*
D11*
G36*
X100354504Y-44361204D02*
G01*
X100378773Y-44364804D01*
X100402571Y-44370765D01*
X100425671Y-44379030D01*
X100447849Y-44389520D01*
X100468893Y-44402133D01*
X100488598Y-44416747D01*
X100506777Y-44433223D01*
X100523253Y-44451402D01*
X100537867Y-44471107D01*
X100550480Y-44492151D01*
X100560970Y-44514329D01*
X100569235Y-44537429D01*
X100575196Y-44561227D01*
X100578796Y-44585496D01*
X100580000Y-44610000D01*
X100580000Y-46610000D01*
X100578796Y-46634504D01*
X100575196Y-46658773D01*
X100569235Y-46682571D01*
X100560970Y-46705671D01*
X100550480Y-46727849D01*
X100537867Y-46748893D01*
X100523253Y-46768598D01*
X100506777Y-46786777D01*
X100488598Y-46803253D01*
X100468893Y-46817867D01*
X100447849Y-46830480D01*
X100425671Y-46840970D01*
X100402571Y-46849235D01*
X100378773Y-46855196D01*
X100354504Y-46858796D01*
X100330000Y-46860000D01*
X98330000Y-46860000D01*
X98305496Y-46858796D01*
X98281227Y-46855196D01*
X98257429Y-46849235D01*
X98234329Y-46840970D01*
X98212151Y-46830480D01*
X98191107Y-46817867D01*
X98171402Y-46803253D01*
X98153223Y-46786777D01*
X98136747Y-46768598D01*
X98122133Y-46748893D01*
X98109520Y-46727849D01*
X98099030Y-46705671D01*
X98090765Y-46682571D01*
X98084804Y-46658773D01*
X98081204Y-46634504D01*
X98080000Y-46610000D01*
X98080000Y-44610000D01*
X98081204Y-44585496D01*
X98084804Y-44561227D01*
X98090765Y-44537429D01*
X98099030Y-44514329D01*
X98109520Y-44492151D01*
X98122133Y-44471107D01*
X98136747Y-44451402D01*
X98153223Y-44433223D01*
X98171402Y-44416747D01*
X98191107Y-44402133D01*
X98212151Y-44389520D01*
X98234329Y-44379030D01*
X98257429Y-44370765D01*
X98281227Y-44364804D01*
X98305496Y-44361204D01*
X98330000Y-44360000D01*
X100330000Y-44360000D01*
X100354504Y-44361204D01*
G37*
G04 #@! TD.AperFunction*
G04 #@! TA.AperFunction,ComponentPad*
G36*
X76574505Y-32146204D02*
G01*
X76598773Y-32149804D01*
X76622572Y-32155765D01*
X76645671Y-32164030D01*
X76667850Y-32174520D01*
X76688893Y-32187132D01*
X76708599Y-32201747D01*
X76726777Y-32218223D01*
X76743253Y-32236401D01*
X76757868Y-32256107D01*
X76770480Y-32277150D01*
X76780970Y-32299329D01*
X76789235Y-32322428D01*
X76795196Y-32346227D01*
X76798796Y-32370495D01*
X76800000Y-32394999D01*
X76800000Y-33645001D01*
X76798796Y-33669505D01*
X76795196Y-33693773D01*
X76789235Y-33717572D01*
X76780970Y-33740671D01*
X76770480Y-33762850D01*
X76757868Y-33783893D01*
X76743253Y-33803599D01*
X76726777Y-33821777D01*
X76708599Y-33838253D01*
X76688893Y-33852868D01*
X76667850Y-33865480D01*
X76645671Y-33875970D01*
X76622572Y-33884235D01*
X76598773Y-33890196D01*
X76574505Y-33893796D01*
X76550001Y-33895000D01*
X75849999Y-33895000D01*
X75825495Y-33893796D01*
X75801227Y-33890196D01*
X75777428Y-33884235D01*
X75754329Y-33875970D01*
X75732150Y-33865480D01*
X75711107Y-33852868D01*
X75691401Y-33838253D01*
X75673223Y-33821777D01*
X75656747Y-33803599D01*
X75642132Y-33783893D01*
X75629520Y-33762850D01*
X75619030Y-33740671D01*
X75610765Y-33717572D01*
X75604804Y-33693773D01*
X75601204Y-33669505D01*
X75600000Y-33645001D01*
X75600000Y-32394999D01*
X75601204Y-32370495D01*
X75604804Y-32346227D01*
X75610765Y-32322428D01*
X75619030Y-32299329D01*
X75629520Y-32277150D01*
X75642132Y-32256107D01*
X75656747Y-32236401D01*
X75673223Y-32218223D01*
X75691401Y-32201747D01*
X75711107Y-32187132D01*
X75732150Y-32174520D01*
X75754329Y-32164030D01*
X75777428Y-32155765D01*
X75801227Y-32149804D01*
X75825495Y-32146204D01*
X75849999Y-32145000D01*
X76550001Y-32145000D01*
X76574505Y-32146204D01*
G37*
G04 #@! TD.AperFunction*
D18*
X78200000Y-33020000D03*
D19*
X43000000Y-114000000D03*
X43000000Y-34000000D03*
X123000000Y-34000000D03*
X123000000Y-114000000D03*
D12*
X49250000Y-77000000D03*
D13*
X49250000Y-74460000D03*
D20*
X58648600Y-50139600D03*
X56794400Y-50139600D03*
X54991000Y-50139600D03*
X58597800Y-48666400D03*
X55067200Y-48539400D03*
X58750200Y-46786800D03*
X56896000Y-46888400D03*
X53610457Y-41574911D03*
X48361600Y-47650400D03*
X44729400Y-41986200D03*
X46761400Y-41986200D03*
X48615600Y-41960800D03*
X48590200Y-45212000D03*
X50622200Y-45262800D03*
X52324000Y-45186600D03*
X50114200Y-43815000D03*
X46659800Y-48285400D03*
X45008800Y-47777400D03*
X42316400Y-41935400D03*
X40513000Y-41910000D03*
X40563800Y-50977800D03*
X42189400Y-50952400D03*
X44196000Y-50977800D03*
X44729400Y-49199800D03*
X44754800Y-43840400D03*
X55016400Y-46812200D03*
X72288400Y-37287200D03*
X97130000Y-36230000D03*
X84450000Y-56930000D03*
X75390000Y-52800000D03*
X100000000Y-57000000D03*
D21*
X58400000Y-103200000D03*
X61600000Y-103600000D03*
X58200000Y-96000000D03*
X61400000Y-96200000D03*
X58200000Y-88000000D03*
X61400000Y-88400000D03*
X57546537Y-81253463D03*
X61400000Y-81400000D03*
X76000000Y-101600000D03*
X58700000Y-56200000D03*
X96700000Y-39100000D03*
X110000000Y-44900000D03*
X111100000Y-44700000D03*
X109000000Y-44700000D03*
X95900000Y-99300000D03*
X107400000Y-95900000D03*
D10*
X63000000Y-47900000D03*
X61700000Y-42800000D03*
D20*
X56251418Y-40852096D03*
X56900000Y-48700000D03*
D21*
X93400000Y-42500000D03*
D20*
X55626000Y-43611800D03*
X54610000Y-41605200D03*
X52222400Y-42646600D03*
X51919700Y-47167653D03*
D21*
X53270279Y-45270624D03*
X46400000Y-57200000D03*
X59800000Y-107400000D03*
X59600000Y-100000000D03*
X59600000Y-92000000D03*
X59600000Y-85000000D03*
X56800000Y-56100000D03*
X95100000Y-47100000D03*
X100700000Y-99400000D03*
X61572578Y-43762812D03*
X64900000Y-57600000D03*
X112500000Y-95700000D03*
X96600000Y-41700000D03*
D20*
X98500000Y-51000000D03*
D21*
X93800000Y-46000000D03*
D20*
X105450000Y-48714600D03*
X92080000Y-60120000D03*
X85710000Y-48710000D03*
D21*
X99100000Y-36600000D03*
X99444982Y-41344983D03*
D10*
X70900000Y-44000000D03*
D20*
X101500000Y-95800000D03*
X81031800Y-54478200D03*
X79000000Y-61000000D03*
X82000000Y-42850001D03*
D21*
X63827298Y-49127298D03*
X48700000Y-54900000D03*
X99200000Y-97200000D03*
X70100000Y-42500000D03*
X68000000Y-40500000D03*
D20*
X95000000Y-100500000D03*
D21*
X67100000Y-38300000D03*
D20*
X94000000Y-98000000D03*
D21*
X70500001Y-66000000D03*
X112500000Y-96800000D03*
D10*
X100200000Y-101700000D03*
X68800000Y-43300000D03*
D21*
X60500000Y-52300000D03*
X56223991Y-55408455D03*
X57859195Y-53613805D03*
X53595005Y-53997503D03*
X56393253Y-77589911D03*
X55556052Y-54805232D03*
X54400000Y-54600000D03*
X55500000Y-77700000D03*
X54204986Y-79878455D03*
X52998527Y-53251680D03*
X53400000Y-80400000D03*
X52000000Y-53200000D03*
X72600000Y-53100000D03*
X102500000Y-49764600D03*
X64000000Y-55800000D03*
X103800001Y-49600001D03*
X72375010Y-50300000D03*
D20*
X73000000Y-55000000D03*
X75000000Y-50000000D03*
X74460591Y-55297832D03*
X77450000Y-51000000D03*
D21*
X70127101Y-41499604D03*
D22*
X103000000Y-45000000D03*
X72750000Y-44250000D03*
X103000000Y-46000000D03*
D21*
X84400000Y-35800000D03*
X50100000Y-53200000D03*
X57900000Y-38400000D03*
X49688694Y-52239450D03*
D23*
X41600000Y-42651800D02*
X42316400Y-41935400D01*
X41600000Y-43567000D02*
X41600000Y-42651800D01*
X41600000Y-42997000D02*
X40513000Y-41910000D01*
X41600000Y-43567000D02*
X41600000Y-42997000D01*
X41600000Y-50363000D02*
X42189400Y-50952400D01*
X41600000Y-49217000D02*
X41600000Y-50363000D01*
X41600000Y-49941600D02*
X40563800Y-50977800D01*
X41600000Y-49217000D02*
X41600000Y-49941600D01*
X44196000Y-49313000D02*
X44196000Y-50977800D01*
X44100000Y-49217000D02*
X44196000Y-49313000D01*
X41600000Y-49217000D02*
X44100000Y-49217000D01*
X41617200Y-49199800D02*
X41600000Y-49217000D01*
X44729400Y-49199800D02*
X41617200Y-49199800D01*
X44481400Y-43567000D02*
X44754800Y-43840400D01*
X41600000Y-43567000D02*
X44481400Y-43567000D01*
X42105800Y-41986200D02*
X44729400Y-41986200D01*
X41600000Y-42492000D02*
X42105800Y-41986200D01*
X41600000Y-43567000D02*
X41600000Y-42492000D01*
D24*
X99100000Y-41000001D02*
X99444982Y-41344983D01*
X99100000Y-36600000D02*
X99100000Y-41000001D01*
D25*
X70900000Y-44000000D02*
X71700000Y-44800000D01*
X71700000Y-66000000D02*
X101500000Y-95800000D01*
X71700000Y-44800000D02*
X71700000Y-66000000D01*
D23*
X81031800Y-58968200D02*
X79000000Y-61000000D01*
X81031800Y-54478200D02*
X81031800Y-58968200D01*
X85800999Y-42850001D02*
X82000000Y-42850001D01*
X89306400Y-39344600D02*
X85800999Y-42850001D01*
D25*
X49399002Y-54900000D02*
X48700000Y-54900000D01*
X50775001Y-53524001D02*
X49399002Y-54900000D01*
X50775001Y-53425997D02*
X50775001Y-53524001D01*
X52850988Y-51350010D02*
X50775001Y-53425997D01*
X61604586Y-51350010D02*
X52850988Y-51350010D01*
X63827298Y-49127298D02*
X61604586Y-51350010D01*
D24*
X69499999Y-43100001D02*
X70100000Y-42500000D01*
X69499999Y-67499999D02*
X69499999Y-43100001D01*
X99200000Y-97200000D02*
X69499999Y-67499999D01*
D23*
X100260000Y-97200000D02*
X112680000Y-109620000D01*
X99200000Y-97200000D02*
X100260000Y-97200000D01*
D24*
X68000000Y-68200000D02*
X68000000Y-40500000D01*
X95000000Y-95200000D02*
X68000000Y-68200000D01*
X95000000Y-100500000D02*
X95000000Y-95200000D01*
X67100000Y-68350000D02*
X67100000Y-38300000D01*
X94000000Y-95250000D02*
X67100000Y-68350000D01*
X94000000Y-98000000D02*
X94000000Y-95250000D01*
D25*
X102252179Y-97824999D02*
X70600000Y-66172820D01*
X108504999Y-97824999D02*
X102252179Y-97824999D01*
X112680000Y-102000000D02*
X108504999Y-97824999D01*
D23*
X110980027Y-97824999D02*
X108504999Y-97824999D01*
X112005026Y-96800000D02*
X110980027Y-97824999D01*
X112500000Y-96800000D02*
X112005026Y-96800000D01*
D24*
X68800000Y-68063998D02*
X68800000Y-43300000D01*
X99950001Y-101450001D02*
X99950001Y-99213999D01*
X100200000Y-101700000D02*
X99950001Y-101450001D01*
X99950001Y-99213999D02*
X68800000Y-68063998D01*
D25*
X84380000Y-104700000D02*
X86360000Y-106680000D01*
X75500000Y-102600000D02*
X77600000Y-104700000D01*
X75500000Y-102500000D02*
X75500000Y-102600000D01*
X59924999Y-52875001D02*
X59924999Y-56275999D01*
X60900000Y-76000000D02*
X64172820Y-76000000D01*
X58724999Y-57475999D02*
X58724999Y-59533587D01*
X59924999Y-56275999D02*
X58724999Y-57475999D01*
X59100000Y-59908588D02*
X59100000Y-61200000D01*
X59100000Y-61200000D02*
X59000000Y-61300000D01*
X59000000Y-74100000D02*
X60900000Y-76000000D01*
X77600000Y-104700000D02*
X84380000Y-104700000D01*
X58724999Y-59533587D02*
X59100000Y-59908588D01*
X64172820Y-76000000D02*
X69400000Y-81227180D01*
X59000000Y-61300000D02*
X59000000Y-74100000D01*
X60500000Y-52300000D02*
X59924999Y-52875001D01*
X69400000Y-81227180D02*
X69400000Y-96400000D01*
X69400000Y-96400000D02*
X75500000Y-102500000D01*
X55824999Y-55807447D02*
X56223991Y-55408455D01*
X76200000Y-106680000D02*
X67300000Y-97780000D01*
X67300000Y-80400000D02*
X64000000Y-77100000D01*
X57300000Y-77100000D02*
X55824999Y-75624999D01*
X64000000Y-77100000D02*
X57300000Y-77100000D01*
X67300000Y-97780000D02*
X67300000Y-80400000D01*
X55824999Y-75624999D02*
X55824999Y-55807447D01*
X57859195Y-59304193D02*
X57859195Y-53613805D01*
X58500000Y-59944998D02*
X57859195Y-59304193D01*
X68300000Y-80763590D02*
X64036410Y-76500000D01*
X60700000Y-76500000D02*
X58500000Y-74300000D01*
X64036410Y-76500000D02*
X60700000Y-76500000D01*
X81280000Y-106680000D02*
X78780000Y-106680000D01*
X78780000Y-106680000D02*
X68300000Y-96200000D01*
X58500000Y-74300000D02*
X58500000Y-59944998D01*
X68300000Y-96200000D02*
X68300000Y-80763590D01*
X53724999Y-53867509D02*
X53724999Y-77824999D01*
X53595005Y-53997503D02*
X53724999Y-53867509D01*
X53724999Y-77824999D02*
X55100000Y-79200000D01*
X55100000Y-79200000D02*
X65000000Y-79200000D01*
X65000000Y-79200000D02*
X65900000Y-80100000D01*
X65900000Y-101460000D02*
X71120000Y-106680000D01*
X65900000Y-80100000D02*
X65900000Y-101460000D01*
X55206053Y-76402711D02*
X55206053Y-55155231D01*
X55206053Y-55155231D02*
X55556052Y-54805232D01*
X56393253Y-77589911D02*
X55206053Y-76402711D01*
X54400000Y-54600000D02*
X54400000Y-76600000D01*
X54400000Y-76600000D02*
X55500000Y-77700000D01*
X52648528Y-53601679D02*
X52998527Y-53251680D01*
X52583995Y-53715009D02*
X52648528Y-53650476D01*
X52583995Y-78257464D02*
X52583995Y-53715009D01*
X54204986Y-79878455D02*
X52583995Y-78257464D01*
X52648528Y-53650476D02*
X52648528Y-53601679D01*
X53400000Y-80400000D02*
X52000000Y-79000000D01*
X52000000Y-79000000D02*
X52000000Y-53200000D01*
D26*
X93064600Y-49764600D02*
X102500000Y-49764600D01*
X73025012Y-48112986D02*
X74987998Y-46150000D01*
X89449999Y-46150000D02*
X93064600Y-49764600D01*
X74987998Y-46150000D02*
X89449999Y-46150000D01*
X73025012Y-52674988D02*
X73025012Y-48112986D01*
X72600000Y-53100000D02*
X73025012Y-52674988D01*
D25*
X61650000Y-60556000D02*
X61650000Y-58150000D01*
X61650000Y-58150000D02*
X64000000Y-55800000D01*
D26*
X92980298Y-49114599D02*
X89615688Y-45749989D01*
X72375010Y-48130026D02*
X72375010Y-50300000D01*
X74755047Y-45749989D02*
X72375010Y-48130026D01*
X89615688Y-45749989D02*
X74755047Y-45749989D01*
X103314599Y-49114599D02*
X92980298Y-49114599D01*
X103800001Y-49600001D02*
X103314599Y-49114599D01*
D23*
X73525022Y-51474978D02*
X75000000Y-50000000D01*
X73525022Y-54474978D02*
X73525022Y-51474978D01*
X73000000Y-55000000D02*
X73525022Y-54474978D01*
X77450000Y-52308423D02*
X77450000Y-51000000D01*
X74460591Y-55297832D02*
X77450000Y-52308423D01*
D26*
X100255027Y-43550001D02*
X72177498Y-43550001D01*
X72177498Y-43550001D02*
X70127101Y-41499604D01*
D25*
X101550001Y-43550001D02*
X103000000Y-45000000D01*
X100255027Y-43550001D02*
X101550001Y-43550001D01*
X101034999Y-44034999D02*
X103000000Y-46000000D01*
X73389265Y-44034999D02*
X101034999Y-44034999D01*
X73174264Y-44250000D02*
X73389265Y-44034999D01*
X72750000Y-44250000D02*
X73174264Y-44250000D01*
X61700000Y-35800000D02*
X58350010Y-39149990D01*
X58350010Y-39149990D02*
X58350010Y-46113988D01*
X57671801Y-46792197D02*
X57671801Y-50335201D01*
X57671801Y-50335201D02*
X57107002Y-50900000D01*
X52400000Y-50900000D02*
X50100000Y-53200000D01*
X58350010Y-46113988D02*
X57671801Y-46792197D01*
X84400000Y-35800000D02*
X61700000Y-35800000D01*
X57107002Y-50900000D02*
X52400000Y-50900000D01*
X55339001Y-49414599D02*
X52513545Y-49414599D01*
X55792201Y-46919197D02*
X55792201Y-48961399D01*
X52513545Y-49414599D02*
X49688694Y-52239450D01*
X55792201Y-48961399D02*
X55339001Y-49414599D01*
X57899999Y-44811399D02*
X55792201Y-46919197D01*
X57900000Y-38400000D02*
X57899999Y-44811399D01*
M02*
